<?xml version="1.0" encoding="UTF-8"?> <!-- Generator: Adobe Illustrator 24.1.1, SVG Export Plug-In . SVG Version: 6.00 Build 0) --> <svg xmlns="http://www.w3.org/2000/svg" xmlns:xlink="http://www.w3.org/1999/xlink" id="Layer_1" x="0px" y="0px" viewBox="0 0 400 245" style="enable-background:new 0 0 400 245;" xml:space="preserve"> <style type="text/css"> .st0{fill:#00ADD4;} .st1{fill:#302D2D;} </style> <g> <path class="st0" d="M295.6,158.4L204.5,2.6c-2-3.5-7.1-3.5-9.1,0L117.9,135c-1.4,2.3,1.1,5,3.5,3.9c1-0.5,2.2-0.9,3.4-1.4l0,0.1 c0,0,2.1-0.8,5.7-2c3.9-1.2,8.3-2.4,12.2-3.3c10.9-2.5,25.3-4.6,38.2-2.4c11.9,2,20.2,5.2,26.2,8.3c2.8,1.4,5.4-2.2,3.1-4.3 c-8.7-8.4-22-18.6-42.2-22.8c-0.9-0.2-1.3-1.2-0.9-2l30.5-52.1c1-1.7,3.5-1.7,4.5,0l58.2,99.6c1.2,2.1,0.2,4.8-2.1,5.5 c-4.6,1.5-10,2.7-16.1,2.7c-3.9,0-7.8-0.5-11.7-1.4c0,0-11.3-1.8-26.4-10.8c-15.1-9-44.2-20.5-76.8-1.9 c-13.9,8.9-23.2,21.2-28.1,28.8c-0.8,1.2,0.6,2.6,1.8,2c11.2-6,41.4-20.1,68.7-15.1c16.2,3,34.7,15.2,53.9,22.3l0,0 c31.8,11.8,63-8,63.1-8c3.3-2.2,5.2-3.8,5.6-4.1l0.4-0.3C297.8,171.7,299,164.3,295.6,158.4z"></path> <g> <path class="st1" d="M42.5,243.8v-34.1c0-0.3,0.1-0.6,0.3-0.8c0.2-0.2,0.5-0.3,0.8-0.3h13.6c5.2,0,9.5,1.5,12.8,4.6 c1.8,1.7,3.2,3.6,4.1,5.9c0.9,2.3,1.4,4.9,1.4,7.7c0,2.9-0.5,5.4-1.4,7.8c-0.9,2.3-2.3,4.3-4.1,6c-1.7,1.5-3.6,2.6-5.7,3.4 c-2.1,0.8-4.5,1.1-7.1,1.1H43.7c-0.3,0-0.6-0.1-0.8-0.3C42.6,244.4,42.5,244.1,42.5,243.8z M53.6,235.8h3.7c0.9,0,1.9-0.1,2.9-0.3 c1-0.2,1.9-0.7,2.7-1.3c0.8-0.6,1.5-1.6,2-2.7c0.5-1.2,0.8-2.7,0.8-4.6c0-1.9-0.3-3.4-0.8-4.6c-0.5-1.2-1.2-2.1-2-2.7 c-0.8-0.6-1.7-1.1-2.7-1.3c-1-0.2-1.9-0.3-2.9-0.3h-3.7c-0.3,0-0.6,0.1-0.8,0.3c-0.2,0.2-0.3,0.5-0.3,0.8v15.7 c0,0.3,0.1,0.6,0.3,0.8C53,235.7,53.3,235.8,53.6,235.8z"></path> <path class="st1" d="M89.9,218.8v2.1c0,0.3,0.1,0.6,0.3,0.8c0.2,0.2,0.5,0.3,0.8,0.3h13.5c0.3,0,0.6,0.1,0.8,0.3 c0.2,0.2,0.3,0.5,0.3,0.8v6.9c0,0.3-0.1,0.6-0.3,0.8c-0.2,0.2-0.5,0.3-0.8,0.3H91.1c-0.3,0-0.6,0.1-0.8,0.3s-0.3,0.5-0.3,0.8v1.9 c0,0.3,0.1,0.6,0.3,0.8c0.2,0.2,0.5,0.3,0.8,0.3h15.5c0.3,0,0.6,0.1,0.8,0.3c0.2,0.2,0.4,0.5,0.4,0.8v6.9c0,0.3-0.1,0.6-0.4,0.8 c-0.2,0.2-0.5,0.3-0.8,0.3H81.2c-0.3,0-0.6-0.1-0.8-0.3c-0.2-0.2-0.3-0.5-0.3-0.8v-34.1c0-0.3,0.1-0.6,0.3-0.8 c0.2-0.2,0.5-0.3,0.8-0.3h25.4c0.3,0,0.6,0.1,0.8,0.3c0.2,0.2,0.4,0.5,0.4,0.8v6.8c0,0.3-0.1,0.6-0.4,0.8 c-0.2,0.2-0.5,0.3-0.8,0.3H91.1c-0.3,0-0.6,0.1-0.8,0.3C90,218.2,89.9,218.5,89.9,218.8z"></path> <path class="st1" d="M141.4,237v6.8c0,0.3-0.1,0.6-0.3,0.8c-0.2,0.2-0.5,0.3-0.8,0.3h-24.9c-0.4,0-0.7-0.1-0.9-0.3 c-0.2-0.2-0.3-0.5-0.3-0.8v-34.1c0-0.3,0.1-0.6,0.3-0.8c0.2-0.2,0.5-0.3,0.9-0.3h7.5c0.3,0,0.6,0.1,0.8,0.3 c0.2,0.2,0.4,0.5,0.4,0.8v25c0,0.3,0.1,0.6,0.3,0.8c0.2,0.2,0.5,0.3,0.9,0.3h15c0.3,0,0.6,0.1,0.8,0.3 C141.3,236.4,141.4,236.7,141.4,237z"></path> <path class="st1" d="M164.6,217.6h-7c-0.3,0-0.6,0.1-0.8,0.3c-0.2,0.2-0.3,0.5-0.3,0.8v25c0,0.3-0.1,0.6-0.3,0.8 c-0.2,0.2-0.5,0.3-0.9,0.3h-7.5c-0.3,0-0.6-0.1-0.8-0.3c-0.2-0.2-0.4-0.5-0.4-0.8v-25c0-0.3-0.1-0.6-0.3-0.8 c-0.2-0.2-0.5-0.3-0.9-0.3h-7.1c-0.3,0-0.6-0.1-0.8-0.3c-0.2-0.2-0.4-0.5-0.4-0.8v-6.8c0-0.3,0.1-0.6,0.4-0.8 c0.2-0.2,0.5-0.3,0.8-0.3h26.4c0.4,0,0.7,0.1,0.9,0.3c0.2,0.2,0.3,0.5,0.3,0.8v6.8c0,0.3-0.1,0.6-0.3,0.8 C165.3,217.5,165,217.6,164.6,217.6z"></path> <path class="st1" d="M176.6,209.6c0.1-0.3,0.4-0.6,0.7-0.8c0.3-0.2,0.7-0.3,1-0.3h7c0.3,0,0.7,0.1,1,0.3c0.3,0.2,0.5,0.5,0.7,0.8 l14.6,33.9c0.1,0.3,0.1,0.6-0.1,0.9c-0.2,0.3-0.5,0.5-1.1,0.5h-8.5c-0.4,0-0.7-0.1-1-0.3c-0.3-0.2-0.6-0.5-0.7-0.8l-1.3-3 c-0.2-0.3-0.4-0.6-0.7-0.8c-0.3-0.2-0.6-0.3-1-0.3h-10.5c-0.4,0-0.7,0.1-1,0.3c-0.3,0.2-0.5,0.5-0.7,0.8l-1.4,3 c-0.1,0.3-0.4,0.6-0.7,0.8c-0.3,0.2-0.6,0.3-1,0.3h-8.6c-0.2,0-0.3,0-0.5-0.1c-0.2-0.1-0.3-0.2-0.4-0.3c-0.1-0.1-0.2-0.3-0.2-0.5 c0-0.2,0-0.4,0.1-0.7L176.6,209.6z M179.5,231.3h4.4c0.3,0,0.6-0.1,0.7-0.3c0.1-0.2,0.1-0.5,0-0.8c-0.3-0.8-0.7-1.8-1.2-2.9 c-0.5-1.1-0.9-2.2-1.3-3.1c-0.1-0.3-0.3-0.4-0.4-0.4c-0.2,0-0.3,0.1-0.4,0.4l-2.5,6c-0.1,0.3-0.1,0.6,0,0.8 C178.9,231.2,179.1,231.3,179.5,231.3z"></path> <path class="st1" d="M249.3,237v6.8c0,0.3-0.1,0.6-0.4,0.8c-0.2,0.2-0.5,0.3-0.8,0.3h-24.9c-0.4,0-0.7-0.1-0.9-0.3 c-0.2-0.2-0.3-0.5-0.3-0.8v-34.1c0-0.3,0.1-0.6,0.3-0.8c0.2-0.2,0.5-0.3,0.9-0.3h7.5c0.3,0,0.6,0.1,0.8,0.3 c0.2,0.2,0.3,0.5,0.3,0.8v25c0,0.3,0.1,0.6,0.3,0.8c0.2,0.2,0.5,0.3,0.9,0.3h15c0.3,0,0.6,0.1,0.8,0.3 C249.2,236.4,249.3,236.7,249.3,237z"></path> <path class="st1" d="M264.7,209.6c0.1-0.3,0.4-0.6,0.7-0.8c0.3-0.2,0.7-0.3,1-0.3h7c0.3,0,0.7,0.1,1,0.3c0.3,0.2,0.5,0.5,0.7,0.8 l14.6,33.9c0.1,0.3,0.1,0.6-0.1,0.9c-0.2,0.3-0.5,0.5-1.1,0.5h-8.5c-0.4,0-0.7-0.1-1-0.3c-0.3-0.2-0.6-0.5-0.7-0.8l-1.3-3 c-0.2-0.3-0.4-0.6-0.7-0.8c-0.3-0.2-0.6-0.3-1-0.3h-10.5c-0.4,0-0.7,0.1-1,0.3c-0.3,0.2-0.5,0.5-0.7,0.8l-1.4,3 c-0.1,0.3-0.4,0.6-0.7,0.8c-0.3,0.2-0.6,0.3-1,0.3h-8.6c-0.2,0-0.3,0-0.5-0.1c-0.2-0.1-0.3-0.2-0.4-0.3c-0.1-0.1-0.2-0.3-0.2-0.5 c0-0.2,0-0.4,0.1-0.7L264.7,209.6z M267.6,231.3h4.4c0.3,0,0.6-0.1,0.7-0.3c0.1-0.2,0.1-0.5,0-0.8c-0.3-0.8-0.7-1.8-1.2-2.9 c-0.5-1.1-0.9-2.2-1.3-3.1c-0.1-0.3-0.3-0.4-0.4-0.4c-0.2,0-0.3,0.1-0.4,0.4l-2.5,6c-0.1,0.3-0.1,0.6,0,0.8 C267,231.2,267.2,231.3,267.6,231.3z"></path> <path class="st1" d="M313.6,244.1l-9.7-10.8c-0.2-0.3-0.4-0.4-0.6-0.3c-0.2,0.1-0.2,0.3-0.2,0.6v10.2c0,0.3-0.1,0.6-0.3,0.8 c-0.2,0.2-0.5,0.3-0.8,0.3h-7.5c-0.4,0-0.7-0.1-0.9-0.3c-0.2-0.2-0.3-0.5-0.3-0.8v-34.1c0-0.3,0.1-0.6,0.3-0.8 c0.2-0.2,0.5-0.3,0.9-0.3h7.5c0.3,0,0.6,0.1,0.8,0.3c0.2,0.2,0.3,0.5,0.3,0.8v11.5c0,0.3,0.1,0.5,0.2,0.6c0.1,0,0.3-0.1,0.5-0.3 l9-11.9c0.2-0.3,0.5-0.5,0.8-0.7c0.4-0.2,0.7-0.3,1.1-0.3h9.5c0.4,0,0.6,0.2,0.7,0.5c0.1,0.3,0,0.6-0.1,0.9l-13.1,16.4 c-0.2,0.3-0.3,0.6-0.3,0.9c0,0.3,0.1,0.6,0.4,0.9c1.1,1.2,2.3,2.5,3.6,3.8c1.3,1.3,2.5,2.7,3.8,4c1.2,1.3,2.5,2.7,3.7,4 c1.2,1.3,2.4,2.5,3.5,3.7c0.2,0.3,0.3,0.6,0.2,0.9c-0.1,0.3-0.3,0.5-0.6,0.5h-10.3c-0.4,0-0.7-0.1-1.1-0.2 C314.1,244.6,313.8,244.4,313.6,244.1z"></path> <path class="st1" d="M339.6,218.8v2.1c0,0.3,0.1,0.6,0.4,0.8c0.2,0.2,0.5,0.3,0.8,0.3h13.5c0.3,0,0.6,0.1,0.8,0.3 c0.2,0.2,0.3,0.5,0.3,0.8v6.9c0,0.3-0.1,0.6-0.3,0.8c-0.2,0.2-0.5,0.3-0.8,0.3h-13.5c-0.3,0-0.6,0.1-0.8,0.3 c-0.2,0.2-0.4,0.5-0.4,0.8v1.9c0,0.3,0.1,0.6,0.4,0.8c0.2,0.2,0.5,0.3,0.8,0.3h15.5c0.3,0,0.6,0.1,0.8,0.3 c0.2,0.2,0.3,0.5,0.3,0.8v6.9c0,0.3-0.1,0.6-0.3,0.8c-0.2,0.2-0.5,0.3-0.8,0.3h-25.4c-0.3,0-0.6-0.1-0.8-0.3 c-0.2-0.2-0.4-0.5-0.4-0.8v-34.1c0-0.3,0.1-0.6,0.4-0.8c0.2-0.2,0.5-0.3,0.8-0.3h25.4c0.3,0,0.6,0.1,0.8,0.3 c0.2,0.2,0.3,0.5,0.3,0.8v6.8c0,0.3-0.1,0.6-0.3,0.8c-0.2,0.2-0.5,0.3-0.8,0.3h-15.5c-0.3,0-0.6,0.1-0.8,0.3 C339.7,218.2,339.6,218.5,339.6,218.8z"></path> </g> </g> </svg> 