<?xml version="1.0" encoding="UTF-8"?> <!-- Generator: Adobe Illustrator 24.1.1, SVG Export Plug-In . SVG Version: 6.00 Build 0) --> <svg xmlns="http://www.w3.org/2000/svg" xmlns:xlink="http://www.w3.org/1999/xlink" version="1.1" id="Layer_1" x="0px" y="0px" viewBox="0 0 1000 153.3" style="enable-background:new 0 0 1000 153.3;" xml:space="preserve"> <style type="text/css"> .st0{fill:#4FB3D8;} .st1{fill:#70706F;} .st2{fill:url(#SVGID_1_);} .st3{fill:#AAD3E8;} .st4{fill:url(#SVGID_2_);} .st5{fill:#D3E6F2;} </style> <g> <g> <path class="st0" d="M247.8,50.3c0-15.6,8.9-24.4,22.1-24.4c13.1,0,22.1,8.8,22.1,24.4c0,15.6-8.9,24.8-22.1,24.8 C256.7,75.2,247.8,66,247.8,50.3z M279.1,50.3c0-8.6-3.5-13.6-9.2-13.6s-9.2,5-9.2,13.6c0,8.6,3.5,14,9.2,14 S279.1,58.9,279.1,50.3z"></path> <path class="st0" d="M298.9,26.8h17.4c10.4,0,19.3,3.8,19.3,15.8c0,11.6-9.1,16.6-19,16.6h-5.1v15h-12.6V26.8z M316,49.3 c5,0,7.3-2.5,7.3-6.7s-2.8-5.8-7.6-5.8h-4.2v12.6H316z"></path> <path class="st0" d="M341.9,26.8h30.7v10.5h-18.1v7.4h15.5v10.5h-15.5v8.5h18.8v10.5h-31.4V26.8z"></path> <path class="st0" d="M381,26.8h12.9L404.4,48l4.5,10.7h0.3c-0.6-5.1-1.6-12.3-1.6-18.1V26.8h12v47.5h-12.9L396.2,53l-4.5-10.6 h-0.3c0.6,5.4,1.6,12.3,1.6,18.1v13.7h-12V26.8z"></path> <path class="st0" d="M447.6,26.8H461l7.2,19.4c0.9,2.6,1.6,5.5,2.5,8.3h0.3c0.9-2.8,1.6-5.7,2.5-8.3l6.9-19.4h13.4v47.5h-11.4v-14 c0-4.8,1-12.2,1.6-16.9h-0.3l-3.9,11.4l-5.8,15.7h-6.7l-5.8-15.7l-3.8-11.4h-0.3c0.6,4.7,1.6,12.1,1.6,16.9v14h-11.2V26.8z"></path> <path class="st0" d="M512.8,26.8h15.2l14.5,47.5h-13.3l-5.4-23.1c-1.2-4.5-2.3-10.3-3.5-15h-0.3c-1,4.8-2.2,10.5-3.4,15l-5.4,23.1 h-12.9L512.8,26.8z M508.7,54.5h23.2v9.7h-23.2V54.5z"></path> <path class="st0" d="M546.2,26.8h12.9L569.6,48l4.5,10.7h0.3c-0.6-5.1-1.6-12.3-1.6-18.1V26.8h12v47.5h-12.9L561.4,53l-4.5-10.6 h-0.3c0.6,5.4,1.6,12.3,1.6,18.1v13.7h-12V26.8z"></path> <path class="st0" d="M593.5,51.4V26.8h12.6v26c0,8.5,2.2,11.5,7.2,11.5c5,0,7.3-3.1,7.3-11.5v-26h12.1v24.5 c0,16.2-6.1,23.8-19.4,23.8C599.9,75.2,593.5,67.6,593.5,51.4z"></path> <path class="st0" d="M641.4,26.8h31v10.5H654v9.1h15.8v10.5H654v17.4h-12.6V26.8z"></path> <path class="st0" d="M689,26.8h15.2l14.5,47.5h-13.3L700,51.2c-1.2-4.5-2.3-10.3-3.5-15h-0.3c-1,4.8-2.2,10.5-3.4,15l-5.4,23.1 h-12.9L689,26.8z M685,54.5h23.2v9.7H685V54.5z"></path> <path class="st0" d="M719.7,50.9c0-15.9,11-25,22.9-25c6.3,0,11.4,2.9,14.8,6.3l-6.6,8c-2.3-2-4.7-3.5-7.9-3.5 c-5.5,0-10.4,5.1-10.4,13.7c0,8.9,4.1,13.9,10.2,13.9c3.7,0,6.6-1.9,8.6-4.1l6.6,7.9c-4,4.7-9.5,7-15.6,7 C730.2,75.2,719.7,67.1,719.7,50.9z"></path> <path class="st0" d="M772.9,37.3h-12.6V26.8H798v10.5h-12.6v37h-12.6V37.3z"></path> <path class="st0" d="M803.3,51.4V26.8h12.6v26c0,8.5,2.2,11.5,7.2,11.5c5,0,7.3-3.1,7.3-11.5v-26h12.1v24.5 c0,16.2-6.1,23.8-19.4,23.8C809.7,75.2,803.3,67.6,803.3,51.4z"></path> <path class="st0" d="M849.7,26.8h18c10.2,0,19,3.5,19,15.3c0,11.5-8.8,16.2-19,16.2h-5.4v15.9h-12.6V26.8z M866.8,48.4 c5,0,7.6-2.2,7.6-6.3c0-4.1-2.6-5.4-7.6-5.4h-4.5v11.7H866.8z M865.4,55.1l8.5-8.3l15.4,27.5h-14L865.4,55.1z"></path> <path class="st0" d="M894.3,26.8h12.6v47.5h-12.6V26.8z"></path> <path class="st0" d="M915.9,26.8h12.9L939.2,48l4.5,10.7h0.3c-0.6-5.1-1.6-12.3-1.6-18.1V26.8h12v47.5h-12.9L931.1,53l-4.5-10.6 h-0.3c0.6,5.4,1.6,12.3,1.6,18.1v13.7h-12V26.8z"></path> <path class="st0" d="M960,50.9c0-15.9,11-25,23.7-25c7,0,12.1,2.9,15.5,6.3l-6.6,8c-2.3-2-4.7-3.5-8.5-3.5 c-6.4,0-11.2,5.1-11.2,13.7c0,8.9,3.9,13.9,12.4,13.9c1.3,0,2.8-0.3,3.7-0.9v-6.6h-7V46.7h18.1v22.6c-3.4,3.2-9.3,5.8-16.1,5.8 C970.6,75.2,960,67.1,960,50.9z"></path> </g> <g> <path class="st1" d="M254.1,96.7h8.9c6.3,0,11,2.2,11,8.8c0,6.3-4.7,9.2-10.8,9.2h-4.1v10.4h-5V96.7z M262.8,110.6 c4.2,0,6.3-1.7,6.3-5.2c0-3.5-2.2-4.7-6.4-4.7h-3.5v9.9H262.8z"></path> <path class="st1" d="M291.1,96.7h5v24.2h11.8v4.2h-16.8V96.7z"></path> <path class="st1" d="M330.1,96.7h5.9l9.3,28.4h-5.3l-4.3-15.1c-0.9-3-1.7-6.2-2.6-9.4h-0.2c-0.8,3.1-1.6,6.4-2.5,9.4l-4.4,15.1 h-5.1L330.1,96.7z M326.3,113.5h13.4v4h-13.4V113.5z"></path> <path class="st1" d="M366.6,100.9h-8.2v-4.2h21.4v4.2h-8.2v24.2h-5V100.9z"></path> <path class="st1" d="M398.1,96.7h17.2v4.2h-12.1v8.1h10.3v4.2h-10.3v11.9h-5V96.7z"></path> <path class="st1" d="M430,110.8c0-9.2,5.1-14.6,12.5-14.6c7.4,0,12.5,5.4,12.5,14.6c0,9.2-5.1,14.8-12.5,14.8 C435.1,125.6,430,120,430,110.8z M449.9,110.8c0-6.4-2.9-10.2-7.3-10.2c-4.5,0-7.3,3.9-7.3,10.2c0,6.4,2.9,10.5,7.3,10.5 C447,121.2,449.9,117.2,449.9,110.8z"></path> <path class="st1" d="M472.5,96.7h9.6c5.9,0,10.5,2.1,10.5,8.4c0,6.1-4.5,8.9-10.5,8.9h-4.5v11.1h-5V96.7z M481.5,110 c3.9,0,6-1.6,6-4.8c0-3.3-2.1-4.4-6-4.4h-4v9.2H481.5z M481.1,112.7l3.6-3l8.9,15.4h-5.7L481.1,112.7z"></path> <path class="st1" d="M509.9,96.7h5.7l5,13.9c0.6,1.8,1.2,3.7,1.8,5.6h0.2c0.6-1.9,1.2-3.8,1.8-5.6l4.9-13.9h5.7v28.4h-4.6v-13 c0-2.6,0.4-6.4,0.6-9h-0.2l-2.3,6.6l-4.7,12.8h-3l-4.7-12.8l-2.3-6.6h-0.2c0.2,2.6,0.6,6.4,0.6,9v13h-4.5V96.7z"></path> </g> <g> <linearGradient id="SVGID_1_" gradientUnits="userSpaceOnUse" x1="148.9129" y1="93.7144" x2="202.5553" y2="25.0388"> <stop offset="0" style="stop-color:#4FB3D8"></stop> <stop offset="0.1906" style="stop-color:#6BBADC"></stop> <stop offset="0.5263" style="stop-color:#8EC7E2"></stop> <stop offset="0.8081" style="stop-color:#A3D0E6"></stop> <stop offset="1" style="stop-color:#AAD3E8"></stop> </linearGradient> <polygon class="st2" points="147.5,51.1 118,102.2 177,102.2 206.5,51.1 "></polygon> <polygon class="st3" points="29.5,153.3 0,102.1 59,102.1 88.5,153.3 "></polygon> <linearGradient id="SVGID_2_" gradientUnits="userSpaceOnUse" x1="1240.5879" y1="-2289.5725" x2="1221.6241" y2="-2341.6855" gradientTransform="matrix(0.866 -0.5001 0.5001 0.866 136.0399 2697.5042)"> <stop offset="0" style="stop-color:#4FB3D8"></stop> <stop offset="0.1906" style="stop-color:#6BBADC"></stop> <stop offset="0.5263" style="stop-color:#8EC7E2"></stop> <stop offset="0.8081" style="stop-color:#A3D0E6"></stop> <stop offset="1" style="stop-color:#AAD3E8"></stop> </linearGradient> <polygon class="st4" points="59,102.1 0,102.1 29.4,51 88.5,51 "></polygon> <polygon class="st3" points="177,0 118,0 147.5,51.1 206.5,51.1 "></polygon> <path class="st5" d="M88.5,153.3l59-102.2L118,0L59,102.1L88.5,153.3z"></path> </g> </g> </svg> 