<svg xmlns="http://www.w3.org/2000/svg" role="img" xmlns:xlink="http://www.w3.org/1999/xlink" viewBox="-3.65 -2.65 384.54 121.29"><title>Acumos logo</title><defs><linearGradient id="linear-gradient" x1="-.752" x2="128.781" y1="53.242" y2="101.174" gradientTransform="matrix(1 0 0 -1 0 113.235)" gradientUnits="userSpaceOnUse"><stop offset="0" stop-color="#65318f"/><stop offset=".162" stop-color="#643491"/><stop offset=".334" stop-color="#613e95"/><stop offset=".512" stop-color="#5c4b9d"/><stop offset=".692" stop-color="#535da8"/><stop offset=".814" stop-color="#4969b1"/></linearGradient><linearGradient id="linear-gradient-2" x1="4.562" x2="134.095" y1="38.881" y2="86.813" xlink:href="#linear-gradient"/><linearGradient id="linear-gradient-3" x1="6.392" x2="135.926" y1="33.934" y2="81.865" xlink:href="#linear-gradient"/><linearGradient id="linear-gradient-4" x1="8.918" x2="138.452" y1="27.108" y2="75.039" xlink:href="#linear-gradient"/><linearGradient id="linear-gradient-5" x1="13.467" x2="143" y1="14.815" y2="62.746" xlink:href="#linear-gradient"/><linearGradient id="linear-gradient-6" x1="-8.361" x2="121.172" y1="73.805" y2="121.736" xlink:href="#linear-gradient"/><linearGradient id="linear-gradient-7" x1="17.326" x2="146.86" y1="4.385" y2="52.316" xlink:href="#linear-gradient"/><linearGradient id="linear-gradient-8" x1="-.221" x2="129.312" y1="51.807" y2="99.738" xlink:href="#linear-gradient"/><linearGradient id="linear-gradient-9" x1="-9.77" x2="119.763" y1="77.613" y2="125.545" xlink:href="#linear-gradient"/><linearGradient id="linear-gradient-10" x1=".329" x2="129.863" y1="50.319" y2="98.25" xlink:href="#linear-gradient"/><linearGradient id="linear-gradient-11" x1="-10.164" x2="119.37" y1="78.677" y2="126.608" xlink:href="#linear-gradient"/><linearGradient id="linear-gradient-12" x1="11.891" x2="141.424" y1="19.074" y2="67.005" xlink:href="#linear-gradient"/><linearGradient id="linear-gradient-13" x1="-4.22" x2="125.314" y1="62.612" y2="110.544" xlink:href="#linear-gradient"/><linearGradient id="linear-gradient-14" x1="-5.912" x2="123.622" y1="67.185" y2="115.116" xlink:href="#linear-gradient"/><linearGradient id="linear-gradient-15" x1="19.934" x2="149.467" y1="-2.662" y2="45.27" xlink:href="#linear-gradient"/><linearGradient id="linear-gradient-16" x1="7.276" x2="136.809" y1="31.546" y2="79.477" xlink:href="#linear-gradient"/><linearGradient id="linear-gradient-17" x1="22.168" x2="151.701" y1="-8.699" y2="39.232" xlink:href="#linear-gradient"/><linearGradient id="linear-gradient-18" x1="23.197" x2="152.73" y1="-11.48" y2="36.452" xlink:href="#linear-gradient"/><linearGradient id="linear-gradient-19" x1=".481" x2="130.014" y1="49.909" y2="97.841" xlink:href="#linear-gradient"/><linearGradient id="linear-gradient-20" x1="24.917" x2="154.451" y1="-16.129" y2="31.803" xlink:href="#linear-gradient"/><linearGradient id="linear-gradient-21" x1="20.357" x2="149.89" y1="-3.805" y2="44.126" xlink:href="#linear-gradient"/><linearGradient id="linear-gradient-22" x1="19.802" x2="149.336" y1="-2.306" y2="45.625" xlink:href="#linear-gradient"/><linearGradient id="linear-gradient-23" x1="6.979" x2="136.512" y1="32.35" y2="80.281" xlink:href="#linear-gradient"/><linearGradient id="linear-gradient-24" x1="13.148" x2="142.681" y1="15.677" y2="63.609" xlink:href="#linear-gradient"/><linearGradient id="linear-gradient-25" x1="26.095" x2="155.629" y1="-19.313" y2="28.619" xlink:href="#linear-gradient"/><linearGradient id="linear-gradient-26" x1="7.795" x2="137.328" y1="30.144" y2="78.076" xlink:href="#linear-gradient"/><linearGradient id="linear-gradient-27" x1="16.204" x2="145.738" y1="7.417" y2="55.349" xlink:href="#linear-gradient"/><linearGradient id="linear-gradient-28" x1="13.419" x2="142.952" y1="14.945" y2="62.876" xlink:href="#linear-gradient"/><linearGradient id="linear-gradient-29" x1="19.113" x2="148.647" y1="-.444" y2="47.487" xlink:href="#linear-gradient"/><linearGradient id="linear-gradient-30" x1="19.505" x2="149.038" y1="-1.502" y2="46.429" xlink:href="#linear-gradient"/><linearGradient id="linear-gradient-31" x1="18.506" x2="148.039" y1="1.198" y2="49.129" xlink:href="#linear-gradient"/><linearGradient id="linear-gradient-32" x1="5.848" x2="135.381" y1="35.405" y2="83.337" xlink:href="#linear-gradient"/><linearGradient id="linear-gradient-33" x1=".271" x2="129.805" y1="50.476" y2="98.408" xlink:href="#linear-gradient"/><linearGradient id="linear-gradient-34" x1="15.271" x2="144.804" y1="9.94" y2="57.871" xlink:href="#linear-gradient"/><linearGradient id="linear-gradient-35" x1="-2.186" x2="127.347" y1="57.118" y2="105.049" xlink:href="#linear-gradient"/><linearGradient id="linear-gradient-36" x1="-.683" x2="128.85" y1="53.056" y2="100.987" xlink:href="#linear-gradient"/><linearGradient id="linear-gradient-37" x1="13.866" x2="143.382" y1="13.735" y2="61.66" xlink:href="#linear-gradient"/><linearGradient id="linear-gradient-38" x1="15.135" x2="144.669" y1="10.306" y2="58.238" xlink:href="#linear-gradient"/><linearGradient id="linear-gradient-39" x1="3.995" x2="133.528" y1="40.413" y2="88.344" xlink:href="#linear-gradient"/><linearGradient id="linear-gradient-40" x1="26.364" x2="155.898" y1="-20.041" y2="27.891" xlink:href="#linear-gradient"/><linearGradient id="linear-gradient-41" x1="18.598" x2="148.131" y1=".949" y2="48.88" xlink:href="#linear-gradient"/><linearGradient id="linear-gradient-42" x1="26.328" x2="155.862" y1="-19.942" y2="27.989" xlink:href="#linear-gradient"/><linearGradient id="linear-gradient-43" x1="16.137" x2="145.671" y1="7.598" y2="55.53" xlink:href="#linear-gradient"/><linearGradient id="linear-gradient-44" x1="2.55" x2="132.084" y1="44.318" y2="92.249" xlink:href="#linear-gradient"/><linearGradient id="linear-gradient-45" x1="9.111" x2="138.645" y1="26.586" y2="74.518" xlink:href="#linear-gradient"/><linearGradient id="linear-gradient-46" x1="1.115" x2="130.648" y1="48.197" y2="96.128" xlink:href="#linear-gradient"/><linearGradient id="linear-gradient-47" x1="24.627" x2="154.161" y1="-15.345" y2="32.586" xlink:href="#linear-gradient"/><linearGradient id="linear-gradient-48" x1="20.019" x2="149.553" y1="-2.892" y2="45.039" xlink:href="#linear-gradient"/><linearGradient id="linear-gradient-49" x1="-3.115" x2="126.418" y1="59.628" y2="107.559" xlink:href="#linear-gradient"/><linearGradient id="linear-gradient-50" x1="22.583" x2="152.116" y1="-9.821" y2="38.11" xlink:href="#linear-gradient"/><linearGradient id="linear-gradient-51" x1="-5.028" x2="124.506" y1="64.796" y2="112.728" xlink:href="#linear-gradient"/><linearGradient id="linear-gradient-52" x1="-1.96" x2="127.574" y1="56.505" y2="104.437" xlink:href="#linear-gradient"/><linearGradient id="linear-gradient-53" x1="-5.509" x2="124.025" y1="66.096" y2="114.027" xlink:href="#linear-gradient"/><linearGradient id="linear-gradient-54" x1="-6.954" x2="122.58" y1="70.001" y2="117.932" xlink:href="#linear-gradient"/><linearGradient id="linear-gradient-55" x1="15.82" x2="145.353" y1="8.457" y2="56.388" xlink:href="#linear-gradient"/><linearGradient id="linear-gradient-56" x1="12.838" x2="142.371" y1="16.515" y2="64.447" xlink:href="#linear-gradient"/><linearGradient id="linear-gradient-57" x1="-8.474" x2="121.06" y1="74.11" y2="122.041" xlink:href="#linear-gradient"/><linearGradient id="linear-gradient-58" x1="15.439" x2="144.972" y1="9.486" y2="57.418" xlink:href="#linear-gradient"/><linearGradient id="linear-gradient-59" x1="6.081" x2="135.614" y1="34.776" y2="82.707" xlink:href="#linear-gradient"/><linearGradient id="linear-gradient-60" x1="7.32" x2="136.853" y1="31.428" y2="79.359" xlink:href="#linear-gradient"/><linearGradient id="linear-gradient-61" x1="-3.132" x2="126.402" y1="59.672" y2="107.603" xlink:href="#linear-gradient"/><linearGradient id="linear-gradient-62" x1="20.915" x2="150.448" y1="-5.313" y2="42.619" xlink:href="#linear-gradient"/><linearGradient id="linear-gradient-63" x1="3.414" x2="132.947" y1="41.983" y2="89.915" xlink:href="#linear-gradient"/><linearGradient id="linear-gradient-64" x1="-4.826" x2="124.708" y1="64.251" y2="112.182" xlink:href="#linear-gradient"/><linearGradient id="linear-gradient-65" x1="9.046" x2="138.58" y1="26.762" y2="74.693" xlink:href="#linear-gradient"/><linearGradient id="linear-gradient-66" x1="-5.141" x2="124.393" y1="65.101" y2="113.033" xlink:href="#linear-gradient"/><linearGradient id="linear-gradient-67" x1="18.456" x2="147.99" y1="1.332" y2="49.263" xlink:href="#linear-gradient"/><linearGradient id="linear-gradient-68" x1="-.598" x2="128.935" y1="52.825" y2="100.757" xlink:href="#linear-gradient"/><linearGradient id="linear-gradient-69" x1="15.996" x2="145.53" y1="7.979" y2="55.911" xlink:href="#linear-gradient"/><linearGradient id="linear-gradient-70" x1="-10.668" x2="118.866" y1="80.039" y2="127.97" xlink:href="#linear-gradient"/><linearGradient id="linear-gradient-71" x1="-10.313" x2="119.22" y1="79.081" y2="127.012" xlink:href="#linear-gradient"/><linearGradient id="linear-gradient-72" x1="6.094" x2="135.627" y1="34.74" y2="82.672" xlink:href="#linear-gradient"/><linearGradient id="linear-gradient-73" x1="12.738" x2="142.272" y1="16.784" y2="64.715" xlink:href="#linear-gradient"/><linearGradient id="linear-gradient-74" x1="5.265" x2="134.798" y1="36.981" y2="84.912" xlink:href="#linear-gradient"/><linearGradient id="linear-gradient-75" x1="-1.824" x2="127.71" y1="56.137" y2="104.068" xlink:href="#linear-gradient"/><linearGradient id="linear-gradient-76" x1="-3.163" x2="126.37" y1="59.758" y2="107.689" xlink:href="#linear-gradient"/><linearGradient id="linear-gradient-77" x1="6.377" x2="135.911" y1="33.974" y2="81.905" xlink:href="#linear-gradient"/><linearGradient id="linear-gradient-78" x1="5.143" x2="134.677" y1="37.31" y2="85.241" xlink:href="#linear-gradient"/><linearGradient id="linear-gradient-79" x1="-6.353" x2="123.181" y1="68.378" y2="116.309" xlink:href="#linear-gradient"/><linearGradient id="linear-gradient-80" x1="5.473" x2="135.006" y1="36.419" y2="84.35" xlink:href="#linear-gradient"/><linearGradient id="linear-gradient-81" x1=".723" x2="130.256" y1="49.256" y2="97.187" xlink:href="#linear-gradient"/><linearGradient id="linear-gradient-82" x1="7.187" x2="136.72" y1="31.786" y2="79.718" xlink:href="#linear-gradient"/><linearGradient id="linear-gradient-83" x1="16.7" x2="146.234" y1="6.077" y2="54.008" xlink:href="#linear-gradient"/><linearGradient id="linear-gradient-84" x1="11.617" x2="141.15" y1="19.815" y2="67.746" xlink:href="#linear-gradient"/><linearGradient id="linear-gradient-85" x1="15.194" x2="144.728" y1="10.147" y2="58.078" xlink:href="#linear-gradient"/><linearGradient id="linear-gradient-86" x1="15.655" x2="145.189" y1="8.9" y2="56.832" xlink:href="#linear-gradient"/><linearGradient id="linear-gradient-87" x1="9.724" x2="139.258" y1="24.93" y2="72.861" xlink:href="#linear-gradient"/><linearGradient id="linear-gradient-88" x1="26.4" x2="155.933" y1="-20.136" y2="27.796" xlink:href="#linear-gradient"/><linearGradient id="linear-gradient-89" x1="26.664" x2="156.198" y1="-20.851" y2="27.081" xlink:href="#linear-gradient"/><linearGradient id="linear-gradient-90" x1="25.524" x2="155.057" y1="-17.769" y2="30.163" xlink:href="#linear-gradient"/><linearGradient id="linear-gradient-91" x1="30.346" x2="159.88" y1="-30.8" y2="17.131" xlink:href="#linear-gradient"/><linearGradient id="linear-gradient-92" x1="26.756" x2="156.29" y1="-21.099" y2="26.832" xlink:href="#linear-gradient"/><style>.cls-3{fill:#5c0f8b}</style></defs><path fill="none" d="M331.57178 38.85167a8.38435 8.38435 0 0 0-6.4495 0 7.50886 7.50886 0 0 0-2.57979 1.75058 9.816 9.816 0 0 0-1.75058 2.5798 7.76155 7.76155 0 0 0-.645 3.22475v22.02045a7.76152 7.76152 0 0 0 .645 3.22475 8.28855 8.28855 0 0 0 4.33037 4.33038 8.19 8.19 0 0 0 9.02929-1.75058 8.50874 8.50874 0 0 0 1.75057-2.5798 7.76152 7.76152 0 0 0 .645-3.22475V46.49894a7.76149 7.76149 0 0 0-.645-3.22475 8.50874 8.50874 0 0 0-1.75057-2.5798 6.61035 6.61035 0 0 0-2.57979-1.84272zM171.071 64.926h13.821l-6.911-31.05-6.91 31.05z"/><path fill="#53575a" d="M178.35 24.93917h-3.8697l-14.55742 65.50851h5.62028l4.42252-19.80918h16.2159l4.42252 19.80918h5.62028l-14.55745-65.50851zm-7.27871 40.26333l6.91019-31.04975 6.91018 31.04975zm49.47691-28.46995a14.40865 14.40865 0 0 0-4.33037-2.94835 14.09684 14.09684 0 0 0-10.77988 0 12.90612 12.90612 0 0 0-4.33038 2.94835 14.40854 14.40854 0 0 0-2.94834 4.33038 13.21807 13.21807 0 0 0-1.10563 5.34387v22.02045a13.67062 13.67062 0 0 0 4.054 9.67425 14.40836 14.40836 0 0 0 4.33038 2.94834 13.21807 13.21807 0 0 0 5.34387 1.10563 13.67062 13.67062 0 0 0 9.67426-4.054 14.40885 14.40885 0 0 0 2.94834-4.33038 13.21823 13.21823 0 0 0 1.10555-5.34384v-1.19777h-5.436v1.19777a7.7615 7.7615 0 0 1-.64494 3.22475 7.50933 7.50933 0 0 1-1.75058 2.5798 8.50828 8.50828 0 0 1-2.5798 1.75058 8.67143 8.67143 0 0 1-6.4495 0 8.28843 8.28843 0 0 1-4.33038-4.33038 7.76151 7.76151 0 0 1-.64495-3.22475V46.49894a7.76148 7.76148 0 0 1 .64495-3.22475 7.50944 7.50944 0 0 1 1.75057-2.5798 8.50845 8.50845 0 0 1 2.57981-1.75058 8.67134 8.67134 0 0 1 6.4495 0 7.509 7.509 0 0 1 2.5798 1.75058 8.5084 8.5084 0 0 1 1.75058 2.5798 7.76147 7.76147 0 0 1 .64494 3.22475v1.19776h5.436v-1.19776a12.9045 12.9045 0 0 0-1.10563-5.34387 13.06589 13.06589 0 0 0-2.85617-4.42252zm30.03626 31.41829a7.76152 7.76152 0 0 1-.645 3.22475 7.50944 7.50944 0 0 1-1.75057 2.5798 8.5086 8.5086 0 0 1-2.57979 1.75058 7.47769 7.47769 0 0 1-3.22475.645 7.76153 7.76153 0 0 1-3.22476-.645 7.50919 7.50919 0 0 1-2.5798-1.75058 8.50838 8.50838 0 0 1-1.75057-2.5798 7.76151 7.76151 0 0 1-.64495-3.22475V32.955h-5.436v35.19584a13.67056 13.67056 0 0 0 4.054 9.67425 14.40836 14.40836 0 0 0 4.33038 2.94834 13.37672 13.37672 0 0 0 11.0563-.18428 16.1106 16.1106 0 0 0 2.48768-1.47417v2.3034h5.436V32.955h-5.436v35.19584zM306.51084 37.009a14.40824 14.40824 0 0 0-4.33039-2.94835 13.21816 13.21816 0 0 0-5.34386-1.10563 13.45341 13.45341 0 0 0-7.09446 1.93485 12.8714 12.8714 0 0 0-3.86972 3.50116 14.07249 14.07249 0 0 0-3.86971-3.50116 13.45328 13.45328 0 0 0-7.09446-1.93485 13.23864 13.23864 0 0 0-5.71243 1.19777 11.08474 11.08474 0 0 0-2.48768 1.47417v-2.3034h-5.436v48.37123h5.436V46.68321a7.76165 7.76165 0 0 1 .645-3.22475 7.50933 7.50933 0 0 1 1.75058-2.5798 9.81524 9.81524 0 0 1 2.57979-1.75058 8.67143 8.67143 0 0 1 6.4495 0 7.50886 7.50886 0 0 1 2.57979 1.75058 8.50886 8.50886 0 0 1 1.75057 2.5798 7.76149 7.76149 0 0 1 .645 3.22475v35.19586h5.436V46.68321a7.76149 7.76149 0 0 1 .645-3.22475 8.50886 8.50886 0 0 1 1.75057-2.5798 8.95651 8.95651 0 0 1 2.67193-1.75058 8.43428 8.43428 0 0 1 6.35737 0 7.50891 7.50891 0 0 1 2.57978 1.75058 8.50871 8.50871 0 0 1 1.75058 2.5798 7.76149 7.76149 0 0 1 .645 3.22475v35.19586h5.436V46.68321a12.90419 12.90419 0 0 0-1.10564-5.34387 11.261 11.261 0 0 0-2.76411-4.33034zm31.60258-.27645a14.40824 14.40824 0 0 0-4.33042-2.94835 14.09687 14.09687 0 0 0-10.77989 0 12.90651 12.90651 0 0 0-4.3304 2.94835 14.40912 14.40912 0 0 0-2.94835 4.33038 13.21842 13.21842 0 0 0-1.10564 5.34387v22.02045a13.67064 13.67064 0 0 0 4.054 9.67425 14.4082 14.4082 0 0 0 4.3304 2.94834 13.218 13.218 0 0 0 5.34386 1.10563 13.67067 13.67067 0 0 0 9.67425-4.054 14.40927 14.40927 0 0 0 2.94836-4.33038 13.21842 13.21842 0 0 0 1.10564-5.34387V46.49894a12.90435 12.90435 0 0 0-1.10564-5.34387 13.06587 13.06587 0 0 0-2.85617-4.42252zm-1.47418 9.76639v21.92831a7.76152 7.76152 0 0 1-.645 3.22475 7.50944 7.50944 0 0 1-1.75057 2.5798 8.5086 8.5086 0 0 1-2.57979 1.75058 7.47769 7.47769 0 0 1-3.22475.64495 7.76148 7.76148 0 0 1-3.22475-.64495 7.50886 7.50886 0 0 1-2.57979-1.75058 8.50858 8.50858 0 0 1-1.75058-2.5798 7.76152 7.76152 0 0 1-.645-3.22475V46.49894a7.76149 7.76149 0 0 1 .645-3.22475 7.50933 7.50933 0 0 1 1.75058-2.5798 8.50848 8.50848 0 0 1 2.57979-1.75058 8.38435 8.38435 0 0 1 6.4495 0 7.50886 7.50886 0 0 1 2.57979 1.75058 9.8159 9.8159 0 0 1 1.75057 2.5798 9.13775 9.13775 0 0 1 .645 3.22475zm32.98459-9.76639a13.67759 13.67759 0 0 0-15.11029-2.94835 12.90656 12.90656 0 0 0-4.33039 2.94835 14.40912 14.40912 0 0 0-2.94835 4.33038 13.21825 13.21825 0 0 0-1.10564 5.34387 10.34542 10.34542 0 0 0 1.19775 4.8832 13.73594 13.73594 0 0 0 3.04047 3.59329 25.20054 25.20054 0 0 0 3.96183 2.76407c1.47417.82923 2.85621 1.56631 4.23825 2.21126 1.28989.645 2.57979 1.382 3.77757 2.027a19.37057 19.37057 0 0 1 3.04047 2.027 7.28784 7.28784 0 0 1 1.93485 2.21126 4.25459 4.25459 0 0 1 .645 2.39553 7.76149 7.76149 0 0 1-.645 3.22475 7.50958 7.50958 0 0 1-1.75057 2.57981 9.81565 9.81565 0 0 1-2.57978 1.75055 8.67143 8.67143 0 0 1-6.4495 0 8.50829 8.50829 0 0 1-2.57979-1.75058 9.81591 9.81591 0 0 1-1.75058-2.57981 7.76149 7.76149 0 0 1-.645-3.22475v-1.19777h-5.3438v1.10564a13.67064 13.67064 0 0 0 4.054 9.67425 14.408 14.408 0 0 0 4.33039 2.94834 13.218 13.218 0 0 0 5.34386 1.10563 13.67067 13.67067 0 0 0 9.67426-4.054 14.40924 14.40924 0 0 0 2.94835-4.33038 13.21825 13.21825 0 0 0 1.10564-5.34387 10.62882 10.62882 0 0 0-1.19775-4.8832 15.30337 15.30337 0 0 0-2.94836-3.5933 25.60765 25.60765 0 0 0-3.96182-2.8562c-1.382-.73709-2.85621-1.56631-4.23825-2.21126l-3.68543-1.84272a26.172 26.172 0 0 1-3.13261-2.027 8.72823 8.72823 0 0 1-2.027-2.11913 4.25456 4.25456 0 0 1-.645-2.39552 7.76157 7.76157 0 0 1 .645-3.22476 8.28858 8.28858 0 0 1 4.33039-4.33033 8.67146 8.67146 0 0 1 6.44951 0 7.50909 7.50909 0 0 1 2.57979 1.75058 8.50886 8.50886 0 0 1 1.75057 2.5798 7.76157 7.76157 0 0 1 .645 3.22476v1.19776h5.436v-1.19776a12.90443 12.90443 0 0 0-1.10564-5.34388 14.85619 14.85619 0 0 0-2.9484-4.42251z"/><path d="M103.167 88.144l-.46-.921-.922-1.751-1.013-2.119-5.068-9.95-.46-1.106-.461-.829-.369-.737-.552-1.106-11.517-23.034-3.962 7.279-.553 1.013v.092l.368.645.369.645 3.685 7.463.461.922.369.737.092.184.184.276 5.805 11.61.276.552.184.369.185.461.276.46 2.488 4.883.46 1.106.461.829.184.461 1.106 2.211 1.382 2.764 2.027 3.962H106.853l-1.474-2.856-2.212-4.515zM80.686 43.366l-.921-1.935-5.252-10.411-.461 1.014-.552 1.105-.093.185-.276.644-2.027 3.962-1.013 2.119L76.54 52.58l.184-.184.185.276 4.422-8.108-.645-1.198z" class="cls-3"/><path d="M76.54 52.58l.184.461.185-.369-.185-.276-.184.184z" class="cls-3"/><path fill="url(#linear-gradient)" d="M12.87422 58.20018v-.36854a2.16856 2.16856 0 0 1 .18427-.73709l-6.54163-3.04048a20.53447 20.53447 0 0 0-2.027 5.62028l6.35737-1.19776z"/><path fill="url(#linear-gradient-2)" d="M11.95287 77.82509L4.582 68.61151l-.2764-.36851a22.35091 22.35091 0 0 0 2.027 5.89669l.92136.55281z"/><path fill="url(#linear-gradient-3)" d="M6.97754 75.24529a21.71071 21.71071 0 0 0 5.06746 5.80456l.27641-.55282.64495-1.2899z"/><path fill="url(#linear-gradient-4)" d="M79.949 63.728l-3.317-6.541-3.225 6.541h6.542z"/><path fill="url(#linear-gradient-5)" d="M123.345 66.40026l-2.76407-15.01812h-.46068a2.33034 2.33034 0 0 1-1.382-.55282l-1.65844 2.027 3.77757 8.20008 2.48766 5.34388q-.13826-.00002-.00004-.00002z"/><path fill="url(#linear-gradient-6)" d="M70.64334 12.86939l5.80455-6.818a3.273 3.273 0 0 1-.82922-.36855l-3.04048 4.33038z"/><path fill="url(#linear-gradient-7)" d="M61.24549 94.96234l.73709-1.01349 2.027-2.76407a2.34943 2.34943 0 0 1-.73709-1.10563l-3.59329.73709-1.56631 3.13261z"/><path fill="url(#linear-gradient-8)" d="M110.90666 19.411l2.027-.09214 3.31689-.09213a7.78287 7.78287 0 0 0-.46068-1.56631l-4.88321 1.75058z"/><path fill="url(#linear-gradient-9)" d="M31.48564 19.50316a21.42287 21.42287 0 0 0-8.01581 4.69893l12.43833-5.62028z"/><path fill="url(#linear-gradient-10)" d="M116.61908 20.8852l1.65844.27641a2.28417 2.28417 0 0 1 2.3034-1.2899.69644.69644 0 0 1 .36853.09213l.09215-.18427c-.18427-.09214-.27641-.09214-.46068-.18427l-9.02931.27641z"/><path fill="url(#linear-gradient-11)" d="M61.06122 9.64464l6.81805-4.054a15.80424 15.80424 0 0 0-3.96184 1.93485.28537.28537 0 0 1-.18427.09213 16.156 16.156 0 0 0-4.23825-.2764L59.40278 8.539a2.2727 2.2727 0 0 1 1.65844 1.10564z"/><path fill="url(#linear-gradient-12)" d="M40.79135 82.61615c.09214.55282.27641 1.01349.36855 1.56631l5.80455-2.48766.27641-.64495z"/><path fill="url(#linear-gradient-13)" d="M70.27479 24.57063l.92136-1.01349a2.48868 2.48868 0 0 1-.645-1.93485 2.10013 2.10013 0 0 1 .27641-1.0135l-1.47412-1.01349-.73709-.46068a2.15759 2.15759 0 0 1-1.65845.73709h-.09213l-1.28991 8.56862a1.91176 1.91176 0 0 1 .92136.55282z"/><path fill="url(#linear-gradient-14)" d="M60.50841 13.05366a2.41578 2.41578 0 0 1-.82923.46068l1.84272 6.081 2.67194 8.66076c.18426 0 .46067-.09214.64494 0h.09214l1.2899-8.56863a2.0957 2.0957 0 0 1-1.10563-1.84271 1.28618 1.28618 0 0 1 .27641-.82922z"/><path fill="url(#linear-gradient-15)" d="M123.98994 80.12848v-3.8697l-.09214-4.69892h-.18427a.554.554 0 0 1-.36854-.09213l-5.25174 10.0428-2.76407 5.25173 6.63377-3.22475a2.17529 2.17529 0 0 1-.09214-1.10563 2.36736 2.36736 0 0 1 2.11913-2.3034z"/><path fill="url(#linear-gradient-16)" d="M106.85268 33.69207l6.17309 11.88551 3.5933 6.818 1.5663-1.93484a2.46135 2.46135 0 0 1-.55281-1.84272 3.11337 3.11337 0 0 1 .82922-1.75058z"/><path fill="url(#linear-gradient-17)" d="M91.92669 88.605l-1.5663 13.17541c.46068.18427.92136.27641 1.382.46068a.19815.19815 0 0 1 .18426.18427c.09214.36854.27641.73709.36855 1.10562l1.65844-6.26523.82923-3.409L92.111 88.605c0-.09216-.09217-.09216-.18431 0z"/><path fill="url(#linear-gradient-18)" d="M141.31146 82.43188l.46068-.73709.36854-.64495c-.18427-.55281-.36854-1.01349-.55282-1.5663z"/><path fill="url(#linear-gradient-19)" d="M100.67959 21.53015a1.97567 1.97567 0 0 1-1.10563-.36854l-4.1461 5.436-1.65845 2.11912a3.11324 3.11324 0 0 1 .82922 1.75058l7.73941.46068h.55281a2.7455 2.7455 0 0 1 1.2899-1.84272l-.73709-2.11912-1.93485-5.62028a1.36925 1.36925 0 0 1-.82922.18428z"/><path fill="url(#linear-gradient-20)" d="M107.95832 85.74877a2.71718 2.71718 0 0 1-1.19777 1.2899l.73709 1.84272 7.37086 20.08561-.46068-21.28335z"/><path fill="url(#linear-gradient-21)" d="M91.37388 88.51284a2.47907 2.47907 0 0 1-2.11912-1.75058L78.65914 87.96l-10.3192 1.1978v.18427a2.84655 2.84655 0 0 1-1.01349 1.84271l5.06747 8.108a23.81539 23.81539 0 0 0 8.75289-6.35737.3385.3385 0 0 1 .27641-.09213.19815.19815 0 0 1 .18427.18426 14.42374 14.42374 0 0 0 8.108 8.47649l.82922-7.09445z"/><path fill="url(#linear-gradient-22)" d="M109.7089 85.74877l4.69892 1.382 1.84271-3.50117L122.7 71.28345c-.09214-.09213-.27641-.18427-.36854-.27641l-2.76407 2.3034-11.88548 9.95066a3.18173 3.18173 0 0 1 .46067 1.65845.33851.33851 0 0 1-.09213.27641z"/><path fill="url(#linear-gradient-23)" d="M42.91048 58.29231c-.09214.09214-.18428.18428-.27641.18428l8.20008 15.4788 3.22475-6.4495z"/><path fill="url(#linear-gradient-24)" d="M41.34417 84.73527a18.9529 18.9529 0 0 0 1.93483 4.42252l3.31688-6.72591z"/><path fill="url(#linear-gradient-25)" d="M136.15185 97.26574a14.59168 14.59168 0 0 0 5.98883-8.01581l-1.2899-4.60679z"/><path fill="url(#linear-gradient-26)" d="M50.09706 73.77112l-7.92367-14.926a1.84194 1.84194 0 0 1-1.19776.18427.554.554 0 0 1-.36855-.09213L28.16876 85.10382l7.92367-1.93482a18.59572 18.59572 0 0 0 3.8697-2.76408.33851.33851 0 0 1 .27641-.09213c.09214 0 .18427.09213.18427.27641.09214.46068.09214.92136.18428 1.47417l2.67193-.64495 4.23825-1.01349 2.8562-5.71241z"/><path fill="url(#linear-gradient-27)" d="M138.916 60.688l4.238-2.396-1.105-1.105-2.304 1.566-10.688 7.371 9.859-5.436z"/><path fill="url(#linear-gradient-28)" d="M121.50227 67.7823a3.17608 3.17608 0 0 1 1.10563-1.10563l-6.17309-13.45182-17.32153 3.86971a1.55644 1.55644 0 0 1-.27641.92135l10.77988 4.6068z"/><path fill="url(#linear-gradient-29)" d="M65.48374 91.82973a1.93191 1.93191 0 0 1-1.01349-.36855l-1.19777 1.65845-1.56631 2.21126 5.1596 5.52814a31.41977 31.41977 0 0 0 5.06747-1.2899l-5.06747-8.01581a3.697 3.697 0 0 1-1.38203.27641z"/><path fill="url(#linear-gradient-30)" d="M59.95559 98.27923l-1.382 2.30339a23.18215 23.18215 0 0 0 7.55513.36855l-4.79105-5.1596z"/><path fill="url(#linear-gradient-31)" d="M55.53307 97.63428l1.47417 2.48766c.36855.09213.645.18427 1.0135.27641l2.94834-4.97535-2.85621-.92136h-.2764L56.178 97.72642h-.64495z"/><path fill="url(#linear-gradient-32)" d="M38.58009 57.09455L18.126 58.20018v.09213a2.55373 2.55373 0 0 1-1.19777 1.93485l9.30567 21.19123 1.47418 3.409L39.96213 58.753a2.29375 2.29375 0 0 1-1.38204-1.65845z"/><path fill="url(#linear-gradient-33)" d="M106.57628 19.87171l-3.13262-.36855a2.48171 2.48171 0 0 1-1.382 1.75058l2.39552 6.81805.27641.82922a3.13427 3.13427 0 0 1 .92136-.09214h.09214l2.21126-7.18659a1.85449 1.85449 0 0 1-1.38207-1.75057z"/><path fill="url(#linear-gradient-34)" d="M63.82529 87.40721a3.21527 3.21527 0 0 1 .82922-.55281l-1.10562-3.50117-1.382 2.67194z"/><path fill="url(#linear-gradient-35)" d="M75.98721 29.26955l-1.47417-3.409-.645-1.56631a3.13427 3.13427 0 0 1-.92136.09214 2.20139 2.20139 0 0 1-1.2899-.46068l-4.42252 4.88319-.36854.46068a2.30925 2.30925 0 0 1 .46068 1.75058 1.55654 1.55654 0 0 1-.27641.92136l1.01349.55281 2.76407 1.47418 3.77756-7.55514z"/><path fill="url(#linear-gradient-36)" d="M87.59632 33.69207l2.11912-1.75058a2.47728 2.47728 0 0 1-.36854-1.65844 1.70807 1.70807 0 0 1 .18427-.64495l-9.02931-4.23825-5.06747-2.39553a2.92829 2.92829 0 0 1-.92135.92136L80.04118 37.009l1.01349 1.93485z"/><path fill="url(#linear-gradient-37)" d="M126.01692 67.50589l8.47649-5.89669 6.91018-4.79106L122.7 49.72369a2.54937 2.54937 0 0 1-1.65842 1.56631l2.76407 15.01812h.18427a2.73145 2.73145 0 0 1 2.027 1.19777z"/><path fill="url(#linear-gradient-38)" d="M104.45715 82.33974L96.902 59.39794l.27641 12.16192 5.98882 12.06978a2.91093 2.91093 0 0 1 1.28992-1.2899z"/><path fill="url(#linear-gradient-39)" d="M59.31064 46.13039l-.18427-5.71239H58.85a3.2657 3.2657 0 0 1-1.01349-.27641L43.279 54.97543a3.18172 3.18172 0 0 1 .46068 1.65844 1.75154 1.75154 0 0 1-.46068 1.19777l4.054 3.31688 7.00232 5.80456 5.34387-10.68775z"/><path fill="url(#linear-gradient-40)" d="M140.48223 83.99819l-13.54395-.82919a2.59724 2.59724 0 0 1-1.84272 2.027l2.027 9.58212 2.76407 13.08327a14.19213 14.19213 0 0 0 4.14611-9.21357c0-.09214.09214-.18427.18427-.27641h.09214c.09214-.09214.27641-.09214.36853-.18427.27641-.09214.46068-.27641.73709-.36855l.92136-2.5798z"/><path fill="url(#linear-gradient-41)" d="M144.44407 64.64968v-.27641a7.42859 7.42859 0 0 0 .73709-4.23824 10.77759 10.77759 0 0 0-.46068-1.84272l-.645.27641-.18427.09213-1.65844 15.2024a7.13019 7.13019 0 0 0 2.85621-6.72591 5.5352 5.5352 0 0 0-.64491-2.48766z"/><path fill="url(#linear-gradient-42)" d="M124.08206 85.38023a2.90931 2.90931 0 0 1-2.027-1.19777l-2.67194 1.2899-4.51465 2.21126 2.67194 4.054 11.14842 17.13725c.18427-.18427.46068-.36854.64495-.55281l-4.79106-22.9418z"/><path fill="url(#linear-gradient-43)" d="M63.91743 82.61615l1.2899 4.054c.18427 0 .46068-.09214.73709-.09214a2.46123 2.46123 0 0 1 2.30339 2.027l18.15074-2.11913 2.67194-.27641v-.46068a.69048.69048 0 0 1 .09213-.46068l-12.53046-5.436H65.3916z"/><path fill="url(#linear-gradient-44)" d="M65.29946 42.26069l-4.23824-2.67194a3.46936 3.46936 0 0 1-1.382.82923l.36855 10.50347.18427 4.33039 6.17309-12.34619z"/><path fill="url(#linear-gradient-45)" d="M94.23009 58.01591a2.65092 2.65092 0 0 1-.27641-1.47417l-5.34388-2.3034 2.48766 5.06747z"/><path fill="url(#linear-gradient-46)" d="M110.81452 20.42452a2.112 2.112 0 0 1-2.21126 1.382h-.09213l-2.21126 7.18659a2.34934 2.34934 0 0 1 1.10563.73708l6.26523-3.96183 4.51465-2.85621a2.551 2.551 0 0 1-.09213-.82922.33849.33849 0 0 1 .09213-.27641z"/><path fill="url(#linear-gradient-47)" d="M141.12718 83.72178l1.28989 4.42252a14.3785 14.3785 0 0 0-.09214-6.26524z"/><path fill="url(#linear-gradient-48)" d="M143.33844 58.93726l-16.953 9.39785a2.84027 2.84027 0 0 1 .09214.92136 1.75154 1.75154 0 0 1-.46068 1.19777l9.85853 8.56862 4.69893 4.054.18426-1.75058.27641-2.85621a12.90886 12.90886 0 0 0-2.027-2.94834.33846.33846 0 0 1-.09214-.27641.19817.19817 0 0 1 .18427-.18427 7.10776 7.10776 0 0 0 2.30339-.92136l.82922-7.55512z"/><path fill="url(#linear-gradient-49)" d="M103.5358 18.85821l3.13261.36855a2.18139 2.18139 0 0 1 1.65845-1.65845l-.73709-5.71241a8.24627 8.24627 0 0 0-5.06747-3.13262h-.09213c-.09213-.09213-.27641-.18427-.36854-.27641l-.64495 7.83154a2.74287 2.74287 0 0 1 2.11912 2.5798z"/><path fill="url(#linear-gradient-50)" d="M106.1156 87.31507a2.55071 2.55071 0 0 1-.82922.09214.33847.33847 0 0 1-.27641-.09214l4.42252 8.845z"/><path fill="url(#linear-gradient-51)" d="M99.29755 16.83123a4.07078 4.07078 0 0 1 1.47417-.55282l.27641-3.77756.36855-4.33038a8.527 8.527 0 0 0-4.51468-.73709h-.36854a8.96879 8.96879 0 0 0-5.52815-1.2899l-1.382.27641 3.31688 3.59329z"/><path fill="url(#linear-gradient-52)" d="M108.87967 17.47618a2.2765 2.2765 0 0 1 1.84272 1.2899l2.11912-.73709 2.85621-1.01349a8.43785 8.43785 0 0 0-7.463-4.88319l.64494 5.34387z"/><path fill="url(#linear-gradient-53)" d="M74.4209 19.50316a2.7841 2.7841 0 0 1 1.2899 1.75058l5.89669-.645 16.67657-1.75058v-.18427a2.17429 2.17429 0 0 1 .645-1.47417L88.88621 6.512a12.71814 12.71814 0 0 0-7.55513-1.47417 3.27371 3.27371 0 0 0-.92135.18427l-5.436 13.08328z"/><path fill="url(#linear-gradient-54)" d="M68.98489 18.12113a3.991 3.991 0 0 1-.09213.46068l2.30339 1.47419a2.57885 2.57885 0 0 1 2.21126-.92136c.18427 0 .36854.09214.55281.09214l4.51466-10.872 1.19776-2.94838a10.52335 10.52335 0 0 0-2.39552.82922h-.27641l-8.66077 10.22707a1.74332 1.74332 0 0 1 .64495 1.65844z"/><path fill="url(#linear-gradient-55)" d="M143.98339 57.92377l.46068-.27641-.55282-.82922v.18427z"/><path fill="url(#linear-gradient-56)" d="M122.88431 48.71019v.36855l.36854.09213 18.61142 7.09445v-.18427l.18426-1.2899a.32165.32165 0 0 0-.09214-.18427 6.46558 6.46558 0 0 0 .09214-2.3034 7.382 7.382 0 0 0-1.5663-3.68543l-17.41365.09214z"/><path fill="url(#linear-gradient-57)" d="M61.5219 11.30308a2.33029 2.33029 0 0 1-.55282 1.382l4.97534 3.77757a2.26309 2.26309 0 0 1 1.382-.46068.554.554 0 0 1 .36855.09213l7.37089-10.59557a13.078 13.078 0 0 0-4.97534-.46068H69.722l-8.29222 4.97533c-.00002.46068.09212.82922.09212 1.2899z"/><path fill="url(#linear-gradient-58)" d="M143.33844 56.81814v-.73708l-.73709-.73709-.18426 1.382 1.01349 1.01349z"/><path fill="url(#linear-gradient-59)" d="M138.17884 41.89215a10.99582 10.99582 0 0 0-4.97533-5.80455c-.09214-.09213-.18427-.18427-.18427-.27641a3.77918 3.77918 0 0 0-.09214-1.01349 10.9731 10.9731 0 0 0-6.26523-8.66076.19815.19815 0 0 1-.18427-.18427 8.10842 8.10842 0 0 0-.46068-1.382h-.09214l-3.50116-1.47417-.27641.55282 6.35736 7.18659z"/><path fill="url(#linear-gradient-60)" d="M120.58092 41.15507v5.06746a2.55419 2.55419 0 0 1 2.21125 1.93485l17.22938-.09213a6.34318 6.34318 0 0 0-1.19777-1.01349c-.09214-.09214-.18427-.18428-.09214-.27641a11.22857 11.22857 0 0 0 0-2.48767 4.625 4.625 0 0 0-.18427-1.10563l-1.28989-1.47417L121.77867 24.11a2.20145 2.20145 0 0 1-1.2899.46067z"/><path fill="url(#linear-gradient-61)" d="M42.91048 54.51475L57.37579 39.773a2.56658 2.56658 0 0 1-.27641-3.50116L40.05427 19.5953a2.10167 2.10167 0 0 1-1.10563.55282l1.382 18.98 1.01353 14.74168a2.40407 2.40407 0 0 1 1.56631.64495z"/><path fill="url(#linear-gradient-62)" d="M124.54274 80.12848a2.665 2.665 0 0 1 2.39554 2.48767l13.08327.73708-10.22707-8.845-4.14611-3.59329a3.03414 3.03414 0 0 1-1.19777.64495l.09214 8.56862z"/><path fill="url(#linear-gradient-63)" d="M14.072 69.3486l.92136-8.75289a2.59725 2.59725 0 0 1-2.027-1.84272L4.3056 60.3193a21.03563 21.03563 0 0 0-.18427 6.35737v.36854l8.93716 11.24056z"/><path fill="url(#linear-gradient-64)" d="M13.24277 56.63387a2.70041 2.70041 0 0 1 2.39553-1.19776 1.7777 1.7777 0 0 1 .92135.2764l20.45414-35.8408a2.80436 2.80436 0 0 1-.73709-.73709L29.8272 22.083l-7.463 3.31688a22.29357 22.29357 0 0 0-5.15961 9.21358c0 .09213-.09213.09213-.09213.18427a21.19359 21.19359 0 0 0-9.21357 16.86081c0 .09213 0 .09213-.09213.18427-.36855.55281-.73709 1.19777-1.10563 1.75058l6.26523 2.85621z"/><path fill="url(#linear-gradient-65)" d="M13.427 79.48354l-.18427.27641-.82923 1.65844a21.595 21.595 0 0 0 10.41134 4.23825h.46068l3.22475-.27641-4.51465-2.027z"/><path fill="url(#linear-gradient-66)" d="M59.31064 35.25838a2.17424 2.17424 0 0 1 1.47417.64495l2.30339-3.04048a2.71865 2.71865 0 0 1-1.01349-2.30339c0-.18428.09213-.36855.09213-.55282L40.60708 19.04249c0 .09213-.09213.09213-.09213.18427l16.953 16.67657a2.50963 2.50963 0 0 1 1.84269-.64495z"/><path fill="url(#linear-gradient-67)" d="M56.178 99.93767l-1.382-2.21126h-3.409a28.34031 28.34031 0 0 0 4.791 2.21126z"/><path fill="url(#linear-gradient-68)" d="M66.77363 32.40217a2.57884 2.57884 0 0 1-2.21126.92136 1.77772 1.77772 0 0 1-.92135-.27641l-2.39553 3.13262a2.83513 2.83513 0 0 1 .55281 1.75058l6.81805.46068 2.027-4.054z"/><path fill="url(#linear-gradient-69)" d="M63.0882 89.52633v-.46068a2.613 2.613 0 0 1 .36855-1.19776L61.89044 86.578l-1.84271 3.59329z"/><path fill="url(#linear-gradient-70)" d="M38.58009 15.08065a2.33034 2.33034 0 0 1 1.382.55281l2.85621-3.31688a19.16961 19.16961 0 0 0-5.436 2.39553l.2764.46068a1.59269 1.59269 0 0 1 .92139-.09214z"/><path fill="url(#linear-gradient-71)" d="M40.79135 16.647l7.64727-2.39553 7.92368-2.48767a3.13421 3.13421 0 0 1-.09214-.92135 2.665 2.665 0 0 1 2.48766-2.39554l.09218-1.1978c-.36855 0-.82922.09214-1.19776.09214a21.98018 21.98018 0 0 0-10.22707 4.054.32169.32169 0 0 1-.18428.09214c-.46068 0-.92135.09213-1.2899.09213a18.45031 18.45031 0 0 0-2.21126.36854l-3.409 3.96184a8.49513 8.49513 0 0 1 .46062.7371z"/><path fill="url(#linear-gradient-72)" d="M16.37538 60.50357c-.27641.09214-.46068.09214-.73708.18428l-.36855 3.13261-1.65844 15.11026 4.60679 2.11913 8.845 3.96184-8.38433-19.16423z"/><path fill="url(#linear-gradient-73)" d="M96.349 60.596l-1.198 7.094 1.382 2.672-.184-9.766z"/><path fill="url(#linear-gradient-74)" d="M96.25707 54.23834h.46068c.18427 0 .36854.09213.55281.09213l6.1731-18.51928.73708-2.027a2.77058 2.77058 0 0 1-1.382-2.21125l-8.29222-.46068a2.59725 2.59725 0 0 1-1.84271 2.027l.64494 4.054z"/><path fill="url(#linear-gradient-75)" d="M89.71543 29.26955a2.43178 2.43178 0 0 1 2.39557-1.19776 1.97564 1.97564 0 0 1 1.10563.36854l5.80455-7.55513a2.62675 2.62675 0 0 1-.73709-1.2899L75.7108 21.8987v.1843a1.70825 1.70825 0 0 1-.18427.645z"/><path fill="url(#linear-gradient-76)" d="M40.79135 53.77766l-2.39552-33.53741h-.27641a1.3317 1.3317 0 0 1-.645-.18427L17.02033 55.98892a2.48924 2.48924 0 0 1 .92136 1.56631l15.57094-.82923 4.97537-.2764v-.27641a2.7362 2.7362 0 0 1 2.30335-2.39553z"/><path fill="url(#linear-gradient-77)" d="M94.04582 55.98892c.09213-.18427.18427-.46068.27641-.645l-.27641-.27641-11.70125-13.08322 5.71242 11.517z"/><path fill="url(#linear-gradient-78)" d="M94.41436 54.60688l.27641.27641a3.80437 3.80437 0 0 1 1.01349-.645L92.111 33.13925h-.36854a3.41283 3.41283 0 0 1-1.65845-.73708l-8.93716 7.18658.18427.36855z"/><path fill="url(#linear-gradient-79)" d="M56.6387 12.31658l-15.66307 4.88319c0 .18427.09213.46068 0 .64495a1.33159 1.33159 0 0 1-.18428.645L62.44325 29.546a2.17872 2.17872 0 0 1 1.28991-1.10563L61.98258 22.82l-2.85621-9.12144h-.46068a2.53282 2.53282 0 0 1-2.02699-1.38198z"/><path fill="url(#linear-gradient-80)" d="M118.36965 23.37287l-10.68774 6.818a2.04831 2.04831 0 0 1 .27641 1.47417 2.77638 2.77638 0 0 1-.73709 1.56631L114.77635 41.8l4.14611 4.69893a3.30047 3.30047 0 0 1 1.0135-.36855v-21.744a2.00253 2.00253 0 0 1-1.56631-1.01351z"/><path fill="url(#linear-gradient-81)" d="M61.614 38.6674c-.09213.18427-.09213.27641-.18427.46068l5.25174 3.22475 1.65844-3.22475z"/><path fill="url(#linear-gradient-82)" d="M105.19424 34.06061c-.18427 0-.36854-.09213-.55281-.09213l-2.5798 7.64727-4.33038 12.899a2.42376 2.42376 0 0 1 1.2899 1.93485l17.04511-3.8697-4.23826-8.01581-5.62028-10.68775a1.2794 1.2794 0 0 1-1.01348.18427z"/><path fill="url(#linear-gradient-83)" d="M78.10633 79.85208l11.14843 4.8832.18426.09213a2.48386 2.48386 0 0 1 .64495-.73709l-2.11912-4.14611h-9.85852z"/><path fill="url(#linear-gradient-84)" d="M95.88853 59.39794a2.6715 2.6715 0 0 1-1.382-.82922l-3.22475 1.382 3.409 6.91018z"/><path fill="url(#linear-gradient-85)" d="M105.01 82.15547a2.02883 2.02883 0 0 1 .73709-.09213 2.77625 2.77625 0 0 1 1.5663.73709l8.845-7.37086 5.71242-4.79106a2.48866 2.48866 0 0 1-.645-1.93485.83051.83051 0 0 1 .09215-.46068L98.46834 58.4766a4.0911 4.0911 0 0 1-1.01349.73708l5.25173 15.93949z"/><path fill="url(#linear-gradient-86)" d="M44.84533 91.64545a18.44277 18.44277 0 0 0 2.48767 2.85621l3.68543-2.11913-2.21126-.27641z"/><path fill="url(#linear-gradient-87)" d="M56.454 92.935l.185-.46.553-1.014.276-.553 2.856-5.712.277-.461 2.211-4.514.276-.645.092-.092.461-.922.461-.921H87.136L81.7 66.769l-.093-.277-.46-.829H70.091l.46-.921.461-.922 3.501-6.91 1.106-2.119-.461-.829-6.081-11.701-1.843 3.685-.184.277-1.198 2.395-.092.184-6.265 12.531-1.198 2.487-.461.922-.46.921-2.027 3.962-.184.369-.277.552-2.303 4.699-.185.369-.644 1.29-.369.737-.461.921-.46.922-.922 1.842-.368.645-.277.553v.092l-.737 1.474-2.119 4.146-3.685 7.371h12.714l.461-.829.184-.553.737-1.29z"/><path fill="url(#linear-gradient-88)" d="M112.19656 108.13775c.27641 0 .46068.09214.73709.09214l-7.64727-10.59561h-1.75058l6.26523 12.06978a2.54345 2.54345 0 0 1 2.39553-1.56631z"/><path fill="url(#linear-gradient-89)" d="M112.749 105.282l-2.764-7.648h-4.054l8.108 11.241-1.29-3.593z"/><path fill="url(#linear-gradient-90)" d="M102.79871 97.63428h-5.98882l-1.5663-3.13262-2.48767 9.67425a16.13989 16.13989 0 0 0 3.22476 4.23824c3.22475.64495 6.17309 1.75059 9.39784 2.48767a6.88329 6.88329 0 0 1 1.01349.18427h1.56631c.36854-.09214.82922-.27641 1.19776-.36855.09214 0 .18427-.09213.36855-.09213z"/><path fill="url(#linear-gradient-91)" d="M115.329 110.533l9.122.737-1.843-.184-7.279-.553z"/><path fill="url(#linear-gradient-92)" d="M117.909 93.21176l-3.04048-4.69892.55281 22.02045 7.27873.64494 1.84271.18427a14.95121 14.95121 0 0 0 3.77757-2.027z"/></svg>