<svg xmlns="http://www.w3.org/2000/svg" role="img" viewBox="0.21 -7.29 613.08 213.08"><title>Angel logo</title><defs><style>.cls-2{fill:#5280c5}</style></defs><path fill="#f19f40" d="M135.903 76.06854c.02558-4.42065-1.1474-5.592-5.5636-5.5553-21.65209.18012-43.30725-.0069-64.96135-.06421-.22424 3.34082-.99469 6.5027-5.14685 6.37366-3.83533-.1192-4.47186-3.2262-4.7688-6.32068-12.65875.03943-25.31915.19232-37.9762.04749-3.65576-.04181-5.18933.54718-5.16333 4.8255.20331 33.48456.09058 66.97094.12616 100.45665.01154 10.84742 7.67517 18.39209 18.6095 18.40064 28.32129.02222 56.64751-.29541 84.96155.159 11.14923.179 20.08171-8.09112 19.92821-19.86712-.42758-32.81378-.23544-65.63733-.04529-98.45563zm-4.3266 72.84087c-1.86406 1.59833-3.99609.94849-6.06127.3515.00257 8.82319.04749 17.64667-.00732 26.46955-.03607 5.80353-1.9812 7.74139-7.84265 7.74754q-43.45056.04569-86.90113.00177c-5.89129-.00592-8.15747-2.20117-8.16778-8.14777-.05237-30.13226.01086-60.26483-.07849-90.397-.00891-2.999.84936-4.04309 3.942-4.03412q47.44565.13806 94.89154-.02282c3.82966-.01709 4.24445 1.615 4.22474 4.76922q-.04332 6.93117-.05939 13.86242c-.03546 13.85749-.00952 27.715-.01312 41.5705 2.4555-.71612 4.81066-.98449 6.55163.71418a5.55676 5.55676 0 0 1 .75806.9292q.17771.27.34284.57971c1.22207 2.29661.129 4.14123-1.57963 5.60612z"/><path d="M163.81368 130.69085a4.77082 4.77082 0 0 0-5.16705 4.88923 4.70134 4.70134 0 0 0 4.91381 5.10755c3.02454.0921 4.80219-1.81238 5.21717-4.82367-.20581-3.16133-1.99237-5.08454-4.96393-5.17311zM85.90944 28.96783a4.72673 4.72673 0 0 0 5.02838-5.00451c.00513-2.999-1.9019-4.78125-5.02374-5.0821-3.03363.30921-5.00232 2.035-5.026 5.04169a4.78214 4.78214 0 0 0 5.02136 5.04492zm109.71076 57.6377a4.78464 4.78464 0 0 0-4.804 5.236 4.69308 4.69308 0 0 0 5.20874 4.79052c3.04834-.13514 4.6195-2.17572 4.86749-5.189-.56166-2.95881-2.15975-4.99054-5.27223-4.83752zm-7.00159-31.84577a4.721 4.721 0 0 0 5.03064 4.975c3.05151.01526 4.78973-1.83038 4.89624-5.01532-.145-3.1507-1.99078-5.00739-4.94952-5.00238a4.74694 4.74694 0 0 0-4.97736 5.0427zM143.62093 9.6803c.06988-3.15937-2.04254-4.98737-5.06775-5.02106a4.67373 4.67373 0 0 0-4.92118 4.41245q-.00705.12937-.00693.259c-.20715 3.14935 1.77277 4.82324 4.75775 5.35095 3.11439-.28764 5.16944-1.89752 5.23811-5.00134zM185.244 43.15246c3.16571-.11132 4.69128-2.118 5.0473-5.3977-.78363-2.60651-2.19049-4.78125-5.48377-4.48364-3.14556.28424-4.90313 2.2713-4.6107 5.38494a4.59451 4.59451 0 0 0 4.66959 4.51819q.18916-.00312.37758-.02179zM64.15614 58.936a4.72909 4.72909 0 0 0 5.111-4.991c.04315-3.13379-1.95148-4.76068-5.22907-5.18145-2.73669.61126-4.72235 2.18792-4.63684 5.35711a4.62034 4.62034 0 0 0 4.419 4.81322q.16788.00712.33591.00212zm-3.92492 17.88669c4.15216.129 4.92261-3.03284 5.14685-6.37366-3.99481-4.64453-6.00568-4.63379-9.91565.053.29694 3.09446.93347 6.20146 4.7688 6.32066zM72.76735 42.3385c3.21271.21 4.79224-1.79382 5.4347-4.77014-.33-3.04279-1.95588-5.01374-5.06379-5.09394a4.58766 4.58766 0 0 0-4.999 4.13556q-.018.19091-.0201.38282c-.22589 3.08093 1.47009 5.13793 4.64819 5.3457zM161.469 14.76837c-.014-3.18683-2.06159-4.69092-5.06592-5.1944-2.89929.63288-4.9881 2.23834-4.83093 5.37073.15576 3.1048 2.25049 4.87848 5.32782 4.74615 2.88832-.1242 4.58186-2.01461 4.56903-4.92248zm27.548 89.34228a4.715 4.715 0 0 0-4.60406 5.4516 4.54035 4.54035 0 0 0 4.56466 4.51592q.22617-.0012.45134-.02492c3.09516-.07507 4.7356-2.07837 4.96674-5.60138-.61319-2.55209-2.21668-4.62587-5.37868-4.34122zm8.59245-36.0476a4.6168 4.6168 0 0 0-5.24 4.77923c-.13324 3.19159 1.87958 4.76136 4.90167 5.30158 2.952-.46679 4.97949-1.96991 4.95972-5.16961a4.58958 4.58958 0 0 0-4.25647-4.9001q-.18217-.01281-.36492-.0111zm-77.58056-53.67328c3.17089-.0907 4.70562-2.06519 5.05652-5.11383-.63594-2.96381-2.33313-4.94928-5.45478-4.72339a4.71958 4.71958 0 0 0-4.68133 5.38586 4.59987 4.59987 0 0 0 4.72147 4.475q.17945-.00484.35812-.02364zm57.33826 10.03131c-.04993-3.16663-2.05352-4.936-5.112-4.88123a4.58168 4.58168 0 0 0-4.7493 4.40768q-.00669.17961.0007.35932c-.11273 3.16132 1.80786 4.79383 4.88855 5.16718 3.10242-.28098 5.02209-1.87748 4.97205-5.05295zM102.157 19.3858c3.06488-.47736 5.0368-2.24432 4.78906-5.32538a4.9986 4.9986 0 0 0-9.98314.3916c.09838 3.02362 2.03124 4.77741 5.19408 4.93378zm75.95715 99.78168c-3.03393.46656-4.90173 2.16535-4.69476 5.3133a4.58266 4.58266 0 0 0 4.52748 4.6372q.17674.00212.35326-.00939a4.66137 4.66137 0 0 0 4.97961-5.04816c-.0025-3.1703-2.04028-4.69202-5.16559-4.89295zm-31.64935 18.73977a4.9419 4.9419 0 0 0-.24109 9.879c3.08808.148 4.83057-1.73925 5.25824-4.69867-.16195-3.31267-2.04529-5.16582-5.01715-5.18033zm-13.65161 4.81639a5.55676 5.55676 0 0 0-.75806-.9292c-1.741-1.69867-4.09613-1.4303-6.55162-.71417l-.00245.00292c-2.4309 2.72651-2.12262 5.45319.0141 8.17774 2.06519.597 4.19721 1.24683 6.06127-.3515 1.70862-1.46491 2.8017-3.30951 1.57959-5.60608q-.16497-.31009-.34283-.57971z" class="cls-2"/><path fill="#fefefe" d="M474.34125 104.773c-.04321-9.771-5.7135-17.26294-14.03363-18.54467-9.79956-1.50965-17.80633 3.36071-20.70959 13.13964-2.21808 7.471-2.52417 15.13427.33593 22.57477 2.52838 6.57764 7.15876 10.77277 14.44434 11.33649 7.78546.60235 13.51257-2.757 17.34314-9.457 2.773-4.85028 2.80707-10.18719 2.62048-14.50616.00008-2.20993.00446-3.37656-.00067-4.54307zm-201.03873 2.40992c9.36438 0 18.1164.002 26.86841-.001 3.07923-.001 1.95771-1.73529 1.38123-3.301-4.5202-12.27626-9.02478-24.55829-13.61737-37.06532-4.8624 13.41413-9.6373 26.58717-14.63227 40.36732zm268.73975-21.09216a17.97342 17.97342 0 0 0-18.51459 14.18329c-.5252 2.42279.12043 3.33 2.63275 3.26055q1.61894-.04476 3.23877-.05548c3.23957-.02606 6.48114.02228 9.72144.02161 4.48657-.00092 8.97375-.04535 13.45935.01947 1.98206.02863 2.97778-.444 2.9798-2.77448a14.757 14.757 0 0 0-13.51752-14.65496z"/><path d="M66.65956 90.75714c-.12652-3.0334-1.923-4.96686-4.86615-5.07825A4.757 4.757 0 0 0 56.6357 90.559a4.67618 4.67618 0 0 0 4.86371 5.124c3.08386.11833 4.8363-1.70455 5.16015-4.92586zm1.23535 12.56402c-3.13739.04523-5.098 2.04432-5.02233 5.06092.0755 3.00757 2.154 4.70318 5.27417 4.94208 3.01306-.55713 4.96862-2.322 4.73645-5.40271a4.67492 4.67492 0 0 0-4.73855-4.6104q-.12498.00173-.24974.01011zm10.62061 15.18036a4.9366 4.9366 0 0 0 .08887 9.87177c3.22082.06568 4.723-1.953 5.1958-5.14929-.61591-2.71624-2.09735-4.84095-5.28467-4.72248zm14.76636 11.81056a4.48474 4.48474 0 0 0-4.98 4.47424c-.25458 3.18158 1.52233 5.17065 4.59539 5.3716 3.09107.20208 4.85749-1.69942 5.39721-4.76508-.28335-3.06727-1.85892-5.00394-5.0126-5.08076zm16.94201 7.30767a4.65679 4.65679 0 0 0-4.85156 5.19654 4.58073 4.58073 0 0 0 4.41273 4.7428q.19.00684.38011-.00208c3.13592.07544 4.79925-1.84759 5.23072-5.09129-.45319-2.84922-2.08057-4.92385-5.172-4.84597zm162.81664-21.35413l-9.55953 28.95215H251.19l31.27393-92.04492h14.33935l31.41065 92.04492H315.5127l-9.83252-28.95215zm30.18115-9.28613l-9.01318-26.49365c-2.04883-6.00879-3.41407-11.47168-4.77979-16.79736h-.27344c-1.36572 5.4624-2.86767 11.06152-4.64306 16.66064l-9.01321 26.63037zm44.79004-9.96924c0-6.82812-.13574-12.42724-.5459-17.89013h10.65234l.68262 10.92529h.27344c3.27734-6.28174 10.9248-12.42725 21.85058-12.42725 9.14942 0 23.35254 5.46241 23.35254 28.13184v39.46777h-12.01757v-38.10156c0-10.65185-3.96094-19.52881-15.2959-19.52881a17.07274 17.07274 0 0 0-16.11426 12.291 17.25809 17.25809 0 0 0-.81934 5.59912v39.74023h-12.01855zm139.83887-17.89013c-.27344 4.77978-.5459 10.106-.5459 18.16357v38.37451c0 15.15918-3.00489 24.44532-9.42383 30.18164-6.418 6.00879-15.70508 7.91993-24.03516 7.91993-7.9209 0-16.66113-1.91114-21.9873-5.46192l3.0039-9.15039a37.27355 37.27355 0 0 0 19.39258 5.18945c12.291 0 21.30469-6.418 21.30469-23.0791v-7.375h-.27344c-3.68652 6.14551-10.78808 11.0625-21.03125 11.0625-16.38769 0-28.13281-13.93066-28.13281-32.23047 0-22.396 14.61328-35.09668 29.77148-35.09668 11.47168 0 17.75391 6.00879 20.62207 11.4712h.27344l.5459-9.96924zm-12.42774 26.084a17.12048 17.12048 0 0 0-.68262-5.4624c-2.18554-6.96484-8.05761-12.70068-16.79785-12.70068-11.47168 0-19.666 9.69628-19.666 24.99121 0 12.97363 6.55566 23.76269 19.52929 23.76269a17.56858 17.56858 0 0 0 16.66114-12.291 20.91731 20.91731 0 0 0 .95605-6.419zm45.60742 9.15037c.27344 16.251 10.65235 22.94239 22.66993 22.94239 8.60351 0 13.793-1.502 18.2998-3.41407l2.04883 8.60352c-4.2334 1.91211-11.47168 4.09765-21.98731 4.09765-20.34863 0-32.50293-13.38378-32.50293-33.32226s11.74512-35.64356 31.001-35.64356c21.57715 0 27.3125 18.98243 27.3125 31.13672a45.33569 45.33569 0 0 1-.40918 5.59961zm35.23438-8.60449c.13574-7.647-3.1416-19.52832-16.66113-19.52832-12.1543 0-17.48047 11.19824-18.43653 19.52832zm33.58984-57.49365h12.01758v96.96142h-12.01758z" class="cls-2"/></svg>