<svg xmlns="http://www.w3.org/2000/svg" role="img" viewBox="27.14 19.15 200.46 147.46"><title>Antrea logo</title><path d="M140 33h1v1h-1zm2 1h1v1h-1zm14 13h1v1h-1zm2 4h1v1h-1z" fill="#696c78"/><path d="M138 34h1v1h-1zm-11 1h1v1h-1zm-2 3h1v1h-1zm-10 1h1v1h-1zm30 0h1v1h-1zm-13 2h1v1h-1zm-17 5h1v1h-1zm24 1h1v1h-1zm1 0h1v1h-1zm-34 2h1v1h-1zm38 0h1v2h-1zm0 2h1v1h-1zm13 1h1v1h-1zm-57 1h1v1h-1zm4 1h1v1h-1zm38 0h1v1h-1zm-5 1h1v1h-1zm-38 1h1v1h-1zm59 2h1v1h-1zm-57 1h1v1h-1zm17 0h1v1h-1zm31 0h1v1h-1zm-10 1h1v1h-1zm-41 1h1v1h-1zm17 0h1v1h-1zm-15 1h1v1h-1zm43 0h1v1h-1zm-17 1h1v1h-1zm31 0h1v1h-1zm-5 3h1v1h-1zm-46 2h1v1h-1zm8 0h1v1h-1zm22 0h1v1h-1zm1 0h1v1h-1zm-39 1h1v1h-1zm42 4h1v1h-1zm14 0h1v1h-1zm-41 1h1v1h-1zm-5 1h1v1h-1zm1 1h1v1h-1zm-1 7h1v1h-1zm13 0h1v1h-1zm21 1h1v1h-1zm-32 1h1v1h-1zm22 0h1v1h-1zm-2 1h1v1h-1zm6 3h1v1h-1zm8 0h1v1h-1zm-3 2h1v1h-1zm-12 1h1v1h-1zm-5 1h1v1h-1zm1 1h1v1h-1zm3 0h1v1h-1z" fill="#1b4f90"/><g fill="#1c448a"><path d="M139 34h1v5h-1zm-11 1h1v6h-1zm3 0h1v4h-1z"/><path d="M127 36h4v5h-4zm13 0h1v3h-1zm1 0h1v3h-1zm1 1h1v2h-1zm1 0h1v2h-1z"/><path d="M126 39h5v2h-5zm5 0h1v1h-1zm8 0h4v1h-4zm4 0h1v1h-1zm-27 1h2v4h-2zm2 0h1v3h-1zm14 0h1v1h-1z"/><path d="M111 41h7v3h-7zm15 0h4v1h-4zm4 0h1v1h-1zm9 0h1v1h-1zm-13 1h1v1h-1zm1 0h1v1h-1zm-9 1h1v1h-1zm-7 1h6v1h-6zm6 0h1v1h-1zm-5 1h3v1h-3zm3 0h1v1h-1zm-4 1h1v1h-1zm1 0h1v1h-1zm41 0h1v5h-1zm1 0h1v6h-1zm-13 1h1v6h-1zm1 0h1v5h-1zm9 0h2v4h-2zm-8 1h1v1h-1zm-41 1h2v4h-2zm2 0h1v3h-1zm21 0h1v1h-1z"/><path d="M138 49h5v1h-5zm5 0h1v1h-1zm12 0h1v1h-1zm-50 1h1v1h-1zm21 0h4v4h-4zm12 0h4v1h-4zm17 0h1v1h-1zm-50 1h1v1h-1zm32 0h5v1h-5zm14 0h3v1h-3zm5 0h1v1h-1zm-52 1h1v1h-1zm33 0h5v1h-5zm5 0h1v1h-1zm12 0h1v1h-1zm-53 1h2v2h-2zm2 0h1v1h-1zm13 0h1v6h-1zm1 0h1v4h-1zm21 0h3v1h-3zm3 0h1v1h-1z"/><path d="M115 54h2v5h-2zm11 0h3v1h-3zm3 0h1v2h-1zm-28 1h1v1h-1zm1 0h1v1h-1zm24 0h2v1h-2zm2 0h1v1h-1zm-28 1h1v2h-1zm1 0h1v2h-1zm28 0h1v1h-1zm-12 1h1v1h-1zm-17 1h1v1h-1zm1 0h1v1h-1zm14 1h1v1h-1zm1 0h1v1h-1zm39 0h1v5h-1zm1 0h1v3h-1z"/><path d="M151 60h5v4h-5zm-45 1h1v1h-1zm1 0h1v2h-1zm30 1h4v4h-4zm4 0h1v4h-1z"/><path d="M149 62h7v1h-7zm7 0h1v1h-1zm-49 1h1v1h-1zm42 0h6v1h-6zm-43 1h1v2h-1zm20 0h2v4h-2zm2 0h1v1h-1zm22 0h5v1h-5zm5 0h1v1h-1z"/><path d="M123 65h5v1h-5zm5 0h1v2h-1zm22 0h2v1h-2zm2 0h1v1h-1zm-46 1h1v1h-1zm18 0h3v2h-3zm5 0h1v1h-1zm6 0h6v1h-6zm6 0h1v1h-1zm-13 1h1v1h-1zm8 0h1v1h-1zm-12 1h3v1h-3zm3 0h1v1h-1zm8 0h1v1h-1zm-30 1h1v1h-1zm10 0h1v1h-1zm8 0h2v1h-2zm2 0h1v1h-1zm-13 1h3v2h-3zm3 0h1v1h-1z"/><path d="M111 71h3v1h-3zm0 1h3v1h-3zm3 0h1v1h-1zm35 0h1v7h-1zm1 0h1v7h-1zm-39 1h1v1h-1zm1 0h1v1h-1zm3 0h1v1h-1zm26 0h1v1h-1zm-31 1h1v1h-1zm1 0h1v1h-1zm24 0h1v2h-1z"/><path d="M148 74h4v4h-4zm4 0h1v1h-1zm-16 1h3v1h-3zm3 0h1v1h-1zm13 0h1v1h-1zm-18 1h4v1h-4zm4 0h1v1h-1z"/><path d="M147 76h4v2h-4zm-25 2h1v2h-1zm1 0h1v1h-1zm24 0h4v1h-4zm4 0h1v1h-1z"/><path d="M121 79h2v1h-2zm2 0h1v1h-1zm25 0h2v1h-2zm2 0h1v1h-1zm-30 1h2v1h-2zm2 0h1v1h-1zm25 0h1v1h-1zm-27 1h1v1h-1zm1 0h1v1h-1zm-2 1h1v1h-1zm1 0h1v1h-1zm-11 2h1v1h-1zm8 0h1v1h-1zm11 0h1v1h-1zm1 0h1v1h-1zm-1 1h1v1h-1zm13 0h1v4h-1zm1 1h1v2h-1zm1 0h1v2h-1zm-16 1h1v1h-1zm17 0h1v1h-1zm1 0h1v1h-1z"/><path d="M139 88h4v1h-4zm4 0h1v1h-1zm-5 1h3v1h-3zm3 0h1v1h-1zm-4 1h3v1h-3zm3 0h1v1h-1zm-7 1h4v1h-4zm4 0h1v1h-1zm-7 1h1v1h-1zm8 0h1v1h-1zm-13 1h1v1h-1z"/></g><path d="M143 26h1v1h-1zm-40 4h1v1h-1zm61 15h1v1h-1zm3 32h1v1h-1zm-4 9h1v1h-1zm-70 4h1v1h-1zm67 1h1v1h-1zm-1 1h1v1h-1zm-1 1h1v1h-1zm-1 1h1v1h-1zm-1 1h1v1h-1zm-1 1h1v1h-1zm-1 1h1v1h-1zm-53 1h1v1h-1zm51 0h1v1h-1zm-50 1h1v1h-1zm35 6h1v1h-1zm-1 1h1v1h-1zm-62 24h1v1h-1zm80 1h1v1h-1zm1 1h1v1h-1zm1 1h1v1h-1zm56 4h1v1h-1zm-166 2h1v1h-1zm35 0h1v1h-1zm1 1h1v1h-1zm126 0h1v1h-1zm-163 1h1v1h-1zm171 4h1v1h-1zm-157 5h1v1h-1zm90 0h1v1h-1zm2 4h1v1h-1zm41 1h1v1h-1zm-130 1h1v1h-1zm0 1h1v1h-1zm129 1h1v1h-1zm-36 2h1v1h-1zm-96 1h1v1h-1zm-24 1h1v1h-1zm29 0h1v1h-1zm5 0h1v1h-1zm24 0h1v1h-1zm23 0h1v1h-1zm48 0h1v1h-1zm23 0h1v1h-1zm31 0h1v1h-1z" fill="#9a9a9a"/><path d="M118 32h1v1h-1zm28 5h1v1h-1zm3 2h1v1h-1zm2 2h1v1h-1zm1 1h1v1h-1zM93 61h1v1h-1zm0 7h1v1h-1zm63 14h1v1h-1zm-9 10h1v1h-1zm-5 3h1v1h-1z" fill="#41a2b5"/><path d="M135 32h1v1h-1zm-26 4h1v1h-1zm-1 6h1v1h-1zm35 0h1v1h-1zm-19 1h1v1h-1zm-4 2h1v1h-1zm29 0h1v1h-1zm-18 2h1v1h-1zm1 0h1v1h-1zm-7 1h1v1h-1zm11 0h1v1h-1zm-16 2h1v3h-1zm0 3h1v1h-1zm-25 1h1v1h-1zm56 0h1v1h-1zm-53 1h1v1h-1zm34 0h1v1h-1zm11 0h1v1h-1zm1 0h1v1h-1zm-21 1h1v1h-1zm-29 1h1v1h-1zm59 0h1v1h-1zm6 1h1v1h-1zm-57 1h1v1h-1zm33 1h1v1h-1zm25 0h1v1h-1zm-63 1h1v8h-1zm8 0h1v1h-1zm20 1h1v1h-1zm-12 1h1v1h-1zm-9 1h1v1h-1zm30 0h1v1h-1zm10 0h1v1h-1zm-44 2h1v1h-1zm47 0h1v1h-1zm-47 1h1v1h-1zm14 0h1v1h-1zm33 0h1v1h-1zm6 0h1v1h-1zm1 0h1v1h-1zm-57 2h1v1h-1zm39 0h1v1h-1zm-33 1h1v1h-1zm14 0h1v1h-1zm12 0h1v1h-1zm31 0h1v1h-1zm-55 1h1v1h-1zm21 0h1v1h-1zm-32 1h1v1h-1zm52 0h1v1h-1zm-13 1h1v1h-1zm26 1h1v1h-1zm-53 4h1v1h-1zm20 0h1v1h-1zm4 0h1v1h-1zm10 0h1v1h-1zm4 0h1v1h-1zm-13 1h1v1h-1zm1 0h1v1h-1zm5 0h2v1h-2zm2 0h1v1h-1zm-15 2h1v1h-1zm28 0h1v1h-1zm-31 3h1v1h-1zm23 0h1v1h-1zm-38 1h1v1h-1zm1 1h1v1h-1zm41 0h1v1h-1zm-33 1h1v1h-1zm8 0h1v1h-1zm-1 1h1v1h-1zm14 0h1v1h-1zm-2 1h1v1h-1zm-2 1h1v1h-1zm-6 2h1v1h-1zm-14 3h1v1h-1zm11 0h1v1h-1zm1 0h1v1h-1zm6 0h1v1h-1zm1 0h1v1h-1zm-17 1h1v1h-1zm4 1h1v1h-1zm5 1h1v1h-1zm7 0h1v1h-1zm1 0h1v1h-1z" fill="#1fb3cb"/><path d="M130 33h1v1h-1zm-13 4h1v1h-1zm20 0h1v1h-1zm-5 6h1v1h-1zm-28 2h1v1h-1zm-1 1h1v1h-1zm15 0h1v1h-1zm20 0h1v1h-1zm-23 1h1v1h-1zm21 2h1v1h-1zm-29 3h1v1h-1zm-1 1h1v1h-1zm26 0h1v1h-1zm-27 1h1v1h-1zm27 0h1v1h-1zm17 0h1v1h-1zm-8 1h1v1h-1zm1 0h1v1h-1zm-39 2h1v1h-1zm20 0h1v1h-1zm31 0h1v1h-1zm5 0h1v1h-1zm-36 1h1v1h-1zm-17 1h1v1h-1zm38 0h1v1h-1zm4 0h1v1h-1zm12 0h1v1h-1zm-41 1h1v1h-1zm-18 1h1v1h-1zm28 0h1v1h-1zm2 1h1v1h-1zm13 1h1v1h-1zm-51 1h1v3h-1zm29 0h1v1h-1zm-22 1h1v1h-1zm34 0h1v1h-1zm-41 2h1v1h-1zm58 0h1v1h-1zm1 0h1v1h-1zm-10 1h1v1h-1zm-21 2h1v1h-1zm-18 1h1v1h-1zm22 0h1v1h-1zm-22 1h1v1h-1zm-5 1h1v1h-1zm1 0h1v1h-1zm9 0h1v1h-1zm26 0h1v1h-1zm-21 2h1v1h-1zm14 1h1v1h-1zm18 0h1v1h-1zm-26 1h1v1h-1zm-1 2h1v1h-1zm18 4h1v1h-1zm-26 4h1v1h-1zm20 0h1v1h-1zm-4 1h1v1h-1zm-1 7h4v1h-4zm4 0h1v1h-1z" fill="#1dadc8"/><path d="M132 23h1v1h-1zm28 16h1v1h-1zm-69 4h1v1h-1zm-3 5h1v1h-1zm0 33h1v1h-1zm-15 48h1v1h-1zm24 1h1v30h-1zm30 1h1v1h-1zm31 7h1v1h-1zm-4 2h1v1h-1zm59 0h1v1h-1zm-161 4h1v1h-1zm-11 6h1v1h-1zm154 0h1v1h-1zm-135 2h1v1h-1zm26 1h1v1h-1zm64 0h1v1h-1zm-62 3h1v1h-1zm104 0h1v1h-1zm-95 4h1v1h-1zm93 0h1v1h-1zm28 1h1v1h-1z" fill="#49494a"/><path d="M101 32h1v1h-1zm-1 1h1v1h-1zm63 11h1v1h-1zm5 25h1v1h-1zm0 1h1v1h-1zM90 84h1v1h-1zm6 9h1v1h-1zm-45 39h1v1h-1zm85 1h1v1h-1zm74 0h1v1h-1zm-137 3h1v1h-1zm131 2h1v1h-1zm-5 2h1v1h-1zm-121 2h1v1h-1zm75 0h1v1h-1zm4 1h1v1h-1zm28 1h1v2h-1zm-34 1h1v1h-1zm-70 1h1v1h-1zm68 0h1v1h-1zm36 0h1v1h-1zm-31 1h1v1h-1zm-61 6h1v1h-1zm59 3h1v1h-1zm64 0h1v1h-1zm-158 1h1v1h-1zm133 2h1v1h-1zm-128 1h1v1h-1zm53 1h1v1h-1zm48 0h1v1h-1zm26 0h1v1h-1z" fill="#3a3a3d"/><path d="M136 32h1v1h-1zm-24 2h1v1h-1zm41 9h1v1h-1zm-54 2h1v1h-1zm-3 5h1v1h-1zm64 7h1v1h-1zM93 69h1v1h-1zm67 3h1v1h-1zm-66 2h1v1h-1zm65 2h1v1h-1zm-64 1h1v1h-1zm3 6h1v1h-1zm3 4h1v1h-1zm1 1h1v1h-1zm1 1h1v1h-1zm1 1h1v1h-1zm12 7h1v1h-1zm18 1h1v1h-1z" fill="#4f9aa8"/><path d="M139 25h1v1h-1zm18 11h1v1h-1zm8 12h1v1h-1zM97 94h1v1h-1zm46 9h1v1h-1zm3 26h1v1h-1zm61 7h1v1h-1zm-134 1h1v1h-1zm-30 7h1v1h-1zm-7 6h1v1h-1zm55 3h1v1h-1zm-59 6h1v1h-1z" fill="#27272b"/><path d="M140 25h1v1h-1zm27 26h1v2h-1zm-80 1h1v1h-1zm80 1h1v1h-1zm1 4h1v1h-1zm-1 19h1v1h-1zm-80 2h1v1h-1zm7 13h1v1h-1zm1 1h1v1h-1zm5 5h1v1h-1zm53 1h1v1h-1zm-46 4h1v1h-1zm10 4h1v1h-1zm1 0h1v1h-1zm-68 23h1v1h-1zm138 0h1v1h-1zm-39 5h1v1h-1zm-96 1h1v1h-1zm147 1h1v1h-1zm0 1h1v1h-1zm-146 1h1v1h-1zm26 0h1v1h-1zm124 2h1v1h-1zm-148 2h1v1h-1zm159 1h1v1h-1zm-135 3h1v1h-1zm116 0h1v1h-1zm-143 1h1v1h-1zm5 0h1v1h-1zm110 0h1v1h-1zm-126 1h1v1h-1zm170 0h1v1h-1zm-177 3h1v1h-1zm-1 3h1v1h-1zm5 1h1v1h-1zm107 0h1v1h-1zm-108 1h1v1h-1zm109 0h1v1h-1zm21 2h1v1h-1zm-136 4h2v1h-2zm2 0h1v1h-1zm27 0h2v1h-2zm2 0h1v1h-1zm7 0h3v1h-3zm3 0h1v1h-1zm21 0h3v1h-3zm3 0h1v1h-1zm16 0h2v1h-2zm2 0h1v1h-1zm18 0h2v1h-2zm2 0h1v1h-1zm17 0h3v1h-3zm3 0h1v1h-1zm10 0h21v1h-21zm21 0h1v1h-1zm4 0h4v1h-4zm4 0h1v1h-1zm25 0h4v1h-4zm4 0h1v1h-1z" fill="#a9a9aa"/><path d="M139 33h1v1h-1zm6 3h1v1h-1zm12 13h1v1h-1z" fill="#5b617b"/><path d="M129 34h1v1h-1zm-9 3h1v1h-1zm0 1h1v1h-1zm-1 7h1v1h-1zm32 0h1v1h-1zm-35 1h1v1h-1zm28 0h1v1h-1zm-41 1h1v1h-1zm8 0h1v1h-1zm-5 1h1v1h-1zm43 3h1v2h-1zm0 2h1v1h-1zm3 0h1v1h-1zm-33 1h1v1h-1zm-6 1h1v1h-1zm25 0h1v1h-1zm14 3h1v1h-1zm-34 2h1v1h-1zm-2 1h1v1h-1zm-2 1h1v1h-1zm14 0h1v1h-1zm29 2h1v1h-1zm-14 1h1v1h-1zm5 0h1v1h-1zm-31 1h1v2h-1zm38 0h1v1h-1zm1 0h1v1h-1zm-52 1h1v1h-1zm11 0h1v1h-1zm-16 1h1v1h-1zm18 0h1v1h-1zm22 0h1v1h-1zm-40 1h1v1h-1zm6 1h1v1h-1zm18 1h1v1h-1zm15 2h1v1h-1zm-30 1h1v1h-1zm24 1h1v1h-1zm-25 1h1v1h-1zm16 0h1v1h-1zm22 1h1v1h-1zm-14 1h1v1h-1zm3 0h2v1h-2zm2 0h1v1h-1zm-23 2h1v1h-1zm14 4h1v1h-1zm14 0h1v1h-1zm-34 1h1v1h-1zm9 0h1v1h-1zm10 0h1v1h-1zm-16 1h1v1h-1zm14 1h1v1h-1zm0 1h1v1h-1zm19 2h1v1h-1zm-15 2h1v1h-1zm-7 1h1v1h-1z" fill="#1c75a5"/><path d="M130 34h1v1h-1zm11 7h1v1h-1zm1 0h1v1h-1zm-33 1h1v1h-1zm23 0h1v1h-1zm-23 1h1v1h-1zm29 4h1v1h-1zm-7 6h1v1h-1zm19 0h1v1h-1zm-7 1h1v1h-1zm-19 3h2v1h-2zm2 0h1v1h-1zm28 1h1v1h-1zm-47 1h1v1h-1zm-9 1h1v1h-1zm31 2h1v1h-1zm-24 1h1v1h-1zm38 0h1v1h-1zm-35 1h1v1h-1zm27 1h1v1h-1zm-36 1h1v1h-1zm54 0h1v1h-1zm-49 4h1v1h-1zm12 1h1v1h-1zm18 3h1v1h-1zm12 1h1v1h-1zm-22 1h2v1h-2zm8 0h1v1h-1zm8 0h1v1h-1zm-15 2h1v1h-1zm20 0h1v1h-1zm-34 3h1v1h-1zm38 0h1v1h-1zm-27 1h1v1h-1zm-2 2h1v1h-1zm14 0h1v1h-1zm-16 1h1v1h-1zm-2 1h1v1h-1zm19 7h1v1h-1z" fill="#1b5996"/><path d="M116 24h1v1h-1zm22 0h1v1h-1zm-37 7h1v1h-1zm52 0h1v1h-1zm-54 1h1v1h-1zm1 0h1v1h-1zm54 0h1v1h-1zm-56 1h1v1h-1zm59 2h1v1h-1zm1 1h1v1h-1zm-65 3h1v1h-1zm-1 1h1v1h-1zm77 17h1v1h-1zM85 70h1v1h-1zm0 4h1v1h-1zm67 25h1v1h-1zm50 32h1v1h-1zm8 0h1v1h-1zm-158 1h1v1h-1zm150 0h1v1h-1zm8 0h1v1h-1zm-73 3h1v10h-1zm13 0h1v1h-1zm56 1h1v1h-1zm7 1h1v1h-1zm-173 2h1v1h-1zm34 0h1v1h-1zm131 0h1v1h-1zm-165 1h1v1h-1zm158 0h1v1h-1zm-142 1h1v1h-1zm21 2h1v1h-1zm-40 2h1v1h-1zm100 0h1v1h-1zm-94 2h1v1h-1zm-7 1h1v1h-1zm118 0h1v1h-1zm1 0h1v1h-1zm-2 1h1v1h-1zm65 0h1v1h-1zm-24 1h1v1h-1zm-57 1h1v11h-1zm-103 2h1v1h-1zm51 0h1v1h-1zm66 0h1v1h-1zm-119 4h1v1h-1zm31 0h1v1h-1zm1 2h1v1h-1zm126 0h1v1h-1zm-126 1h1v1h-1zm73 2h1v1h-1z" fill="#f4f4f4"/><path d="M117 24h1v1h-1zm-12 5h1v1h-1zM90 45h1v1h-1zm-1 2h1v1h-1zm79 11h1v1h-1zm0 13h1v1h-1zM98 95h1v1h-1zm-49 34h1v1h-1zm98 0h1v1h-1zm62 2h1v1h-1zm-7 2h1v1h-1zm-153 4h1v1h-1zm7 6h1v1h-1zm-3 3h1v1h-1zm16 15h1v1h-1z" fill="#18181c"/><path d="M138 25h1v1h-1zm3 1h1v1h-1zm5 2h1v1h-1zm6 3h1v1h-1zm2 2h1v1h-1zm-55 1h1v1h-1zm-2 1h1v1h-1zm-1 1h1v1h-1zm0 1h1v1h-1zm62 0h1v1h-1zm2 3h1v1h-1zm-68 1h1v1h-1zm-1 3h1v1h-1zm74 3h1v1h-1zm-78 7h1v1h-1zm81 8h1v6h-1zm0 6h1v1h-1zm-82 3h1v1h-1zm81 3h1v1h-1zm-78 8h1v1h-1zm5 8h1v1h-1zm64 2h1v1h-1zm-1 1h1v1h-1zm-1 1h1v1h-1zm-1 1h1v1h-1zm-1 1h1v1h-1zm-53 1h1v1h-1zm49 2h1v1h-1zm-41 3h1v1h-1zm4 2h1v1h-1zm4 1h1v1h-1zm19 0h1v1h-1zm-34 25h1v1h-1zm85 0h1v1h-1zm17 0h1v1h-1zm-154 1h1v1h-1zm52 0h1v1h-1zm50 0h1v1h-1zm35 0h1v1h-1zm-33 1h1v1h-1zm-103 1h1v1h-1zm116 1h1v8h-1zm40 1h1v1h-1zm-54 1h1v1h-1zm48 0h1v1h-1zm4 1h1v1h-1zm-164 3h1v1h-1zm35 0h1v1h-1zm127 0h1v1h-1zm-4 1h1v1h-1zm-144 1h1v1h-1zm112 0h1v1h-1zm-88 1h1v1h-1zm4 0h1v1h-1zm2 2h1v1h-1zm1 2h1v1h-1zm-45 1h1v1h-1zm46 0h1v1h-1zm80 0h1v9h-1zm49 0h1v1h-1zm-179 1h1v1h-1zm21 0h1v1h-1zm94 0h1v1h-1zm-68 1h1v1h-1zm5 0h1v1h-1zm47 0h1v1h-1zm-95 1h13v1H41zm13 0h1v1h-1zm31 0h1v1h-1zm63 0h1v1h-1zm52 0h12v1h-12zm12 0h1v1h-1zm-122 1h1v1h-1zm104 0h1v1h-1zm-134 1h1v1h-1zm-21 1h17v1H39zm17 0h1v1h-1zm143 0h14v1h-14zm14 0h1v1h-1zm-125 1h1v1h-1zm5 0h1v1h-1zm-59 1h1v1h-1zm55 1h1v1h-1zm78 0h1v1h-1zm25 0h1v1h-1zm4 0h1v1h-1zm-47 1h1v1h-1zm46 0h1v1h-1zm26 1h1v1h-1zm-185 1h1v1h-1zm37 1h1v1h-1zm149 0h1v1h-1z" fill="#515154"/><path d="M154 45h1v1h-1zm2 3h1v1h-1z" fill="#3c4e83"/><path d="M160 55h1v1h-1zm-67 3h1v1h-1zm68 3h1v1h-1zm0 7h1v1h-1zm0 1h1v1h-1zm-2 8h1v1h-1zm-62 5h1v1h-1zm48 12h1v1h-1zm-4 2h1v1h-1zm-26 1h1v1h-1zm21 1h1v1h-1zm-14 1h1v1h-1zm9 0h1v1h-1z" fill="#687d84"/><path d="M121 31h1v1h-1zm26 6h1v1h-1zm-45 4h1v1h-1zm58 15h1v1h-1zm-67 3h1v1h-1zm68 4h1v4h-1zm0 4h1v1h-1zm-67 8h1v1h-1zm58 13h1v1h-1zm-1 1h1v1h-1zm-1 1h1v1h-1zm-44 2h1v1h-1zm19 7h4v1h-4zm4 0h1v1h-1z" fill="#5f8992"/><path d="M115 33h1v1h-1zm44 21h1v1h-1zm-65 2h1v1h-1zm66 2h1v1h-1zm-6 27h1v1h-1zm-46 8h1v1h-1zm36 1h1v1h-1zm-24 4h1v1h-1zm13 0h1v1h-1z" fill="#49a3b2"/><g fill="#fff"><path d="M0 0h254v22H0zm254 0h1v196h-1zM0 22h254v1H0zm0 1h120v1H0zm120 0h1v1h-1zm13 0h121v1H133zM0 24h113v1H0zm113 0h1v1h-1zm27 0h114v1H140zM0 25h110v1H0zm110 0h1v1h-1zm33 0h111v1H143zM0 26h109v1H0zm109 0h1v1h-1zm36 0h109v1H145zM0 27h107v1H0zm107 0h1v1h-1zm40 0h107v1H147zM0 28h104v1H0zm104 0h1v1h-1zm45 0h105v1H149zM0 29h103v1H0zm103 0h1v1h-1zm48 0h103v1H151zM0 30h101v1H0zm101 0h1v1h-1zm51 0h102v1H152zM0 31h100v1H0zm100 0h1v1h-1zm54 0h100v1H154zM0 32h98v2H0zm98 0h1v1h-1zm57 0h99v1h-99zm1 1h98v1h-98zM0 34h97v1H0zm97 0h1v1h-1zm60 0h97v1h-97zM0 35h96v1H0zm96 0h1v1h-1zm62 0h96v1h-96zM0 36h95v1H0zm95 0h1v1h-1zm64 0h95v1h-95zM0 37h93v2H0zm93 0h1v1h-1zm67 0h94v1h-94zm-67 1h1v1h-1zm68 0h93v1h-93zM0 39h92v2H0zm92 0h1v1h-1zm70 0h92v1h-92zm0 1h92v1h-92zM0 41h91v1H0zm91 0h1v1h-1zm72 0h91v1h-91zM0 42h90v2H0zm90 0h1v1h-1zm73 0h91v1h-91zm1 1h90v1h-90zM0 44h89v3H0zm89 0h1v1h-1zm76 0h89v1h-89zm0 1h89v1h-89zm1 1h88v2h-88zM0 47h88v2H0zm88 0h1v1h-1zm78 1h88v1h-88zM0 49h87v3H0zm87 0h1v1h-1zm80 0h87v1h-87zm0 1h87v1h-87zm1 1h86v2h-86zM0 52h86v3H0zm86 0h1v1h-1zm82 1h86v1h-86zm1 1h85v2h-85zM0 55h85v73H0zm85 0h1v1h-1zm84 1h85v1h-85zm1 1h84v71h-84z"/><path d="M169 72h85v56h-85zm-84 3h1v69h-1z"/><path d="M168 76h86v52h-86zm-82 2h1v66h-1zm1 2h1v65h-1z"/><path d="M167 80h87v48h-87z"/><path d="M166 81h88v47h-88zm-78 2h1v64h-1z"/><path d="M165 85h89v43h-89zm-76 1h1v62h-1z"/><path d="M164 86h90v42h-90zm-74 1h1v63h-1zm1 1h1v63h-1z"/><path d="M163 88h91v40h-91z"/><path d="M162 89h92v39h-92zm-70 1h1v62h-1zm1 1h1v37h-1z"/><path d="M161 91h93v37h-93zm-67 1h1v36h-1z"/><path d="M160 92h94v36h-94z"/><path d="M159 93h95v35h-95zm-64 1h1v34h-1z"/><path d="M158 94h96v34h-96zm-62 1h1v33h-1z"/><path d="M157 95h97v33h-97zm-60 1h1v32h-1z"/><path d="M156 96h98v32h-98zm-58 1h1v99h-1zm1 0h1v99h-1z"/><path d="M155 97h99v31h-99zm-55 1h1v98h-1z"/><path d="M154 98h100v30H154zm-53 1h1v29h-1z"/><path d="M153 99h101v29H153zm-51 1h1v28h-1zm1 0h1v28h-1z"/><path d="M151 100h103v28H151zm-47 1h1v27h-1z"/><path d="M149 101h105v27H149zm-44 1h1v26h-1z"/><path d="M148 102h106v26H148zm-42 1h1v25h-1zm1 0h1v25h-1z"/><path d="M146 103h108v25H146zm-38 1h1v24h-1zm1 0h2v24h-2zm2 0h1v24h-1z"/><path d="M143 104h111v24H143zm-31 1h1v23h-1zm1 0h1v23h-1z"/><path d="M141 105h113v23H141zm-27 1h2v22h-2zm2 0h1v22h-1z"/><path d="M137 106h117v22H137zm-20 1h4v21h-4zm4 0h1v21h-1z"/><path d="M133 107h121v21H133z"/><path d="M122 108h132v20H122zM0 128h254v1H0zm0 1h44v3H0zm44 0h1v1h-1zm7 0h17v1H51zm17 0h1v67h-1zm7 0h17v1H75zm54 0h2v67h-2zm2 0h1v67h-1zm21 0h10v1h-10zm10 0h1v67h-1zm27 0h13v4h-13zm13 0h1v1h-1zm8 0h44v1h-44zm-166 1h1v1h-1zm8 0h16v1H52zm23 0h17v1H75zm78 0h9v1h-9zm49 0h1v1h-1zm8 0h44v1h-44zm-158 1h16v1H52zm24 0h16v1H76zm79 0h7v1h-7zm56 0h43v2h-43zM0 132h43v2H0zm43 0h1v1h-1zm10 0h15v2H53zm24 0h15v1H77zm79 0h6v1h-6zm-79 1h15v1H77zm80 0h5v1h-5zm32 0h12v2h-12zm12 0h1v1h-1zm10 0h43v1h-43zM0 134h42v2H0zm42 0h1v1h-1zm11 0h15v1H53zm25 0h14v1H78zm23 0h11v62h-11zm11 0h1v62h-1z"/><path d="M117 134h14v62h-14zm20 0h11v1h-11zm11 0h1v10h-1zm10 0h4v2h-4zm11 0h31v3h-31zm43 0h42v1h-42zm-158 1h14v1H54zm25 0h13v1H79z"/><path d="M138 135h11v9h-11zm11 0h1v9h-1zm51 0h1v1h-1zm12 0h42v1h-42zM0 136h41v2H0zm41 0h1v1h-1zm13 0h14v1H54zm26 0h12v1H80zm70 0h1v8h-1zm1 0h1v7h-1zm7 0h4v1h-4zm55 0h41v1h-41zm-165 1h1v12h-1zm7 0h13v1H55zm26 0h11v1H81zm71 0h1v5h-1zm7 0h3v59h-3zm10 0h30v2h-30zm30 0h1v1h-1zm7 0h1v12h-1zm8 0h40v3h-40zM0 138h40v3H0zm40 0h1v1h-1zm7 0h1v11h-1zm8 0h13v1H55zm26 0h11v1H81zm72 0h1v2h-1zm-97 1h12v1H56zm26 0h10v1H82zm87 0h29v3h-29zm29 0h1v1h-1zm9 0h1v10h-1z"/><path d="M46 140h3v9h-3zm3 0h1v9h-1zm7 0h12v1H56zm18 0h1v56h-1zm1 0h1v56h-1zm8 0h9v1h-9zm70 0h1v1h-1zm52 0h2v9h-2zm9 0h40v1h-40zM0 141h39v2H0zm39 0h1v1h-1zm18 0h11v3H57zm19 0h1v55h-1zm7 0h9v1h-9z"/><path d="M204 141h4v8h-4zm4 0h1v8h-1zm7 0h39v1h-39zm-170 1h5v7h-5zm5 0h1v7h-1zm34 0h8v1h-8zm68 0h1v1h-1zm6 0h4v54h-4zm11 0h28v1h-28zm28 0h1v1h-1zm18 0h39v1h-39zM0 143h38v1H0zm38 0h1v1h-1zm113 0h1v1h-1zm35 0h11v1h-11zm11 0h1v1h-1z"/><path d="M203 143h6v6h-6zm6 0h1v6h-1zm7 0h38v1h-38zM0 144h37v3H0zm37 0h1v1h-1zm7 0h7v5h-7zm7 0h1v5h-1zm6 0h11v1H57zm20 0h1v52h-1zm1 0h1v52h-1zm7 0h7v1h-7zm53 0h12v1h-12zm12 0h1v1h-1zm36 0h10v2h-10zm10 0h1v1h-1zm20 0h38v1h-38zm-158 1h10v1H58zm21 0h1v51h-1zm8 0h5v1h-5zm51 0h9v1h-9zm9 0h1v1h-1zm10 0h5v51h-5z"/><path d="M202 145h8v4h-8zm8 0h1v4h-1zm7 0h37v1h-37zm-165 1h1v3h-1zm7 0h9v1h-9zm127 0h9v2h-9zm9 0h1v1h-1zm22 0h37v1h-37zM0 147h36v3H0zm36 0h1v1h-1zm23 0h9v1h-9zm21 0h1v49h-1zm8 0h4v1h-4zm130 0h36v1h-36zm-175 1h9v1h-9zm17 0h8v3h-8zm21 0h1v48h-1zm8 0h3v1h-3zm67 0h6v12h-6zm13 0h25v4h-25zm25 0h1v1h-1z"/><path d="M201 148h10v1h-10zm10 0h1v1h-1zm7 0h36v1h-36zm-176 1h11v1H42zm11 0h1v1h-1zm101 0h8v8h-8zm47 0h10v1h-10zm10 0h1v1h-1zm8 0h35v2h-35zM0 150h35v2H0zm35 0h1v1h-1zm47 0h1v46h-1zm8 0h2v1h-2z"/><path d="M151 150h11v2h-11zm-91 1h8v1h-8zm23 0h1v45h-1zm8 0h1v1h-1zm47 0h4v45h-4zm4 0h1v45h-1z"/><path d="M150 151h12v1h-12zm69 0h35v1h-35zM0 152h34v2H0zm34 0h1v1h-1zm27 0h7v1h-7zm23 0h1v44h-1zm8 0h1v1h-1zm51 0h1v44h-1zm7 0h12v1h-12zm19 0h24v1h-24zm24 0h1v1h-1zm27 0h34v1h-34zm-158 1h6v1h-6zm82 0h1v43h-1zm8 0h10v1h-10zm17 0h23v2h-23zm23 0h1v1h-1zm28 0h34v1h-34zM0 154h33v2H0zm33 0h1v1h-1zm29 0h6v1h-6zm23 0h1v42h-1zm60 0h1v42h-1zm7 0h10v1h-10zm69 0h33v1h-33zm-158 1h5v1h-5zm23 0h1v41h-1zm67 0h9v1h-9zm16 0h22v2h-22zm22 0h1v1h-1zm30 0h33v1h-33zM0 156h32v4H0zm32 0h1v1h-1zm7 0h17v40H39zm17 0h1v40h-1zm7 0h5v1h-5zm24 0h1v40h-1zm59 0h1v40h-1zm52 0h16v40h-16zm16 0h1v40h-1zm8 0h32v1h-32zm-158 1h4v1h-4zm24 0h1v39h-1zm66 0h8v1h-8zm15 0h21v1h-21zm21 0h1v1h-1zm25 0h1v39h-1zm7 0h32v2h-32z"/><path d="M38 158h18v38H38zm26 0h4v1h-4zm25 0h1v38h-1zm58 0h1v38h-1zm8 0h7v1h-7zm34 0h1v38h-1zm1 0h1v1h-1zm7 0h18v38h-18zm-140 1h1v37h-1zm8 0h3v37h-3zm83 0h1v37h-1zm68 0h1v37h-1zm6 0h32v1h-32zM0 160h31v36H0zm31 0h1v1h-1z"/><path d="M37 160h21v36H37zm21 0h1v36h-1zm32 0h1v36h-1zm59 0h1v36h-1zm7 0h6v1h-6zm40 0h20v36h-20zm27 0h31v1h-31zm-132 1h1v35h-1z"/><path d="M195 161h22v35h-22zm22 0h1v35h-1zm7 0h30v35h-30zm-188 1h23v34H36zm23 0h1v34h-1zm33 0h1v34h-1zm58 0h1v34h-1z"/><path d="M31 163h223v33H31zM0 196h254v1H0zm254 0h1v1h-1z"/></g><path d="M118 24h1v1h-1zm30 5h1v1h-1zm13 12h1v1h-1zM86 56h1v1h-1zm82 3h1v1h-1zM86 73h1v1h-1zm78 11h1v1h-1zm-42 22h1v1h-1zm10 0h1v1h-1zm-85 23h1v1h-1zm1 0h1v1h-1zm22 0h2v1h-2zm2 0h1v1h-1zm22 0h3v1h-3zm3 0h1v1h-1zm6 0h23v1h-23zm23 0h1v1h-1zm8 0h11v1h-11zm11 0h1v1h-1zm20 0h21v1h-21zm21 0h1v1h-1zm19 0h2v1h-2zm2 0h1v1h-1zm-138 1h1v30h-1zm24 0h1v22h-1zm-46 5h1v1h-1zm110 1h1v1h-1zm48 0h1v1h-1zm-163 1h1v1h-1zm170 1h1v1h-1zm-162 1h1v1h-1zm-10 2h1v1h-1zm4 1h1v1h-1zm170 0h1v1h-1zm-4 1h1v1h-1zm-126 1h1v1h-1zm118 0h1v1h-1zm-164 2h1v1h-1zm4 0h1v1h-1zm158 1h1v1h-1zm12 0h1v1h-1zm-59 1h1v1h-1zm65 3h1v1h-1zm-125 1h1v1h-1zm56 0h1v1h-1zm-92 3h1v1h-1zm12 5h1v1h-1zm86 1h1v1h-1z" fill="#303032"/><path d="M106 28h1v1h-1zm43 1h1v1h-1zM86 53h1v1h-1zm82 22h1v1h-1zm-80 7h1v1h-1zm7 11h1v1h-1zm2 2h1v1h-1zm49 7h1v1h-1zm-26 4h1v1h-1zm1 0h1v1h-1zm12 0h1v1h-1zm1 0h1v1h-1zm29 24h1v31h-1zm-117 8h1v1h-1zm163 4h1v1h-1zm-57 1h1v1h-1zm-1 1h1v1h-1zm-14 2h1v1h-1zm-55 2h1v1h-1zm-40 2h1v1h-1zm96 0h4v1h-4zm4 0h1v1h-1zm58 0h1v1h-1zm12 0h1v1h-1zm-15 5h1v1h-1zm-159 2h1v1h-1zm178 0h1v1h-1zm5 0h1v1h-1zm-58 4h1v1h-1zm-132 1h1v1h-1zm101 0h1v1h-1z" fill="#b9b9b9"/><path d="M119 24h1v1h-1zm31 6h1v1h-1zm-48 1h1v1h-1zm65 24h1v1h-1zm-81 3h1v1h-1zm82 3h1v1h-1zM87 76h1v1h-1zm78 5h1v1h-1zm-1 2h1v1h-1zm-71 6h1v1h-1zm60 8h1v1h-1zm-51 1h1v1h-1zm47 2h1v1h-1zm-38 3h1v1h-1zm13 3h6v1h-6zm6 0h1v1h-1zm-3 24h1v1h-1zm37 0h1v30h-1zm-62 2h1v1h-1zm85 0h1v1h-1zm16 0h1v1h-1zm-87 2h1v26h-1zm92 3h1v1h-1zm-163 2h1v1h-1zm35 0h1v1h-1zm74 0h1v1h-1zm46 0h1v1h-1zm-146 1h1v1h-1zm155 0h1v1h-1zm-57 4h1v1h-1zm63 1h1v1h-1zm-133 2h1v1h-1zm-24 1h1v1h-1zm138 0h1v1h-1zm2 6h1v1h-1zm16 0h1v1h-1zm6 2h1v1h-1zm-158 2h1v1h-1zm-3 1h1v1h-1zm57 1h1v1h-1zm48 0h1v1h-1z" fill="#4a4a4d"/><path d="M138 33h1v1h-1zm20 19h1v1h-1z" fill="#44668e"/><path d="M133 34h1v1h-1zm-14 3h1v1h-1zm-9 4h1v1h-1zm27 0h1v1h-1zm-8 2h1v1h-1zm-24 3h1v1h-1zm19 7h1v1h-1zm20 1h1v1h-1zm-25 1h1v1h-1zm17 0h1v1h-1zm-23 1h1v1h-1zm18 0h1v1h-1zm-3 1h1v1h-1zm-27 3h1v1h-1zm5 0h1v1h-1zm31 0h1v1h-1zm-37 3h1v1h-1zm24 0h1v1h-1zm11 0h1v1h-1zm-5 1h1v1h-1zm-22 2h1v1h-1zm19 4h1v1h-1zm27 1h1v1h-1zm-40 3h1v1h-1zm-6 3h1v1h-1zm12 0h1v1h-1zm28 4h1v1h-1zm-16 2h1v1h-1zm1 2h1v1h-1zm-8 1h1v1h-1zm22 0h1v1h-1zm-9 1h1v1h-1zm-7 4h1v1h-1zm-9 3h1v1h-1z" fill="#1a7cab"/><path d="M132 35h1v2h-1zm6 0h1v1h-1zm-12 1h1v1h-1zm6 1h1v1h-1zm6 1h1v2h-1zm-19 1h1v4h-1zm-6 1h1v1h-1zm25 0h1v1h-1zm6 0h1v1h-1zm-14 2h1v1h-1zm-11 1h1v1h-1zm7 0h1v1h-1zm-16 1h1v1h-1zm4 2h1v1h-1zm29 1h1v1h-1zm7 0h1v3h-1zm-6 1h1v1h-1zm-17 1h1v1h-1zm4 0h1v1h-1zm0 1h1v1h-1zm19 0h1v2h-1zm-44 1h1v1h-1zm44 1h1v1h-1zm-36 1h1v1h-1zm29 0h1v1h-1zm-4 1h2v1h-2zm2 0h1v1h-1zm-23 1h1v1h-1zm-4 1h1v4h-1zm4 0h1v1h-1zm-19 1h1v1h-1zm0 1h1v1h-1zm58 0h1v1h-1zm-6 1h1v1h-1zm-51 1h1v1h-1zm7 0h1v1h-1zm7 0h1v1h-1zm29 0h1v1h-1zm-43 1h1v1h-1zm37 0h1v1h-1zm20 0h1v1h-1zm-51 1h1v1h-1zm51 0h1v1h-1zm-28 1h1v1h-1zm-30 1h1v1h-1zm25 0h1v1h-1zm-17 2h1v1h-1zm16 0h1v1h-1zm0 1h1v1h-1zm12 0h1v1h-1zm5 0h2v1h-2zm2 0h1v1h-1zm-37 1h1v1h-1zm11 0h1v2h-1zm12 1h1v1h-1zm-12 1h1v1h-1zm8 0h1v1h-1zm-14 2h1v1h-1zm5 0h1v1h-1zm32 1h1v1h-1zm-35 1h1v1h-1zm24 0h1v1h-1zm1 0h1v1h-1zm3 0h1v1h-1zm7 0h1v1h-1zm-37 1h1v1h-1zm23 0h1v1h-1zm-25 1h1v1h-1zm24 1h1v1h-1zm-12 1h1v1h-1zm32 0h1v1h-1zm-7 1h1v1h-1zm-26 1h1v1h-1zm31 1h1v1h-1zm-39 1h1v1h-1zm7 0h1v1h-1zm-11 2h1v1h-1zm26 0h1v1h-1zm-16 1h1v1h-1zm10 0h1v1h-1zm16 0h1v1h-1zm-17 1h1v1h-1zm3 0h1v1h-1zm11 5h1v1h-1zm-13 2h1v1h-1zm1 0h1v1h-1z" fill="#1c3d87"/><path d="M111 25h1v1h-1zm-7 4h1v1h-1zm57 11h1v1h-1zm7 14h1v1h-1zm-83 6h1v1h-1zm79 25h1v1h-1zm-56 18h1v1h-1zm32 2h1v1h-1zm10 24h1v1h-1zm53 1h1v1h-1zm-152 1h1v1h-1zm24 0h1v1h-1zm53 2h1v1h-1zm-81 4h1v1h-1zm160 0h1v1h-1zm-2 1h1v1h-1zm-150 1h1v1h-1zm158 0h1v1h-1zm-60 2h1v1h-1zm-110 4h1v1h-1zm106 0h1v1h-1zm-91 1h1v1h-1zm153 0h1v1h-1zm-174 1h1v1h-1zm132 0h1v1h-1zm26 0h1v1h-1zm6 0h1v1h-1zm-148 1h1v1h-1zm31 3h1v1h-1zm108 3h1v1h-1zm28 0h1v1h-1zm-187 1h1v1h-1zm164 1h1v1h-1zm-140 1h1v1h-1zm140 0h1v1h-1zm-9 1h1v1h-1zm-151 1h1v1h-1zm114 3h1v1h-1z" fill="#dadada"/><path d="M108 27h1v1h-1zm38 0h1v1h-1zM89 46h1v1h-1zm78 32h1v1h-1zm-80 1h1v1h-1zm51 26h1v1h-1zm-88 25h1v1h-1zm103 1h1v1h-1zm-5 2h1v1h-1zm4 2h1v1h-1zm-99 2h1v1h-1zm147 1h1v1h-1zm-42 3h1v1h-1zm45 0h1v1h-1zm-125 2h1v1h-1zm91 0h15v1h-15zm15 0h1v1h-1zm-105 1h1v1h-1zm-37 3h1v1h-1zm-1 2h1v1h-1zm110 0h1v1h-1zm-8 1h1v1h-1zm1 1h1v1h-1zm-109 2h1v1h-1zm52 2h1v1h-1zm-50 3h1v1h-1zm53 0h1v1h-1zm127 1h1v1h-1zm-158 1h1v1h-1z" fill="#8a8a8a"/><path d="M124 31h5v1h-5zm5 0h1v1h-1zm-16 3h1v1h-1zm-2 1h1v1h-1zm-6 4h1v1h-1zm-3 3h1v1h-1zm-2 2h1v1h-1zm-4 7h1v1h-1zm63 4h1v1h-1zM95 76h1v1h-1zm60 7h1v1h-1zm-2 3h1v1h-1zm-4 4h1v1h-1zm-1 1h1v1h-1zm-41 1h1v1h-1zm38 1h1v1h-1zm-35 1h1v1h-1zm7 3h1v1h-1zm19 0h1v1h-1zm1 0h1v1h-1z" fill="#35b2c3"/><path d="M131 34h1v1h-1zm-1 1h1v1h-1zm10 0h1v1h-1zm1 0h1v1h-1zm1 1h1v1h-1zm-16 1h1v1h-1zm18 0h1v2h-1zm1 0h1v1h-1zm-27 1h1v1h-1zm8 0h1v1h-1zm-10 1h2v1h-2zm2 0h1v1h-1zm26 0h1v1h-1zm-29 1h1v1h-1zm16 0h1v1h-1zm8 0h4v1h-4zm4 0h1v1h-1zm-12 1h1v1h-1zm-3 1h1v1h-1zm-18 1h1v1h-1zm8 1h1v1h-1zm-1 1h1v1h-1zm-4 1h1v1h-1zm25 2h1v1h-1zm1 0h2v1h-2zm-34 1h1v1h-1zm25 0h1v2h-1zm26 0h1v1h-1zm-31 1h1v2h-1zm18 0h1v2h-1zm13 0h1v1h-1zm-26 1h1v2h-1zm25 0h1v1h-1zm-54 1h1v1h-1zm24 0h1v1h-1zm18 0h1v1h-1zm8 0h2v1h-2zm2 0h1v1h-1zm-38 1h1v1h-1zm15 0h1v1h-1zm7 0h1v1h-1zm5 0h1v1h-1zm-39 2h1v1h-1zm22 1h1v1h-1zm1 0h1v1h-1zm-8 1h1v1h-1zm-1 1h1v1h-1zm-17 1h1v1h-1zm50 0h1v3h-1zm3 0h1v1h-1zm1 0h1v1h-1zm-55 1h1v2h-1zm16 0h1v1h-1zm25 0h1v1h-1zm1 0h1v1h-1zm-3 1h4v1h-4zm4 0h1v2h-1zm-43 1h1v1h-1zm7 1h1v1h-1zm36 0h1v1h-1zm14 0h1v1h-1zm-49 1h1v1h-1zm22 1h1v1h-1zm7 0h1v1h-1zm17 0h1v1h-1zm1 0h1v1h-1zm-49 1h1v1h-1zm46 0h1v1h-1zm-46 1h1v1h-1zm1 0h1v1h-1zm31 0h1v1h-1zm1 0h1v1h-1zm-15 1h1v1h-1zm-9 1h1v1h-1zm1 2h1v1h-1zm36 1h1v1h-1zm1 0h1v1h-1zm-42 1h1v1h-1zm3 0h1v1h-1zm35 0h3v1h-3zm3 0h2v1h-2zm-12 1h1v1h-1zm-30 1h1v1h-1zm25 0h1v1h-1zm13 0h1v1h-1zm-14 1h1v1h-1zm19 0h1v1h-1zm-31 2h1v1h-1zm3 0h1v1h-1zm22 0h1v1h-1zm0 1h1v1h-1zm1 0h1v1h-1zm1 1h2v1h-2zm2 0h1v1h-1zm-31 1h1v1h-1zm3 0h1v1h-1zm-14 3h1v1h-1zm22 0h1v1h-1zm1 0h1v1h-1zm-2 1h1v1h-1zm1 0h1v1h-1zm12 0h1v1h-1zm-15 1h1v1h-1zm17 0h2v1h-2zm2 0h1v1h-1zm-6 1h1v1h-1zm6 0h1v1h-1zm-1 1h1v1h-1zm-3 1h1v1h-1zm1 0h1v1h-1zm-7 1h1v1h-1zm2 1h1v1h-1zm-5 1h2v1h-2zm2 0h2v1h-2zm2 0h1v1h-1z" fill="#1c4289"/><path d="M125 35h1v1h-1zm8 0h1v1h-1zm-17 3h1v1h-1zm4 1h1v4h-1zm25 2h1v1h-1zm-25 2h1v1h-1zm30 2h1v1h-1zm-7 1h1v1h-1zm-29 1h1v1h-1zm-12 1h1v1h-1zm10 0h1v1h-1zm15 0h1v1h-1zm-8 2h1v1h-1zm30 0h1v1h-1zm-35 2h1v1h-1zm22 1h1v1h-1zm18 0h1v1h-1zm-52 5h1v1h-1zm22 0h1v1h-1zm-19 4h1v1h-1zm43 1h1v1h-1zm-5 3h1v1h-1zm-21 1h1v1h-1zm18 1h1v1h-1zm-28 1h1v1h-1zm17 0h1v1h-1zm-18 1h1v1h-1zm-1 1h1v1h-1zm11 0h1v1h-1zm32 0h1v1h-1zm2 1h1v1h-1zm-18 1h1v1h-1zm-25 2h1v1h-1zm14 0h1v2h-1zm28 0h1v1h-1zm-44 1h1v1h-1zm16 1h1v1h-1zm5 0h1v1h-1zm-19 3h1v1h-1zm38 2h1v1h-1zm-43 1h1v1h-1zm40 4h1v1h-1zm-1 1h1v1h-1zm-9 5h1v1h-1z" fill="#1b86b0"/><path d="M125 36h1v1h-1zm0 1h1v1h-1zm-8 1h1v1h-1zm11 5h1v1h-1zm-24 3h1v1h-1zm13 5h1v1h-1zm2 1h1v1h-1zm25 0h1v1h-1zm-39 1h1v1h-1zm8 0h1v1h-1zm0 1h1v1h-1zm18 0h1v1h-1zm-7 2h1v1h-1zm-22 1h1v1h-1zm56 2h1v1h-1zm-20 1h1v1h-1zm-8 2h1v1h-1zm-5 1h1v1h-1zm23 3h1v1h-1zm6 0h1v1h-1zm-50 3h1v1h-1zm-6 1h1v1h-1zm28 0h1v1h-1zm13 3h1v1h-1zm-32 4h1v1h-1zm39 3h1v1h-1zm-28 1h1v1h-1zm5 0h1v1h-1zm-11 1h1v1h-1zm25 6h1v1h-1zm-5 3h1v1h-1zm-10 2h1v1h-1zm1 0h1v1h-1zm1 1h1v1h-1zm5 0h1v1h-1zm1 0h1v1h-1z" fill="#1b609a"/><path d="M117 25h1v1h-1zm1 0h1v1h-1zm17 0h2v1h-2zm2 0h1v1h-1zm-23 1h1v1h-1zm1 0h1v1h-1zm24 0h1v1h-1zm-30 1h1v1h-1zm3 0h1v1h-1zm-5 2h1v1h-1zm41 1h1v1h-1zm-28 1h1v1h-1zm14 0h1v1h-1zm-33 2h1v1h-1zm40 0h1v1h-1zm2 1h1v1h-1zm2 1h1v1h-1zm-48 2h1v1h-1zm62 3h1v1h-1zm1 1h1v1h-1zm-68 3h1v1h-1zm-1 1h1v1h-1zm72 1h1v1h-1zm-73 1h1v1h-1zm74 1h1v1h-1zm-6 1h1v1h-1zm0 1h1v1h-1zm-63 1h1v1h-1zm64 1h1v1h-1zm-71 1h1v1h-1zm78 2h1v1h-1zm-79 1h1v1h-1zm0 1h1v1h-1zm80 1h1v3h-1zm-81 3h1v7h-1zm81 0h1v1h-1zm-81 7h1v1h-1zm81 1h1v2h-1zm0 2h1v1h-1zm-7 4h1v1h-1zm6 0h1v1h-1zm-76 7h1v1h-1zm0 1h1v1h-1zm73 0h1v1h-1zm-72 1h1v1h-1zm63 2h1v1h-1zm-60 3h1v1h-1zm1 1h1v1h-1zm62 2h1v1h-1zm-1 1h1v1h-1zm-1 1h1v1h-1zm-53 3h1v1h-1zm15 1h1v1h-1zm33 0h1v1h-1zm-45 1h1v1h-1zm44 0h1v1h-1zm-4 2h1v1h-1zm-35 1h1v1h-1zm33 0h1v1h-1zm-2 1h1v1h-1zm-29 1h1v1h-1zm10 1h9v1h-9zm9 0h1v1h-1zm-85 25h2v1h-2zm2 0h1v1h-1zm22 0h2v1h-2zm2 0h1v1h-1zm22 0h2v1h-2zm2 0h1v1h-1zm7 0h23v1h-23zm23 0h1v1h-1zm8 0h14v1h-14zm14 0h1v1h-1zm17 0h21v1h-21zm21 0h1v1h-1zm19 0h2v1h-2zm2 0h1v1h-1zm-137 1h1v29h-1zm24 0h1v24h-1zm9 0h1v1h-1zm23 0h1v1h-1zm24 0h1v1h-1zm15 0h1v29h-1zm21 0h1v1h-1zm22 0h1v1h-1zm-4 1h1v1h-1zm-69 1h1v13h-1zm12 0h1v1h-1zm7 0h1v1h-1zm49 0h1v1h-1zm6 0h1v1h-1zm-158 1h1v1h-1zm104 0h1v1h-1zm50 0h2v1h-2zm2 0h1v1h-1zm-161 1h1v1h-1zm3 0h1v1h-1zm107 1h1v1h-1zm48 0h1v1h-1zm4 0h1v1h-1zm-165 1h1v1h-1zm7 0h1v1h-1zm153 1h1v1h-1zm8 0h1v1h-1zm-169 1h1v1h-1zm9 0h1v1h-1zm28 0h1v1h-1zm-34 1h1v1h-1zm35 0h1v1h-1zm-39 1h1v1h-1zm13 0h1v1h-1zm-11 1h1v1h-1zm36 0h1v1h-1zm75 0h1v1h-1zm45 0h1v1h-1zm14 0h1v1h-1zm-174 1h1v1h-1zm16 0h1v1h-1zm25 0h2v1h-2zm2 0h1v1h-1zm74 0h1v1h-1zm12 0h1v1h-1zm43 0h1v1h-1zm-169 1h1v1h-1zm11 0h1v1h-1zm30 0h1v1h-1zm132 0h1v1h-1zm-131 1h1v1h-1zm116 0h1v1h-1zm-161 1h2v1h-2zm2 0h1v1h-1zm13 0h1v1h-1zm3 0h1v1h-1zm25 0h1v1h-1zm53 0h1v1h-1zm16 0h1v1h-1zm-68 1h1v1h-1zm66 0h1v1h-1zm4 0h1v1h-1zm46 0h1v1h-1zm14 0h1v1h-1zm-158 1h1v1h-1zm32 1h1v1h-1zm109 0h1v1h-1zm20 0h1v1h-1zm-179 1h1v1h-1zm48 0h1v1h-1zm111 0h1v1h-1zm3 0h1v1h-1zm-141 1h1v1h-1zm28 0h1v1h-1zm49 0h1v9h-1zm82 0h1v1h-1zm-182 1h1v1h-1zm6 0h13v1H41zm13 0h1v1h-1zm146 0h12v1h-12zm12 0h1v1h-1zm-172 1h15v1H40zm15 0h1v1h-1zm143 0h16v1h-16zm16 0h1v1h-1zm-127 1h1v1h-1zm60 0h1v1h-1zm69 0h1v1h-1zm-179 1h1v1h-1zm21 0h1v1h-1zm31 0h1v1h-1zm5 0h1v1h-1zm54 0h1v1h-1zm47 1h1v1h-1zm22 0h1v2h-1zm-183 1h1v1h-1zm25 0h1v1h-1zm-1 1h1v1h-1zm3 0h1v1h-1zm91 0h1v1h-1zm42 0h1v1h-1zm23 0h1v1h-1zm3 0h1v1h-1zm-184 1h1v1h-1zm24 0h1v1h-1zm3 0h1v1h-1zm129 0h1v1h-1zm-157 1h1v1h-1zm27 0h1v1h-1zm8 0h1v1h-1zm26 0h1v1h-1zm19 0h1v1h-1zm20 0h1v1h-1zm30 0h1v1h-1zm21 0h1v1h-1z" fill="#747477"/><path d="M142 25h1v1h-1zm8 4h1v1h-1zm12 12h1v1h-1zm4 8h1v1h-1zm-80 6h1v1h-1zm0 22h1v1h-1zm61 25h1v1h-1zm-2 1h1v1h-1zm-22 4h7v1h-7zm7 0h1v1h-1zm19 22h1v1h-1zm60 0h1v1h-1zm-81 1h1v2h-1zm0 2h1v1h-1zm-76 1h1v1h-1zm-11 4h1v1h-1zm8 2h1v1h-1zm150 0h1v1h-1zm-1 2h1v1h-1zm16 0h1v1h-1zm-44 6h14v1h-14zm14 0h1v1h-1zm33 1h1v1h-1zm-181 1h1v1h-1zm23 0h1v1h-1zm-26 7h1v1h-1zm24 0h1v1h-1zm158 0h1v1h-1zm6 0h1v1h-1zm-68 1h1v1h-1zm63 1h1v1h-1zm-67 1h1v1h-1zm14 3h1v1h-1zm25 0h1v1h-1z" fill="#d7d7d8"/><path d="M110 26h1v1h-1zm37 2h1v1h-1zM87 51h1v1h-1zm-1 23h1v1h-1zm5 13h1v1h-1zm1 2h1v1h-1zm24 16h1v1h-1zm93 25h1v1h-1zm-59 4h1v1h-1zm-109 4h1v1h-1zm163 1h1v1h-1zm-122 2h1v1h-1zm-31 1h1v1h-1zm-13 3h1v1h-1zm54 16h1v1h-1zm44 1h1v1h-1z" fill="#929292"/><path d="M140 34h1v1h-1zm2 1h1v1h-1zm15 15h1v1h-1z" fill="#354e86"/><path d="M144 36h1v1h-1zm-19 3h1v3h-1zm15 2h1v1h-1zm-15 1h1v1h-1zm2 1h1v1h-1zm26 2h1v1h-1zm-48 2h1v1h-1zm8 0h1v1h-1zm42 0h1v1h-1zm-18 1h1v2h-1zm0 2h1v1h-1zm-19 1h1v1h-1zm13 0h1v1h-1zm-16 1h1v1h-1zm16 0h1v1h-1zm24 0h1v1h-1zm1 0h1v1h-1zm-26 4h1v1h-1zm-12 2h1v1h-1zm37 0h1v1h-1zm-38 2h1v1h-1zm32 0h1v1h-1zm-6 1h1v1h-1zm6 0h1v1h-1zm-41 2h1v1h-1zm-9 2h1v1h-1zm8 2h1v1h-1zm9 0h1v1h-1zm13 0h1v1h-1zm-7 2h1v2h-1zm3 1h1v1h-1zm-3 1h1v1h-1zm26 1h1v1h-1zm-39 1h1v1h-1zm2 2h1v1h-1zm10 2h1v1h-1zm19 9h1v1h-1zm-1 1h1v1h-1zm-5 6h1v1h-1zm-8 1h1v1h-1zm1 0h1v1h-1z" fill="#1c4a8d"/><path d="M85 61h1v7h-1zm0 7h1v1h-1zm80 14h1v1h-1zm-76 1h1v1h-1zm21 20h1v1h-1zm-41 26h1v1h-1zm24 0h1v1h-1zm9 0h1v1h-1zm25 0h1v1h-1zm21 0h1v1h-1zm16 0h1v1h-1zm23 0h1v1h-1zm17 0h1v1h-1zm4 0h1v1h-1zm-132 4h1v1h-1zm3 4h1v1h-1zm-24 4h1v1h-1zm102 3h1v1h-1zm38 5h1v1h-1zm22 0h1v1h-1zm-132 3h1v1h-1zm-52 5h1v1h-1zm117 3h1v1h-1zm-86 1h1v1h-1zm72 0h1v1h-1z"/><path d="M135 24h1v1h-1zm-20 1h1v1h-1zm-3 1h1v1h-1zM95 38h1v1h-1zm-8 15h1v1h-1zm-1 4h1v1h-1zm82 3h1v1h-1zM86 72h1v1h-1zm81 3h1v1h-1zm-8 16h1v1h-1zm-60 5h1v1h-1zm46 6h1v1h-1zm-4 2h1v1h-1zm-18 2h1v1h-1zm8 0h1v1h-1zm19 24h1v1h-1zm-106 2h1v1h-1zm31 0h1v1h-1zm52 0h1v1h-1zm28 1h1v1h-1zm-4 1h1v1h-1zm-73 2h1v1h-1zm-3 2h1v1h-1zm6 2h1v1h-1zm55 6h1v1h-1zm19 0h1v1h-1zm-118 2h1v1h-1zm17 0h1v1h-1zm29 1h1v1h-1zm65 1h1v1h-1zm-89 1h1v1h-1zm34 3h1v1h-1zm-55 1h1v1h-1zm109 0h1v1h-1zm49 1h1v1h-1zm-48 1h1v1h-1zm5 1h1v1h-1zm-62 1h1v1h-1zm63 0h1v1h-1zm33 0h1v2h-1zm-90 2h1v1h-1zm90 0h1v1h-1z" fill="#424245"/><path d="M132 31h1v1h-1zm-15 1h1v1h-1zm-3 1h1v1h-1zm45 20h1v1h-1zm-65 2h1v1h-1zm-1 15h1v1h-1zm67 3h1v1h-1zm-60 13h1v1h-1zm46 7h1v1h-1zm-37 1h1v1h-1zm2 1h1v1h-1zm2 1h1v1h-1zm25 1h1v1h-1zm-3 1h1v1h-1z" fill="#59909b"/><path d="M120 32h3v1h-3zm3 0h1v1h-1zm6 0h2v1h-2zm2 0h1v1h-1zm-14 1h1v1h-1zm1 0h1v1h-1zm9 0h1v1h-1zm1 0h1v1h-1zm6 0h3v1h-3zm3 0h1v1h-1zm-3 1h1v3h-1zm-10 1h1v7h-1zm-14 1h1v1h-1zm8 0h1v1h-1zm-3 1h1v1h-1zm1 0h1v1h-1zm18 0h2v1h-2zm2 0h1v5h-1zm-23 1h1v1h-1zm1 0h1v1h-1zm32 0h1v3h-1zm-35 1h1v1h-1zm1 0h1v1h-1zm-7 1h1v1h-1zm-1 1h1v1h-1zm4 0h1v1h-1zm38 0h1v1h-1zm-43 1h1v1h-1zm21 0h1v1h-1zm12 0h1v1h-1zm-34 1h1v1h-1zm36 0h4v1h-4zm4 0h1v2h-1zm10 0h1v1h-1zm-51 1h1v1h-1zm26 0h4v1h-4zm4 0h1v1h-1zm-28 1h1v1h-1zm36 0h4v1h-4zm4 0h1v1h-1zm-41 1h1v1h-1zm4 0h1v1h-1zm42 0h1v7h-1zm-31 1h1v1h-1zm1 0h1v2h-1zm8 0h4v1h-4zm4 0h1v1h-1zm6 0h1v1h-1zm-38 1h1v1h-1zm12 0h1v1h-1zm3 0h2v1h-2zm2 0h1v1h-1zm-15 1h1v1h-1zm8 0h1v1h-1zm3 0h1v1h-1zm1 0h1v1h-1zm11 0h1v6h-1zm10 0h2v1h-2zm2 0h1v6h-1zm-35 1h1v1h-1zm33 0h2v1h-2zm-34 1h1v1h-1zm34 0h2v1h-2zm-34 1h1v1h-1zm9 0h1v1h-1zm25 0h2v1h-2zm-26 1h1v1h-1zm5 0h1v9h-1zm21 0h2v1h-2zm15 0h1v1h-1zm9 0h1v1h-1zm-51 1h1v1h-1zm47 0h3v1h-3zm3 0h2v1h-2zm2 0h1v1h-1zm-53 1h1v1h-1zm18 0h1v1h-1zm12 0h1v1h-1zm23 0h1v1h-1zm-61 1h1v1h-1zm23 0h1v3h-1zm20 0h1v1h-1zm1 0h1v2h-1zm13 0h2v1h-2zm2 0h1v1h-1zm-59 1h1v1h-1zm52 0h2v1h-2zm2 0h1v1h-1zm-48 1h1v1h-1zm25 0h2v1h-2zm2 0h1v2h-1zm11 0h2v1h-2zm2 0h1v1h-1zm-49 1h1v1h-1zm26 0h1v1h-1zm5 0h1v1h-1zm1 0h1v2h-1zm10 0h3v1h-3zm3 0h1v1h-1zm20 0h1v2h-1zm-65 1h1v7h-1zm8 0h1v1h-1zm43 0h2v1h-2zm2 0h1v5h-1zm-45 1h1v1h-1zm16 0h1v1h-1zm8 0h1v1h-1zm1 0h1v1h-1zm7 0h1v1h-1zm11 0h2v1h-2zm14 0h1v1h-1zm1 0h1v7h-1zm-59 1h1v3h-1zm3 0h1v1h-1zm8 0h1v1h-1zm11 0h1v1h-1zm1 0h1v1h-1zm10 0h1v1h-1zm11 0h2v1h-2zm-41 1h1v1h-1zm11 0h1v1h-1zm16 0h1v3h-1zm14 0h2v1h-2zm13 0h2v1h-2zm0 1h2v1h-2zm-57 1h2v1h-2zm2 0h1v3h-1zm13 0h1v1h-1zm5 0h1v1h-1zm26 0h1v1h-1zm11 0h2v1h-2zm-37 1h1v1h-1zm10 0h2v1h-2zm2 0h1v1h-1zm11 0h1v1h-1zm-50 1h1v4h-1zm19 0h1v1h-1zm5 0h1v2h-1zm15 0h1v1h-1zm11 0h1v1h-1zm-41 1h1v1h-1zm5 0h1v1h-1zm22 0h1v1h-1zm20 0h2v2h-2zm2 0h1v2h-1zm8 0h1v1h-1zm-53 1h1v1h-1zm11 0h1v1h-1zm12 0h1v1h-1zm7 0h5v1h-5zm5 0h1v1h-1zm-22 1h1v1h-1zm14 0h1v2h-1zm1 0h1v2h-1zm15 0h5v1h-5zm5 0h1v1h-1zm-61 1h1v1h-1zm6 0h1v1h-1zm6 0h1v1h-1zm14 0h1v1h-1zm8 0h1v1h-1zm19 0h2v1h-2zm2 0h1v1h-1zm10 0h1v1h-1zm-59 1h1v1h-1zm5 0h1v1h-1zm3 0h1v1h-1zm16 0h1v1h-1zm1 0h1v2h-1zm9 0h2v1h-2zm2 0h1v1h-1zm20 0h1v1h-1zm3 0h1v1h-1zm-64 1h1v1h-1zm61 0h1v1h-1zm-61 1h1v1h-1zm30 0h2v1h-2zm2 0h1v1h-1zm4 0h1v1h-1zm11 0h1v1h-1zm-36 1h1v1h-1zm9 0h1v1h-1zm7 0h2v1h-2zm2 0h1v1h-1zm4 0h1v1h-1zm3 0h1v1h-1zm11 0h1v1h-1zm3 0h1v1h-1zm-33 1h1v1h-1zm1 0h1v1h-1zm15 0h2v1h-2zm16 0h1v1h-1zm-34 1h1v1h-1zm8 0h1v1h-1zm9 0h1v1h-1zm17 0h1v1h-1zm10 0h1v1h-1zm0 1h1v1h-1zm-37 1h1v1h-1zm9 0h1v1h-1zm31 0h1v1h-1zm-43 1h1v1h-1zm-16 1h1v1h-1zm10 0h1v1h-1zm6 0h1v1h-1zm11 0h1v1h-1zm20 0h1v1h-1zm1 0h1v1h-1zm-39 1h1v1h-1zm6 0h1v1h-1zm3 0h1v1h-1zm8 0h1v1h-1zm5 0h6v1h-6zm6 0h1v1h-1zm12 0h1v1h-1zm1 0h1v1h-1zm4 0h1v1h-1zm3 0h1v1h-1zm-42 1h1v1h-1zm3 0h1v1h-1zm11 0h1v1h-1zm14 0h2v1h-2zm2 0h1v1h-1zm-43 1h1v1h-1zm22 0h1v1h-1zm18 0h1v1h-1zm-28 1h1v1h-1zm9 0h1v1h-1zm3 0h1v1h-1zm11 0h1v1h-1zm13 0h1v1h-1zm-42 1h1v1h-1zm17 0h1v1h-1zm10 0h1v1h-1zm19 0h1v1h-1zm-50 1h1v1h-1zm5 0h1v1h-1zm4 0h1v1h-1zm11 0h1v1h-1zm10 0h1v1h-1zm4 0h1v1h-1zm1 0h1v1h-1zm14 0h1v1h-1zm-48 1h1v1h-1zm44 0h1v1h-1zm-24 1h3v1h-3zm3 0h1v1h-1zm7 0h1v1h-1zm13 0h1v1h-1zm3 0h1v1h-1zm-19 1h1v1h-1zm1 0h1v1h-1zm14 0h1v1h-1zm3 0h1v1h-1zm-21 1h2v1h-2zm2 0h1v1h-1zm15 0h1v1h-1zm3 0h1v1h-1zm-39 1h1v1h-1zm34 0h1v2h-1zm-32 1h1v1h-1zm29 0h1v1h-1zm1 0h1v2h-1zm-3 1h1v2h-1zm1 0h1v1h-1zm4 0h1v1h-1zm-29 1h1v1h-1zm7 0h1v1h-1zm1 0h1v2h-1zm12 0h2v2h-2zm2 0h1v1h-1zm5 0h1v1h-1zm1 0h1v1h-1zm-16 1h3v2h-3zm3 0h1v2h-1zm5 1h1v1h-1zm1 0h1v1h-1zm-9 1h4v1h-4zm4 0h1v1h-1z" fill="#1fc2d5"/><path d="M141 25h1v1h-1zm10 5h1v1h-1zm-57 8h1v1h-1zm-3 4h1v1h-1zm-1 1h1v1h-1zm-3 7h1v1h-1zm81 6h1v1h-1zm0 16h1v1h-1zm0 1h1v1h-1zm-82 2h1v1h-1zm23 28h1v1h-1zm13 4h1v1h-1zm9 0h1v1h-1zm1 0h1v1h-1zm-4 22h1v1h-1zm75 0h1v1h-1zm-126 5h1v1h-1zm91 0h1v1h-1zm33 0h1v1h-1zm10 0h1v1h-1zm-169 1h1v1h-1zm109 0h1v1h-1zm-104 1h1v1h-1zm27 2h1v1h-1zm139 0h1v1h-1zm-158 2h1v1h-1zm-16 2h1v1h-1zm129 0h1v1h-1zm-124 1h1v1h-1zm-7 3h1v1h-1zm6 0h1v1h-1zm104 0h1v1h-1zm9 0h1v1h-1zm29 1h1v1h-1zm26 0h1v1h-1zm-152 1h1v1h-1zm136 0h1v1h-1zm-141 1h1v1h-1zm28 0h1v1h-1zm118 0h1v1h-1zm-117 1h1v1h-1zm9 3h1v1h-1zm-52 2h16v1H40zm16 0h1v1h-1zm142 0h16v1h-16zm16 0h1v1h-1zm-23 1h1v1h-1zm0 1h1v1h-1zm-128 1h1v1h-1zm91 0h1v1h-1zm15 0h17v1h-17zm17 0h1v1h-1z" fill="#cacaca"/><path d="M144 27h1v1h-1zm23 27h1v1h-1zM88 80h1v1h-1zm3 6h1v1h-1zm60 13h1v1h-1zm-36 6h1v1h-1zm17 25h1v31h-1zm19 0h1v1h-1zm-107 1h1v1h-1zm-1 3h1v1h-1zm168 1h1v1h-1zm-59 1h1v1h-1zm1 1h1v1h-1zm-104 1h1v1h-1zm159 0h1v1h-1zm1 3h1v1h-1zm-126 1h1v1h-1zm102 1h1v1h-1zm12 1h1v1h-1zm0 1h1v1h-1zm4 1h1v1h-1zm-147 4h1v1h-1zm95 1h1v1h-1zm45 0h1v1h-1zm-50 1h1v1h-1zm75 0h1v2h-1zm-74 1h1v1h-1zm74 1h1v1h-1zm-24 5h1v1h-1zm-104 1h1v1h-1zm104 0h1v1h-1zm-63 1h1v1h-1z" fill="#818181"/><g fill="#1c4088"><path d="M129 35h1v1h-1zm14 1h1v1h-1zm2 2h1v1h-1zm-31 2h1v1h-1zm-4 2h1v1h-1zm19 0h1v1h-1zm-4 1h1v1h-1zm-14 2h1v1h-1zm5 0h1v1h-1zm35 1h1v1h-1zm1 0h1v1h-1zm-48 1h1v1h-1zm-1 1h2v1h-2zm2 0h1v1h-1zm25 0h1v1h-1zm25 0h1v1h-1zm-27 1h1v1h-1zm1 0h1v1h-1zm-23 1h1v1h-1zm-5 1h1v1h-1zm56 0h1v1h-1zm-52 1h1v1h-1zm11 0h2v1h-2zm2 0h1v2h-1zm-14 1h1v1h-1zm21 0h1v2h-1zm-25 1h1v1h-1zm3 0h1v1h-1zm11 0h1v1h-1zm4 0h1v1h-1zm12 0h1v1h-1zm7 0h1v1h-1zm1 0h1v1h-1zm-38 1h1v1h-1zm14 0h1v1h-1zm11 0h1v1h-1zm5 0h1v1h-1zm-28 1h1v1h-1zm25 0h1v1h-1zm1 0h1v1h-1zm28 2h1v1h-1zm-57 1h1v1h-1zm18 0h1v1h-1zm35 0h1v1h-1zm5 0h1v1h-1zm-41 1h1v1h-1zm26 0h1v1h-1zm15 0h1v1h-1zm-21 1h1v1h-1zm-38 1h1v1h-1zm38 0h1v2h-1zm-37 1h1v1h-1zm28 0h1v1h-1zm1 0h1v1h-1zm-23 1h1v1h-1zm20 0h1v1h-1zm4 0h1v1h-1zm7 0h1v1h-1zm6 0h1v2h-1zm7 0h1v1h-1zm7 0h1v1h-1zm-51 1h2v1h-2zm2 0h1v1h-1zm42 0h1v1h-1zm6 0h1v1h-1zm-13 1h1v1h-1zm-3 1h1v1h-1zm-41 1h1v1h-1zm17 0h1v1h-1zm13 0h1v1h-1zm-15 1h1v1h-1zm13 0h1v1h-1zm1 0h1v1h-1zm-4 1h1v1h-1zm30 2h1v4h-1zm1 0h1v1h-1zm-40 1h1v1h-1zm-5 1h1v1h-1zm29 0h1v1h-1zm1 2h1v1h-1zm14 0h1v1h-1zm-30 1h2v1h-2zm2 0h1v1h-1zm8 0h4v1h-4zm4 0h2v1h-2zm2 0h1v1h-1zm7 0h1v1h-1zm6 0h1v1h-1zm-32 2h1v1h-1zm31 0h1v1h-1zm-28 1h1v1h-1zm28 0h1v1h-1zm-41 2h1v2h-1zm11 0h1v1h-1z"/><path d="M109 83h2v1h-2zm2 0h1v1h-1zm7 0h2v1h-2zm2 0h1v1h-1zm-10 1h1v1h-1zm8 0h1v1h-1zm1 0h1v1h-1zm13 0h1v1h-1zm-24 1h1v1h-1zm1 0h1v1h-1zm22 0h1v1h-1zm13 0h1v1h-1zm-35 1h1v1h-1zm19 0h1v1h-1zm10 2h1v1h-1zm6 0h1v1h-1zm-7 1h1v1h-1zm-2 1h1v1h-1zm6 0h1v1h-1zm1 0h1v1h-1zm-3 1h1v1h-1zm-8 1h1v1h-1zm1 0h1v1h-1zm-3 1h2v1h-2zm2 0h2v1h-2zm2 0h1v1h-1z"/></g><path d="M110 35h1v1h-1zm-3 2h1v1h-1zm41 1h1v1h-1zM97 48h1v1h-1zm-2 4h1v1h-1zm-2 8h1v1h-1zm62 24h1v1h-1zm-50 7h1v1h-1zm14 7h1v1h-1z" fill="#5894a1"/><path d="M105 28h1v1h-1zm43 0h1v1h-1zm-54 9h1v1h-1zm67 2h1v1h-1zm4 7h1v1h-1zM85 59h1v1h-1zm4 26h1v1h-1zm72 5h1v1h-1zm-87 39h1v1h-1zm27 0h1v4h-1zm0 4h1v1h-1zm56 1h1v1h-1zm-109 2h1v1h-1zm6 1h1v1h-1zm32 8h1v1h-1zm110 0h1v1h-1zm-40 2h1v1h-1zm38 2h1v1h-1zm-51 2h1v1h-1zm10 5h1v1h-1zm-3 5h1v1h-1z" fill="#f0f0f0"/><path d="M121 30h12v1h-12zm12 0h1v1h-1zm-16 1h2v1h-2zm2 0h1v1h-1zm16 0h2v1h-2zm2 0h1v1h-1zm-25 2h1v1h-1zm-2 1h1v1h-1zm-2 1h1v1h-1zm1 0h1v1h-1zm-5 3h1v1h-1zm45 0h1v1h-1zm-46 1h1v1h-1zm47 0h1v1h-1zm-49 2h1v1h-1zm-1 1h1v1h-1zm0 1h1v1h-1zm54 0h1v1h-1zm-59 7h1v1h-1zm-2 4h1v1h-1zm0 1h1v1h-1zm-1 4h1v12h-1zm70 3h1v5h-1zm0 5h1v1h-1zm-70 4h1v1h-1zm69 2h1v1h-1zm0 1h1v1h-1zm-1 2h1v1h-1zm-66 1h1v1h-1zm0 1h1v1h-1zm65 0h1v1h-1zm-64 1h1v1h-1zm64 0h1v1h-1zm-64 1h1v1h-1zm63 0h1v1h-1zm-62 1h1v1h-1zm62 0h1v1h-1zm-2 3h1v1h-1zm-58 1h1v1h-1zm1 1h1v1h-1zm1 1h1v1h-1zm54 0h1v1h-1zm-1 1h1v1h-1zm-1 1h1v1h-1zm-1 1h1v1h-1zm-1 1h1v1h-1zm-45 1h1v1h-1zm44 0h1v1h-1zm-43 1h1v1h-1zm41 0h1v1h-1zm-39 1h1v1h-1zm38 0h1v1h-1zm-37 1h1v1h-1zm34 1h1v1h-1zm-30 1h1v1h-1zm1 0h1v1h-1zm26 0h1v1h-1zm1 0h1v1h-1zm-26 1h1v1h-1zm1 0h1v1h-1zm21 0h1v1h-1zm1 0h1v1h-1zm-20 1h1v1h-1zm1 0h1v1h-1zm15 0h1v1h-1zm1 0h1v1h-1zm-11 1h5v1h-5zm5 0h1v1h-1z" fill="#736e71"/><path d="M116 32h1v1h-1zm-3 1h1v1h-1zm-2 1h1v1h-1zm-5 3h1v1h-1zm-1 1h1v1h-1zm-1 1h1v1h-1zm48 2h1v1h-1zM93 57h1v1h-1zm68 2h1v1h-1zm0 1h1v1h-1zm0 10h1v1h-1zm0 1h1v1h-1zm-68 1h1v1h-1zm0 1h1v1h-1zm1 3h1v1h-1zm4 8h1v1h-1zm50 8h1v1h-1zm-41 1h1v1h-1zm3 2h1v1h-1zm29 2h1v1h-1zm-18 2h1v1h-1zm11 0h1v1h-1z" fill="#6b777e"/><path d="M133 36h1v1h-1zm4 3h1v1h-1zm0 3h3v1h-3zm3 0h1v1h-1zm-23 4h1v1h-1zm-6 2h1v1h-1zm13 1h1v1h-1zm-24 2h1v1h-1zm36 0h1v1h-1zm0 1h1v1h-1zm19 1h1v1h-1zm-15 2h1v1h-1zm-42 2h1v1h-1zm15 0h1v4h-1zm6 1h1v1h-1zm6 0h1v1h-1zm24 0h1v1h-1zm-36 3h1v1h-1zm22 0h1v1h-1zm13 0h1v1h-1zm-44 4h1v1h-1zm30 2h1v1h-1zm-21 1h1v1h-1zm4 1h1v1h-1zm7 2h1v1h-1zm-25 1h1v1h-1zm10 0h1v1h-1zm16 7h1v1h-1zm-7 1h1v1h-1zm34 0h1v1h-1zm-42 1h1v1h-1zm19 6h1v1h-1zm16 2h1v1h-1zm-5 3h1v1h-1zm-6 2h1v1h-1z" fill="#1b96ba"/><g fill="#707073"><path d="M121 24h1v1h-1zm3 0h6v1h-6zm6 0h1v1h-1zm-19 2h1v1h-1zm-2 2h1v1h-1zm-4 2h1v1h-1zm48 3h1v1h-1zm-55 1h1v1h-1zm48 1h1v1h-1zm-41 2h1v1h-1zm45 1h1v1h-1zm-55 1h1v1h-1zm62 8h1v1h-1zm-69 3h1v1h-1zm71 1h1v1h-1zm1 1h1v2h-1zm-67 1h1v1h-1zm67 1h1v1h-1zm6 0h1v1h-1zm-74 4h1v1h-1zm70 3h1v1h-1zm0 7h1v1h-1zm-2 9h1v1h-1zm-64 5h1v1h-1zm61 1h1v1h-1zm-2 2h1v1h-1zm1 0h1v1h-1zm7 0h1v1h-1zm-71 1h1v1h-1zm70 1h1v1h-1zm-65 6h1v1h-1zm51 0h1v1h-1zm-50 1h1v1h-1zm9 0h1v1h-1zm37 2h1v1h-1zm-8 3h1v1h-1zm-32 1h2v1h-2zm2 0h1v1h-1zm17 0h1v1h-1zm7 0h1v1h-1zm1 0h2v1h-2zm16 0h1v1h-1zm-41 1h2v1h-2zm2 0h1v1h-1zm39 0h1v1h-1zm1 0h1v1h-1zm-36 2h1v1h-1zm25 1h1v1h-1zm-88 26h1v3h-1zm-2 1h1v1h-1zm1 0h1v1h-1zm23 0h3v4h-3zm3 0h1v3h-1zm21 0h1v29h-1zm9 0h21v1h-21zm21 0h1v1h-1zm9 0h14v1h-14zm14 0h1v1h-1zm3 0h1v1h-1zm15 0h19v1h-19zm19 0h1v1h-1zm18 0h4v1h-4zm4 0h1v2h-1zm-161 1h3v1h-3zm67 0h3v1h-3zm3 0h1v1h-1zm10 0h1v1h-1zm8 0h2v1h-2zm2 0h1v1h-1zm30 0h2v1h-2zm2 0h1v1h-1zm18 0h1v1h-1zm19 0h2v1h-2zm-161 1h2v2h-2zm2 0h1v1h-1zm67 0h1v26h-1zm1 0h1v27h-1zm20 0h1v26h-1zm18 0h1v1h-1zm1 0h1v1h-1zm51 0h1v2h-1zm1 0h3v1h-3zm3 0h1v1h-1zm-158 1h1v1h-1zm24 0h1v1h-1zm80 0h1v1h-1zm54 0h1v1h-1zm1 0h1v2h-1zm-165 1h1v2h-1zm1 0h1v2h-1zm5 0h1v1h-1zm21 0h2v1h-2zm2 0h2v1h-2zm81 0h1v2h-1zm3 0h1v1h-1zm44 0h3v1h-3zm3 0h1v1h-1zm-153 1h2v1h-2zm2 0h1v1h-1zm18 0h1v23h-1zm5 0h1v1h-1zm1 0h1v2h-1zm78 0h1v1h-1zm48 0h1v1h-1zm6 0h1v2h-1zm-165 1h1v1h-1zm1 0h1v1h-1zm6 0h1v1h-1zm1 0h1v2h-1zm22 0h2v1h-2z"/><path d="M76 137h2v1h-2zm2 0h1v4h-1zm76 0h2v1h-2zm2 0h1v5h-1zm-84 1h1v22h-1zm85 0h1v3h-1zm52 0h1v1h-1zm-166 1h1v1h-1zm9 0h1v2h-1zm1 0h1v3h-1zm-10 1h1v1h-1z"/><path d="M77 140h2v1h-2zm2 0h1v1h-1zm-37 1h1v1h-1zm10 0h1v1h-1zm26 0h2v1h-2zm2 0h1v1h-1zm77 0h1v1h-1zm44 0h1v1h-1zm10 0h1v1h-1zm-170 1h1v2h-1zm1 0h1v1h-1zm11 0h1v1h-1zm27 0h1v1h-1zm75 0h1v1h-1zm1 0h1v1h-1zm44 0h1v2h-1zm1 0h1v2h-1zm11 0h1v1h-1zm-158 1h1v2h-1zm101 0h1v2h-1zm44 0h1v2h-1zm13 0h1v2h-1zm-171 1h1v1h-1zm14 0h1v2h-1zm27 0h1v1h-1zm71 0h1v2h-1zm1 0h1v1h-1zm12 0h1v2h-1zm1 0h1v1h-1zm33 0h1v1h-1zm1 0h1v1h-1zm12 0h1v1h-1zm-161 1h3v1h-3zm29 0h2v1h-2zm2 0h1v1h-1zm71 0h1v1h-1zm1 0h1v1h-1zm12 0h1v1h-1zm1 0h1v1h-1zm30 0h1v2h-1zm1 0h1v1h-1zm13 0h1v1h-1zm1 0h1v1h-1zm-158 1h1v1h-1zm1 0h1v2h-1zm27 0h1v1h-1zm65 0h1v3h-1zm5 0h1v1h-1zm13 0h1v1h-1zm-31 1h1v2h-1zm1 0h1v1h-1zm14 0h1v1h-1zm1 0h1v1h-1zm46 0h1v5h-1zm1 0h1v2h-1zm17 0h1v5h-1zm1 0h1v1h-1zm-160 1h1v1h-1zm1 0h1v6h-1zm28 0h1v1h-1zm1 0h1v2h-1zm50 0h1v1h-1zm14 0h1v1h-1zm1 0h1v1h-1zm-112 1h1v3h-1zm46 0h1v1h-1zm50 0h1v1h-1zm8 0h5v1h-5zm5 0h1v1h-1zm50 0h1v3h-1zm16 0h1v3h-1zm-176 1h1v3h-1zm48 0h2v1h-2zm2 0h1v2h-1zm58 0h1v1h-1zm1 0h1v2h-1zm-60 1h1v1h-1zm59 0h1v1h-1z"/><path d="M196 151h2v1h-2zm20 0h1v2h-1zm-179 1h3v1h-3zm3 0h1v1h-1zm18 0h1v2h-1zm1 0h1v4h-1zm29 0h1v1h-1zm1 0h1v2h-1zm107 0h2v1h-2zm2 0h1v1h-1zm16 0h2v1h-2zm-178 1h2v1h-2zm2 0h1v1h-1zm110 0h1v1h-1zm1 0h1v2h-1zm46 0h1v2h-1zm1 0h1v1h-1zm20 0h1v1h-1zm1 0h1v1h-1zm-180 1h1v1h-1zm20 0h2v1h-2zm32 0h2v1h-2zm2 0h1v2h-1zm57 0h1v1h-1zm46 0h1v3h-1zm23 0h1v1h-1zm1 0h1v2h-1zm-184 1h2v1h-2zm56 0h1v1h-1zm59 0h2v2h-2zm2 0h1v1h-1zm44 0h1v1h-1zm-136 1h1v1h-1zm34 0h2v3h-2zm100 0h1v3h-1zm25 0h1v2h-1zm-183 1h1v2h-1zm1 0h1v1h-1zm24 0h1v1h-1z"/><path d="M92 157h3v1h-3zm57 0h1v1h-1zm1 0h1v1h-1zm44 0h1v1h-1zm-134 1h1v1h-1zm32 0h3v1h-3zm126 0h1v1h-1zm1 0h1v1h-1zm-185 1h1v1h-1zm1 0h1v1h-1zm26 0h1v1h-1zm10 0h1v1h-1zm22 0h2v1h-2zm20 0h1v1h-1zm21 0h1v1h-1zm32 0h1v1h-1zm27 0h1v1h-1zm26 0h1v1h-1zm-185 1h1v1h-1zm38 0h1v1h-1zm22 0h1v1h-1zm1 0h1v1h-1zm19 0h1v1h-1zm37 0h1v1h-1zm15 0h19v1h-19zm19 0h1v1h-1zm6 0h1v1h-1z"/></g><path d="M137 24h1v1h-1zm-23 1h1v1h-1zm39 7h1v1h-1zm-60 8h1v1h-1zm-48 90h1v1h-1zm-4 9h1v1h-1zm157 3h1v1h-1zm-110 7h1v1h-1zm133 9h1v1h-1z" fill="#0d0d13"/><path d="M132 33h1v1h-1zm1 0h1v1h-1zm4 7h1v1h-1zm12 9h1v1h-1zm-42 1h1v1h-1zm17 1h1v1h-1zm0 1h1v1h-1zm29 1h1v1h-1zm-54 1h1v1h-1zm37 0h1v1h-1zm3 1h1v1h-1zm-36 1h1v1h-1zm55 1h1v1h-1zm-60 1h1v1h-1zm53 0h1v1h-1zm-8 1h1v1h-1zm15 1h1v1h-1zm-10 4h1v1h-1zm-44 2h1v1h-1zm30 2h1v1h-1zm-35 2h1v1h-1zm-1 1h1v1h-1zm18 1h1v1h-1zm30 2h1v1h-1zm-27 4h1v1h-1zm25 1h1v1h-1zm-13 4h1v1h-1zm12 1h1v1h-1zm-24 1h1v1h-1zm-11 1h1v1h-1zm9 0h1v1h-1zm14 0h1v1h-1zm-8 2h1v1h-1zm9 6h1v1h-1z" fill="#1b82ae"/><path d="M133 31h1v1h-1zm4 1h1v1h-1zm-29 4h1v1h-1zm-5 4h1v1h-1zm-2 2h1v1h-1zm53 2h1v1h-1zm-56 2h1v1h-1zm-4 8h1v1h-1zm67 8h1v1h-1zm-68 9h1v1h-1zm67 3h1v1h-1zm-65 4h1v1h-1zm63 1h1v1h-1zm-62 1h1v1h-1zm61 1h1v1h-1zm-1 2h1v1h-1zm-57 2h1v1h-1zm54 2h1v1h-1zm-4 4h1v1h-1zm-6 4h1v1h-1zm-25 3h1v1h-1zm5 1h1v1h-1zm1 0h1v1h-1zm6 0h1v1h-1z" fill="#66838c"/><path d="M126 35h1v1h-1zm19 5h1v1h-1zm-27 5h1v1h-1zm34 0h1v1h-1zm-23 3h1v1h-1zm-28 2h1v1h-1zm18 1h1v1h-1zm4 13h1v1h-1zm-19 7h1v1h-1zm28 7h1v1h-1zm-13 1h1v1h-1zm20 13h1v1h-1z" fill="#1b5c98"/><path d="M114 39h1v1h-1zm-2 1h1v1h-1zm31 1h1v1h-1zm1 0h1v1h-1zm-34 4h1v1h-1zm27 2h1v1h-1zm-9 1h1v1h-1zm-21 3h1v1h-1zm-7 1h1v1h-1zm6 0h1v1h-1zm13 1h1v1h-1zm25 0h1v1h-1zm7 0h1v1h-1zm-27 1h1v1h-1zm-25 1h1v1h-1zm25 0h1v1h-1zm7 0h1v1h-1zm-23 2h1v1h-1zm19 0h1v1h-1zm26 1h1v1h-1zm-55 1h1v1h-1zm32 4h1v1h-1zm5 1h1v1h-1zm8 0h1v1h-1zm-35 1h1v1h-1zm-9 2h1v1h-1zm5 1h1v1h-1zm18 0h1v1h-1zm7 0h1v1h-1zm9 0h1v1h-1zm9 4h1v1h-1zm-14 2h1v1h-1zm8 0h1v1h-1zm13 0h1v1h-1zm-1 3h1v1h-1zm-20 1h1v1h-1zm4 0h2v1h-2zm2 0h1v1h-1zm13 1h1v1h-1zm-28 1h1v1h-1zm27 1h1v1h-1zm-42 1h1v1h-1zm8 1h1v1h-1zm16 0h2v1h-2zm2 0h1v1h-1zm-24 1h1v1h-1zm34 1h1v1h-1zm-17 2h1v1h-1zm6 3h1v1h-1zm2 3h1v1h-1zm-13 1h1v1h-1zm8 0h1v1h-1z" fill="#1b6a9f"/><path d="M121 23h1v1h-1zm1 0h1v1h-1zm-16 6h1v1h-1zm60 49h1v1h-1zm-76 7h1v1h-1zm5 6h1v1h-1zm13 11h1v1h-1zm6 3h1v1h-1zm4 0h1v1h-1zm-16 28h1v1h-1zm25 0h1v1h-1zm41 0h1v1h-1zm19 0h1v1h-1zm-110 2h1v1h-1zm-31 1h1v1h-1zm165 0h1v1h-1zm-158 2h1v1h-1zm101 0h1v1h-1zm-81 1h1v21h-1zm85 0h1v1h-1zm54 0h1v1h-1zm-54 1h1v1h-1zm-4 1h1v1h-1zm48 2h1v1h-1zm-163 1h1v1h-1zm172 0h1v1h-1zm-169 1h1v1h-1zm155 1h1v1h-1zm15 0h1v1h-1zm-174 1h1v1h-1zm19 0h1v1h-1zm-2 3h1v1h-1zm158 1h1v1h-1zm-20 2h1v2h-1zm-158 1h1v1h-1zm115 0h1v1h-1zm65 0h1v1h-1zm-22 1h1v1h-1zm-132 1h1v1h-1zm159 1h1v1h-1zm-187 1h1v1h-1zm40 2h1v1h-1zm149 0h1v1h-1zm-71 1h1v1h-1zm43 0h1v1h-1z" fill="#5b5b5b"/><path d="M123 23h6v1h-6zm6 0h1v1h-1zm16 4h1v1h-1zm10 7h1v1h-1zm-60 3h1v1h-1zm71 43h1v1h-1zm-74 8h1v1h-1zm58 12h1v1h-1zm-11 5h1v1h-1zm-36 28h9v1h-9zm9 0h1v1h-1zm5 0h9v1h-9zm9 0h1v1h-1zm11 0h9v1h-9zm9 0h1v1h-1zm23 0h17v1h-17zm17 0h1v1h-1zm-113 5h1v1h-1zm4 3h1v1h-1zm-26 2h1v1h-1zm33 0h1v1h-1zm-4 2h1v1h-1zm-44 16h1v1h-1z" fill="#676767"/><path d="M111 27h1v1h-1zm39 4h1v1h-1zm-51 2h1v1h-1zm-7 10h1v1h-1zm-3 5h1v1h-1zm-1 1h1v1h-1zm-3 20h1v1h-1zm78 15h1v1h-1zm-2 5h1v1h-1zm-62 6h1v1h-1zm5 4h1v1h-1zm1 2h1v1h-1zm11 3h1v1h-1zm22 0h1v1h-1zm4 0h1v1h-1zm-21 1h1v1h-1zm12 0h1v1h-1zm-1 24h1v1h-1zm1 1h1v1h-1zm-30 2h9v1h-9zm9 0h1v1h-1zm5 0h8v1h-8zm8 0h1v1h-1zm12 0h11v1h-11zm11 0h1v1h-1zm5 0h1v1h-1zm16 0h16v1h-16zm16 0h1v1h-1zm-33 2h1v1h-1zm58 0h1v1h-1zm-57 1h1v1h-1zm-79 1h1v1h-1zm127 2h1v1h-1zm-157 2h1v1h-1zm158 2h1v1h-1zm-46 2h1v1h-1zm42 0h1v1h-1zm16 0h1v1h-1zm-158 1h1v1h-1zm112 1h1v1h-1zm-13 1h1v1h-1zm41 0h1v1h-1zm-112 2h1v1h-1zm53 0h5v1h-5zm5 0h1v1h-1zm-84 1h1v1h-1zm155 0h1v1h-1zm-173 1h1v1h-1zm15 0h1v1h-1zm34 0h1v1h-1zm56 0h1v1h-1zm50 0h1v1h-1zm-159 1h1v1h-1zm110 1h1v1h-1zm48 0h1v1h-1zm24 0h1v1h-1zm-180 1h1v1h-1zm22 0h1v1h-1zm28 0h1v1h-1zm107 3h1v1h-1zm-104 1h1v1h-1zm-29 1h1v1h-1zm106 0h1v1h-1zm18 0h1v1h-1zm8 0h1v1h-1zm-134 1h1v1h-1zm157 0h1v1h-1z" fill="#6c6c6f"/><path d="M122 31h1v1h-1zm1 0h1v1h-1zm8 0h1v1h-1z" fill="#4495ab"/><path d="M132 34h1v1h-1zm6 2h1v1h-1zm0 1h1v1h-1zm-19 1h1v1h-1zm13 0h1v1h-1zm0 1h1v1h-1zm6 2h1v1h-1zm-7 1h1v1h-1zm-12 2h1v1h-1zm31 2h1v1h-1zm-38 1h1v1h-1zm32 0h1v1h-1zm-13 1h1v1h-1zm-5 1h1v1h-1zm-18 9h1v4h-1zm6 3h1v1h-1zm-6 1h1v1h-1zm-10 1h1v4h-1zm58 2h1v1h-1zm-7 1h1v1h-1zm1 0h1v1h-1zm-52 1h1v1h-1zm42 8h1v1h-1zm6 1h1v1h-1zm-24 1h1v1h-1zm2 2h1v1h-1zm-12 2h1v1h-1zm13 6h1v1h-1zm1 0h1v1h-1zm0 6h1v1h-1z" fill="#1c3684"/><path d="M134 24h1v1h-1zm-18 1h1v1h-1zm-3 1h1v1h-1zm29 0h1v1h-1zm-32 1h1v1h-1zm33 0h1v1h-1zm-39 3h1v1h-1zm45 0h1v1h-1zm-46 1h1v1h-1zm-5 4h1v1h-1zm58 0h1v1h-1zm3 3h1v1h-1zm-65 1h1v1h-1zm69 6h1v1h-1zm3 5h1v2h-1zm-78 1h1v1h-1zm78 1h1v1h-1zm1 4h1v1h-1zm-81 3h1v1h-1zm81 14h1v1h-1zm-80 2h1v1h-1zm1 4h1v1h-1zm74 7h1v1h-1zm-70 1h1v1h-1zm69 1h1v1h-1zm-10 10h1v1h-1zm-5 3h1v1h-1zm-27 4h1v1h-1zm16 0h1v1h-1zm-62 25h1v1h-1zm76 0h1v1h-1zm-104 1h1v1h-1zm164 1h1v1h-1zm-93 1h1v1h-1zm33 0h1v1h-1zm1 0h1v1h-1zm17 0h1v1h-1zm35 1h1v1h-1zm-150 1h1v1h-1zm-9 1h1v1h-1zm6 0h1v1h-1zm152 1h1v1h-1zm-159 1h1v1h-1zm3 0h1v1h-1zm34 0h1v1h-1zm-3 1h1v1h-1zm133 0h1v1h-1zm-158 1h1v1h-1zm162 1h1v1h-1zm-131 1h1v1h-1zm-39 1h1v1h-1zm110 0h1v1h-1zm14 0h1v1h-1zm31 0h1v1h-1zm-142 1h1v1h-1zm-17 1h1v1h-1zm117 0h1v1h-1zm55 0h1v1h-1zm4 1h1v1h-1zm-161 1h1v1h-1zm83 0h9v1h-9zm9 0h1v1h-1zm21 0h1v1h-1zm-84 1h1v1h-1zm116 0h1v1h-1zm14 0h1v1h-1zm-158 1h1v1h-1zm94 0h1v1h-1zm68 1h1v1h-1zm-18 1h1v1h-1zm-54 1h1v1h-1zm73 0h1v1h-1zm-21 2h1v1h-1zm-136 1h1v1h-1zm155 0h1v1h-1zm3 0h1v1h-1zm-182 1h1v1h-1zm111 0h1v1h-1zm4 1h1v1h-1zm15 1h1v1h-1zm-17 1h1v1h-1zm-58 1h1v1h-1zm62 0h1v1h-1zm64 0h1v1h-1zm-187 1h1v1h-1zm1 0h1v1h-1zm3 0h1v1h-1zm25 0h1v1h-1zm33 0h1v1h-1zm40 0h1v1h-1z" fill="#5f5f62"/><g fill="#1fbfd3"><path d="M124 32h4v1h-4zm4 0h1v1h-1zm4 0h2v1h-2zm2 0h1v1h-1zm-15 1h7v1h-7zm7 0h1v1h-1zm-12 1h10v1h-10zm10 0h2v1h-2zm2 0h1v1h-1zm9 0h2v2h-2zm2 0h1v2h-1zm-25 1h11v1h-11zm11 0h1v13h-1zm-12 1h6v1h-6zm6 0h1v1h-1zm4 0h2v7h-2zm14 0h2v1h-2zm2 0h1v1h-1zm-29 1h6v1h-6zm6 0h1v1h-1zm-7 1h5v1h-5zm5 0h1v1h-1zm22 0h1v22h-1zm1 0h1v10h-1zm12 0h1v21h-1zm-41 1h4v1h-4zm4 0h1v1h-1zm38 0h1v6h-1zm-42 1h2v5h-2zm2 0h2v1h-2zm2 0h1v1h-1zm39 0h1v4h-1z"/><path d="M105 41h2v3h-2zm45 0h1v3h-1z"/><path d="M104 42h3v2h-3zm40 0h7v2h-7zm7 0h1v1h-1z"/><path d="M103 43h5v1h-5zm5 0h1v5h-1zm13 0h2v13h-2zm12 0h4v3h-4zm4 0h1v2h-1zm6 0h8v1h-8zm8 0h1v1h-1zm-49 1h5v1h-5z"/><path d="M132 44h18v1h-18zm18 0h1v1h-1zm-50 1h2v3h-2zm2 0h1v1h-1zm4 0h3v1h-3zm3 0h1v26h-1zm15 0h14v1h-14zm14 0h1v1h-1zm7 0h3v1h-3zm3 0h1v1h-1zm-41 1h1v2h-1zm12 0h17v1h-17zm17 0h1v1h-1zm10 0h1v25h-1z"/><path d="M99 47h2v1h-2zm20 0h6v1h-6zm6 0h1v1h-1zm8 0h2v1h-2zm-34 1h2v1h-2zm2 0h1v1h-1zm6 0h2v1h-2zm9 0h7v1h-7zm7 0h1v1h-1zm10 0h2v1h-2zm2 0h1v1h-1zm-37 1h1v3h-1zm1 0h1v1h-1zm11 0h1v20h-1zm3 0h4v1h-4zm4 0h5v1h-5z"/><path d="M97 50h2v2h-2zm2 0h1v1h-1zm9 0h7v1h-7zm7 0h2v1h-2zm2 0h1v1h-1zm-6 1h2v1h-2zm2 0h2v1h-2zm2 0h1v1h-1zm-19 1h2v3h-2zm2 0h1v2h-1zm13 0h1v16h-1zm1 0h1v1h-1zm-4 1h3v2h-3zm50 0h1v1h-1zm-60 1h1v1h-1z"/><path d="M107 54h4v1h-4zm26 0h1v11h-1zm15 0h1v3h-1zm4 0h1v2h-1zm-57 1h2v17h-2zm2 0h1v1h-1zm9 0h5v1h-5z"/><path d="M145 55h4v2h-4zm4 0h8v1h-8zm8 0h1v1h-1zm-53 1h3v2h-3zm3 0h4v1h-4zm14 0h1v8h-1zm1 0h1v7h-1zm13 0h4v2h-4zm4 0h1v2h-1z"/><path d="M142 56h11v1h-11zm11 0h1v1h-1zm4 0h1v1h-1zm1 0h1v1h-1zm-27 1h17v1h-17zm17 0h1v1h-1zm-54 1h3v1h-3zm3 0h1v1h-1zm7 0h2v2h-2zm2 0h1v1h-1zm25 0h9v1h-9zm9 0h1v1h-1zm4 0h3v1h-3zm-41 1h1v5h-1zm20 0h1v2h-1zm1 0h1v2h-1zm3 0h8v1h-8zm8 0h1v1h-1zm10 0h2v1h-2zm2 0h1v1h-1zm-43 1h1v1h-1zm1 0h1v1h-1z"/><path d="M120 60h9v1h-9zm9 0h5v1h-5zm5 0h1v1h-1zm-30 1h1v1h-1zm15 0h6v1h-6zm6 0h1v1h-1zm7 0h1v12h-1zm-30 1h1v24h-1zm14 0h6v2h-6zm42 0h1v1h-1zm1 0h1v8h-1zm-47 1h1v5h-1zm10 0h1v1h-1zm-19 1h1v1h-1zm10 0h8v1h-8zm8 0h1v1h-1zm24 0h1v8h-1zm-32 1h2v1h-2zm2 0h1v1h-1zm4 0h1v11h-1zm1 0h1v4h-1zm13 0h1v1h-1zm-32 1h1v20h-1zm12 0h2v1h-2zm2 0h1v1h-1zm43 0h1v8h-1zm-37 1h1v1h-1zm9 0h2v1h-2z"/><path d="M157 67h2v7h-2zm-46 1h1v1h-1zm1 0h1v1h-1zm19 0h2v5h-2zm2 0h1v4h-1zm10 0h6v2h-6zm6 0h1v2h-1z"/><path d="M153 68h6v1h-6zm-50 1h1v1h-1zm5 0h2v2h-2zm2 0h1v1h-1zm10 0h1v1h-1zm33 0h7v1h-7zm7 0h1v1h-1zm-60 1h2v1h-2z"/><path d="M106 70h3v1h-3zm12 0h1v6h-1zm12 0h3v3h-3zm6 0h13v1h-13zm13 0h1v1h-1zm7 0h3v1h-3zm3 0h1v1h-1zm-62 1h1v7h-1zm10 0h2v1h-2zm2 0h1v1h-1z"/><path d="M117 71h2v1h-2zm12 0h17v1h-17zm17 0h1v1h-1zm-51 1h1v1h-1zm1 0h1v3h-1zm10 0h1v2h-1zm1 0h1v2h-1zm10 0h6v2h-6zm6 0h1v2h-1zm3 0h7v1h-7zm7 0h1v1h-1zm4 0h1v1h-1zm1 0h1v1h-1zm4 0h3v1h-3zm3 0h1v2h-1zm-45 1h3v10h-3zm3 0h3v3h-3zm21 0h8v1h-8zm8 0h1v1h-1zm11 0h1v5h-1zm1 0h1v2h-1zm15 0h1v1h-1z"/><path d="M98 74h9v1h-9zm9 0h1v1h-1zm10 0h7v1h-7zm7 0h1v1h-1zm4 0h2v1h-2zm2 0h1v1h-1zm15 0h1v1h-1zm10 0h3v4h-3zm3 0h1v2h-1zm-62 1h9v2h-9zm20 0h5v1h-5zm5 0h1v1h-1zm8 0h1v6h-1zm1 0h1v2h-1zm14 0h1v1h-1zm-39 1h1v14h-1zm9 0h6v1h-6zm6 0h1v1h-1zm22 0h1v6h-1zm16 0h1v1h-1zm-62 1h8v1h-8zm8 0h1v12h-1zm7 0h6v1h-6zm6 0h1v1h-1z"/><path d="M128 77h2v4h-2zm2 0h1v1h-1zm11 0h2v5h-2zm-44 1h8v2h-8zm11 0h10v1h-10zm10 0h1v1h-1z"/><path d="M127 78h2v4h-2zm16 0h1v4h-1zm12 0h2v1h-2zm2 0h1v1h-1zm-51 1h5v1h-5zm5 0h5v1h-5zm5 0h1v2h-1zm24 0h2v3h-2zm14 0h2v2h-2zm2 0h1v2h-1zm-59 1h13v1H97zm13 0h1v1h-1z"/><path d="M115 80h2v1h-2zm2 0h1v1h-1zm8 0h18v1h-18zm28 0h2v4h-2zm-54 1h8v1h-8zm8 0h1v1h-1zm8 0h2v1h-2zm2 0h1v1h-1zm9 0h18v1h-18zm18 0h1v2h-1zm11 0h1v1h-1zm1 0h1v1h-1zm-57 1h7v1h-7zm7 0h1v1h-1zm8 0h1v3h-1zm1 0h1v1h-1zm10 0h3v1h-3zm3 0h1v1h-1z"/><path d="M136 82h10v1h-10zm10 0h1v1h-1zm-47 1h6v1h-6zm16 0h1v2h-1zm8 0h3v1h-3zm3 0h1v1h-1zm11 0h3v2h-3zm3 0h1v1h-1zm4 0h4v1h-4zm4 0h6v1h-6zm-45 1h2v3h-2zm10 0h1v10h-1zm10 0h2v1h-2zm2 0h1v1h-1z"/><path d="M136 84h3v2h-3zm9 0h9v1h-9zm9 0h1v1h-1zm-40 1h1v10h-1zm1 0h1v1h-1zm7 0h1v1h-1zm1 0h1v1h-1zm16 0h1v1h-1zm10 0h4v1h-4zm4 0h1v1h-1zm-52 1h4v1h-4zm11 0h1v8h-1zm7 0h3v6h-3zm3 0h1v1h-1zm12 0h4v1h-4zm4 0h1v1h-1zm11 0h2v2h-2zm2 0h1v1h-1zm-48 1h3v1h-3zm3 0h1v4h-1z"/><path d="M117 87h4v5h-4zm16 0h2v1h-2zm2 0h1v1h-1zm-28 1h1v3h-1zm1 0h7v3h-7z"/><path d="M115 88h6v4h-6zm12 0h2v2h-2zm2 0h6v1h-6zm6 0h1v1h-1zm13 0h2v1h-2zm2 0h1v1h-1z"/><path d="M104 89h18v1h-18zm18 0h1v3h-1zm7 0h3v1h-3zm3 0h1v1h-1zm15 0h1v1h-1zm1 0h1v1h-1z"/><path d="M105 90h24v1h-24zm24 0h1v1h-1zm17 0h1v2h-1zm1 0h1v1h-1zm-41 1h20v1h-20zm20 0h1v1h-1zm19 0h1v1h-1zm-36 1h14v1h-14zm14 0h1v1h-1zm20 0h3v1h-3zm3 0h1v1h-1zm-35 1h6v1h-6zm6 0h1v3h-1zm24 0h3v1h-3zm3 0h1v1h-1z"/><path d="M111 94h7v1h-7zm7 0h1v2h-1zm21 0h2v1h-2zm2 0h1v1h-1z"/><path d="M114 95h5v1h-5zm5 0h1v2h-1zm3 0h1v2h-1zm10 0h1v2h-1zm4 0h3v1h-3zm3 0h1v1h-1z"/><path d="M115 96h9v1h-9zm9 0h1v1h-1zm5 0h7v1h-7zm7 0h2v1h-2zm2 0h1v1h-1zm-19 1h1v1h-1zm1 0h12v1h-12zm12 0h1v1h-1z"/></g><path d="M131 33h1v1h-1zm-4 1h1v1h-1zm-9 3h1v1h-1zm15 0h1v1h-1zm4 1h1v1h-1zm-24 1h1v1h-1zm-3 7h1v1h-1zm29 0h1v1h-1zm1 0h1v1h-1zm9 0h1v1h-1zm-43 1h1v1h-1zm43 0h1v1h-1zm-42 2h1v1h-1zm11 1h1v1h-1zm18 0h1v1h-1zm-37 3h1v1h-1zm5 2h1v1h-1zm52 2h1v1h-1zm-37 2h1v1h-1zm25 1h1v1h-1zm4 0h1v1h-1zm-31 1h1v1h-1zm41 0h1v1h-1zm-43 1h1v1h-1zm11 0h1v1h-1zm-3 1h1v1h-1zm-23 1h1v1h-1zm57 1h1v1h-1zm-41 1h1v1h-1zm6 0h1v1h-1zm8 0h1v1h-1zm-23 2h1v1h-1zm34 0h1v1h-1zm-7 1h1v1h-1zm1 0h1v1h-1zm16 2h1v1h-1zm-53 1h1v1h-1zm48 1h1v1h-1zm9 0h1v1h-1zm-40 1h1v1h-1zm17 0h1v1h-1zm-25 1h1v1h-1zm20 0h1v1h-1zm14 0h1v1h-1zm-19 1h1v1h-1zm31 2h1v1h-1zm-40 3h1v1h-1zm-5 1h1v1h-1zm43 0h1v1h-1zm-39 1h1v1h-1zm10 0h1v1h-1zm7 0h1v1h-1zm6 1h1v1h-1zm-24 1h1v1h-1zm35 0h1v1h-1zm-31 1h1v1h-1zm17 0h1v1h-1zm-2 5h1v1h-1zm12 0h1v1h-1zm-22 3h1v1h-1z" fill="#1ba2c2"/><path d="M130 23h1v1h-1zm3 1h1v1h-1zm7 2h1v1h-1zm-32 2h1v1h-1zm39 1h1v1h-1zm4 2h1v1h-1zm3 3h1v1h-1zm1 1h1v1h-1zm-58 1h1v1h-1zm61 2h1v1h-1zm-65 3h1v1h-1zm-1 1h1v1h-1zm-4 10h1v1h-1zm78 1h1v1h-1zm1 4h1v1h-1zm-81 3h1v1h-1zm81 12h1v1h-1zm-1 4h1v1h-1zm-79 1h1v1h-1zm79 2h1v1h-1zm-6 10h1v1h-1zm-60 7h1v1h-1zm52 1h1v1h-1zm-4 3h1v1h-1zm-4 2h1v1h-1zm-2 1h1v1h-1zm-28 1h1v1h-1zm1 0h1v1h-1zm24 0h1v1h-1zm1 0h1v1h-1zm-7 27h1v29h-1zm-85 3h1v1h-1zm-5 1h1v1h-1zm113 0h1v1h-1zm54 0h1v1h-1zm-6 2h1v1h-1zm-150 2h1v1h-1zm27 2h1v1h-1zm121 0h1v1h-1zm8 0h1v1h-1zm-158 1h1v1h-1zm-12 1h1v1h-1zm128 1h1v1h-1zm16 0h1v2h-1zm-99 2h1v1h-1zm84 0h15v1h-15zm15 0h1v1h-1zm-32 2h1v1h-1zm-112 1h1v1h-1zm110 0h1v1h-1zm49 0h1v1h-1zm-112 4h1v1h-1zm5 2h1v1h-1zm104 0h1v1h-1zm-107 1h1v1h-1zm62 0h1v1h-1zm-90 1h1v1h-1zm-25 1h1v1h-1zm23 0h1v1h-1zm133 0h1v1h-1zm-23 1h16v1h-16zm16 0h1v1h-1zm33 0h1v1h-1zm-85 1h1v1h-1zm-70 1h1v1h-1zm7 0h1v1h-1zm65 0h1v1h-1zm19 0h1v1h-1z" fill="#69696c"/><path d="M131 23h1v1h-1zm-11 1h1v1h-1zm32 8h1v1h-1zm7 7h1v1h-1zm3 3h1v1h-1zm0 1h1v1h-1zm-72 3h1v1h-1zm74 1h1v1h-1zm1 2h1v1h-1zm-78 6h1v1h-1zm-1 15h1v1h-1zm80 7h1v1h-1zm-78 1h1v1h-1zm3 7h1v1h-1zm71 3h1v1h-1zm-66 4h1v1h-1zm24 13h1v1h-1zm14 0h1v1h-1zm74 25h1v1h-1zm-161 4h1v1h-1zm29 0h1v1h-1zm129 1h1v1h-1zm-159 2h1v1h-1zm111 0h1v1h-1zm54 0h1v1h-1zm-161 1h1v1h-1zm25 1h1v1h-1zm128 0h1v1h-1zm-159 2h1v1h-1zm7 0h1v1h-1zm-11 1h1v1h-1zm117 0h1v1h-1zm53 0h1v1h-1zm-158 1h1v1h-1zm162 0h1v1h-1zm-134 1h1v1h-1zm89 0h14v1h-14zm14 0h1v1h-1zm-126 1h1v1h-1zm29 1h1v1h-1zm64 0h1v1h-1zm50 0h1v1h-1zm-159 1h1v1h-1zm106 0h1v1h-1zm66 2h1v1h-1zm-173 1h1v1h-1zm104 0h1v1h-1zm-108 1h1v1h-1zm50 1h1v1h-1zm-25 2h1v1h-1zm-3 2h1v1h-1zm-21 1h1v1h-1zm53 0h1v1h-1zm-58 3h1v1h-1zm162 0h1v1h-1zm-161 1h1v1h-1zm1 0h1v1h-1zm27 0h1v1h-1zm1 0h1v1h-1zm9 0h1v1h-1zm1 0h1v1h-1zm22 0h2v1h-2zm2 0h1v1h-1zm17 0h2v1h-2zm2 0h1v1h-1zm19 0h1v1h-1zm18 0h1v1h-1zm1 0h1v1h-1zm12 0h21v1h-21zm21 0h1v1h-1zm5 0h2v1h-2zm2 0h1v1h-1zm26 0h2v1h-2zm2 0h1v1h-1z" fill="#646467"/><path d="M114 24h1v1h-1zm1 0h1v1h-1zm24 0h1v1h-1zm5 2h1v1h-1zm-42 4h1v1h-1zm53 3h1v1h-1zm1 1h1v1h-1zm3 3h1v1h-1zm1 1h1v1h-1zm-71 7h1v1h-1zm-4 11h1v2h-1zm0 2h1v1h-1zm84 0h1v13h-1zM85 71h1v2h-1zm84 0h1v1h-1zm-84 2h1v1h-1zm82 6h1v1h-1zm-78 5h1v1h-1zm76 0h1v1h-1zm-75 2h1v1h-1zm73 1h1v1h-1zm-57 15h1v1h-1zm45 27h1v1h-1zm-100 1h1v1h-1zm25 2h1v1h-1zm-33 1h1v1h-1zm37 4h1v1h-1zm78 0h1v1h-1zm41 1h1v1h-1zm8 0h1v1h-1zm-130 4h1v1h-1zm133 2h1v1h-1zm-62 1h1v1h-1zm-61 1h1v1h-1zm130 1h1v1h-1zm-129 1h1v1h-1zm1 1h1v1h-1zm-28 4h1v1h-1zm25 1h1v1h-1zm66 1h1v1h-1zm-95 3h1v1h-1zm139 1h1v1h-1zm27 2h1v1h-1zm-67 1h1v1h-1z" fill="#eaeaea"/><path d="M119 32h1v1h-1zm-3 1h1v1h-1zm13 0h1v1h-1zm-10 3h1v1h-1zm1 0h1v1h-1zm13 2h1v4h-1zm-29 2h1v1h-1zm-1 1h1v1h-1zm30 1h1v1h-1zm-32 1h1v1h-1zm23 1h2v1h-2zm2 0h1v1h-1zm25 0h2v1h-2zm2 0h1v1h-1zm-48 1h1v1h-1zm39 0h1v1h-1zm-45 1h1v1h-1zm38 0h1v1h-1zm8 0h1v8h-1zm-43 1h1v1h-1zm8 0h1v1h-1zm6 0h1v1h-1zm8 1h1v1h-1zm-27 1h1v1h-1zm11 2h1v1h-1zm5 1h1v1h-1zm7 2h1v1h-1zm25 0h1v1h-1zm-25 1h1v1h-1zm12 1h1v1h-1zm27 0h1v1h-1zm-52 1h1v1h-1zm45 0h1v1h-1zm-25 1h1v1h-1zm21 0h1v1h-1zm-51 1h1v1h-1zm43 0h1v1h-1zm-43 1h1v1h-1zm31 1h1v1h-1zm3 0h1v1h-1zm-17 2h1v1h-1zm20 0h1v1h-1zm-17 2h1v1h-1zm1 0h1v1h-1zm26 0h1v1h-1zm-26 1h1v1h-1zm39 0h1v1h-1zm-2 1h1v1h-1zm1 0h1v1h-1zm-56 1h1v1h-1zm21 0h1v1h-1zm-21 1h1v1h-1zm11 0h1v1h-1zm10 0h1v1h-1zm-24 1h1v1h-1zm13 0h1v1h-1zm17 1h1v1h-1zm29 0h1v1h-1zm-17 1h2v1h-2zm2 0h1v1h-1zm1 1h1v1h-1zm-26 1h1v1h-1zm-21 1h1v1h-1zm19 0h1v1h-1zm-8 1h1v1h-1zm5 0h1v1h-1zm10 0h1v1h-1zm20 0h1v1h-1zm13 0h1v1h-1zm-45 1h1v1h-1zm49 0h1v1h-1zm-62 1h1v1h-1zm34 1h1v1h-1zm3 0h3v1h-3zm3 0h1v1h-1zm17 0h1v1h-1zm-42 1h1v1h-1zm33 0h1v1h-1zm-35 1h1v1h-1zm-11 1h1v1h-1zm8 1h1v1h-1zm22 0h1v1h-1zm-16 1h1v1h-1zm14 0h1v1h-1zm-26 1h1v1h-1zm20 0h1v1h-1zm5 0h1v1h-1zm9 0h1v1h-1zm13 0h1v1h-1zm-36 1h1v1h-1zm13 0h1v1h-1zm-16 1h1v1h-1zm23 0h1v1h-1zm17 0h1v1h-1zm4 0h1v1h-1zm-1 1h1v1h-1zm-1 1h1v1h-1zm-7 2h1v1h-1zm-19 1h1v1h-1zm1 0h1v1h-1zm16 0h1v1h-1zm-32 1h1v1h-1zm9 0h1v1h-1zm1 1h1v1h-1zm17 0h1v1h-1zm7 0h1v1h-1zm-4 2h1v1h-1zm-4 1h1v1h-1zm-11 1h1v1h-1z" fill="#1ebad0"/><path d="M141 34h1v1h-1zm2 1h1v1h-1zm12 11h1v1h-1z" fill="#4d5b80"/><path d="M115 38h1v1h-1zm-4 2h1v1h-1zm-2 1h1v1h-1zm32 1h1v1h-1zm1 0h1v1h-1zm-11 1h1v1h-1zm-22 1h1v1h-1zm11 0h1v1h-1zm6 4h1v1h-1zm-25 1h1v1h-1zm31 0h1v3h-1zm0 3h1v1h-1zm24 1h1v1h-1zm-6 1h1v1h-1zm-52 2h1v1h-1zm32 1h1v1h-1zm25 0h1v1h-1zm-29 1h1v1h-1zm15 1h1v1h-1zm-11 2h1v1h-1zm14 0h1v1h-1zm0 1h1v1h-1zm-51 1h1v1h-1zm29 2h1v1h-1zm12 1h1v1h-1zm-26 1h1v1h-1zm42 0h1v1h-1zm0 4h1v1h-1zm-46 1h1v1h-1zm12 1h1v1h-1zm19 0h1v1h-1zm1 0h1v1h-1zm-11 2h1v1h-1zm6 1h1v1h-1zm-25 1h1v1h-1zm1 1h1v1h-1zm40 3h1v1h-1zm-30 1h1v1h-1zm6 0h1v1h-1zm26 0h1v1h-1zm-33 2h1v1h-1zm2 2h1v1h-1zm-9 1h1v1h-1zm7 0h1v1h-1zm28 3h1v1h-1zm-25 3h1v1h-1zm19 0h1v1h-1zm-3 1h1v1h-1z" fill="#1da7c4"/><g fill="#717175"><path d="M122 24h1v5h-1zm1 0h1v5h-1zm8 0h1v5h-1zm1 0h1v5h-1z"/><path d="M119 25h15v4h-15zm15 0h1v5h-1z"/><path d="M116 26h22v3h-22zm22 0h1v6h-1z"/><path d="M113 27h29v2h-29zm29 0h1v6h-1z"/><path d="M110 28h35v1h-35zm35 0h1v6h-1z"/><path d="M108 29h38v1h-38zm38 0h1v5h-1zm-40 1h14v1h-14zm14 0h1v1h-1z"/><path d="M134 30h13v1h-13zm13 0h1v6h-1zm-43 1h10v1h-10zm10 0h2v1h-2zm2 0h1v1h-1z"/><path d="M139 31h10v1h-10zm10 0h1v6h-1zm-47 1h11v1h-11zm11 0h2v1h-2zm2 0h1v1h-1z"/><path d="M138 32h13v1h-13zm13 0h1v8h-1zm-49 1h9v1h-9zm9 0h1v1h-1z"/><path d="M142 33h10v1h-10zm10 0h1v7h-1zm-52 1h9v1h-9zm9 0h1v1h-1z"/><path d="M144 34h9v1h-9zm9 0h1v8h-1zm-54 1h8v1h-8zm8 0h1v1h-1zm37 0h1v1h-1z"/><path d="M148 35h6v2h-6zm6 0h1v7h-1zm-56 1h9v1h-9zm9 0h1v1h-1z"/><path d="M146 36h10v1h-10zm10 0h1v10h-1zm-58 1h6v1h-6zm6 0h1v1h-1z"/><path d="M148 37h9v1h-9zm9 0h1v9h-1zm-61 1h7v2h-7zm7 0h1v1h-1zm52 0h2v5h-2zm3 1h1v9h-1zm-64 1h8v1h-8zm8 0h1v1h-1z"/><path d="M151 40h7v1h-7zm-57 1h6v3h-6zm6 0h1v1h-1zm59 0h1v9h-1z"/><path d="M93 42h6v3h-6zm60 0h8v1h-8zm8 0h1v13h-1zm-6 1h6v2h-6zm-56 1h1v1h-1zm63 0h1v13h-1zm-70 1h6v2h-6zm6 0h1v1h-1z"/><path d="M155 45h7v1h-7zm-64 1h5v3h-5zm65 0h6v1h-6zm-60 1h1v2h-1zm1 0h1v1h-1zm63 0h3v4h-3zm3 0h1v35h-1z"/><path d="M90 48h5v3h-5zm67 0h6v1h-6z"/><path d="M89 49h7v1h-7zm7 0h1v1h-1zm68 0h1v31h-1zm-75 1h5v2h-5z"/><path d="M159 50h6v1h-6zm6 0h1v30h-1zm-71 1h1v2h-1zm66 0h5v1h-5zm-71 1h4v3h-4zm4 0h1v1h-1zm1 1h1v1h-1z"/><path d="M88 54h4v21h-4zm4 1h1v2h-1zm69 0h4v2h-4zm-68 1h1v1h-1zm73 0h1v18h-1zm-74 1h1v1h-1zm69 0h5v1h-5z"/><path d="M87 58h4v13h-4zm74 0h5v1h-5zm1 1h4v1h-4zm0 1h4v1h-4zm5 2h1v6h-1zm0 6h1v1h-1z"/><path d="M86 69h5v1h-5zm76 0h4v11h-4zm-75 2h4v3h-4zm5 1h1v13h-1z"/><path d="M161 72h5v1h-5zm-74 2h6v1h-6zm6 0h1v14h-1zm73 0h1v1h-1zm-78 1h4v2h-4zm73 0h4v5h-4zm-73 2h5v1h-5zm1 1h4v3h-4z"/><path d="M160 78h5v2h-5zm-66 1h1v9h-1zm65 1h6v2h-6zm6 0h1v1h-1z"/><path d="M89 81h6v1h-6zm6 0h1v8h-1zm-4 1h4v1h-4zm66 0h7v1h-7zm7 0h1v1h-1z"/><path d="M91 83h6v1h-6zm6 0h1v9h-1zm61 0h4v4h-4zm4 0h1v2h-1zm-66 1h1v7h-1z"/><path d="M157 84h5v3h-5zm-65 1h5v1h-5zm70 0h1v1h-1zm-64 1h1v7h-1z"/><path d="M155 86h6v2h-6zm-56 1h1v7h-1zm62 0h1v1h-1z"/><path d="M93 88h8v1h-8zm8 0h1v8h-1zm53 0h6v2h-6zm6 0h1v1h-1z"/><path d="M95 89h7v1h-7zm7 0h1v7h-1zm51 0h6v2h-6z"/><path d="M100 90h3v5h-3zm3 0h1v8h-1zm49 0h7v1h-7zm7 0h1v1h-1z"/><path d="M96 91h8v1h-8zm8 0h1v7h-1zm47 0h7v1h-7zm7 0h1v1h-1zm-61 1h7v1h-7zm53 0h6v1h-6zm6 0h1v1h-1z"/><path d="M98 93h7v1h-7zm7 0h1v5h-1zm44 0h6v2h-6zm6 0h1v1h-1z"/><path d="M99 94h7v1h-7zm7 0h1v5h-1zm41 0h7v2h-7z"/><path d="M100 95h8v1h-8zm8 0h1v5h-1zm36 0h10v1h-10zm10 0h1v1h-1z"/><path d="M101 96h9v1h-9zm9 0h2v5h-2zm2 0h1v6h-1zm30 0h1v6h-1zm3 0h8v1h-8zm8 0h1v1h-1z"/><path d="M107 97h4v3h-4zm36 0h8v1h-8zm8 0h1v1h-1z"/><path d="M103 98h11v1h-11zm11 0h1v5h-1zm25 0h10v1h-10zm10 0h1v1h-1z"/><path d="M106 99h11v1h-11zm11 0h1v5h-1zm3 0h1v5h-1zm13 0h1v5h-1zm4 0h11v1h-11zm11 0h1v1h-1z"/><path d="M107 100h15v1h-15zm15 0h1v4h-1zm12 0h12v1h-12zm12 0h1v1h-1z"/><path d="M109 101h35v1h-35zm35 0h1v1h-1zm-33 1h31v1h-31zm31 0h1v1h-1zm-29 1h27v1h-27zm27 0h1v1h-1zm-23 1h19v1h-19zm19 0h1v1h-1zm-4 1h1v1h-1zm-86 26h1v1h-1zm50 0h1v28h-1zm53 0h1v1h-1zm-104 1h1v1h-1zm5 0h1v1h-1zm99 0h1v1h-1zm1 0h2v1h-2zm2 0h1v1h-1zm56 0h1v1h-1zm-161 1h1v1h-1zm1 0h2v1h-2zm2 0h1v1h-1zm25 0h1v1h-1zm40 0h1v26h-1zm36 0h1v1h-1zm15 0h1v10h-1zm-120 1h1v1h-1zm3 0h1v1h-1zm26 0h1v2h-1zm78 0h1v1h-1zm50 0h1v1h-1zm-152 1h1v1h-1zm25 0h1v1h-1zm79 0h1v1h-1zm53 0h1v1h-1zm-158 1h1v1h-1zm22 0h1v1h-1zm3 0h1v1h-1zm127 0h1v1h-1zm8 0h1v1h-1zm-138 1h1v1h-1zm130 0h1v3h-1zm1 0h1v1h-1zm7 0h1v3h-1zm-167 1h1v1h-1zm1 0h1v1h-1zm7 0h1v1h-1zm25 0h2v1h-2zm79 0h1v3h-1zm-111 1h1v1h-1zm33 0h1v1h-1zm124 0h1v1h-1zm10 0h1v1h-1zm-169 1h1v1h-1zm158 0h2v1h-2zm2 0h1v1h-1zm8 0h2v1h-2zm2 0h1v1h-1zm-169 1h1v1h-1zm112 0h1v1h-1zm45 0h1v1h-1zm12 0h1v1h-1zm-158 1h1v1h-1zm27 0h1v2h-1zm130 0h1v1h-1zm-169 1h1v1h-1zm11 0h1v1h-1zm101 0h1v1h-1zm12 0h1v1h-1zm47 0h1v1h-1zm-173 1h1v1h-1zm41 0h1v1h-1zm-41 1h1v3h-1zm1 0h1v1h-1zm111 0h1v2h-1zm17 0h14v1h-14zm14 0h1v1h-1zm31 0h1v1h-1zm-130 1h1v2h-1zm70 0h1v1h-1zm13 0h1v1h-1zm32 0h1v1h-1zm14 0h1v1h-1zm1 0h1v2h-1zm-175 1h1v1h-1zm16 0h1v1h-1zm30 0h1v1h-1zm67 0h1v1h-1zm14 0h1v11h-1zm-128 1h2v1h-2zm2 0h1v1h-1zm44 0h1v1h-1zm53 0h10v1h-10zm10 0h2v1h-2zm2 0h1v1h-1zm65 0h1v1h-1zm-176 1h1v1h-1zm18 0h1v2h-1zm80 0h1v1h-1zm-1 1h1v1h-1zm10 0h1v1h-1zm71 0h1v1h-1zm-179 1h1v1h-1zm19 0h1v2h-1zm-1 1h1v1h-1zm32 0h1v1h-1zm59 0h2v1h-2zm2 0h1v1h-1zm47 0h1v1h-1zm4 0h1v1h-1zm14 0h1v1h-1zm4 0h1v1h-1zm-178 1h1v1h-1zm17 0h1v1h-1zm32 0h2v1h-2zm2 0h1v1h-1zm57 0h1v1h-1zm50 0h1v1h-1zm18 0h1v1h-1zm-179 1h1v2h-1zm160 0h1v1h-1zm-136 1h1v1h-1zm157 0h1v1h-1zm-182 1h1v1h-1zm1 0h1v1h-1zm24 0h1v1h-1zm30 0h2v1h-2zm2 0h1v1h-1zm127 0h1v1h-1zm-128 1h1v1h-1zm60 0h1v2h-1zm68 0h1v1h-1zm-185 1h1v1h-1zm116 0h1v1h-1zm16 0h1v1h-1zm-133 1h1v1h-1zm59 0h1v1h-1zm4 0h1v1h-1zm19 0h1v1h-1zm36 0h2v1h-2zm2 0h1v1h-1zm14 0h1v1h-1zm53 0h1v1h-1zm-187 1h1v1h-1zm28 0h1v1h-1zm10 0h1v1h-1zm22 0h1v1h-1zm20 0h1v1h-1zm21 0h1v1h-1zm18 0h1v1h-1zm1 0h1v1h-1zm39 0h1v1h-1zm1 0h1v1h-1zm26 0h2v1h-2zm2 0h1v1h-1z"/></g><path d="M112 25h1v1h-1zm1 0h1v1h-1zm51 19h1v1h-1zM86 54h1v1h-1zm82 1h1v1h-1zm0 19h1v1h-1zm-82 2h1v1h-1zm79 7h1v1h-1zM96 94h1v1h-1zm2 2h1v1h-1zm90 37h1v1h-1zm-110 2h1v1h-1zm90 0h1v6h-1zm38 0h1v1h-1zm-127 1h1v1h-1zm-29 5h1v1h-1zm118 0h1v1h-1zm35 1h1v1h-1zm-53 3h1v1h-1zm-12 1h8v1h-8zm8 0h1v1h-1zm-59 1h1v1h-1zm81 1h1v9h-1zm44 1h1v1h-1zm-122 2h1v1h-1zm1 1h1v1h-1zm-29 3h1v1h-1zm85 2h1v1h-1zm21 0h1v1h-1zm-20 1h1v1h-1zm39 0h1v1h-1zm-97 1h1v1h-1zm65 0h1v1h-1zm1 2h1v1h-1z" fill="#c2c2c2"/><path d="M130 31h1v1h-1zm-24 7h1v1h-1zm44 2h1v1h-1zm-52 7h1v1h-1zm-3 6h1v1h-1zm-2 9h1v1h-1zm67 9h1v1h-1zm-66 2h1v1h-1zm65 2h1v1h-1zm-1 3h1v1h-1zm-62 1h1v1h-1zm61 1h1v1h-1zm-60 1h1v1h-1zm2 3h1v1h-1zm41 12h1v1h-1zm-19 2h1v1h-1zm1 0h1v1h-1zm10 0h1v1h-1z" fill="#39a6ba"/><path d="M136 24h1v1h-1zm-29 4h1v1h-1zm57 18h1v1h-1zm-4 44h1v1h-1zm-57 9h1v1h-1zm-57 30h1v1h-1zm87 0h1v1h-1zm-81 5h1v1h-1zm84 0h1v11h-1zm20 0h1v1h-1zm-108 1h1v1h-1zm88 10h1v1h-1zm65 0h1v1h-1zm-65 6h1v9h-1zm-44 3h1v1h-1zm54 0h1v1h-1zm-10 6h1v1h-1z" fill="#202023"/><path d="M128 34h1v1h-1zm2 9h1v1h-1zm11 3h1v1h-1zm1 0h1v1h-1zm-10 2h1v1h-1zm17 0h1v1h-1zm-25 2h1v1h-1zm-8 1h1v1h-1zm3 5h1v1h-1zm0 1h1v1h-1zm10 0h1v1h-1zm28 0h1v1h-1zm-50 1h1v1h-1zm43 0h1v1h-1zm-8 1h1v1h-1zm-6 1h1v1h-1zm-23 2h1v1h-1zm14 0h1v1h-1zm8 0h1v1h-1zm13 0h1v1h-1zm-18 3h1v1h-1zm13 2h1v1h-1zm5 0h1v1h-1zm1 0h1v1h-1zm-43 2h1v1h-1zm22 1h1v1h-1zm-29 1h1v1h-1zm53 0h1v1h-1zm3 0h1v1h-1zm-15 6h1v1h-1zm5 3h1v1h-1zm-15 3h1v1h-1zm-24 1h1v1h-1zm34 1h1v1h-1zm-1 1h1v1h-1zm-14 2h1v1h-1zm10 1h1v1h-1zm-2 1h1v1h-1zm-6 2h1v1h-1zm-7 1h1v1h-1zm1 1h1v1h-1zm12 0h1v1h-1z" fill="#1e91b5"/><path d="M163 43h1v1h-1zm-73 1h1v1h-1zm54 59h1v1h-1zm-25 3h1v1h-1zm16 0h1v1h-1zm-90 23h1v1h-1zm118 0h1v1h-1zm-11 1h1v1h-1zm36 0h1v2h-1zm0 2h1v1h-1zm-146 4h1v1h-1zm170 0h1v1h-1zm-4 3h1v1h-1zm-158 1h1v1h-1zm-12 4h1v1h-1zm178 2h1v1h-1zm-135 1h1v1h-1zm119 1h1v1h-1zm-157 2h10v1H43zm10 0h1v1h-1zm84 0h1v1h-1zm13 0h1v1h-1zm51 0h10v1h-10zm10 0h1v1h-1zm7 0h1v1h-1zm-3 5h1v1h-1zm5 0h1v1h-1zm-188 3h1v1h-1zm164 0h1v1h-1zm-138 1h1v1h-1zm130 0h1v2h-1zm0 2h1v1h-1zm-128 1h1v1h-1z" fill="#b2b2b2"/></svg>