<svg xmlns="http://www.w3.org/2000/svg" role="img" viewBox="-19.42 -19.42 1009.84 310.84"><title>Aries logo</title><style>svg {enable-background:new 0 0 971.9 272.7}</style><style>.st0{fill:#35813f}</style><path d="M221.1 107.7c4-5.2 4.2-12.1 5.4-18.3.6 6.2-.1 13.6 4.6 18.5 5.5 5.5 13.9 4.6 21.1 5-6.9 1.1-14.6 1-20.4 5.4-5.6 5.1-4.8 13.3-5.3 20.2-1.2-6.8-1.1-14.5-5.9-19.8-4.9-4.2-11.7-4.3-17.7-5.6 6.2-.7 13.6-.3 18.2-5.4z" class="st0"/><path d="M303 33.3c-2.1-5.6-5.4-10.9-9.7-15.2-4.3-4.3-9.2-7.8-14.4-10.3-5.2-2.5-10.5-4.3-15.8-5.5-5.3-1.2-10.5-1.8-15.7-2.2-5.6-.3-11.4 0-17 1-11.2 2-21.8 6.4-30.9 12.1-9.2 5.7-17.2 12.4-24.3 19.7-7.2 7.2-13.4 15-19.2 23-3.7 5.1-7.1 10.4-10.4 15.8-3.5-5-7.3-9.8-11.6-14.3-14-14.9-31.7-26.9-51.4-33.4-4.9-1.7-10-3-15.3-3.9-1.3-.2-2.7-.4-4.1-.6l-2.3-.2-1.3-.1h-1c-2.7-.1-5.5-.1-8.2.1-5.6.4-11.3 1.3-16.9 3.3-5.6 1.9-11.2 4.8-15.9 8.9-4.8 4-8.6 9-11.4 14.3C3.5 50.9 1.9 56.4 1 61.7.1 67-.1 72.2.1 77.3c.2 5.1.7 9.8 1.8 15 1.1 5 2.7 10.1 5.3 14.8 2.5 4.7 6 9.1 10.3 12.4 4.3 3.3 9.2 5.6 14.1 6.7 5 1 9.8 1.2 14.8.3l-.3-3.7c-4.1-.6-8.4-1.9-11.9-3.9-3.6-1.9-6.7-4.4-8.9-7.4-4.5-6-6.2-13.4-6.3-21.3 0-3.9.2-8.1.7-12.1.5-4 1.3-7.9 2.4-11.3 2.3-7 6-12.3 10.9-15.2 4.8-3 11-4.3 18.1-4 1.8.1 3.5.2 5.3.4h.6c.4 0 .1 0 .3.1l1.1.3c.8.2 1.7.4 2.6.7 3.5 1.1 7.1 2.4 10.7 3.9 14.1 6.3 27 15.7 37.4 27.5 6.9 7.8 13.1 16.3 18.7 25.5-.1.1-.1.3-.2.4-7.7 17.5-13.8 35.4-18.6 53.8-2.4 9.2-4.5 18.5-6.2 28-1.7 9.5-3 19.1-3.4 29.7-.2 5.5.3 11 1.3 16.7 1.1 5.6 2.8 11.4 5.8 17 2.9 5.6 7.1 11 12.9 15.2 2.9 2.1 6.2 3.8 9.8 4.9 3.6 1.1 7.4 1.5 11.1 1.1 7.4-.7 13.7-4.1 18-8.4 4.4-4.2 7.3-9 9.5-13.8 4.3-9.7 5.7-19.4 6.8-29 .5-4.8.9-9.7.7-14.2 0-4.6.3-9.2.1-13.9 0-9.3-.3-18.6-.8-28-1-15.8-3.2-31.8-7.5-47.5 6.3-13.9 13.3-27.5 21.2-40 8.9-13.9 19-26.7 30.8-35.7 5.9-4.5 12-7.9 18.4-9.9 3.2-1 6.5-1.6 9.9-2 3.9-.3 7.7-.4 11.3-.1 14.7.9 26.1 6.8 29.1 21.4 1.4 7 .9 15.3-1.7 23.2-2.4 8-6.6 15.7-12.2 22.6l2.5 2.9c8.1-5 15-12 20.3-20.4 5.1-8.4 8.9-18.4 9.1-29.4.1-5.9-.8-11.7-2.8-17.3zM137.2 246.6c-.9-1.9-1.6-4.3-2.1-7.1s-.8-5.9-.8-9.3c-.1-3.4.3-6.9.6-10.5.8-7.5 2.4-15.9 4.5-24.1 2.1-8.2 4.4-16.5 7.1-24.7 1.5-4.7 3.1-9.4 4.8-14.1 0 .1 0 .1.1.2 1.2 4.6 19.2 72 1.9 90.1-1.6 1.5-3.3 2.7-5 3.4-2.9 1.2-5.6 1.1-7.3.2-1.8-.8-2.8-2.2-3.8-4.1z" class="st0"/><path fill="#24272a" d="M357.3 58.4l25.9-.1.2 26.1 13.3-.1-.3-60.4-13.4.1.1 22.5-25.8.2-.1-22.6-13.4.1.4 60.4h13.3zm71.6 26.2l13.4-.1-.2-25.8L464.7 24l-15.8.1-13.5 22.7-12.9-22.6-16.6.1 22.9 34.5zm58.7-.1l-.1-23.6 9.7-.1c3.2 0 6.2-.3 8.9-1 2.7-.6 5.1-1.6 7.1-3.1 2-1.4 3.5-3.4 4.7-5.7 1.1-2.4 1.7-5.4 1.7-8.9 0-3.6-.7-6.5-1.9-8.9-1.2-2.3-2.9-4.2-5-5.6-2.1-1.4-4.5-2.3-7.3-2.9-2.8-.6-5.7-.8-8.9-.8l-22.5.2.3 60.4h13.3zm6.6-49.2c1.2 0 2.6.1 3.9.2 1.4.1 2.6.4 3.7 1 1.1.5 2 1.2 2.7 2.2.7.9 1.1 2.2 1.1 3.7 0 1.4-.3 2.6-.8 3.5-.5 1-1.2 1.7-2.1 2.2-.9.5-1.9 1-3 1.2-1.1.2-2.3.4-3.4.4l-8.9.1-.1-14.3 6.9-.2zm77.5 49.1l-.1-12.3-29.3.1V60l26.2-.2-.1-12.3-26.2.2-.1-11.3 27.8-.1-.1-12.3-41 .2.3 60.4zm42.1 0l16-.1-15.5-25.4c4.3-.8 7.5-2.7 9.7-5.7 2.2-3 3.3-6.6 3.3-10.9 0-3.5-.7-6.5-1.9-8.8-1.2-2.3-2.9-4.2-5-5.6-2.1-1.4-4.5-2.4-7.3-2.9-2.8-.6-5.7-.9-8.7-.9l-23.4.1.3 60.4 13.3-.1-.1-24.1h6.6l12.7 24zm-19.4-35.3l-.1-13.7h8.7c1.2 0 2.4.1 3.7.2 1.2.2 2.4.5 3.3 1 1 .5 1.8 1.2 2.4 2.1.6.9 1 2.1 1 3.7s-.4 2.9-1 3.8c-.7.9-1.6 1.6-2.7 2-1.1.4-2.3.7-3.6.8-1.3.1-2.6.1-3.8.1h-7.9zM677 84.3l-.1-12.3-24.7.1L652 24l-13.4.1.4 60.4zm52.1 0V72.1l-29.3.1-.1-12.3 26.2-.1V47.5l-26.2.1-.1-11.2 27.8-.2-.1-12.3-41.1.2.3 60.5zm55.1-7.7c3.1-2.5 5.6-5.7 7.4-9.4 1.8-3.7 2.7-8.1 2.7-12.9 0-5.5-1-10.2-2.9-14.1-1.9-3.9-4.5-7-7.8-9.4-3.2-2.4-7.1-4.1-11.4-5.2-4.4-1-9-1.6-13.8-1.5l-20 .1.3 60.4 21.8-.1c4.5 0 8.8-.7 12.9-2 4-1.4 7.6-3.4 10.8-5.9zm-25.3-4.5H752l-.2-35.8h7.9c2.8 0 5.5.3 8 1s4.8 1.8 6.6 3.2c1.9 1.4 3.4 3.2 4.5 5.4s1.7 4.8 1.7 7.7c0 3.4-.5 6.3-1.6 8.7-1.1 2.4-2.6 4.3-4.6 5.7s-4.2 2.5-6.9 3.2c-2.6.6-5.4.9-8.5.9zm79-23.4L838 61l10.9-.1.1 9.8c-1.2.7-2.9 1.4-5 2s-4.6 1-7.5 1c-2.9 0-5.4-.4-7.7-1.4-2.3-1-4.3-2.3-5.9-4s-2.9-3.8-3.8-6.1c-.9-2.3-1.3-4.9-1.4-7.8 0-2.8.4-5.4 1.3-7.8.9-2.4 2.1-4.5 3.8-6.2 1.6-1.8 3.6-3.1 5.9-4.1 2.3-1 4.9-1.5 7.7-1.5 3.4 0 6.3.4 8.5 1.4 2.3 1 4.3 2.4 6.2 4.3l9.3-10.3c-3.1-2.8-6.7-4.8-10.7-6-4.1-1.2-8.5-1.7-13.4-1.7-4.7 0-9.1.8-13.1 2.3-4 1.5-7.4 3.6-10.3 6.4-2.9 2.8-5.1 6.1-6.8 10.1-1.6 3.9-2.4 8.3-2.3 13.1 0 4.8.9 9.2 2.5 13.1s3.9 7.3 6.8 10 6.4 4.8 10.3 6.3c4 1.5 8.4 2.2 13.1 2.1 4.4 0 8.8-.5 13.1-1.4 4.3-.9 8.4-2.4 12.3-4.5l-.2-31.6-23.8.3zm75.9 34.2V70.7l-29.3.1-.1-12.3 26.2-.1V46.1l-26.3.1V35l27.8-.2-.1-12.3-41.1.3.3 60.4zm22.9.2l-.1-24.1h6.6l12.7 24 16-.1-15.5-25.5c4.3-.8 7.5-2.7 9.7-5.7 2.2-3 3.3-6.6 3.3-10.9 0-3.5-.7-6.5-1.9-8.8-1.2-2.3-2.9-4.2-5-5.6-2.1-1.4-4.5-2.4-7.3-2.9-2.8-.6-5.7-.9-8.7-.9l-23.4.1.3 60.4h13.3zm8.5-49.3c1.2 0 2.4.1 3.7.2 1.2.1 2.4.5 3.3 1 1 .5 1.8 1.2 2.4 2.1.6.9 1 2.1 1 3.7s-.4 2.9-1 3.8c-.7.9-1.6 1.6-2.7 2s-2.3.7-3.6.8c-1.3.1-2.6.1-3.8.1h-7.9l-.1-13.7h8.7z"/><path d="M430.6 253.4l-10.8-27.3H359l-10.8 27.3h-17.4L380 131.3h19l49 122.1h-17.4zm-41.1-106.5l-25.8 65.9h51.8l-26-65.9zm145.1 106.5l-30.9-48.5h-24.5v48.5H464v-122h49c22.3 0 38.4 14.3 38.4 36.8 0 21.9-15.2 34.1-31.9 35.5l33 49.8-17.9-.1zm1.1-85.2c0-13.9-10.1-23.3-24.5-23.3h-32v46.7h32c14.4 0 24.5-9.7 24.5-23.4zm39.8 85.2v-122h15.2v122.1l-15.2-.1zm43.7 0v-122h80v13.5h-64.8v39.3h63.5v13.5h-63.5v42.1h64.8v13.5l-80 .1zm96.8-17.1l9.2-11.7c7.9 9.2 21.1 17.6 38.2 17.6 21.8 0 28.7-11.7 28.7-21.2 0-31.5-72.3-13.9-72.3-57.5 0-20.1 17.9-34.1 42.1-34.1 18.5 0 33 6.4 43.2 17.2l-9.2 11.2c-9.2-10.3-21.9-14.6-35.3-14.6-14.5 0-25.1 7.9-25.1 19.4 0 27.5 72.3 11.7 72.3 57.3 0 17.6-12.1 35.9-45 35.9-21-.2-36.7-8.2-46.8-19.5z" class="st0"/></svg>