<svg xmlns="http://www.w3.org/2000/svg" role="img" viewBox="39.92 29.92 1200.16 740.16"><title>AsyncAPI logo</title><g><g fill="#1D1D1B"><path d="M133.666 470.021h30.292l70.198 205.351h-25.048l-16.312-49.226h-87.384L89.1 675.371H63.76L133.666 470.021zM186.387 604.589l-36.992-111.851-37.866 111.851H186.387zM271.587 674.207c-9.228-4.467-16.656-10.631-22.283-18.497-5.635-7.865-8.739-16.846-9.323-26.942l21.557-4.952c.387 7.38 2.425 13.884 6.117 19.516 3.685 5.634 8.637 9.903 14.855 12.817 6.212 2.91 13.106 4.367 20.68 4.367 6.599 0 12.525-.968 17.77-2.914 5.24-1.936 9.465-4.806 12.668-8.592 3.206-3.787 4.806-7.91 4.806-12.38 0-5.047-1.745-9.174-5.24-12.38-3.498-3.202-7.771-5.723-12.817-7.57-5.051-1.844-11.653-3.834-19.808-5.974-11.266-2.911-20.439-5.825-27.527-8.735-7.088-2.914-13.062-7.234-17.912-12.964-4.857-5.727-7.282-13.253-7.282-22.575 0-8.154 2.184-15.582 6.555-22.283 4.368-6.697 10.288-11.941 17.766-15.729 7.475-3.787 15.875-5.679 25.197-5.679 9.126 0 17.573 1.892 25.34 5.679 7.764 3.787 14.078 8.986 18.935 15.586 4.85 6.603 7.668 13.979 8.447 22.137l-21.557 5.533c-.391-8.93-3.542-15.97-9.466-21.119-5.926-5.142-13.354-7.716-22.283-7.716-5.05 0-9.662.972-13.836 2.91-4.177 1.943-7.475 4.66-9.903 8.158-2.428 3.495-3.641 7.38-3.641 11.649 0 5.054 1.749 9.177 5.244 12.38 3.495 3.202 7.037 5.536 10.634 6.989 3.59 1.457 11.018 3.451 22.28 5.975 10.678 2.91 19.661 6.018 26.946 9.319 7.282 3.304 13.347 7.767 18.204 13.398 4.85 5.634 7.282 12.624 7.282 20.972 0 8.739-2.527 16.652-7.574 23.74-5.05 7.092-11.897 12.624-20.534 16.602-8.644 3.98-18.401 5.974-29.276 5.974C291.146 680.907 280.808 678.673 271.587 674.207zM397.562 742.075c-9.129-3.889-17.138-9.422-24.029-16.604-6.895-7.187-12.186-15.437-15.875-24.76l18.639-12.521c3.301 11.839 9.418 21.406 18.354 28.688 8.929 7.281 19.318 10.923 31.165 10.923 9.126 0 17.138-2.283 24.032-6.844 6.892-4.564 12.329-10.777 16.312-18.643 3.978-7.862 5.971-16.747 5.971-26.651l-.292-19.807c-2.721 4.856-6.313 9.173-10.776 12.96-4.47 3.787-9.421 6.745-14.855 8.885-5.441 2.137-10.974 3.206-16.604 3.206-10.097 0-19.077-2.476-26.943-7.428s-13.935-11.748-18.205-20.392c-4.272-8.637-6.409-18.591-6.409-29.856v-94.958h22.137v94.958c0 7.384 1.355 13.837 4.079 19.372 2.717 5.533 6.599 9.951 11.649 13.253 5.047 3.305 10.875 4.952 17.477 4.952 7.183 0 13.691-1.75 19.515-5.244 5.828-3.495 10.437-8.301 13.837-14.418 3.396-6.116 5.098-13.059 5.098-20.826v-92.047h22.137l.292 147.39c0 13.786-2.914 26.166-8.739 37.139-5.824 10.967-13.888 19.56-24.178 25.778-10.294 6.212-21.845 9.319-34.659 9.319C416.395 747.899 406.688 745.957 397.562 742.075zM523.396 528.273h20.099l2.038 19.52c4.079-7.574 9.999-13.644 17.77-18.208 7.764-4.558 15.918-6.844 24.467-6.844 10.094 0 19.077 2.527 26.943 7.574 7.866 5.05 13.983 11.897 18.35 20.534 4.371 8.644 6.555 18.496 6.555 29.564v94.957h-22.429v-94.957c0-7.184-1.311-13.589-3.933-19.223-2.622-5.632-6.507-10.05-11.649-13.256-5.149-3.203-11.024-4.807-17.624-4.807-6.989 0-13.398 1.75-19.223 5.244-5.828 3.495-10.488 8.301-13.983 14.418-3.495 6.116-5.244 13.062-5.244 20.826v91.754h-22.137V528.273zM694.373 670.712c-10.484-6.796-18.643-16.167-24.467-28.108-5.825-11.944-8.645-25.489-8.447-40.633 0-15.338 2.666-28.984 8.009-40.926 5.339-11.945 12.862-21.309 22.575-28.107 9.707-6.797 20.874-10.196 33.498-10.196 9.707 0 18.643 2.14 26.797 6.409 8.158 4.272 15.001 10.046 20.537 17.331 5.533 7.282 9.363 15.779 11.504 25.486l-21.265 5.824c-2.721-10.678-7.428-19.223-14.125-25.632-6.701-6.409-14.614-9.611-23.74-9.611-7.768 0-14.855 2.526-21.265 7.573-6.405 5.051-11.408 12.088-14.998 21.115-3.597 9.03-5.39 19.277-5.39 30.733 0 11.459 1.99 21.654 5.971 30.584 3.977 8.932 9.513 15.973 16.604 21.117 7.084 5.146 15.097 7.717 24.028 7.717 7.765 0 14.805-1.841 21.118-5.532 6.308-3.688 11.456-8.834 15.437-15.439 3.98-6.6 6.555-14.075 7.72-22.426l21.265 4.659c-1.556 11.263-5.39 21.312-11.507 30.146-6.117 8.841-13.833 15.731-23.156 20.684-9.319 4.952-19.617 7.428-30.876 7.428C716.802 680.907 704.86 677.504 694.373 670.712zM874.089 469.145h43.109l70.198 206.227h-36.408l-14.275-45.73h-81.556l-15.147 45.73h-35.827L874.089 469.145zM928.851 601.387L895.934 500.02l-33.494 101.367H928.851zM1006.908 469.145h80.979c13.785 0 26.113 2.724 36.992 8.157 10.871 5.438 19.464 13.012 25.777 22.718 6.308 9.714 9.466 20.782 9.466 33.206 0 12.431-3.107 23.448-9.319 33.063-6.219 9.611-14.812 17.232-25.781 22.863-10.971 5.635-23.255 8.447-36.847 8.447h-47.185v77.771h-34.082V469.145zM1084.1 568.473c7.573 0 14.512-1.501 20.826-4.518 6.307-3.005 11.259-7.18 14.855-12.521 3.59-5.339 5.387-11.408 5.387-18.208 0-6.792-1.746-12.861-5.241-18.204-3.498-5.339-8.352-9.513-14.566-12.525-6.216-3.01-13.304-4.514-21.261-4.514h-43.109v70.49H1084.1zM1182.548 469.145h34.955v206.227h-34.955V469.145z"/></g><g><path fill="#4875B9" d="M652.347,396.385c-67.78,0-122.922-41.099-122.922-91.615h24.345c0,37.093,44.223,67.271,98.578,67.271 c54.358,0,98.581-30.178,98.581-67.271h24.346C775.273,355.286,720.127,396.385,652.347,396.385z"/></g><g><path fill="#4875B9" d="M775.273,144.793h-24.346c0-37.094-44.223-67.272-98.581-67.272c-54.354,0-98.578,30.178-98.578,67.272 h-24.345c0-50.518,55.143-91.617,122.922-91.617C720.127,53.176,775.273,94.275,775.273,144.793z"/></g><g><path fill="#63BA90" d="M537.999 212.644H694.351V236.987H537.999z" transform="rotate(35.911 616.223 224.843)"/></g><g><path fill="#63BA90" d="M611.319 212.503H767.673V236.849H611.319z" transform="rotate(35.911 689.537 224.695)"/></g></g></svg>