<svg xmlns="http://www.w3.org/2000/svg" role="img" viewBox="-11.23 -11.23 583.96 362.46"><title>Brigade logo</title><style>svg {enable-background:new 0 0 562 340.1}</style><style>.st0{fill:#387498}</style><path d="M204 28.6c2.9-.2 4.3 1.7 5.6 3.9 3.1 5.2 6 10.5 9.2 15.6 3.9.2 7.4.3 10.7 2.5 6.1 3.7 9 11.2 7 18.1-2 7.1-9.1 12.1-16.5 11.5-8.3-.5-15-7.8-14.8-16-.1-4.6 2-8 4.6-11.5-3.1-5.6-6.7-11-9.6-16.7-1.8-3.3.2-7 3.8-7.4zm50.5 20c3.9-1.1 6.6 3.9 3.7 6.6-3.5 2-7.5 3.5-11.3 4.7-3.7 1.1-6.4-4-3.6-6.6 3.3-2.2 7.3-3.6 11.2-4.7z" class="st0"/><path fill="#f48996" d="M218.4 56.6c4.1-1.5 8.7.7 10.2 4.8 1.5 4.2-.7 8.9-4.9 10.4-4.2 1.4-8.8-.9-10.2-5.1-1.3-4.2.9-8.6 4.9-10.1z"/><path d="M317.2 44.8c-2.8-1.4-6.4-1.5-9.4-2-2.1-4.4-4-6.5-8.1-9.1-.1-8.9 0-17.7 0-26.6-.1-2.1 0-4.3-1.8-5.9-2.3-2-6-1.4-7.5 1.3-.8 2-.7 4.5-.8 6.6.1 8.1.1 16.1 0 24.2-4.6 2.5-6.6 4.7-9 9.3-2.6.4-5.3.5-7.8 1.4-3 1.4-2.8 5.9.2 7.1 2.4.6 5.2-.1 7.7-.3 1.6 2.6 2.9 5.3 5.5 7 4.6 3.3 11.1 3.4 15.8.2 2.7-1.8 4-4.4 5.7-7.1 2.7.4 5.5 1 8.2.8 2.9-.9 3.7-4.8 1.3-6.9zm-26.4 6.5c-3.5-2.6-3-7.6.7-9.7 4-2.3 8.9 1.1 8.6 5.5-.4 4.4-5.7 7-9.3 4.2zm85.1-22.1c-2-3.4-6.7-3.3-8.7.1-4.4 7-8.4 14.4-12.7 21.5-3.1.7-5.9 1.7-8.7 3.2-3.9-1.6-7.8-3.9-11.9-4.7-3.5-.4-5.6 4.4-2.9 6.7 3.4 2.1 7.4 3.3 11 5 .2 5.2 1.6 10 6.6 12.4 4.3 2 8.2.9 12.3-.9 2.2 1.6 4.5 4 7.1 4.7 3.1.3 5.5-3.2 3.8-5.9-1.7-2.2-4.2-3.8-6.3-5.6.1-3.8-.4-6.6-2-10.1 3.6-6.4 7.4-12.7 11.2-19.1 1.1-2.3 2.8-4.6 1.2-7.3zm-18.5 33.9c-.1 3-3.8 4.6-6 2.6-2-1.8-1.4-5.1 1.1-6.1 2.4-1 5.1.9 4.9 3.5z" class="st0"/><path d="M384.7 84.3c3 2.7 5.2 6.3 7.6 9.5 2 3 4.4 6 5.6 9.4 1 3.4-3.3 6.3-6.1 4.1-2.6-2.8-4.3-6.5-6.5-9.5-2.1-3.2-5.2-6.1-6.8-9.6-.7-3.6 3.5-6.3 6.2-3.9zM272 118.1c8.3 1.8 15.3 6.3 21.6 11.9-4.7 5.4-9.5 10.7-14.2 16-3.2-2.3-6.4-4.9-10.4-5.8-6.5-1.5-13.4-.9-18.9 3-6.4 4.3-9.7 11.4-10.7 18.9-.8 6.6-.5 13.6 1.7 19.8 1.8 5.1 5.2 9.5 10.1 12 6.6 3.1 14.1 3.5 21.1 1.4v-14h-14.5v-21.2h26.3c3.6 0 7 .7 9.4 3.7 2 2.5 2 5.3 2 8.4-.1 11.7-.1 23.3 0 35-9.9 8.1-22.5 12.3-35.4 12-10.9-.2-22.1-3.3-30.7-10.2-7.4-5.9-12.3-14.2-14.9-23.2-4.6-18-2.2-39.2 10.9-53.2 11.5-12.9 30-17.8 46.6-14.5zm224.8.8h63.6v21.8h-37.6v15.4h32.1v21.8h-32.1v17.6h39.1v21.8h-65.2c.1-32.8.1-65.6.1-98.4zm-348.7 60.3c7.3-4.4 12.9-10.7 14.8-19.2 1.9-8.7 1.5-19.5-3.6-27.2-3.8-5.9-9.8-9.6-16.5-11.6-7.1-2-14.5-2.3-21.8-2.4H87.2v98.4h26.1v-33h10c5.6 11 11.3 22 16.9 33h29.1c-7-12.6-14.1-25.3-21.2-38zm-15.5-17.5c-5.5 2.8-13.2 1.8-19.3 2 .1-8-.3-16.1.2-24.1 4.6-.4 9.4-.3 14 .2 3.9.5 8.3 1.7 10 5.7 2.1 5.6.9 13.3-4.9 16.2zm229-42.8c-10.4.1-21-.3-31.4.2-1.5 3.1-2.2 6.7-3.3 10-9 29.4-17.9 58.8-26.9 88.2h26.7c1.6-7 3.2-13.9 4.8-20.9h27.6c1.6 7 3.2 13.9 4.8 20.9h27.6c-9.9-32.8-19.9-65.6-29.9-98.4zm-25.3 57.3c3.4-12.8 5.7-25.7 9-38.5 3.4 12.7 5.9 25.7 9.2 38.5-6.1.1-12.2.1-18.2 0zM482.7 164c-.4-10-2.8-19.7-8.7-27.9-5.4-7.5-13.4-12.3-22.2-14.7-11.3-3.2-22.2-2.4-33.8-2.5-4.9-.1-9.5 1.6-12.4 5.7-3.1 4.3-2.4 9.4-2.5 14.5.1 21.6 0 43.4 0 65 0 4.7 2.3 9.1 6.4 11.6 4.1 2.6 9 1.6 13.6 1.6 11-.1 21.2.4 31.8-3.4 9-3.1 16.8-9.3 21.4-17.6 5.5-9.9 6.8-21.1 6.4-32.3zm-61-31.1c-.4 4-5 6.1-8.3 3.8-3.4-2.3-2.9-7.7.9-9.3 3.8-1.5 7.8 1.4 7.4 5.5zm34.2 40.2c-.6 7-2.9 14.8-8.9 18.9-5.5 3.9-11.3 4.1-17.8 4.5v-56.8c5.2.3 10 .3 14.8 2.4 4.1 1.8 7.3 4.8 9.1 8.9 3.1 6.6 3.3 14.9 2.8 22.1zM72.1 173c-4.5-4.8-10.1-6.4-16.2-8 4.2-1.7 8.2-3.3 11.3-6.8 8.4-9.1 7.5-26-3.2-33-7.6-5-18-6.1-26.9-6.3-12.3-.1-24.7 0-37 0v98.4h37c9.4-.1 19-1.1 27.2-6 7-3.9 12-11.1 12.8-19.2.7-6.6-.3-14.1-5-19.1zm-46-34.1c4.6 0 9.4-.3 13.9.4 2.4.4 4.9 1.4 6.2 3.6 2.5 4.9.5 11.6-4.8 13.6-4.7 1.7-10.5 1-15.4 1.1.1-6.2.1-12.5.1-18.7zm25 51.4c-1.3 3.7-4.7 5.6-8.3 6.4-5.4 1-11.2.5-16.8.6v-21.5c5.3 0 10.7-.3 16 .4 2.9.4 6.1 1.4 8 3.8 2.1 2.8 2.2 7.1 1.1 10.3zM204 142.1c-.3-6.2 1.4-13.6-3.3-18.6-5-5.7-14.3-5.7-19.3 0-3.7 4-3.4 8.6-3.4 13.6.1 26.3 0 52.7 0 79-.1 4.8 1.9 9.3 6 11.9 5.7 3.7 13.6 2.2 17.5-3.4 2.4-3.2 2.5-6.7 2.5-10.5-.1-24 0-48 0-72zm-8.1 75.9c-.7 3.6-4.9 5.3-7.8 3.1-3.1-2.3-2.4-7.3 1.3-8.6 3.5-1.3 7.1 1.7 6.5 5.5zm4.3 21.2c1.7-.7 3.6-.6 4.7 1 2.6 3.1 5.3 6.4 7.1 10 .6 3.3-3.2 6-6 4-2.9-2.7-5.4-6.2-7.4-9.7-1.2-1.9-.3-4.2 1.6-5.3zM369 260c8.3.5 15 7.8 14.8 16 .1 4.5-2 8-4.6 11.5 3.1 5.6 6.7 11 9.6 16.7 1.8 3.2-.2 6.9-3.8 7.3-2.9.2-4.3-1.7-5.6-3.9-3.1-5.2-6-10.5-9.2-15.6-3.9-.3-7.4-.3-10.7-2.5-6.1-3.7-9-11.2-7-18.1 2-7 9.1-12 16.5-11.4z" class="st0"/><path fill="#b8e785" d="M364.5 268.7c3.6-1.6 7.9-.5 10 2.9 2.4 3.6 1.5 8.6-2.1 11-3.8 2.7-9.2 1.5-11.5-2.5-2.3-4.1-.7-9.5 3.6-11.4z"/><path d="M258.8 283.3c-3.3-2.3-7.4-3.5-11-5.3.1-4.6-.5-8.6-4-11.8-4.6-3.9-10-3-15-.5-1.9-1.5-3.8-3.4-6.1-4.4-3.2-.8-5.9 2.4-4.6 5.5 1.6 2.3 4.2 4 6.3 5.8.2 3.5.7 6.5 2.2 9.8-3.6 6.4-7.4 12.8-11.2 19.1-1.2 2.4-2.9 4.7-1.4 7.4 1.7 3 6.2 3.4 8.2.4 4.7-6.8 8.2-14.5 12.8-21.3 2.2-1.7 5.8-2.2 8.4-3.3 4 1.9 8.2 4.5 12.5 5.3 3.4-.1 5.2-4.2 2.9-6.7zm-24.3-4.8c-2.5-1.3-2.6-4.7-.3-6.3 2.4-1.5 5.5.1 5.6 2.9.1 2.8-2.8 4.6-5.3 3.4zm107.8 2.9c3.5-1.5 6.7 2.4 4.9 5.6-1.4 1.9-4.5 2.7-6.6 3.6-2.3.7-5.1 2.1-7.5 1.6-3.1-.9-3.8-5.5-.9-7 3.2-1.5 6.7-2.8 10.1-3.8zm-26.4 7.8c-2.5-.2-5 .2-7.5.5-1.6-2.8-2.9-5.5-5.6-7.4-4.6-3.3-11.1-3.4-15.8-.2-2.5 1.7-3.9 4.2-5.6 6.7-2.4-.4-5-1-7.5-.9-3.3.8-4.2 5.5-1.1 7.2 2.6 1.1 5.5 1.4 8.3 1.9 2 4.6 3.9 6.8 8.1 9.5.1 8.9 0 17.7 0 26.6.1 2.2 0 4.4 1.8 5.9 2.3 2 6 1.4 7.5-1.3.9-2 .7-4.5.8-6.6-.1-8.1-.1-16.1 0-24.2 4.5-2.5 6.5-4.5 8.8-9 2.9-.5 6.3-.4 9-1.6 2.7-2 2-6.3-1.2-7.1zm-19 9.8c-3 1.2-6.2-.4-7.5-3.3-1.2-2.8.2-6 2.9-7.4 3.2-1.7 7 .2 8.1 3.5.9 2.9-.8 6-3.5 7.2z" class="st0"/></svg>