<svg xmlns="http://www.w3.org/2000/svg" role="img" viewBox="-12.72 -12.72 661.44 157.94"><title>CHAOSS logo</title><style>svg {enable-background:new 0 0 636.2 132.5}</style><path d="M59.4 124.5c-8.2 0-15.9-1.6-23.1-4.7-7.2-3.1-13.5-7.4-18.8-12.8-5.4-5.4-9.6-11.6-12.8-18.8C1.6 81.1 0 73.4 0 65.2s1.6-15.9 4.7-23c3.1-7.2 7.4-13.4 12.8-18.8s11.7-9.6 18.8-12.8c7.2-3.1 14.9-4.7 23.1-4.7 10.5 0 20.4 2.6 29.5 7.7 1.8 1 3 2.3 3.4 4.2.5 1.8.2 3.6-.7 5.3-1 1.8-2.4 3-4.3 3.4-1.9.5-3.7.2-5.4-.7-3.4-2-7-3.5-10.8-4.5-3.8-1-7.7-1.4-11.7-1.4-6.3 0-12.2 1.2-17.6 3.6-5.5 2.4-10.2 5.6-14.3 9.7-4 4-7.3 8.8-9.7 14.4-2.4 5.5-3.6 11.4-3.6 17.6 0 6.3 1.2 12.2 3.6 17.6 2.4 5.5 5.6 10.3 9.7 14.4 4 4.1 8.8 7.3 14.3 9.7 5.5 2.4 11.4 3.6 17.6 3.6 4.4 0 8.6-.6 12.7-1.8 4.1-1.2 8-3 11.6-5.2 1.7-1.2 3.5-1.5 5.4-1.1 1.9.4 3.4 1.5 4.5 3.2 1.1 1.7 1.4 3.5 1 5.4-.4 1.9-1.5 3.4-3.2 4.6-9.8 5.9-20.5 8.9-32 8.9zm50.2-118c1.9 0 3.6.7 5 2s2.2 3 2.2 5V117c0 1.9-.7 3.6-2.2 5-1.4 1.4-3.1 2.1-5 2.1-2 0-3.7-.7-5-2.1-1.3-1.4-2-3-2-5V13.5c0-2 .7-3.7 2-5 1.3-1.3 2.9-2 5-2zm76 0c2 0 3.7.7 5 2 1.3 1.3 2 3 2 5V117c0 1.9-.7 3.6-2 5s-3 2.1-5 2.1c-1.9 0-3.6-.7-5-2.1-1.4-1.4-2.2-3-2.2-5V72.3h-45c-1.9 0-3.6-.7-5-2s-2.1-3-2.1-5 .7-3.7 2.1-5.1c1.4-1.4 3-2.1 5-2.1h45V13.6c0-2 .7-3.7 2.2-5 1.4-1.4 3.1-2.1 5-2.1zm126.8 113c-.6 1.8-1.9 3.1-3.7 3.9-1.8.9-3.6 1-5.4.3-1.8-.6-3.1-1.9-4-3.7l-12.6-27.1h-32.1c-2 0-3.7-.7-5-2-1.3-1.3-2-3-2-5 0-1.9.7-3.6 2-4.9 1.3-1.4 3-2.1 5-2.1H280L257.6 31l-39.4 89c-.6 1.4-1.5 2.4-2.7 3.1-1.2.7-2.4 1-3.8 1-1 0-1.9-.2-2.9-.5-1.8-.9-3.1-2.2-3.8-4-.7-1.8-.6-3.6.2-5.4l45.8-103c.5-1.3 1.4-2.3 2.6-3 1.2-.7 2.4-1.1 3.8-1.1s2.7.3 3.8 1c1.2.7 2 1.7 2.6 3L312 114.2c.9 1.8 1 3.5.4 5.3zm193.6 5.8h-2.7c-5 0-10-.7-14.9-2.2-4.9-1.5-9.3-3.8-13.3-6.8-3.9-3-7.1-6.9-9.6-11.6-2.5-4.7-3.7-10.2-3.7-16.6 0-1.9.7-3.6 2.1-5 1.4-1.4 3.1-2.1 5.1-2.1 1.9 0 3.6.7 5 2.1 1.4 1.4 2.1 3 2.1 5 0 3.7.6 6.9 1.8 9.5 1.2 2.6 2.8 4.8 4.6 6.5 1.9 1.7 3.9 3 6.1 4 2.2 1 4.3 1.7 6.3 2.2 2 .5 3.8.8 5.4.9 1.5.1 2.5.2 3 .2h2.7c2.9 0 5.7-.5 8.6-1.4 2.9-1 5.5-2.3 7.8-4 2.3-1.7 4.3-3.7 5.7-6 1.5-2.3 2.2-4.8 2.2-7.4 0-4.3-2-8-6.1-11.1-4.1-3.1-11-6.3-20.8-9.3l-2.9-1c-4.5-1.6-9-3.3-13.7-5.1-4.6-1.8-8.8-4-12.5-6.7-3.7-2.7-6.7-5.8-9-9.5s-3.5-8.2-3.5-13.5c0-4.5 1-8.6 3-12.4s4.7-7.1 8.2-9.8c3.5-2.8 7.7-4.9 12.5-6.5 4.8-1.5 10-2.3 15.5-2.3 2.9 0 6 .2 9.4.5 3.4.3 6.7 1 10.1 2.1 3.4 1.1 6.6 2.6 9.8 4.6 3.1 2 5.9 4.7 8.4 8.1.6 1 1.3 2.1 2.1 3.5.7 1.4 1.4 2.8 1.9 4.3s1 2.9 1.4 4.3c.4 1.4.6 2.6.6 3.7 0 1.9-.7 3.6-2 5s-3 2.1-5.1 2.1c-1.9 0-3.6-.7-5-2.1-1.4-1.4-2.1-3-2.1-5-.1-.5-.5-1.7-1.2-3.4-.7-1.8-1.4-3.2-2.2-4.2-4.4-6.3-13-9.4-26-9.4-3.1 0-6.1.4-9 1.1-2.9.7-5.6 1.8-8 3.3-2.4 1.4-4.3 3.2-5.7 5.3-1.4 2.1-2.2 4.5-2.2 7.3 0 2.7.7 5 2 6.9 1.3 2 3.3 3.8 5.8 5.4 2.5 1.6 5.6 3.2 9.2 4.6 3.6 1.4 7.7 2.9 12.2 4.5l2.7 1c3.2 1.1 6.9 2.4 11.1 3.9 4.2 1.5 8.2 3.6 12 6.2 3.8 2.6 7 5.8 9.6 9.7 2.6 3.8 3.9 8.5 3.9 14.1 0 4.8-1.1 9.2-3.4 13.3s-5.3 7.5-9 10.5c-3.7 2.9-7.8 5.2-12.4 6.8-4.7 1.1-9.3 1.9-13.9 1.9zm91.7 0H595c-5 0-10-.7-14.9-2.2-4.9-1.5-9.3-3.8-13.3-6.8-3.9-3-7.1-6.9-9.6-11.6-2.5-4.7-3.7-10.2-3.7-16.6 0-1.9.7-3.6 2.1-5 1.4-1.4 3.1-2.1 5.1-2.1 1.9 0 3.6.7 5 2.1 1.4 1.4 2.1 3 2.1 5 0 3.7.6 6.9 1.8 9.5 1.2 2.6 2.8 4.8 4.6 6.5 1.9 1.7 3.9 3 6.1 4 2.2 1 4.3 1.7 6.3 2.2 2 .5 3.8.8 5.4.9s2.5.2 3 .2h2.7c2.9 0 5.7-.5 8.6-1.4 2.9-1 5.5-2.3 7.8-4 2.3-1.7 4.3-3.7 5.7-6 1.5-2.3 2.2-4.8 2.2-7.4 0-4.3-2-8-6.1-11.1-4.1-3.1-11-6.3-20.8-9.3l-2.9-1c-4.5-1.6-9-3.3-13.7-5.1-4.6-1.8-8.8-4-12.5-6.7-3.7-2.7-6.7-5.8-9-9.5s-3.5-8.2-3.5-13.5c0-4.5 1-8.6 3-12.4s4.7-7.1 8.2-9.8c3.5-2.8 7.7-4.9 12.5-6.5 4.8-1.5 10-2.3 15.5-2.3 2.9 0 6 .2 9.4.5 3.4.3 6.7 1 10.1 2.1 3.4 1.1 6.6 2.6 9.8 4.6 3.1 2 5.9 4.7 8.4 8.1.6 1 1.3 2.1 2.1 3.5.7 1.4 1.4 2.8 1.9 4.3s1 2.9 1.4 4.3c.4 1.4.6 2.6.6 3.7 0 1.9-.7 3.6-2 5s-3 2.1-5.1 2.1c-1.9 0-3.6-.7-5-2.1-1.4-1.4-2.1-3-2.1-5-.1-.5-.5-1.7-1.2-3.4-.7-1.8-1.4-3.2-2.2-4.2-4.4-6.3-13-9.4-26-9.4-3.1 0-6.1.4-9 1.1-2.9.7-5.6 1.8-8 3.3-2.4 1.4-4.3 3.2-5.7 5.3-1.4 2.1-2.2 4.5-2.2 7.3 0 2.7.7 5 2 6.9 1.3 2 3.3 3.8 5.8 5.4 2.5 1.6 5.6 3.2 9.2 4.6 3.6 1.4 7.7 2.9 12.2 4.5l2.7 1c3.2 1.1 6.9 2.4 11.1 3.9 4.2 1.5 8.2 3.6 12 6.2s7 5.8 9.6 9.7c2.6 3.8 3.9 8.5 3.9 14.1 0 4.8-1.1 9.2-3.4 13.3-2.3 4-5.3 7.5-9 10.5-3.7 2.9-7.8 5.2-12.4 6.8-4.8 1.1-9.4 1.9-13.9 1.9z"/><path fill="#66c9ba" d="M412.5 30.1l-.3.6c1.1.9 2.2 1.8 3.2 2.8 4.2 4.2 7.6 9.1 10 14.8l.9 2.4c.1.2.1.4.2.5.2.6.4 1.3.6 2 0 .2.1.3.1.5.2.7.4 1.4.6 2.2 0 .1 0 .2.1.3.2.8.4 1.7.5 2.5H448.1c-.1-1-.3-2-.4-3 0-.2-.1-.5-.1-.7-.2-1-.3-1.9-.5-2.9 0-.1-.1-.3-.1-.4-.7-3.1-1.6-6.1-2.7-9-.1-.2-.1-.3-.2-.5-.3-.9-.7-1.8-1.1-2.6l-.3-.6c-1.7-3.8-3.8-7.4-6.2-10.7-.1-.2-.3-.4-.4-.6-.6-.8-1.1-1.5-1.7-2.3-.1-.1-.2-.3-.3-.4-2-2.4-4.1-4.7-6.4-6.8l-.3-.3c-.7-.7-1.5-1.3-2.3-1.9-.2-.2-.4-.3-.6-.4-.8-.6-1.6-1.3-2.4-1.9l-9.6 16.4z"/><path fill="#009ade" d="M366.4 22.8c1.2-.5 2.4-.9 3.7-1.2.1 0 .2-.1.3-.1 1.2-.3 2.4-.6 3.6-.8.2 0 .3-.1.5-.1 1.2-.2 2.4-.4 3.7-.5h.4c1.3-.1 2.6-.2 3.9-.2 1.3 0 2.6.1 3.9.2h.5c1.2.1 2.4.3 3.6.5.2 0 .4.1.5.1 1.2.2 2.4.5 3.6.8.1 0 .3.1.4.1 1.2.3 2.4.7 3.6 1.2l.3-.5 9.6-16.6c-.9-.4-1.8-.8-2.8-1.1-.3-.1-.5-.2-.8-.3-.9-.3-1.8-.6-2.6-.9-.3-.3-.6-.4-.9-.4-1.7-.5-3.3-1-5-1.4-.3-.1-.6-.1-.8-.2-.6-.1-1.2-.2-1.9-.3-.7-.1-1.3-.2-2-.3-.5-.1-1.1-.2-1.7-.2-.8-.1-1.6-.2-2.4-.2-.4 0-.9-.1-1.3-.1-1.3-.2-2.6-.3-3.8-.3-1.3 0-2.5.1-3.8.1-.4 0-.9.1-1.3.1-.8.1-1.6.1-2.4.2-.6.1-1.1.1-1.7.2-.7.1-1.3.2-2 .3-.6.1-1.2.2-1.9.3-.3.1-.6.1-.8.2-1.7.4-3.4.8-5 1.4l-.9.3c-.9.3-1.8.6-2.6.9-.3.1-.5.2-.8.3-.9.4-1.9.7-2.8 1.1l9.6 16.7.3.7z"/><path fill="#d50057" d="M342 90.1l.5-.4c-.5-.8-1-1.7-1.4-2.6-.5-.9-.9-1.8-1.3-2.8-.6-1.4-1.1-2.8-1.6-4.3s-.8-2.9-1.1-4.4c-.6-3-.9-6.1-.9-9.4 0-3.2.3-6.3.9-9.3.3-1.5.7-3 1.1-4.4.5-1.5 1-2.9 1.6-4.3 2.4-5.7 5.8-10.6 10-14.8 1-1 2-1.9 3-2.7l-.3-.6-9.6-16.7c-.4.3-.8.6-1.1.9-.6.4-1.1.9-1.7 1.4l-2.4 2.1-.8.8-1.5 1.5-.9.9c-.4.5-.9.9-1.3 1.4-.3.3-.6.7-.9 1.1-.4.5-.8.9-1.2 1.4-.3.4-.6.8-.9 1.1-.4.5-.7.9-1 1.4-.3.4-.6.8-.8 1.2-.3.5-.6.9-.9 1.4-.3.4-.5.8-.8 1.3-.3.5-.6.9-.8 1.4-.3.4-.5.9-.8 1.3-.3.5-.5.9-.7 1.4-.2.5-.5.9-.7 1.4-.2.5-.4.9-.7 1.4-.2.5-.5 1-.7 1.5-.2.4-.4.9-.6 1.3-.2.5-.4 1-.6 1.6-.2.4-.3.8-.4 1.2-.2.6-.4 1.1-.6 1.7l-.3.9c-1.1 3.4-1.9 6.8-2.4 10.3 0 .2-.1.3-.1.5l-.3 2.4c0 .2 0 .4-.1.6-.1.8-.1 1.6-.2 2.3v.7c0 .8-.1 1.6-.1 2.3V69.2c0 .8.1 1.6.1 2.4v.5c.1.8.2 1.7.3 2.5 0 .1 0 .3.1.4.1.9.2 1.8.4 2.6v.2c1.5 8.7 4.7 17.2 9.8 24.9L342 90.1z"/><path fill="#c19ade" d="M436.5 104.5c.5-.7 1-1.4 1.4-2.1.1-.1.1-.2.2-.3.5-.7.9-1.5 1.4-2.3 0-.1.1-.1.1-.2 4.5-7.6 7.4-16.2 8.5-25.4h-19.8c-.1.8-.3 1.7-.5 2.5v.2c-.2.7-.4 1.5-.6 2.2 0 .1-.1.3-.1.4-.2.7-.4 1.3-.6 2-.1.2-.1.3-.2.5-.3.8-.6 1.6-.9 2.3-.6 1.4-1.3 2.8-2 4.1-2.2 3.9-4.8 7.5-8 10.6-2.1 2.1-4.4 4-6.9 5.6-2.5 1.7-5.1 3.1-8 4.3-2.1.9-4.3 1.7-6.5 2.2-3.7.9-7.5 1.4-11.5 1.4-6.4 0-12.4-1.2-18-3.6-1.3-.5-2.5-1.1-3.6-1.8-.5-.3-.9-.5-1.4-.8-.7-.4-1.3-.8-2-1.2-.6-.4-1.1-.7-1.7-1.1-.5-.3-1-.7-1.4-1.1-.6-.5-1.2-.9-1.8-1.4l-.5.5-14.9 12.5c1.4 1.3 2.8 2.5 4.2 3.7.2.2.4.3.6.5.6.4 1.1.9 1.7 1.3.3.2.7.5 1 .7.5.4 1.1.7 1.6 1.1.4.2.7.5 1.1.7.5.3 1.1.7 1.6 1 .4.2.8.5 1.2.7.5.3 1.1.6 1.6.9.4.2.9.4 1.3.7.5.3 1.1.5 1.6.8.5.2 1 .4 1.5.7l1.5.6c1 .4 1.9.7 2.9 1.1.4.1.9.3 1.3.4.6.2 1.2.4 1.9.6.5.1.9.2 1.4.4.6.2 1.2.3 1.8.4.5.1 1 .2 1.4.3.6.1 1.3.2 1.9.4.5.1 1 .2 1.4.2.7.1 1.4.2 2 .3.5.1.9.1 1.4.2.8.1 1.5.1 2.3.2.4 0 .8.1 1.2.1 1.2.1 2.3.1 3.5.1 1.1 0 2.2 0 3.3-.1.4 0 .7-.1 1.1-.1.7 0 1.4-.1 2.1-.2.4 0 .9-.1 1.3-.2.6-.1 1.3-.1 1.9-.2.5-.1.9-.1 1.4-.2l1.8-.3c.5-.1.9-.2 1.4-.3.6-.1 1.1-.3 1.7-.4.5-.1.9-.2 1.4-.4.5-.1 1.1-.3 1.6-.5.5-.1 1-.3 1.4-.4.5-.2 1-.3 1.5-.5s1-.3 1.4-.5l1.5-.6c.5-.2 1-.4 1.4-.6.5-.2.9-.4 1.4-.6.5-.2 1-.4 1.4-.7.4-.2.8-.4 1.3-.7.5-.3 1-.5 1.5-.8.4-.2.7-.4 1.1-.6.5-.3 1.1-.6 1.6-.9.3-.2.5-.3.8-.5 3-1.9 5.8-4 8.4-6.3.1-.1.2-.2.4-.3.6-.5 1.2-1.1 1.7-1.6.2-.1.3-.3.5-.4.6-.5 1.1-1.1 1.6-1.7l.5-.5c.5-.6 1-1.1 1.5-1.7.1-.2.3-.3.4-.5l1.5-1.8c.1-.2.3-.3.4-.5.5-.6 1-1.3 1.4-1.9.6-.3.7-.5.8-.6z"/></svg>