<svg xmlns="http://www.w3.org/2000/svg" role="img" viewBox="36.20 -6.30 327.34 257.59"><title>Delta Lake Project logo</title><style>svg {enable-background:new 0 0 400 245}</style><path fill="#00add4" d="M295.6 158.4L204.5 2.6c-2-3.5-7.1-3.5-9.1 0L117.9 135c-1.4 2.3 1.1 5 3.5 3.9 1-.5 2.2-.9 3.4-1.4v.1s2.1-.8 5.7-2c3.9-1.2 8.3-2.4 12.2-3.3 10.9-2.5 25.3-4.6 38.2-2.4 11.9 2 20.2 5.2 26.2 8.3 2.8 1.4 5.4-2.2 3.1-4.3-8.7-8.4-22-18.6-42.2-22.8-.9-.2-1.3-1.2-.9-2L197.6 57c1-1.7 3.5-1.7 4.5 0l58.2 99.6c1.2 2.1.2 4.8-2.1 5.5-4.6 1.5-10 2.7-16.1 2.7-3.9 0-7.8-.5-11.7-1.4 0 0-11.3-1.8-26.4-10.8-15.1-9-44.2-20.5-76.8-1.9-13.9 8.9-23.2 21.2-28.1 28.8-.8 1.2.6 2.6 1.8 2 11.2-6 41.4-20.1 68.7-15.1 16.2 3 34.7 15.2 53.9 22.3 31.8 11.8 63-8 63.1-8 3.3-2.2 5.2-3.8 5.6-4.1l.4-.3c5.2-4.6 6.4-12 3-17.9z"/><path fill="#302d2d" d="M42.5 243.8v-34.1c0-.3.1-.6.3-.8.2-.2.5-.3.8-.3h13.6c5.2 0 9.5 1.5 12.8 4.6 1.8 1.7 3.2 3.6 4.1 5.9.9 2.3 1.4 4.9 1.4 7.7 0 2.9-.5 5.4-1.4 7.8-.9 2.3-2.3 4.3-4.1 6-1.7 1.5-3.6 2.6-5.7 3.4-2.1.8-4.5 1.1-7.1 1.1H43.7c-.3 0-.6-.1-.8-.3-.3-.4-.4-.7-.4-1zm11.1-8h3.7c.9 0 1.9-.1 2.9-.3 1-.2 1.9-.7 2.7-1.3.8-.6 1.5-1.6 2-2.7.5-1.2.8-2.7.8-4.6 0-1.9-.3-3.4-.8-4.6-.5-1.2-1.2-2.1-2-2.7-.8-.6-1.7-1.1-2.7-1.3-1-.2-1.9-.3-2.9-.3h-3.7c-.3 0-.6.1-.8.3-.2.2-.3.5-.3.8v15.7c0 .3.1.6.3.8.2.1.5.2.8.2zm36.3-17v2.1c0 .3.1.6.3.8.2.2.5.3.8.3h13.5c.3 0 .6.1.8.3.2.2.3.5.3.8v6.9c0 .3-.1.6-.3.8-.2.2-.5.3-.8.3H91.1c-.3 0-.6.1-.8.3s-.3.5-.3.8v1.9c0 .3.1.6.3.8.2.2.5.3.8.3h15.5c.3 0 .6.1.8.3.2.2.4.5.4.8v6.9c0 .3-.1.6-.4.8-.2.2-.5.3-.8.3H81.2c-.3 0-.6-.1-.8-.3-.2-.2-.3-.5-.3-.8v-34.1c0-.3.1-.6.3-.8.2-.2.5-.3.8-.3h25.4c.3 0 .6.1.8.3.2.2.4.5.4.8v6.8c0 .3-.1.6-.4.8-.2.2-.5.3-.8.3H91.1c-.3 0-.6.1-.8.3-.3.9-.4 1.2-.4 1.5zm51.5 18.2v6.8c0 .3-.1.6-.3.8-.2.2-.5.3-.8.3h-24.9c-.4 0-.7-.1-.9-.3-.2-.2-.3-.5-.3-.8v-34.1c0-.3.1-.6.3-.8.2-.2.5-.3.9-.3h7.5c.3 0 .6.1.8.3.2.2.4.5.4.8v25c0 .3.1.6.3.8.2.2.5.3.9.3h15c.3 0 .6.1.8.3.2.3.3.6.3.9zm23.2-19.4h-7c-.3 0-.6.1-.8.3-.2.2-.3.5-.3.8v25c0 .3-.1.6-.3.8-.2.2-.5.3-.9.3h-7.5c-.3 0-.6-.1-.8-.3-.2-.2-.4-.5-.4-.8v-25c0-.3-.1-.6-.3-.8-.2-.2-.5-.3-.9-.3h-7.1c-.3 0-.6-.1-.8-.3-.2-.2-.4-.5-.4-.8v-6.8c0-.3.1-.6.4-.8.2-.2.5-.3.8-.3h26.4c.4 0 .7.1.9.3.2.2.3.5.3.8v6.8c0 .3-.1.6-.3.8-.3.2-.6.3-1 .3zm12-8c.1-.3.4-.6.7-.8.3-.2.7-.3 1-.3h7c.3 0 .7.1 1 .3.3.2.5.5.7.8l14.6 33.9c.1.3.1.6-.1.9-.2.3-.5.5-1.1.5h-8.5c-.4 0-.7-.1-1-.3-.3-.2-.6-.5-.7-.8l-1.3-3c-.2-.3-.4-.6-.7-.8-.3-.2-.6-.3-1-.3h-10.5c-.4 0-.7.1-1 .3-.3.2-.5.5-.7.8l-1.4 3c-.1.3-.4.6-.7.8-.3.2-.6.3-1 .3h-8.6c-.2 0-.3 0-.5-.1s-.3-.2-.4-.3c-.1-.1-.2-.3-.2-.5s0-.4.1-.7l14.3-33.7zm2.9 21.7h4.4c.3 0 .6-.1.7-.3.1-.2.1-.5 0-.8-.3-.8-.7-1.8-1.2-2.9-.5-1.1-.9-2.2-1.3-3.1-.1-.3-.3-.4-.4-.4-.2 0-.3.1-.4.4l-2.5 6c-.1.3-.1.6 0 .8.1.2.3.3.7.3zm69.8 5.7v6.8c0 .3-.1.6-.4.8-.2.2-.5.3-.8.3h-24.9c-.4 0-.7-.1-.9-.3-.2-.2-.3-.5-.3-.8v-34.1c0-.3.1-.6.3-.8.2-.2.5-.3.9-.3h7.5c.3 0 .6.1.8.3.2.2.3.5.3.8v25c0 .3.1.6.3.8.2.2.5.3.9.3h15c.3 0 .6.1.8.3.4.3.5.6.5.9zm15.4-27.4c.1-.3.4-.6.7-.8.3-.2.7-.3 1-.3h7c.3 0 .7.1 1 .3.3.2.5.5.7.8l14.6 33.9c.1.3.1.6-.1.9-.2.3-.5.5-1.1.5H280c-.4 0-.7-.1-1-.3-.3-.2-.6-.5-.7-.8l-1.3-3c-.2-.3-.4-.6-.7-.8-.3-.2-.6-.3-1-.3h-10.5c-.4 0-.7.1-1 .3-.3.2-.5.5-.7.8l-1.4 3c-.1.3-.4.6-.7.8-.3.2-.6.3-1 .3h-8.6c-.2 0-.3 0-.5-.1s-.3-.2-.4-.3c-.1-.1-.2-.3-.2-.5s0-.4.1-.7l14.3-33.7zm2.9 21.7h4.4c.3 0 .6-.1.7-.3.1-.2.1-.5 0-.8-.3-.8-.7-1.8-1.2-2.9-.5-1.1-.9-2.2-1.3-3.1-.1-.3-.3-.4-.4-.4-.2 0-.3.1-.4.4l-2.5 6c-.1.3-.1.6 0 .8.1.2.3.3.7.3zm46 12.8l-9.7-10.8c-.2-.3-.4-.4-.6-.3-.2.1-.2.3-.2.6v10.2c0 .3-.1.6-.3.8-.2.2-.5.3-.8.3h-7.5c-.4 0-.7-.1-.9-.3-.2-.2-.3-.5-.3-.8v-34.1c0-.3.1-.6.3-.8.2-.2.5-.3.9-.3h7.5c.3 0 .6.1.8.3.2.2.3.5.3.8v11.5c0 .3.1.5.2.6.1 0 .3-.1.5-.3l9-11.9c.2-.3.5-.5.8-.7.4-.2.7-.3 1.1-.3h9.5c.4 0 .6.2.7.5.1.3 0 .6-.1.9l-13.1 16.4c-.2.3-.3.6-.3.9 0 .3.1.6.4.9 1.1 1.2 2.3 2.5 3.6 3.8 1.3 1.3 2.5 2.7 3.8 4 1.2 1.3 2.5 2.7 3.7 4 1.2 1.3 2.4 2.5 3.5 3.7.2.3.3.6.2.9-.1.3-.3.5-.6.5h-10.3c-.4 0-.7-.1-1.1-.2-.5-.3-.8-.5-1-.8zm26-25.3v2.1c0 .3.1.6.4.8.2.2.5.3.8.3h13.5c.3 0 .6.1.8.3.2.2.3.5.3.8v6.9c0 .3-.1.6-.3.8-.2.2-.5.3-.8.3h-13.5c-.3 0-.6.1-.8.3-.2.2-.4.5-.4.8v1.9c0 .3.1.6.4.8.2.2.5.3.8.3h15.5c.3 0 .6.1.8.3.2.2.3.5.3.8v6.9c0 .3-.1.6-.3.8-.2.2-.5.3-.8.3h-25.4c-.3 0-.6-.1-.8-.3-.2-.2-.4-.5-.4-.8v-34.1c0-.3.1-.6.4-.8.2-.2.5-.3.8-.3h25.4c.3 0 .6.1.8.3.2.2.3.5.3.8v6.8c0 .3-.1.6-.3.8-.2.2-.5.3-.8.3h-15.5c-.3 0-.6.1-.8.3-.3.9-.4 1.2-.4 1.5z"/></svg>