<svg xmlns="http://www.w3.org/2000/svg" role="img" viewBox="-8.66 -8.66 450.58 138.58"><title>Fabric logo</title><g fill-opacity="1" fill-rule="nonzero" stroke="none" transform="matrix(1.33333 0 0 -1.33333 0 121.307) scale(.1)"><path fill="#232325" d="M1185.21 712.133l87.02.461.47-87.797 44.77.215-1.06 203.16-44.8-.227.42-75.761-87.02-.442-.42 75.735-44.78-.239 1.06-203.148 44.8.238-.46 87.805"/><path fill="#232325" d="M1426 624.23l44.78.239-.45 86.648 75.76 116.887-53.13-.254-45.25-76.281-43.48 75.812-55.71-.297 77.03-116.093.45-86.661"/><path fill="#232325" d="M1645.42 789.973c4.2.039 8.61-.192 13.21-.629 4.6-.453 8.8-1.555 12.51-3.223 3.75-1.715 6.81-4.133 9.24-7.285 2.4-3.141 3.6-7.309 3.64-12.461.02-4.785-.85-8.754-2.66-11.914-1.8-3.168-4.17-5.66-7.13-7.5-2.97-1.832-6.3-3.168-10.03-3.93-3.75-.789-7.6-1.199-11.64-1.207l-29.85-.156-.26 48.191zm-22.11-165.379l-.41 79.199 32.74.164c10.72.059 20.65 1.117 29.85 3.188 9.18 2.046 17.08 5.468 23.78 10.285 6.67 4.843 11.91 11.269 15.7 19.304 3.78 8.079 5.64 18.02 5.59 29.895-.08 12.047-2.19 22.047-6.36 29.957-4.15 7.902-9.73 14.172-16.72 18.852-7.04 4.636-15.25 7.89-24.63 9.75-9.38 1.886-19.36 2.777-29.88 2.714l-75.53-.39 1.08-203.145 44.79.227"/><path fill="#232325" d="M1905.96 624.918l-.21 41.305-98.51-.496-.21 41.32 88.17.465-.22 41.328-88.16-.469-.2 37.863 93.33.496-.23 41.325-138.11-.723 1.06-203.148 143.29.734"/><path fill="#232325" d="M1982.24 743.68l-.24 46.179 29.29.149c4.03.039 8.13-.227 12.34-.778 4.21-.562 7.97-1.621 11.23-3.246 3.26-1.621 5.96-3.945 8.07-6.992 2.1-3.039 3.19-7.152 3.23-12.328.01-5.547-1.16-9.84-3.52-12.914-2.39-3.074-5.39-5.348-9.02-6.793-3.62-1.473-7.69-2.324-12.18-2.648-4.49-.309-8.77-.485-12.78-.496zm65.22-118.754l53.7.277-52.15 85.531c14.36 2.754 25.25 9.153 32.64 19.243 7.41 10.109 11.09 22.316 11.02 36.671-.07 11.836-2.18 21.723-6.35 29.653-4.15 7.906-9.73 14.199-16.72 18.851-7.05 4.641-15.19 7.957-24.49 9.903-9.26 1.972-19.1 2.922-29.42 2.867l-78.68-.43 1.03-203.144 44.81.238-.43 81.207 22.14.117 42.9-80.984"/><path fill="#232325" d="M2260 625.219l-.24 41.32-83-.434-.86 161.833-44.77-.227 1.05-203.148 127.82.656"/><path fill="#232325" d="M2435.4 625.055l-.21 41.3-98.5-.5-.23 41.325 88.17.468-.22 41.301-88.14-.445-.22 37.859 93.32.5-.21 41.325-138.12-.723 1.07-203.152 143.29.742"/><path fill="#232325" d="M2535.37 666.047l-23.26-.133-.64 120.524 26.42.148c9.38.039 18.35-1.094 26.88-3.461 8.5-2.328 15.96-5.875 22.3-10.625 6.33-4.77 11.4-10.793 15.16-18.148 3.77-7.352 5.7-16.004 5.75-25.95.05-11.484-1.76-21.203-5.45-29.148-3.7-7.961-8.79-14.406-15.27-19.301-6.47-4.918-14.16-8.437-23.07-10.613-8.86-2.141-18.49-3.238-28.82-3.293zm85.08-14.891c10.47 8.543 18.8 19.114 24.95 31.684 6.16 12.543 9.19 27.058 9.1 43.515-.08 18.559-3.37 34.305-9.85 47.301-6.5 12.992-15.21 23.489-26.17 31.567-10.95 8.062-23.78 13.906-38.43 17.461-14.65 3.539-30.14 5.281-46.41 5.191l-67.19-.352 1.08-203.148 73.23.387c15.1.07 29.55 2.343 43.33 6.832 13.75 4.469 25.87 10.98 36.36 19.562"/><path fill="#232325" d="M2800.9 745.094l.21-41.321 36.46.188.19-33.008c-4.21-2.324-9.84-4.598-16.9-6.828-7.08-2.234-15.48-3.371-25.26-3.426-9.56-.039-18.25 1.524-26.02 4.735-7.76 3.214-14.45 7.722-20.03 13.543-5.58 5.793-9.87 12.66-12.88 20.586-3.01 7.914-4.53 16.644-4.58 26.23-.06 9.359 1.38 18.078 4.29 26.113 2.95 8.063 7.16 15.024 12.67 20.91 5.55 5.852 12.17 10.399 19.9 13.715 7.74 3.289 16.4 4.969 25.97 5.008 11.48.074 21.06-1.508 28.73-4.715 7.67-3.215 14.6-7.965 20.76-14.254l31.4 34.602c-10.38 9.516-22.45 16.191-36.15 20.051-13.7 3.855-28.7 5.73-44.97 5.636-15.9-.074-30.53-2.64-43.86-7.707-13.41-5.023-24.96-12.207-34.65-21.535-9.74-9.347-17.27-20.625-22.68-33.84-5.38-13.238-8.04-27.964-7.95-44.222.1-16.27 2.89-30.977 8.42-44.176 5.53-13.164 13.19-24.359 23.03-33.578 9.81-9.238 21.41-16.285 34.84-21.207 13.42-4.891 28.09-7.285 43.99-7.215 14.93.078 29.56 1.668 43.9 4.824 14.34 3.125 28.1 8.184 41.27 15.145l-.56 106.175-79.54-.429"/><path fill="#232325" d="M3056.4 629.754l-.22 41.297-98.49-.52-.22 41.336 88.17.469-.21 41.309-88.18-.454-.19 37.868 93.31.5-.2 41.3-138.12-.722 1.07-203.145 143.28.762"/><path fill="#232325" d="M3161.71 794.809c4.05.011 8.14-.227 12.37-.801 4.18-.547 7.95-1.617 11.2-3.25 3.28-1.613 5.98-3.938 8.09-6.992 2.1-3.036 3.19-7.149 3.23-12.325.02-5.546-1.16-9.843-3.54-12.914-2.38-3.074-5.39-5.347-9-6.777-3.63-1.488-7.7-2.344-12.18-2.66-4.5-.297-8.77-.485-12.77-.485l-26.43-.144-.24 46.176zm-28.42-165.442l-.43 81.207 22.11.117 42.93-80.976 53.7.285-52.14 85.516c14.35 2.769 25.24 9.168 32.65 19.242 7.39 10.101 11.07 22.316 11 36.672-.07 11.828-2.18 21.738-6.33 29.648-4.17 7.93-9.72 14.219-16.75 18.856-7.03 4.632-15.17 7.949-24.46 9.902-9.3 1.992-19.12 2.922-29.44 2.867l-78.68-.414 1.06-203.141 44.78.219"/><path fill="#f03d41" d="M1141.9 478.66h261.89v-52.969h-205.4V295.035h191.28v-52.961h-191.28V61.9805h-56.49V478.66"/><path fill="#f03d41" d="M1676.3 214.41l-77.68 191.27h-1.18l-78.87-191.27zm-101.22 264.25h51.2L1804.6 61.9805h-65.91L1696.9 164.973h-198.33l-41.2-102.9925h-65.91L1575.08 478.66"/><path fill="#f03d41" d="M1891.73 111.418h82.99c34.13 0 90.04 11.77 90.04 70.621 0 49.438-34.72 74.156-89.45 74.156h-83.58zm0 194.215h77.1c42.96 0 77.69 17.066 77.69 62.383 0 32.957-20.6 61.207-65.92 61.207h-88.87zm-56.49 173.027h144.78c72.39 0 126.53-33.547 126.53-104.172 0-47.668-29.43-77.683-71.8-91.808v-1.18c50.02-3.527 90.04-47.668 90.04-103.578 0-74.746-65.32-115.9415-146.54-115.9415h-143.01V478.66"/><path fill="#f03d41" d="M2250.78 295.035h74.15c44.72 0 89.46 10.598 89.46 67.098 0 56.496-44.74 67.09-89.46 67.09h-74.15zm-56.51 183.625h146.55c106.52 0 133.6-64.152 133.6-116.527 0-52.969-39.43-102.996-102.41-110.055l118.3-190.0975h-70.63L2313.75 245.602h-62.97V61.9805h-56.51V478.66"/><path fill="#f03d41" d="M2553.89 478.66h56.51V61.9805h-56.51V478.66"/><path fill="#f03d41" d="M2984.13 388.617c-23.54 30.598-62.39 47.668-100.64 47.668-93.58 0-155.37-74.742-155.37-169.496 0-87.691 58.26-162.437 155.37-162.437 47.67 0 84.16 21.187 108.88 55.914l47.66-35.903c-12.35-17.066-62.38-72.9802-157.72-72.9802-132.42 0-214.23 110.6442-214.23 215.4062 0 129.477 88.88 222.465 217.18 222.465 54.73 0 112.4-20.598 145.95-64.738l-47.08-35.899"/><path fill="#f03d41" d="M145.727 237.867c-3.969-8.32-14.028-11.879-22.348-7.91L9.53516 284.281C1.21094 288.25-2.34375 298.309 1.625 306.629l19.7813 41.449c3.9687 8.324 14.0234 11.887 22.3437 7.91l113.848-54.32c8.32-3.969 11.879-14.027 7.91-22.348zM514.609 61.8477c-3.968-8.3204-14.023-11.8789-22.347-7.9102L306.047 142.797c-8.32 3.969-11.883 14.027-7.91 22.348l19.777 41.449c3.973 8.32 14.031 11.879 22.352 7.91l186.214-88.856c8.321-3.972 11.879-14.031 7.911-22.351l-19.782-41.4493"/><path fill="#f03d41" d="M594.203 703.188c-3.973-8.321-14.027-11.883-22.348-7.911l-185.199 88.368c-8.32 3.968-11.879 14.027-7.91 22.347l19.781 41.457c3.969 8.321 14.028 11.879 22.348 7.91l185.195-88.375c8.325-3.968 11.883-14.027 7.91-22.347zm296.692-141.575c-3.969-8.32-14.028-11.879-22.348-7.91l-114.024 54.41c-8.32 3.969-11.882 14.028-7.91 22.348l19.778 41.449c3.972 8.32 14.031 11.883 22.351 7.91l114.024-54.406c8.32-3.973 11.879-14.031 7.91-22.351l-19.781-41.45"/><path fill="#f03d41" d="M321.742 606.75c-3.969-8.324-14.023-11.879-22.347-7.91l-113.844 54.32c-8.321 3.973-11.879 14.031-7.91 22.352l19.781 41.449c3.969 8.32 14.027 11.879 22.348 7.91l113.843-54.32c8.321-3.973 11.879-14.031 7.91-22.352l-19.781-41.449"/><path fill="#f03d41" d="M690.633 430.73c-3.973-8.32-14.031-11.878-22.352-7.91l-186.215 88.856c-8.32 3.972-11.878 14.023-7.91 22.351l19.782 41.45c3.968 8.32 14.023 11.878 22.347 7.91l186.215-88.86c8.32-3.968 11.883-14.027 7.91-22.347l-19.777-41.45"/><path fill="#f03d41" d="M715.098 192.613c-3.969-8.32-14.028-11.879-22.348-7.902l-114.254 54.516c-8.32 3.968-11.879 14.023-7.906 22.343l19.777 41.453c3.973 8.321 14.028 11.883 22.348 7.911l114.254-54.516c8.32-3.969 11.879-14.027 7.91-22.348l-19.781-41.457"/><path fill="#f03d41" d="M418.18 334.301c-3.969-8.328-14.028-11.887-22.348-7.91l-185.773 88.64c-8.321 3.969-11.879 14.028-7.911 22.348l19.782 41.453c3.968 8.324 14.027 11.883 22.347 7.91l185.774-88.644c8.32-3.969 11.879-14.028 7.91-22.348l-19.781-41.449"/><path fill="#9bddd4" d="M126.82 384.469c-3.968-8.321-14.019-11.879-22.343-7.91l-41.4692 19.785c-8.3203 3.972-11.8789 14.031-7.9101 22.351l88.8513 186.2c3.973 8.32 14.024 11.878 22.352 7.91l41.465-19.785c8.32-3.969 11.879-14.028 7.91-22.348L126.82 384.469"/><path fill="#9bddd4" d="M302.844 753.352c-3.973-8.321-14.031-11.879-22.352-7.911l-41.465 19.786c-8.316 3.968-11.879 14.027-7.91 22.347l53.762 112.668c3.969 8.321 14.027 11.879 22.348 7.91l41.464-19.789c8.321-3.972 11.879-14.023 7.911-22.351l-53.758-112.66"/><path fill="#9bddd4" d="M627.23 9.53516c-3.968-8.32032-14.027-11.88282-22.347-7.91016l-41.465 19.7891c-8.32 3.9687-11.879 14.0234-7.91 22.3437L609.27 156.422c3.968 8.32 14.027 11.883 22.347 7.91l41.465-19.785c8.32-3.969 11.879-14.027 7.91-22.348L627.23 9.53516"/><path fill="#9bddd4" d="M768.164 304.879c-3.973-8.32-14.027-11.879-22.348-7.91l-41.468 19.785c-8.321 3.973-11.879 14.031-7.91 22.351l88.851 186.204c3.973 8.32 14.027 11.882 22.348 7.91l41.468-19.785c8.321-3.969 11.883-14.028 7.911-22.348l-88.852-186.207"/><path fill="#9bddd4" d="M671.73 577.332c-3.972-8.324-14.023-11.887-22.347-7.91l-41.465 19.785c-8.324 3.969-11.883 14.027-7.91 22.348l53.758 112.66c3.968 8.32 14.027 11.883 22.347 7.91l41.465-19.785c8.324-3.969 11.887-14.027 7.91-22.348l-53.758-112.66"/><path fill="#9bddd4" d="M495.715 208.449c-3.973-8.32-14.031-11.879-22.352-7.91l-41.465 19.785c-8.324 3.969-11.882 14.028-7.91 22.348l88.852 186.203c3.969 8.32 14.027 11.879 22.348 7.91l41.464-19.789c8.321-3.973 11.879-14.023 7.911-22.344l-88.848-186.203"/><path fill="#9bddd4" d="M258.352 185.555c-3.977-8.321-14.032-11.879-22.348-7.91l-41.473 19.789c-8.32 3.968-11.879 14.023-7.91 22.343l53.762 112.668c3.972 8.321 14.027 11.879 22.347 7.91l41.469-19.785c8.321-3.972 11.879-14.027 7.91-22.351l-53.757-112.664"/><path fill="#9bddd4" d="M399.277 480.902c-3.968-8.32-14.027-11.882-22.347-7.91l-41.465 19.785c-8.32 3.969-11.879 14.028-7.91 22.348l88.851 186.207c3.973 8.32 14.028 11.879 22.352 7.91l41.461-19.785c8.32-3.973 11.883-14.031 7.914-22.352l-88.856-186.203"/></g></svg>