<svg xmlns="http://www.w3.org/2000/svg" role="img" viewBox="35.55 4.55 168.65 231.40"><title>Fluid Project logo</title><path d="M93.8 9.7c.6.2.9.9.6 1.5-.4.6-.1.9.6.6 2.4-.8 2.3-2.8-.2-2.7-1.2 0-1.7.3-1 .6zm2.7 4.8c3.4 1.6 6.4 2 5 .6-.6-.4-2.6-1.1-4.5-1.4l-3.5-.6 3 1.4zm7.3.3c.9 1.1 2 1.7 2.5 1.5.9-.5-1.8-3.3-3.2-3.3-.6 0-.3.8.7 1.8zm-14.3.2c-.8 1.3.5 1.3 2.5 0 1.3-.8 1.3-1-.2-1-.9 0-2 .4-2.3 1zm-6 1c.3.5.8 1 1.1 1 .2 0 .4-.5.4-1 0-.6-.5-1-1.1-1-.5 0-.7.4-.4 1zM82 18.4c0 1 .4 1.5.9 1.2.5-.4 1.2 0 1.4.6.4.8.6.9.6.2.1-.6-.6-1.7-1.4-2.4-1.2-1-1.5-.9-1.5.4zm25.5.1c.4 1.1 1 2.8 1.2 3.7.3 1 .9 1.8 1.4 1.8.5 0 .3-1.2-.3-2.8-1.4-3.3-3.5-5.7-2.3-2.7zm-27 3.5c-.3.5-.1 1 .4 1 .6 0 1.1-.5 1.1-1 0-.6-.2-1-.4-1-.3 0-.8.4-1.1 1zm5.7 1c0 1.4.2 1.9.5 1.2.2-.6.2-1.8 0-2.5-.3-.6-.5-.1-.5 1.3zm78.3 3c.3.5 1 1 1.6 1 .5 0 .9-.5.9-1 0-.6-.7-1-1.6-1-.8 0-1.2.4-.9 1zm-4 1c-1.9.8-1.9.9.3.9 1.2.1 2.2-.4 2.2-.9 0-.6-.1-1-.2-.9-.2 0-1.2.4-2.3.9zm9.3-.3c.6.2.9 1 .6 1.5-.4.6-.2.8.4.4.6-.3 1.3-.2 1.7.4.3.5 1.2 1 1.8 1 .7-.1.1-1-1.2-2-1.3-1.1-2.8-2-3.5-1.9-.7 0-.6.2.2.6zm-88.4 3.8c.9 3 1.2 3.2 1.4 1.5.2-1.3-.3-2.9-1.1-3.7-1.3-1.3-1.3-1-.3 2.2z"/><path d="M153.9 30c-1.8 1.6-3 3.3-2.6 3.6.4.4.7.2.7-.4 0-.6.9-1.4 2-1.7 1.1-.4 1.8-1.1 1.5-1.6-.9-1.4.7-1.1 2.4.5 1.2 1.1 2.1 1.2 3.1.5 1.3-.9 1.2-1-.2-.6-1.7.6-4.2-1.5-3.1-2.6.3-.4.4-.7 0-.7-.3 0-2 1.3-3.8 3zm-47.4 1c-.3.5.3 1 1.5 1s1.8-.5 1.5-1c-.3-.6-1-1-1.5-1s-1.2.4-1.5 1zM84 34.1c-.7 1.1-1 2.3-.7 2.5.2.2.9-.7 1.5-2.1 1.4-3 .7-3.3-.8-.4zm1.6 2.2c-1.5 2.2-1.5 2.7-.1 5.3.9 1.8 1.5 2.3 1.5 1.2 0-.9-.4-1.9-1-2.3-1-.6-.2-3.6 1.4-4.7.6-.4.8-1 .4-1.3-.4-.4-1.4.4-2.2 1.8zm59.9 1.3c-3.3 2.9-3.5 3.2-1 1.7 3.6-2.1 5.9-4.2 5.3-4.8-.2-.2-2.2 1.2-4.3 3.1zm32.1-1.1c-.3.9-.6 2.4-.5 3.3 0 .9.5.4 1-1.2.9-3.2.6-4.8-.5-2.1zm-63.5 1.1c0 1.1.3 1.4.6.6.3-.7.2-1.6-.1-1.9-.3-.4-.6.2-.5 1.3zm-1 4c0 1.1.3 1.4.6.6.3-.7.2-1.6-.1-1.9-.3-.4-.6.2-.5 1.3zm2.1.4c0 1.4.2 1.9.5 1.2.2-.6.2-1.8 0-2.5-.3-.6-.5-.1-.5 1.3zm3 1c0 1.4.2 1.9.5 1.2.2-.6.2-1.8 0-2.5-.3-.6-.5-.1-.5 1.3zm20.7.7c-1.3 1.6-1.2 1.7.4.4.9-.7 1.7-1.5 1.7-1.7 0-.8-.8-.3-2.1 1.3zm3.1.2c0 .6.4 1.3 1 1.6.6.3.7-.1.4-.9-.7-1.8-1.4-2.1-1.4-.7zm-53.9 2.7c0 1.1.3 1.4.6.6.3-.7.2-1.6-.1-1.9-.3-.4-.6.2-.5 1.3zm44.5 2.3c-3.1 3.2-3.5 3.9-2.1 4.5 1.7.6 6.1-1.2 5.1-2.1-.3-.3-1.2 0-2.1.7-3.1 2.6-2.7-.1.4-3.1 1.8-1.7 3.1-3.2 2.9-3.5-.3-.2-2.1 1.4-4.2 3.5zM140 47c.8.5 2 1 2.5 1 .6 0 .3-.5-.5-1s-1.9-1-2.5-1c-.5 0-.3.5.5 1zm-22.3 4.7c0 2.4.4 4.7.8 5.1.4.4.6 0 .5-.8-.6-3.8.1-8.1 1.1-7.5.6.4.8 1.4.4 2.4-.5 1.3-.4 1.4.6.3 1-.9 1-1.5.1-2.4-2.6-2.6-3.7-1.6-3.5 2.9zm58.7-3.9c.4.7.1 1.2-.8 1.2-.8 0-2.1 1.3-3 3-.8 1.6-1.4 3-1.3 3 .1 0 1.7-1.6 3.5-3.4 2.3-2.4 2.9-3.6 2.1-4.2-.8-.4-.9-.3-.5.4zm-86 1.6c-.7 1.9 1.5 6.1 2.6 5 .5-.5 1.1-2.3 1.4-3.9.6-2.8.5-2.8-.7.4-1 2.7-1.5 3.1-2 1.8-.3-.9-.4-2.4-.1-3.2.4-.8.3-1.5 0-1.5-.4 0-.9.6-1.2 1.4zm73.1.5c-.3.5-.1 1.2.5 1.6.5.3 1-.1 1-.9 0-1.8-.6-2.1-1.5-.7zm-37 4.1c-.4.6-1 .8-1.5.5-.5-.3-1.1-.1-1.4.4-.8 1.3 2.2.7 3.6-.7.7-.7.9-1.2.6-1.2-.4 0-1 .5-1.3 1zm41.8 2.5c0 .8.4 1.2.9.9.5-.3.6-1 .3-1.5-.9-1.3-1.2-1.1-1.2.6zm-75.6 1.2c.3.7.6 1.3.8 1.3.2 0 .5-.6.8-1.3.3-.8-.1-1.4-.8-1.4-.7 0-1.1.6-.8 1.4zm69.7.5c-.5.8-.2.9.9.5 1-.3 1.7-.2 1.7.3 0 1.3-3.6 3.1-4.5 2.2-.3-.4-.6-.3-.5.3.5 2.4-.2 3.2-3 3-2.3-.1-2.7.1-1.9 1.1.6.7.8 1.8.4 2.4-.9 1.5-2.8 1.3-1.9-.3.4-.6.3-.9-.1-.4-.5.4-1 1.7-1.2 2.9-.3 2.1-.2 2 2.6-.6 1.7-1.6 2.7-3.4 2.4-3.9-.4-.6 0-.8.9-.4 1.9.7 8.3-5.6 7.4-7.2-.9-1.4-2.3-1.4-3.2.1zM95 61.9c0 1.7.4 3.2.8 3.5.4.2.6-1.1.4-3-.5-4.2-1.2-4.5-1.2-.5zm-13.2 7.8c.7.3 1.6.2 1.9-.1.4-.3-.2-.6-1.3-.5-1.1 0-1.4.3-.6.6zm-10.4 1.1c-.7.4 1.2.8 4.2.8 2.9.1 5.1-.2 4.8-.7-.6-1.1-7.4-1.2-9-.1zm-4.6.9c.7.3 1.6.2 1.9-.1.4-.3-.2-.6-1.3-.5-1.1 0-1.4.3-.6.6zm-13.8.7c0 .2.7.7 1.6 1 .8.3 1.2.2.9-.4-.6-1-2.5-1.4-2.5-.6zm91.7 1c-.4 1-.1 1.3.9.9 1.5-.6 1.9-2.3.5-2.3-.5 0-1.1.7-1.4 1.4zm3.4.7c-1.3 1.1-2.2 2.2-1.9 2.4.2.3 1.5-.6 2.8-2 2.8-3 2.4-3.2-.9-.4zm-96.6.9c2.7 1.2 4.3 1.2 2.5 0-.8-.5-2.2-.9-3-.9-1 0-.8.3.5.9zm9.3-.3c.7.3 1.6.2 1.9-.1.4-.3-.2-.6-1.3-.5-1.1 0-1.4.3-.6.6zm-14.1 2.7c-1.4 2-1.4 2.5-.2 3 1 .3 1.2 0 .8-1.1-.5-1.3-.3-1.3 1.5-.4 2.5 1.4 4.3 1.4 2.2.1-1.1-.7-1.1-1-.2-1 .7 0 1-.5.7-1-.5-.8-1.2-.7-2.3.2-1.3 1.1-1.5 1-.9-.5.9-2.4.2-2.1-1.6.7zm102.1 4.8c.5.5 1.6.8 2.3.6.8-.3.3-.7-1-1.1-1.7-.4-2.1-.3-1.3.5zm-104.2.5c.5.5 1.2 1.2 1.6 1.8.4.6.8.2.8-.8 0-.9-.7-1.7-1.7-1.7-.9 0-1.2.3-.7.7zm100.4.2c0 1.4 2.8 3.3 4.4 2.9 1.1-.2.7-.8-1.4-2-1.7-.9-3-1.3-3-.9zm9.6 2.3c.5.7.2.9-.8.6-.8-.4-1.5-.1-1.5.6 0 .6.8 1.2 1.8 1.2s1.5-.4 1.2-.9c-.3-.5.5-.6 1.8-.2 2.3.7 2.4.7.4-.9-2.4-1.8-3.9-2.1-2.9-.4zm-111 .6c-.3.6-.1 1.4.5 1.7.5.4.8 1.3.5 2.1C44.1 91 47 97 48.2 97c.4 0-.1-1.5-1.1-3.4-1.1-1.9-1.8-3.6-1.5-3.9.2-.2.1-1.5-.4-2.7-.5-1.4-1.1-1.9-1.6-1.2zM161 91.6c-1.2 3.2-1.3 4.4-.1 2.5.8-1.2 1.2-1.2 2.5-.2.9.8 1.6.9 1.6.3 0-.5-.8-1.3-1.7-1.7-1.7-.7-1.7-.8.1-1.4 1.8-.7 1.8-.8.2-1.4-1.2-.5-1.9 0-2.6 1.9zm9 2.3c2.4 2 4 2.6 4 1.6 0-.2-1.5-1.2-3.2-2l-3.3-1.6 2.5 2zM54.3 97.2c-1.1 1.9-1.2 3.8-.2 3.8.5 0 .9-.9.9-2 0-1.2.5-1.7 1.4-1.4.8.3 1.7.1 2.1-.5.3-.7-.2-1.1-1.4-1.1-1.1 0-2.3.6-2.8 1.2zM81 97c-1.2.8-1.1 1 .7 1 1.2 0 2.5-.5 2.8-1 .8-1.3-1.5-1.3-3.5 0zm15.5-.1c-.6.5-2.8 1.1-5 1.4l-4 .4 4.1.1c2.6.1 4.6-.3 5.4-1.3 1.4-1.6 1-2.1-.5-.6zm-23.7 1.8c.7.3 1.6.2 1.9-.1.4-.3-.2-.6-1.3-.5-1.1 0-1.4.3-.6.6zm3.7.3c.3.5 1.3 1 2.1 1s1.2-.5.9-1c-.3-.6-1.3-1-2.1-1s-1.2.4-.9 1zm22.7 1c0 1.4.2 1.9.5 1.2.2-.6.2-1.8 0-2.5-.3-.6-.5-.1-.5 1.3zm28.8-1c0 .5.5 1 1 1 .6 0 1-.5 1-1 0-.6-.4-1-1-1-.5 0-1 .4-1 1zm49.2 1c-1.7 2.8-1.5 3.4.5 1.5 1.5-1.6 1.8-1.5 3.4.6 1 1.3 2 2.2 2.2 1.9.6-.6-1.1-3-3.3-4.7-1.3-1-1.8-.8-2.8.7zm-114.5.2c-.7.4 1.2.8 4.1.8 2.8 0 5.2-.2 5.2-.4 0-.8-8.1-1.1-9.3-.4zm35.6 4.3c-.3.9-.3 1.8-.1 2.1.3.3.8-.4 1.1-1.6.6-2.3-.1-2.7-1-.5zm3.8.5c0 .8.4 2.2.9 3 1.2 1.8 1.2.2 0-2.5-.6-1.3-.9-1.5-.9-.5zm27-.6c.2.2 1.5.9 2.9 1.5 2.4 1.1 2.4 1.1.6-.3-1.6-1.3-4.9-2.4-3.5-1.2zm8.9 1.1c.7.8 1.7 1.5 2.2 1.5.5 0 .3-.7-.6-1.5-.8-.8-1.8-1.5-2.2-1.5-.3 0-.1.7.6 1.5zm-1.4 3c1 .8 2.4 1.4 2.9 1.4.6 0 .1-.6-.9-1.4-1.1-.8-2.4-1.5-3-1.5-.5 0-.1.7 1 1.5zm5.1.9c-.3.8.1 2 .9 2.6.9.8 1.4.9 1.4.2 0-.6-.6-1.3-1.2-1.5-1-.4-1-.6 0-.6.6-.1 1.2-.6 1.2-1.1 0-1.5-1.7-1.2-2.3.4zm43.9 3.6c-.4 2.5-1 3.9-1.3 3.2-.8-2-3.1-1.4-4.9 1.3-2.2 3.4-1 4.4 1.9 1.7 1.3-1.2 2.6-2 2.9-1.6 1.1 1 2.9-3.6 2.6-6.4-.3-2.2-.5-1.8-1.2 1.8zm-88.1-2c.3.5.8 1 1.1 1 .2 0 .4-.5.4-1 0-.6-.5-1-1.1-1-.5 0-.7.4-.4 1zm27.1 1.8c-.3.6-.2 1.3.4 1.7.5.3 1 1.6 1.1 2.8.1 1.4.4 1 .9-1.3.5-1.9.7-3.7.4-3.9-.2-.2-.4.2-.4 1 0 1.2-.2 1.2-.9 0-.5-.8-1.1-.9-1.5-.3zm22.4.1c-2.5.7-2.5.7-.2 1.3 1.2.3 2.2.2 2.2-.3 0-.9 4.8.9 6.5 2.4.6.6-.2.8-2.2.5-3.8-.5-4.2-.1-1.1 1.1 3 1.1 6.2-.8 4.6-2.6-.6-.7-1.9-1.3-2.9-1.3s-2.1-.5-2.4-1c-.7-1.1-.9-1.1-4.5-.1zm-24.9 2.6c0 1.6.4 4.7 1 6.8.5 2 .6 4.3.2 5-.5.8-1 0-1.5-2.3l-.6-3.5.1 3.5c.1 2.4.7 3.6 1.9 3.8 1.8.3 1.8-1.3 0-11.3-.7-3.6-1-4.2-1.1-2zm-27.1.6c0 .5.5.7 1 .4.6-.3 1-.8 1-1.1 0-.2-.4-.4-1-.4-.5 0-1 .5-1 1.1zm-.6 4.4c-.3.8-.4 2-.2 2.7.3.7.7.1 1-1.5.6-2.9.1-3.6-.8-1.2zm62.6-.8c0 .5 1.6 1.8 3.6 3.1s3.3 1.8 2.8 1.1c-.5-.9-.2-1 1-.6 1 .4 2.1.7 2.4.7.4 0 0 .5-.8 1.1-1.3.9-1.2 1 .3.5.9-.3 1.7-.1 1.7.4 0 .6 1.2.9 2.8.9 2-.1 2.2-.3.7-.6-1.1-.3-3.4-1.6-5.2-3-1.8-1.4-3.6-2.2-4.2-1.9-.5.4-1.6-.1-2.4-.9-1.7-1.6-2.7-1.9-2.7-.8zm8 .8c0 .8 2.9 1.2 3.9.5.9-.5.4-.8-1.3-.8-1.4 0-2.6.2-2.6.3zm9.8.2c.6.2.9 1 .5 1.6-.3.7-.3.9.2.5 1.1-1.1 3.6 1.2 2.8 2.5-.4.6-.1.7.6.2.9-.5.7-1.3-1-3.1-1.2-1.3-2.7-2.4-3.3-2.3-.6 0-.5.3.2.6zm6.9.7c-1 .8-1.4 1.6-1 1.9.5.3 1.4-.3 2.1-1.4 1.4-2.2 1.3-2.3-1.1-.5z"/><path d="M175 125c-1.3.8-1.2 1 .3 1 .9 0 1.7-.5 1.7-1 0-1.2-.1-1.2-2 0zm-81.7 3.2c-.1 2.1.3 3.6.7 3.3.5-.3 1 .1 1.3.7.3.7.5-.7.5-3.2-.1-3.1-.3-3.9-.8-2.5l-.7 2-.5-2c-.3-1.1-.5-.3-.5 1.7zM91 141.4c0 1.1 2.8 7.6 3.3 7.6.6 0-1.7-6.8-2.6-7.6-.4-.4-.7-.4-.7 0zm25.7.3c-1.2 1.2-.7 4.1.8 4.7.9.3 1.9-.3 2.6-1.7 1.1-2 1.1-2.1-.4-.8-1.4 1.1-1.7 1.1-1.8 0-.1-.8-.1-1.7 0-2.2.1-.9-.4-.9-1.2 0zm-22.2 2.2c-.3.5-.1 1.2.5 1.6.5.3 1-.1 1-.9 0-1.8-.6-2.1-1.5-.7zm12.5 2.8c0 .5 1 .9 2.2 1 1.1.1 2.4.7 2.8 1.3.5.7 1.1.6 2-.5.7-.8 1.1-1.5.9-1.5-.2-.1-2.1-.3-4.1-.6-2.1-.3-3.8-.2-3.8.3zM97 149c0 .5.5 1 1.1 1 .5 0 .7-.5.4-1-.3-.6-.8-1-1.1-1-.2 0-.4.4-.4 1zm17.7 1.5c-3.1 3-3.5 4-.8 2.4 1.5-1 4.6-4.9 3.8-4.9-.1 0-1.5 1.1-3 2.5zM98 153c0 .5.5 1 1.1 1 .5 0 .7-.5.4-1-.3-.6-.8-1-1.1-1-.2 0-.4.4-.4 1zm3 1c0 .5.5 1 1 1 .6 0 1-.5 1-1 0-.6-.4-1-1-1-.5 0-1 .4-1 1zm6.8.7c.7.3 1.6.2 1.9-.1.4-.3-.2-.6-1.3-.5-1.1 0-1.4.3-.6.6zm-54.6 16.6c-3.6 2.1-5.3 5.4-5.9 11.2-.5 5.1-.8 5.5-3.9 6.5-2.8 1-3.4 1.6-3.4 4.1 0 2.7.3 2.9 3.5 2.9H47v35h12l.2-17.2.3-17.3 4.3-.3c4.2-.3 4.2-.3 4.2-4.2 0-3.9 0-3.9-4.2-4.2-3.8-.3-4.3-.6-4.6-2.8-.4-4 1.3-5.5 5.9-5.5 4 0 4.3-.2 5.6-3.9.7-2.2 1-4.2.7-4.5-1.2-1.3-15.9-1.1-18.2.2zM76 200.5V231h12v-61H76v30.5zm67-28.9c-2 2.3-1.6 7.5.5 9 2.2 1.7 5.9 1.8 8.6.4 2.2-1.2 2.7-7.8.7-9.8-1.7-1.7-8.3-1.5-9.8.4zm45 9v10.5l-3-2.1c-6.6-4.7-14.3-3.4-19.4 3.2-3.4 4.5-5 14.4-3.7 22.5 1.9 11.7 6 16.3 14.7 16.3 4.5 0 5.9-.5 8.7-2.9l3.3-3 1.1 3c1 2.6 1.6 2.9 5.7 2.9h4.6v-61h-12v10.6zm-1.9 18c2.1 2.3 2.4 3.5 2.4 10.4 0 7-.3 8.1-2.5 10.5-3.2 3.4-7.5 3.1-10.4-.8-3.6-4.8-2.4-19.1 1.8-21.9 2.3-1.6 6.3-.7 8.7 1.8zM96 202.9c0 18.9.4 21.3 4.2 25.1 5 5 15.8 5 20.3 0 2.4-2.6 3.2-2.5 3.9.5.6 2.2 1.2 2.5 5.1 2.5h4.5v-44h-12v14c0 17.8-1.3 21-8.5 21-4.7 0-5.5-3.1-5.5-19.7V187H96v15.9zm46 6.1v22h12v-44h-12v22z"/></svg>