<svg xmlns="http://www.w3.org/2000/svg" role="img" viewBox="55.59 55.59 255.06 255.06"><title>ILKI FRANCE logo</title><defs id="defs6"><clipPath id="clipPath16" clipPathUnits="userSpaceOnUse"><path id="path14" d="M 0,274.961 H 274.961 V 0 H 0 Z"/></clipPath></defs><g id="g8" transform="matrix(1.33333 0 0 -1.33333 0 366.615)"><g id="g10"><g id="g12" clip-path="url(#clipPath16)"><g id="g18" transform="translate(229.463 137.48)"><path id="path20" fill="#000" fill-opacity="1" fill-rule="nonzero" stroke="none" d="m 0,0 c 0,50.801 -41.182,91.983 -91.982,91.983 -50.801,0 -91.983,-41.182 -91.983,-91.983 0,-50.801 41.182,-91.982 91.983,-91.982 C -41.182,-91.982 0,-50.801 0,0"/></g><g id="g22" transform="translate(197.195 154.328)"><path id="path24" fill="#fff" fill-opacity="1" fill-rule="nonzero" stroke="none" d="m 0,0 h -9.236 c -1.073,0 -1.609,-0.536 -1.609,-1.604 v -53.01 c 0,-1.071 0.536,-1.607 1.609,-1.607 H 0 c 1.072,0 1.607,0.536 1.607,1.607 v 53.01 C 1.607,-0.536 1.072,0 0,0"/></g><g id="g26" transform="translate(77.767 120.633)"><path id="path28" fill="#fff" fill-opacity="1" fill-rule="nonzero" stroke="none" d="m 0,0 h 9.236 c 1.072,0 1.608,0.536 1.608,1.607 v 53.01 c 0,1.069 -0.536,1.604 -1.608,1.604 H 0 c -1.072,0 -1.608,-0.535 -1.608,-1.604 V 1.607 C -1.608,0.536 -1.072,0 0,0"/></g><g id="g30" transform="translate(180.324 100.597)"><path id="path32" fill="#fff" fill-opacity="1" fill-rule="nonzero" stroke="none" d="m 0,0 -16.708,25.86 16.146,25.462 c 0.267,0.428 0.398,0.804 0.398,1.125 0,0.372 -0.156,0.683 -0.477,0.925 -0.327,0.238 -0.778,0.359 -1.366,0.359 h -9.236 c -0.595,0 -1.06,-0.095 -1.405,-0.281 -0.354,-0.186 -0.687,-0.523 -1.007,-1.003 L -27.069,31.083 h -8.916 v 21.043 c 0,1.069 -0.536,1.605 -1.608,1.605 h -9.236 c -1.072,0 -1.609,-0.536 -1.609,-1.605 V -0.883 c 0,-1.071 0.537,-1.607 1.609,-1.607 h 9.236 c 1.072,0 1.608,0.536 1.608,1.607 v 21.122 h 8.596 l 13.734,-21.363 c 0.32,-0.536 0.653,-0.899 1.007,-1.085 0.345,-0.189 0.81,-0.281 1.405,-0.281 h 9.955 c 1.124,0 1.686,0.427 1.686,1.284 C 0.398,-0.723 0.268,-0.32 0,0"/></g><g id="g34" transform="translate(120.204 120.633)"><path id="path36" fill="#fff" fill-opacity="1" fill-rule="nonzero" stroke="none" d="m 0,0 c 0.968,0 1.452,0.484 1.452,1.452 v 8.341 c 0,0.969 -0.484,1.452 -1.452,1.452 h -8.865 v 43.372 c 0,1.069 -0.536,1.605 -1.608,1.605 h -9.236 c -1.073,0 -1.608,-0.536 -1.608,-1.605 V 1.607 C -21.317,0.536 -20.782,0 -19.709,0 Z"/></g><g id="g38" transform="translate(197.195 176.855)"><path id="path40" fill="#009fe3" fill-opacity="1" fill-rule="nonzero" stroke="none" d="m 0,0 h -63.704 c -1.068,0 -1.605,-0.536 -1.605,-1.608 v -9.235 c 0,-1.073 0.537,-1.608 1.605,-1.608 H 0 c 1.072,0 1.607,0.535 1.607,1.608 v 9.235 C 1.607,-0.536 1.072,0 0,0"/></g><g id="g42" transform="translate(120.048 110.557)"><path id="path44" fill="#009fe3" fill-opacity="1" fill-rule="nonzero" stroke="none" d="m 0,0 h -42.285 c -1.069,0 -1.605,-0.535 -1.605,-1.607 v -9.236 c 0,-1.072 0.536,-1.608 1.605,-1.608 H 0 c 1.072,0 1.608,0.536 1.608,1.608 v 9.236 C 1.608,-0.535 1.072,0 0,0"/></g></g></g></g></svg>