<svg xmlns="http://www.w3.org/2000/svg" role="img" viewBox="-11.07 -11.07 575.64 185.14"><title>Indy logo</title><g fill-opacity="1" fill-rule="nonzero" stroke="none" transform="matrix(1.33333 0 0 -1.33333 0 163.08) scale(.1)"><path fill="#20518d" d="M791.379 86.9609L641.797 0 492.219 86.9609V260.898l149.578 86.965 149.582-86.965V86.9609"/><path fill="#20518d" d="M437.641 1066.56l-89.758-52.18-89.758 52.18v104.37l89.758 52.19 89.758-52.19v-104.37"/><path fill="#20518d" d="M1200.41 587.129l-58.77-34.168-58.77 34.168v68.332l58.77 34.168 58.77-34.168v-68.332"/><path fill="#20518d" d="M964.313 97.7617l-75.922-44.1523-75.926 44.1523v88.2773l75.926 44.137 75.922-44.137V97.7617"/><path fill="#20518d" d="M795.09 468.996L457.129 272.5 119.172 468.996v392.973l337.957 196.491L795.09 861.969V468.996"/><path fill="#20518d" d="M1253.61 254.16l-177.38-103.121L898.848 254.16v206.262l177.382 103.125 177.38-103.125V254.16"/><path fill="#20518d" d="M1242.16 685.43l-32.59-18.946-32.59 18.946v37.898l32.59 18.945 32.59-18.945V685.43"/><path fill="#20518d" d="M236.531 239.473l-118.265-68.762L0 239.473v137.519l118.266 68.762 118.265-68.762V239.473"/><path fill="#20518d" d="M243.223 1071.79l-44.024-25.6-44.027 25.6v51.19l44.027 25.6 44.024-25.6v-51.19"/><path fill="#20518d" d="M1285.77 702.477l-15.94-9.262-15.93 9.262v18.531l15.93 9.262 15.94-9.262v-18.531"/><path fill="#20518d" d="M172.074 1031.71l-15.929-9.27-15.942 9.27v18.52l15.942 9.27 15.929-9.27v-18.52"/><path fill="#20518d" d="M833.961 901.746l-38.895-22.613-38.882 22.613v45.219l38.882 22.605 38.895-22.605v-45.219"/><path fill="#20518d" d="M992.109 875.484l-71.441-41.539-71.434 41.539v83.067l71.434 41.539 71.441-41.539v-83.067"/><path fill="#20518d" d="M476.016 89.5195l-21.918-12.75-21.926 12.75v25.4925l21.926 12.75 21.918-12.75V89.5195"/><path fill="#888c8d" d="M1532.29 642.707h71.22V117.52h-71.22v525.187"/><path fill="#888c8d" d="M1738.52 642.711h93.47l289.29-431.723h1.48v431.723h71.22V117.52h-90.51l-292.25 431.718h-1.49V117.52h-71.21v525.191"/><path fill="#888c8d" d="M2388.33 184.281h89.77c120.17 0 222.53 66.024 222.53 195.828 0 66.766-34.85 195.852-205.47 195.852h-106.83zm-71.21 458.43h183.24c221.78 0 275.94-165.414 275.94-262.602 0-134.257-100.14-262.589-287.82-262.589h-171.36v525.191"/><path fill="#888c8d" d="M3002.56 341.543l-198.8 301.172H2895l143.17-230.703 147.62 230.703h86.78l-198.8-301.172V117.52h-71.21v224.023"/><path fill="#2b2b2f" d="M1525.35 1076.77l57.56.31.53-97.342 111.84.571-.53 97.371 57.58.29 1.36-261.103-57.55-.277-.6 112.84-111.84-.602.6-112.84-57.58-.308-1.37 261.09"/><path fill="#2b2b2f" d="M1866.8 927.238l-98.99 149.212 71.6.38 55.88-97.443 58.16 98.043 68.28.32-97.37-150.223.57-111.359-57.55-.313-.58 111.383"/><path fill="#2b2b2f" d="M2095.41 966.785l38.36.199c5.19.008 10.14.536 14.96 1.547 4.78.981 9.06 2.699 12.89 5.055 3.8 2.367 6.84 5.566 9.16 9.637 2.32 4.058 3.44 9.16 3.42 15.308-.04 6.619-1.6 11.989-4.68 16.019-3.12 4.06-7.06 7.16-11.88 9.36-4.77 2.16-10.16 3.56-16.07 4.14-5.91.58-11.57.86-16.99.81l-29.52-.14zm-58.19 110.325l97.08.5c13.52.08 26.34-1.07 38.39-3.48 12.06-2.4 22.61-6.58 31.65-12.54 8.99-6.01 16.17-14.07 21.51-24.23 5.36-10.16 8.06-23.02 8.16-38.497.07-15.258-2.33-28.043-7.18-38.422-4.88-10.328-11.6-18.589-20.16-24.808-8.62-6.188-18.78-10.586-30.58-13.219-11.82-2.66-24.59-4.019-38.37-4.101l-42.08-.211.53-101.786-57.56-.293-1.39 261.087"/><path fill="#2b2b2f" d="M2268.28 1076.91l177.51.93.28-53.11-119.95-.64.26-48.66 113.3.601.29-53.109-113.32-.602.28-53.109 126.6.641.26-53.082-184.16-.95-1.35 261.09"/><path fill="#2b2b2f" d="M2553.01 969.371l33.96.172c5.15.02 10.65.238 16.42.641 5.78.41 11 1.507 15.66 3.398 4.68 1.859 8.52 4.777 11.59 8.731 3.04 3.949 4.54 9.464 4.52 16.601-.05 6.646-1.43 11.936-4.16 15.836-2.7 3.92-6.17 6.91-10.36 8.99-4.19 2.09-9.02 3.45-14.42 4.17-5.41.71-10.7 1.05-15.86 1l-37.66-.19zm-58.13 107.719l101.12.55c13.27.07 25.91-1.15 37.82-3.68 11.96-2.51 22.42-6.77 31.46-12.73 8.99-5.98 16.17-14.07 21.5-24.23 5.36-10.19 8.07-22.9 8.17-38.105.08-18.454-4.65-34.141-14.17-47.137-9.5-12.965-23.49-21.184-41.96-24.727l67.03-109.929-69.02-.364-55.14 104.094-28.44-.152.54-104.371-57.57-.305-1.34 261.086"/><path fill="#2b2b2f" d="M2732.53 1077.22l57.55.29 1.11-207.987 106.67.563.29-53.113-164.26-.84-1.36 261.087"/><path fill="#2b2b2f" d="M2927.02 1076.91l177.51.93.28-53.11-119.94-.64.26-48.66 113.29.574.3-53.082-113.33-.602.29-53.109 126.6.641.26-53.082-184.16-.95-1.36 261.09"/><path fill="#2b2b2f" d="M3212.28 869.434l29.9.171c13.27.071 25.65 1.481 37.05 4.231 11.44 2.797 21.32 7.316 29.64 13.637 8.33 6.293 14.88 14.57 19.62 24.812 4.74 10.207 7.08 22.695 7.01 37.457-.07 12.785-2.54 23.903-7.39 33.352-4.83 9.453-11.34 17.196-19.49 23.316-8.14 6.12-17.74 10.67-28.66 13.66-10.96 3.05-22.49 4.5-34.54 4.45l-33.96-.19zm-58.68 207.706l86.36.45c20.9.12 40.81-2.13 59.65-6.68 18.83-4.57 35.32-12.07 49.39-22.44 14.08-10.38 25.28-23.86 33.63-40.57 8.32-16.697 12.56-36.935 12.66-60.783.12-21.152-3.78-39.812-11.7-55.933-7.9-16.149-18.59-29.739-32.06-40.719-13.49-11.031-29.06-19.399-46.74-25.141-17.71-5.773-36.27-8.691-55.69-8.781l-94.1-.496-1.4 261.093"/><path fill="#2b2b2f" d="M3667.9 835.309c-16.94-8.95-34.62-15.45-53.04-19.473-18.45-4.047-37.25-6.098-56.44-6.195-20.43-.094-39.27 2.988-56.52 9.277-17.26 6.316-32.18 15.379-44.79 27.25-12.63 11.852-22.49 26.242-29.6 43.16-7.09 16.965-10.69 35.86-10.81 56.774-.11 20.898 3.3 39.828 10.22 56.838 6.94 16.98 16.63 31.48 29.14 43.49 12.47 11.99 27.29 21.22 44.52 27.68 17.15 6.51 35.96 9.81 56.39 9.9 20.91.12 40.18-2.29 57.79-7.24 17.61-4.96 33.12-13.54 46.46-25.77l-40.36-44.47c-7.92 8.08-16.81 14.19-26.68 18.32-9.85 4.11-22.16 6.15-36.93 6.06-12.29-.05-23.42-2.21-33.37-6.44-9.93-4.26-18.45-10.1-25.57-17.63-7.08-7.563-12.49-16.512-16.27-26.871-3.75-10.328-5.6-21.531-5.53-33.563.08-12.316 2.02-23.539 5.89-33.711 3.87-10.187 9.37-19.015 16.55-26.457 7.18-7.48 15.77-13.269 25.74-17.41 9.98-4.117 21.15-6.133 33.45-6.082 12.56.074 23.37 1.531 32.47 4.402 9.05 2.868 16.31 5.79 21.71 8.782l-.24 42.418-46.86-.243-.26 53.114 102.21.551.73-136.461"/><path fill="#2b2b2f" d="M3715.72 1076.9l177.51.93.26-53.08-119.93-.65.24-48.659 113.32.582.29-53.093-113.32-.598.29-53.133 126.57.672.29-53.082-184.16-.976-1.36 261.087"/><path fill="#2b2b2f" d="M4000.43 969.355l33.96.192c5.16 0 10.63.238 16.43.621 5.76.41 10.97 1.508 15.64 3.418 4.66 1.84 8.52 4.762 11.57 8.711 3.07 3.949 4.57 9.469 4.55 16.601-.05 6.652-1.43 11.942-4.14 15.842-2.72 3.91-6.19 6.91-10.41 8.99-4.18 2.09-9.01 3.47-14.39 4.17-5.43.73-10.7 1.05-15.89 1.03l-37.63-.22zM3942.3 1077.1l101.12.53c13.27.07 25.88-1.13 37.84-3.68 11.95-2.51 22.42-6.77 31.44-12.73 9.02-5.97 16.17-14.04 21.53-24.24 5.34-10.16 8.04-22.89 8.14-38.101.09-18.453-4.65-34.141-14.14-47.133-9.52-12.941-23.52-21.168-41.97-24.726l67.02-109.915-69.03-.359-55.16 104.07-28.42-.148.55-104.371-57.55-.281-1.37 261.084"/></g></svg>