<svg xmlns="http://www.w3.org/2000/svg" role="img" viewBox="-17.90 -17.90 1034.80 1033.80"><title>Quartermaster (QMSTR) logo</title><style>svg {enable-background:new 0 0 1000 1000}</style><style>.st0{fill:#010101}</style><path d="M982.8 379.6c-18.4-75.5-55.3-146-106.2-204.7-31.3-36.2-67.8-67.9-108-93.7C689.1 29.8 594.8 2.5 500.3 2.8c-64.1-.4-128 12-187.4 36.2-59 24-113.2 59.4-159.1 103.5C101.6 193 60.6 255 35 322.9-1.7 420.3-8.5 529.8 19.6 630.3c21.1 75.5 59.7 147.2 113.1 204.8 17.3 19.2 36.9 36.7 56.9 53 3.3-14.2 5.7-28.6 9.1-42.8.9-3.8 1.6-7.6 1.9-11.4-4.3-5.4-9.5-9.5-14.4-14.4-35.2-33.6-63.8-73.8-86.2-117-33.6-64.8-50.1-137.7-48.6-210.6.5-42.7 7.1-85.4 20-126.1 20.9-67.2 57.8-129.1 107.2-179.3 74.6-77.5 177.9-125.9 285.1-134 49.8-3.8 100.5.4 148.9 12.9 62.5 16.8 121.3 45.9 171.3 87.2 39.2 32.2 72.7 71.5 99.2 114.7 30.3 49.4 50.5 104.8 59.2 162.1 6.2 39.9 7.4 80.4 2.7 120.5-5.5 46.9-18.2 93-37.9 135.9-23 50.1-55.2 95.8-94.8 134.2-4 4.2-8.6 7.7-12.4 12-2.1 1.8-1.2 5.1-1 7.6 3.2 16.3 7.1 32.4 10.4 48.7 3-1.8 5.8-3.8 8.5-6.1 40.7-32.8 75.6-72.9 103.4-117.1 48.8-77.4 75.9-168.1 76.7-259.7.2-42.4-4.9-84.8-15.1-125.8z" class="st0"/><path d="M733.5 624.3c-4.3-26.1-6.3-53.5-9.3-79.8-.2-3.2-.9-5.9 2.1-8 13.2-9.1 21.7-24.9 23.4-40.8 1.4-16.8-3-36.5-14.8-49-5.3-5.9-12.1-9.3-19.4-12.1-3.5-1.4-4.3-4.5-5.6-7.6-10.5-30.9-28-59.8-51.1-82.9-20.7-21.3-45.7-38.6-73.2-50-20.7-8.8-42.3-13-64.3-17.1 17-5.7 32.5-14.3 47.5-24.1 17.3-11.8 33.3-26.3 42.7-45.3 2.2-4.2 1.6-8.6-2.1-11.6-6.8-5.4-16.9-6.1-25.1-4.2-28.2 5.7-50.9 24.3-66.4 48.1-5.3 8.4-8.5 18-8.1 28 .1 2.6-.1 5.2-.6 7.7-3.3.3-6.6.5-10 .6 2-10.2 2.6-20.6 1.8-31-.7-7.3-3.2-13.8-6.4-20.3-1.5 2.6-3 5.2-4.6 7.8 2-5.6 5.1-10.2 1.2-15.9-7.2-10.3-14.3-20.9-22.2-30.7-7.9-9.8-18.1-17.1-29.3-22.6-1.7 3-3.4 5.9-5.1 8.9 1.1-3.2 2.2-6.4 3.3-9.7-8.3-3.4-16.3-6-25.4-3.8-3.9.8-8.7 3.5-9.1 7.9-.9 7.8 1.7 16.4 4.2 23.8 7.2 20.4 20.8 37 35.3 52.7 3.8 4.2 8.4 6.1 11 10.8 1.5 2.4 3.4 4.5 5.6 6.3 6.8 5.8 14.2 11.1 21.5 16.4-3.4.5-6.8 1.2-10.3 1.6-71.3 9.2-137.2 55.2-169.4 119.7-4.7 9.2-8.8 18.8-12.1 28.5-1 2.5-1.7 5.1-4.1 6.6-3.7 2.3-8 3.8-11.9 5.9-12.1 5.8-20.2 19.1-23.6 31.6-5.8 21.5-.6 47.7 17 62.5 3 2.9 9.3 4.9 8.3 9.9-1.9 18.7-3.1 37.6-6.2 56.2-6.1 41.9-12.3 83.7-20.8 125.1-10.6 53.3-22 106.4-33.2 159.6-1.3 6.8-3.3 13.1-3.6 20 48.3 35.1 103.1 61.1 160.8 76.4 39.3 10.5 79.7 15.7 120.3 16.6 101 2 202.7-28.1 286.2-85.1 3.2-2.3 7.9-4.7 9.3-8.5-.5-5.6-2.1-11.1-3.2-16.6-18.1-87.8-37.7-173.6-51-262.5zM313.3 472.8c-6.5-2-13.9 1.1-18.6 5.6-12.7 12.4-12.8 36.1.4 48.1 4.8 4.4 10.4 5.3 16.5 6.8-4.6 2.2-9.1 4.6-14.3 5.1-12.4 1.2-25.2-5.7-31.8-16.2-4.8-7.4-7.3-16.3-8.2-25-1.3-12.5 2.5-25.2 10-35.3 5.8-8.2 15.7-14 25.8-14.1 10.3-.5 20.6 5 26.9 13 5.1 6.5 8.9 13.9 9.7 22.2-5-3.6-10.4-8.5-16.4-10.2zm212.3-210.4c-3.7 5.7-8.1 11.3-13.5 15.5 3.2-6 8.7-10.9 13.5-15.5zm-50-13.8c-1.1-2.1-1.9-4.3-2.4-6.7 3.2 3.4 4.9 7.3 7.1 11.3 4.3 7.8 8.7 15.5 12.9 23.3-.9.3-1.7.7-2.6 1-4.9-9.6-9.9-19.3-15-28.9zm148.6 228.3c-2.3 21.9-10 43.5-23.7 61-3.1 4.2-6.8 6.8-7.3 12.4-2.7 22.1-5 44.3-7.6 66.4-6.1 55.1-14.8 110.1-24 164.8-8.4 49.6-16.4 97.9-31.6 146.1-2.3 7-5.3 13.6-8.2 20.4-1.1 2.3-2 5-4 6.7-4.9 4-13.2 2.9-16.3-2.9-5.4-10.2-10.3-20.6-13.8-31.6-19.7-56.6-30.7-113-42.8-171.4-8.8-43.2-17.4-86.4-25.6-129.8-3.8-22-6.7-44.1-9.5-66.2-.5-4.4-2.7-7.8-5.3-11.2-11-14-20-30.5-24.3-47.9-4.3-16.7-4.2-34.2-.1-50.9 2.6-10.8 6.5-21.9 12.6-31.3 7.3-11.2 18.1-20.1 30.8-24.3 10.2-3.7 21.6-4 32.2-2.5 17.1 3.5 32.8 14.3 43.7 27.6 11.4-8.1 20.5-17.3 33.6-22.9 11.8-5.4 24.7-6.6 37.5-4.5 10.7 2.2 20.7 7.4 28.5 15 11.6 10.6 18.9 26.1 22.7 41.2 3.3 11.7 3.2 23.5 2.5 35.8zm76.3 61.5c-5.3-.2-9.6-2.6-14.2-5 5.4-1.7 10.4-2.2 14.8-6 13.7-11.4 14.5-35.1 2.3-47.9-5.8-6.3-15.2-9.1-23.3-5.6-6 2.2-9.2 6.7-13.2 11.4 1.5-10.8 5.4-20.9 13.6-28.3 8.1-7.6 19.8-10.9 30.7-8.3 8.3 2.1 14.5 7.6 19.4 14.4 13.8 18.7 12.2 47.5-3.7 64.6-6.6 7.3-16.4 11.6-26.4 10.7z" class="st0"/><path d="M424.4 427.7c-16.1 5.2-25.5 22.2-21.1 38.6 2.1 10.9 14.2 17.6 24.5 13.9 16.7-6 25.4-29 15.7-44.2-4.2-6.4-11.6-8.6-19.1-8.3zm163.8 5.9c-4.4-3.5-10.2-6.2-16-5.8-11.4 1-17.5 11.3-17.7 22-1 11.4 5.8 22.1 14.9 28.3 8.4 5.6 21.4 3.4 26.4-5.7 7.3-12.4 3.8-30-7.6-38.8z" class="st0"/></svg>