<svg xmlns="http://www.w3.org/2000/svg" role="img" viewBox="-12.05 -11.55 600.60 147.10"><title>Sawtooth logo</title><g fill-opacity="1" fill-rule="nonzero" stroke="none" transform="matrix(1.33333 0 0 -1.33333 0 124.093) scale(.1)"><path fill="#232325" d="M1147.87 840.465l44.65.238.41-75.492 86.74.441-.41 75.52 44.66.226 1.05-202.503-44.63-.223-.47 87.519-86.74-.468.46-87.512-44.65-.242-1.07 202.496"/><path fill="#232325" d="M1432.7 724.492l-76.78 115.723 55.54.293 43.34-75.57 45.1 76.039 52.96.253-75.52-116.511.44-86.371-44.63-.243-.45 86.387"/><path fill="#232325" d="M1629.23 755.172l29.76.152c4.02.008 7.86.418 11.6 1.207 3.71.754 7.03 2.09 10 3.914 2.95 1.836 5.3 4.321 7.1 7.477 1.81 3.148 2.67 7.105 2.66 11.875-.04 5.133-1.24 9.293-3.63 12.422-2.43 3.144-5.48 5.554-9.21 7.261-3.71 1.668-7.88 2.762-12.47 3.211-4.58.442-8.98.664-13.18.625l-22.89-.105zm-45.12 85.566l75.29.391c10.49.062 20.43-.828 29.78-2.703 9.35-1.856 17.54-5.098 24.55-9.723 6.97-4.66 12.54-10.914 16.68-18.789 4.16-7.891 6.25-17.855 6.32-29.863.06-11.836-1.8-21.75-5.56-29.797-3.79-8.012-9.01-14.418-15.65-19.242-6.68-4.801-14.56-8.211-23.71-10.254-9.17-2.067-19.07-3.121-29.75-3.18l-32.64-.164.41-78.945-44.64-.227-1.08 202.496"/><path fill="#232325" d="M1767.69 840.559l137.67.722.22-41.191-93.03-.5.21-37.738 87.87.464.22-41.191-87.89-.465.21-41.191 98.19.5.21-41.172-142.82-.734-1.06 202.496"/><path fill="#232325" d="M1987.61 757.176l26.34.129c4 .019 8.25.187 12.74.5 4.48.316 8.52 1.172 12.13 2.636 3.63 1.446 6.62 3.707 9 6.774 2.35 3.058 3.51 7.344 3.5 12.871-.03 5.16-1.11 9.262-3.22 12.285-2.11 3.039-4.79 5.359-8.04 6.973-3.25 1.621-7 2.676-11.19 3.234-4.2.555-8.29.817-12.3.777l-29.2-.144zm-45.08 83.547l78.42.425c10.3.055 20.1-.894 29.33-2.855 9.28-1.945 17.38-5.25 24.4-9.875 6.98-4.637 12.54-10.906 16.68-18.789 4.15-7.902 6.25-17.762 6.33-29.559.07-14.308-3.6-26.48-10.99-36.554-7.36-10.059-18.22-16.434-32.53-19.18l51.98-85.258-53.53-.277-42.77 80.726-22.06-.117.42-80.945-44.66-.242-1.02 202.5"/><path fill="#232325" d="M2136.02 840.938l44.64.226.85-161.312 82.73.433.23-41.191-127.39-.649-1.06 202.493"/><path fill="#232325" d="M2295.43 840.691l137.67.723.22-41.191-93.03-.5.21-37.739 87.87.446.22-41.168-87.89-.469.22-41.191 98.19.496.21-41.164-142.83-.739-1.06 202.496"/><path fill="#232325" d="M2515.78 679.66l23.19.133c10.29.051 19.89 1.145 28.74 3.281 8.87 2.172 16.53 5.676 22.99 10.578 6.45 4.879 11.53 11.301 15.21 19.239 3.68 7.922 5.49 17.609 5.43 29.054-.04 9.91-1.96 18.539-5.72 25.868-3.75 7.332-8.8 13.339-15.12 18.085-6.31 4.739-13.76 8.278-22.23 10.598-8.5 2.359-17.44 3.492-26.79 3.453l-26.34-.152zm-45.51 161.09l66.98.352c16.21.089 31.65-1.649 46.26-5.176 14.61-3.547 27.39-9.371 38.31-17.403 10.92-8.054 19.6-18.515 26.09-31.464 6.44-12.957 9.73-28.653 9.81-47.149.09-16.406-2.93-30.879-9.07-43.379-6.13-12.527-14.43-23.066-24.86-31.582-10.47-8.554-22.54-15.051-36.26-19.5-13.73-4.476-28.13-6.742-43.19-6.808l-73-.387-1.07 202.496"/><path fill="#232325" d="M2883.49 653.18c-13.12-6.942-26.84-11.981-41.13-15.102-14.31-3.14-28.89-4.73-43.77-4.808-15.84-.071-30.46 2.316-43.84 7.195-13.38 4.902-24.95 11.93-34.73 21.137-9.81 9.191-17.45 20.351-22.96 33.472-5.51 13.156-8.29 27.813-8.38 44.035-.1 16.204 2.56 30.887 7.92 44.082 5.39 13.168 12.89 24.414 22.6 33.731 9.66 9.301 21.17 16.457 34.54 21.469 13.29 5.047 27.88 7.605 43.72 7.675 16.22.094 31.17-1.773 44.83-5.617 13.65-3.847 25.68-10.496 36.03-19.984l-31.3-34.492c-6.14 6.269-13.05 11.007-20.7 14.211-7.63 3.195-17.18 4.769-28.64 4.699-9.54-.039-18.16-1.711-25.88-4.992-7.7-3.309-14.3-7.832-19.84-13.672-5.49-5.867-9.68-12.809-12.62-20.84-2.91-8.016-4.33-16.699-4.29-26.031.06-9.555 1.58-18.258 4.58-26.149 3-7.898 7.27-14.75 12.83-20.515 5.57-5.809 12.24-10.293 19.97-13.508 7.74-3.192 16.4-4.754 25.94-4.715 9.74.059 18.12 1.184 25.18 3.41 7.02 2.227 12.65 4.492 16.84 6.813l-.18 32.902-36.36-.188-.19 41.192 79.28.426.55-105.836"/><path fill="#232325" d="M2914.45 845.348l137.68.722.19-41.168-93.02-.5.2-37.746 87.89.453.21-41.175-87.89-.469.23-41.207 98.17.523.23-41.172-142.83-.757-1.06 202.496"/><path fill="#232325" d="M3134.37 761.941l26.34.145c3.99 0 8.24.187 12.73.48 4.47.317 8.52 1.172 12.14 2.657 3.61 1.425 6.6 3.687 8.98 6.75 2.37 3.062 3.54 7.343 3.52 12.879-.04 5.156-1.11 9.257-3.21 12.285-2.12 3.039-4.8 5.355-8.07 6.972-3.24 1.621-7 2.688-11.17 3.231-4.21.578-8.29.816-12.32.801l-29.18-.172zm-45.09 83.559l78.43.41c10.29.055 20.07-.871 29.35-2.851 9.26-1.95 17.38-5.254 24.38-9.875s12.54-10.887 16.7-18.793c4.13-7.887 6.24-17.758 6.31-29.555.07-14.313-3.6-26.481-10.97-36.559-7.38-10.035-18.23-16.414-32.55-19.179l51.98-85.243-53.53-.281-42.79 80.719-22.04-.117.43-80.946-44.64-.222-1.06 202.492"/><path fill="#1574c2" d="M930 490.871L659.52 293.418v285l-390.415-285v285L6.63281 386.809C43.9648 167.207 235.117 0 465.352 0c257.007 0 465.351 208.348 465.351 465.352 0 8.566-.25 17.07-.703 25.519"/><path fill="#6bcfe9" d="M922.953 550.254c-39.91 216.461-229.594 380.449-457.601 380.449C208.348 930.703 0 722.359 0 465.352c0-6.219.15625-12.403.40234-18.563L321.227 680.988V395.992l390.406 284.996V395.992l211.32 154.262"/><path fill="#6bcfe9" d="M1188.61 163.309c10.19-15.289 23.23-26.563 39.11-33.817 15.87-7.254 32.24-10.879 49.1-10.879 9.4 0 19.01 1.473 28.81 4.414 9.79 2.942 18.71 7.352 26.75 13.231 8.03 5.879 14.6 13.129 19.7 21.758 5.09 8.617 7.64 18.613 7.64 29.984 0 16.07-5.09 28.316-15.29 36.754-10.19 8.422-22.83 15.476-37.92 21.164-15.09 5.68-31.56 11.172-49.39 16.465-17.85 5.289-34.31 12.644-49.39 22.051-15.1 9.406-27.74 22.046-37.93 37.925-10.2 15.875-15.29 37.34-15.29 64.387 0 12.141 2.65 25.082 7.94 38.809 5.29 13.715 13.62 26.258 24.99 37.629 11.36 11.363 25.96 20.875 43.81 28.515 17.83 7.649 39.29 11.473 64.38 11.473 22.73 0 44.49-3.145 65.27-9.41 20.77-6.274 39-19.02 54.68-38.223l-45.86-41.75c-7.06 10.973-17.05 19.789-29.99 26.461-12.93 6.664-27.63 10-44.1 10-15.68 0-28.72-2.059-39.1-6.176-10.39-4.117-18.73-9.41-24.99-15.875-6.28-6.469-10.68-13.433-13.23-20.875-2.55-7.449-3.82-14.316-3.82-20.578 0-17.644 5.09-31.164 15.29-40.574 10.19-9.406 22.83-17.051 37.92-22.934 15.09-5.879 31.55-11.172 49.4-15.875 17.83-4.703 34.29-11.273 49.39-19.695 15.08-8.434 27.73-19.801 37.92-34.105 10.19-14.313 15.28-34.012 15.28-59.094 0-19.989-3.81-38.028-11.46-54.098-7.64-16.078-17.93-29.598-30.87-40.5702-12.93-10.9805-28.22-19.4024-45.86-25.2813-17.64-5.8789-36.45-8.8242-56.45-8.8242-26.66 0-51.94 4.707-75.85 14.1172-23.92 9.4023-42.92 23.8985-57.04 43.5075l46.45 39.989"/><path fill="#6bcfe9" d="M1720.75 228.57l-77.61 191.106h-1.18l-78.79-191.106zm-101.13 264.016h51.15l178.16-416.3047h-65.85L1741.33 179.18h-198.15l-41.16-102.8987h-65.86l183.46 416.3047"/><path fill="#6bcfe9" d="M1807.18 492.586h58.8l92.01-332.809h1.19l97.91 332.809h64.67l97.89-332.809h1.19l92.03 332.809h58.8L2250.53 76.2813h-59.97L2090.02 416.145h-1.18l-99.97-339.8637h-59.97L1807.18 492.586"/><path fill="#6bcfe9" d="M2529.65 439.664h-134.06v52.922h324.58v-52.922h-134.06V76.2813h-56.46V439.664"/><path fill="#6bcfe9" d="M2934.2 118.613c23.9 0 45.46 4.414 64.67 13.235 19.2 8.816 35.67 20.672 49.4 35.57 13.71 14.898 24.29 32.437 31.75 52.629 7.44 20.183 11.17 41.648 11.17 64.387 0 22.73-3.73 44.191-11.17 64.386-7.46 20.184-18.04 37.723-31.75 52.625-13.73 14.895-30.2 26.754-49.4 35.575-19.21 8.816-40.77 13.23-64.67 13.23-23.92 0-45.48-4.414-64.68-13.23-19.22-8.821-35.68-20.68-49.4-35.575-13.73-14.902-24.3-32.441-31.75-52.625-7.46-20.195-11.18-41.656-11.18-64.386 0-22.739 3.72-44.204 11.18-64.387 7.45-20.192 18.02-37.731 31.75-52.629 13.72-14.898 30.18-26.754 49.4-35.57 19.2-8.821 40.76-13.235 64.68-13.235zm0-52.9177c-31.76 0-60.96 5.586-87.62 16.7578-26.66 11.1719-49.49 26.5509-68.5 46.1599-19.02 19.598-33.91 42.723-44.69 69.383-10.79 26.652-16.17 55.469-16.17 86.438 0 30.964 5.38 59.773 16.17 86.437 10.78 26.649 25.67 49.774 44.69 69.379 19.01 19.602 41.84 34.992 68.5 46.16 26.66 11.176 55.86 16.762 87.62 16.762 31.74 0 60.94-5.586 87.6-16.762 26.66-11.168 49.49-26.558 68.51-46.16 19-19.605 33.9-42.73 44.69-69.379 10.78-26.664 16.17-55.473 16.17-86.437 0-30.969-5.39-59.786-16.17-86.438-10.79-26.66-25.69-49.785-44.69-69.383-19.02-19.609-41.85-34.988-68.51-46.1599-26.66-11.1718-55.86-16.7578-87.6-16.7578"/><path fill="#6bcfe9" d="M3414.29 118.613c23.91 0 45.47 4.414 64.68 13.235 19.2 8.816 35.67 20.672 49.4 35.57 13.71 14.898 24.29 32.437 31.74 52.629 7.44 20.183 11.18 41.648 11.18 64.387 0 22.73-3.74 44.191-11.18 64.386-7.45 20.184-18.03 37.723-31.74 52.625-13.73 14.895-30.2 26.754-49.4 35.575-19.21 8.816-40.77 13.23-64.68 13.23-23.91 0-45.48-4.414-64.67-13.23-19.22-8.821-35.68-20.68-49.4-35.575-13.73-14.902-24.31-32.441-31.76-52.625-7.45-20.195-11.17-41.656-11.17-64.386 0-22.739 3.72-44.204 11.17-64.387 7.45-20.192 18.03-37.731 31.76-52.629 13.72-14.898 30.18-26.754 49.4-35.57 19.19-8.821 40.76-13.235 64.67-13.235zm0-52.9177c-31.75 0-60.95 5.586-87.61 16.7578-26.66 11.1719-49.5 26.5509-68.5 46.1599-19.02 19.598-33.92 42.723-44.69 69.383-10.79 26.652-16.17 55.469-16.17 86.438 0 30.964 5.38 59.773 16.17 86.437 10.77 26.649 25.67 49.774 44.69 69.379 19 19.602 41.84 34.992 68.5 46.16 26.66 11.176 55.86 16.762 87.61 16.762s60.95-5.586 87.61-16.762c26.66-11.168 49.48-26.558 68.51-46.16 19-19.605 33.89-42.73 44.68-69.379 10.79-26.664 16.18-55.473 16.18-86.437 0-30.969-5.39-59.786-16.18-86.438-10.79-26.66-25.68-49.785-44.68-69.383-19.03-19.609-41.85-34.988-68.51-46.1599-26.66-11.1718-55.86-16.7578-87.61-16.7578"/><path fill="#6bcfe9" d="M3762.37 439.664h-134.06v52.922h324.58v-52.922h-134.07V76.2813h-56.45V439.664"/><path fill="#6bcfe9" d="M4001.22 492.586h56.44V319.715h215.8v172.871h56.45V76.2813h-56.45V266.793h-215.8V76.2813h-56.44V492.586"/></g></svg>