<svg xmlns="http://www.w3.org/2000/svg" role="img" viewBox="-0.90 -0.90 306.54 166.54"><title>Submariner logo</title><path d="M67 126h1v1h-1zm220 0h1v1h-1zm-103 1h1v1h-1zm89 0h1v30h-1zm-259 6h1v1h-1zm9 1h1v1h-1zm132 4h1v1h-1zm-40 1h1v1h-1zm107 0h1v1h-1zm33 0h9v1h-9zm9 0h1v1h-1zm31 1h1v1h-1zm-157 1h1v1h-1zm18 0h1v1h-1zm69 4h1v1h-1zm-195 1h1v1h-1zm120 0h1v1h-1zm134 0h1v1h-1zm-148 1h1v1h-1zm-125 1h1v1h-1zm96 1h1v1h-1zm28 1h1v1h-1zm44 1h1v1h-1zm-143 1h1v1h-1zm98 1h1v1h-1zm57 0h1v1h-1zm-162 1h1v1h-1zm201 0h1v1h-1zm43 3h1v1h-1zm-230 1h1v1h-1z" fill="#727b7b"/><path d="M54 127h1v1h-1zm-44 1h1v1h-1zm175 0h1v1h-1zM8 130h1v1H8zm259 1h1v1h-1zm-193 2h1v4h-1zm16 0h1v1h-1zm18 0h1v1h-1zm-84 3h1v1h-1zm50 1h1v1h-1zm222 0h1v1h-1zm-174 4h1v16h-1zm-8 2h1v1h-1zm-40 2h1v6h-1zm-14 5h1v1h-1zm14 1h1v1h-1zm42 0h1v1h-1zm-79 2h1v1h-1zm21 1h1v1h-1zm-2 2h1v1h-1zm66 1h1v1h-1zm39 0h1v1h-1zm29 0h1v1h-1z" fill="#1b2f2f"/><path d="M98 5h1v1h-1zm-4 1h1v1h-1zm-8 8h1v1h-1zm133 2h1v1h-1zM85 17h1v1h-1zm25 11h1v1h-1zm87 31h1v1h-1zm-11 8h1v14h-1zm0 14h1v1h-1zM86 82h99v1H86zm99 0h1v1h-1zM85 95h1v1h-1zm0 8h1v1h-1zm133 4h1v1h-1zm-2 3h1v1h-1zm-2 2h1v1h-1z" fill="#f8fefe"/><path d="M88 11h1v1h-1zm129 1h1v1h-1zM113 26h1v1h-1zm-2 1h1v1h-1zm88 37h1v1h-1zm-86 2h1v1h-1zM86 95h101v1H86zm101 0h1v1h-1zm-95 18h1v1h-1zm2 1h1v1h-1z" fill="#d5f8f2"/><path d="M15 126h1v1h-1zm-1 1h1v1h-1zm9 0h1v1h-1zm14 0h4v1h-4zm4 0h1v1h-1zm14 0h4v1h-4zm4 0h1v1h-1zm10 0h12v1H69zm12 0h1v1h-1zm17 0h6v1h-6zm6 0h1v1h-1zm17 0h6v1h-6zm6 0h1v1h-1zm18 0h4v1h-4zm4 0h1v1h-1zm18 0h12v1h-12zm12 0h1v1h-1zm16 0h13v1h-13zm13 0h1v1h-1zm8 0h6v1h-6zm6 0h1v1h-1zm14 0h3v1h-3zm3 0h1v1h-1zm9 0h18v1h-18zm18 0h1v1h-1zm9 0h11v1h-11zm11 0h1v1h-1zm-275 1h1v1h-1zm109 0h1v1h-1zm103 0h1v1h-1zm-116 2h1v2h-1zm88 0h1v1h-1zm29 0h1v1h-1zm71 0h1v1h-1zm-206 1h1v1h-1zm30 0h1v1h-1zm54 0h1v1h-1zm-66 1h1v1h-1zm92 0h1v20h-1zm26 0h1v1h-1zm71 0h1v1h-1zm-283 1h1v2h-1zm16 0h1v1h-1zm-5 1h1v1h-1zm5 0h1v1h-1zm88 0h1v1h-1zm28 0h1v1h-1zm-132 1h1v1h-1zm14 0h1v1h-1zm1 0h1v1h-1zm80 0h1v1h-1zm182 0h1v1h-1zm-201 1h1v1h-1zm34 0h1v2h-1zm31 0h1v1h-1zm136 0h1v1h-1zm-186 1h1v1h-1zm116 0h2v1h-2zm2 0h1v1h-1zM8 138h1v1H8zm115 0h1v1h-1zm172 0h1v1h-1zm-214 1h1v1h-1zm35 0h1v1h-1zm28 0h1v1h-1zm5 0h1v1h-1zm74 0h1v1h-1zm31 0h1v1h-1zm-170 1h1v1h-1zm18 0h1v1h-1zm153 0h1v1h-1zm-232 1h1v1h-1zm96 0h1v1h-1zm55 0h2v1h-2zm2 0h1v1h-1zm48 0h1v1h-1zm57 0h3v1h-3zm3 0h1v1h-1zm-169 1h1v1h-1zm28 0h1v1h-1zm148 0h1v1h-1zm-210 1h1v1h-1zm6 0h1v1h-1zm138 0h1v1h-1zm65 0h1v2h-1zm-274 1h1v1h-1zm95 0h1v1h-1zm7 0h1v1h-1zm38 0h1v1h-1zm-137 1h1v1h-1zm95 0h1v1h-1zm28 0h1v1h-1zm32 0h1v1h-1zm1 0h1v1h-1zm107 0h1v1h-1zm8 0h1v1h-1zm-269 1h1v1h-1zm69 0h1v1h-1zm17 0h1v1h-1zm6 0h1v1h-1zm70 0h1v1h-1zm49 0h1v1h-1zm-82 1h1v1h-1zm7 0h1v1h-1zm129 0h1v1h-1zm-150 1h1v1h-1zm-20 1h1v1h-1zM6 150h1v1H6zm36 0h1v1h-1zm11 0h1v1h-1zm105 0h1v1h-1zM6 151h1v1H6zm53 0h1v1h-1zm25 0h1v1h-1zm57 0h1v1h-1zm11 0h1v1h-1zM7 152h1v1H7zm83 0h1v1h-1zm25 0h1v2h-1zm25 0h1v1h-1zm13 0h1v1h-1zm46 0h1v1h-1zm31 0h1v1h-1zm-179 1h1v1h-1zm7 0h1v1h-1zm24 0h1v1h-1zm77 0h1v1h-1zm22 0h1v1h-1zm-166 1h1v1h-1zm6 0h1v1h-1zm68 0h1v1h-1zm21 0h1v1h-1zm5 0h1v1h-1zm24 0h1v1h-1zm56 0h2v1h-2zm2 0h1v1h-1zm10 0h1v1h-1zm1 0h1v1h-1zm-198 2h1v1h-1zm45 0h1v1h-1zm79 0h1v1h-1zm26 0h1v1h-1zm131 0h1v1h-1zm-278 1h1v1h-1zm10 0h1v1h-1zm18 0h1v1h-1zm28 0h13v1H69zm13 0h1v1h-1zm16 0h3v1h-3zm3 0h1v1h-1zm11 0h1v1h-1zm11 0h4v1h-4zm4 0h1v1h-1zm7 0h3v1h-3zm3 0h1v1h-1zm18 0h5v1h-5zm5 0h1v1h-1zm7 0h4v1h-4zm4 0h1v1h-1zm15 0h1v1h-1zm3 0h1v1h-1zm6 0h13v1h-13zm13 0h1v1h-1zm8 0h3v1h-3zm3 0h1v1h-1zm14 0h6v1h-6zm6 0h1v1h-1zm9 0h19v1h-19zm19 0h1v1h-1zm8 0h4v1h-4zm4 0h1v1h-1zm14 0h1v1h-1zm-279 1h1v1h-1z" fill="#354242"/><path d="M16 126h3v1h-3zm3 0h1v1h-1zm6 1h1v1h-1zm35 0h1v1h-1zm37 0h1v1h-1zm23 0h1v1h-1zm8 0h1v1h-1zm15 0h1v1h-1zm39 0h1v1h-1zm1 0h1v1h-1zm26 0h1v1h-1zm26 0h1v1h-1zm5 0h1v1h-1zm7 0h1v1h-1zm20 0h1v1h-1zm-225 1h1v20h-1zm12 0h1v20h-1zm33 0h1v1h-1zm56 0h1v1h-1zm23 0h1v29h-1zm28 0h1v2h-1zm21 0h1v28h-1zm-29 1h1v1h-1zm38 0h1v1h-1zm-207 1h2v1h-2zm2 0h1v1h-1zm70 0h1v1h-1zm105 0h1v1h-1zm15 0h1v1h-1zm-67 1h1v1h-1zm10 0h1v1h-1zm26 0h1v1h-1zm1 0h1v1h-1zm-97 1h1v1h-1zm36 0h1v1h-1zm170 0h1v1h-1zm-205 1h1v1h-1zm143 0h1v1h-1zm28 0h1v5h-1zm26 0h1v6h-1zM7 134h1v2H7zm134 0h1v1h-1zm12 0h1v1h-1zm136 0h1v1h-1zm7 0h1v2h-1zm-179 1h1v1h-1zm110 0h1v1h-1zM7 136h1v1H7zm289 0h1v1h-1zm-281 1h1v1h-1zm74 0h1v1h-1zm51 0h1v1h-1zm5 0h1v1h-1zm3 0h1v1h-1zm6 0h1v1h-1zm34 0h1v1h-1zm-171 1h1v1h-1zm57 0h1v1h-1zm42 0h1v1h-1zm72 0h1v1h-1zm66 0h1v1h-1zM8 139h1v1H8zm11 0h1v1h-1zm56 0h4v1h-4zm4 0h1v1h-1zm8 0h1v1h-1zm17 0h1v1h-1zm6 0h1v1h-1zm10 0h1v1h-1zm100 0h1v1h-1zm60 0h1v1h-1zm15 0h1v1h-1zm-175 1h2v1h-2zm2 0h1v1h-1zm17 0h1v1h-1zm5 0h1v1h-1zm11 0h1v1h-1zm23 0h1v1h-1zm9 0h1v1h-1zm33 0h1v1h-1zm3 0h1v1h-1zm-199 1h1v1h-1zm1 0h1v1h-1zm90 0h1v1h-1zm34 0h1v1h-1zm37 0h1v1h-1zm79 0h1v2h-1zm-254 1h1v1h-1zm15 0h1v1h-1zm59 0h1v1h-1zm20 0h1v1h-1zm6 0h1v1h-1zm45 0h1v1h-1zm68 0h1v1h-1zm68 0h1v1h-1zm-154 1h1v1h-1zm18 0h1v1h-1zm109 0h1v1h-1zm-250 1h1v1h-1zm67 0h1v1h-1zm7 0h1v1h-1zm25 0h1v1h-1zm-97 1h1v1h-1zm101 0h1v1h-1zm65 0h1v1h-1zm52 0h1v1h-1zm-151 1h1v1h-1zm73 0h1v1h-1zm69 0h1v1h-1zm9 0h1v1h-1zm19 0h1v5h-1zm26 0h1v10h-1zm11 0h1v1h-1zm-147 1h5v1h-5zm5 0h1v1h-1zm35 0h1v1h-1zm-142 1h1v1h-1zm12 0h1v1h-1zm6 0h1v1h-1zm118 0h1v1h-1zm108 0h1v1h-1zM7 149h1v1H7zm1 0h1v1H8zm4 0h1v1h-1zm48 0h1v1h-1zm76 0h1v1h-1zm22 0h1v1h-1zm135 0h1v1h-1zm-185 1h1v1h-1zm51 1h1v1h-1zm70 0h1v1h-1zm25 0h1v1h-1zm40 0h1v1h-1zm-250 1h1v1h-1zm15 0h1v1h-1zm76 0h1v1h-1zm24 0h1v1h-1zm28 0h1v1h-1zm-173 1h1v1h-1zm32 0h1v1h-1zm35 0h1v1h-1zm28 0h1v1h-1zm159 0h1v1h-1zm-251 1h2v1h-2zm2 0h1v1h-1zm19 0h1v1h-1zm143 0h1v1h-1zm28 0h1v1h-1zm-99 1h1v1h-1zm24 0h1v1h-1zm60 0h1v1h-1zm-168 1h1v1h-1zm113 0h1v1h-1zm15 0h1v1h-1zm36 0h1v1h-1zm4 0h1v1h-1zm21 0h1v1h-1zm65 0h1v1h-1zm-256 1h1v1h-1zm18 0h1v1h-1zm55 0h1v1h-1zm5 0h1v1h-1zm26 0h1v1h-1zm5 0h1v1h-1zm33 0h1v1h-1zm43 0h1v1h-1zm11 0h1v1h-1zm20 0h1v1h-1zm7 0h1v1h-1zm45 0h1v1h-1zm-277 1h5v1h-5zm5 0h1v1h-1zm25 0h5v1h-5zm5 0h1v1h-1z" fill="#283838"/><path d="M24 126h1v1h-1zm60 0h1v1h-1zm205 0h1v1h-1zm-202 1h1v1h-1zm32 0h1v1h-1zm10 0h1v30h-1zm-33 1h1v28h-1zm-88 1h1v1H8zm280 4h1v1h-1zm-60 2h1v1h-1zm-198 1h1v1h-1zm60 1h1v1h-1zm13 1h1v1h-1zm76 1h1v1h-1zm-155 1h1v1h-1zm2 1h1v1h-1zm195 0h1v1h-1zm-77 2h1v1h-1zm90 0h1v1h-1zm-1 2h1v1h-1zm-215 1h1v1h-1zm167 1h1v1h-1zm-25 5h1v1h-1zm-144 1h1v1h-1zm4 0h1v1h-1zm89 2h1v1h-1zm52 0h1v1h-1zM8 156h1v1H8zm88 0h1v1h-1zm-56 1h1v1h-1zm89 0h1v1h-1zm-15 1h1v1h-1zm96 0h1v1h-1zm11 0h1v1h-1zm71 0h1v1h-1z" fill="#adb1b1"/><path d="M61 126h1v1h-1zm149 0h1v1h-1zm24 0h1v1h-1zm34 0h1v1h-1zm-103 1h1v30h-1zm-75 3h1v1h-1zm98 0h1v1h-1zm-9 2h1v1h-1zm-97 1h1v1h-1zm99 2h1v1h-1zm-166 1h1v1h-1zm131 0h1v1h-1zm35 0h1v1h-1zm-101 2h1v1h-1zm-73 1h1v1H7zm138 1h1v1h-1zm-31 1h1v1h-1zm69 3h1v1h-1zm51 0h1v1h-1zm-151 2h1v1h-1zm75 0h1v1h-1zm18 0h1v1h-1zM8 148h1v1H8zm35 0h1v1h-1zm18 0h1v1h-1zm98 1h1v1h-1zm27 0h1v1h-1zm-173 2h1v1h-1zm45 4h1v1h-1zm-1 1h1v1h-1zm108 1h1v1h-1zm-141 1h1v1h-1zm72 0h1v1h-1z" fill="#b4b8b8"/><path d="M20 125h1v1h-1zm33 1h1v1h-1zm32 0h1v1h-1zm108 0h1v1h-1zm31 1h1v1h-1zm-196 1h1v1h-1zm165 3h1v1h-1zm93 1h1v1h-1zm-176 4h1v1h-1zm187 0h1v1h-1zm-153 10h1v1h-1zm5 0h1v1h-1zm132 0h1v1h-1zm-173 7h1v1h-1zm85 0h1v1h-1zm94 0h1v1h-1zm12 1h1v1h-1zm-69 1h1v1h-1zm-141 1h1v1h-1zm-80 1h1v1H9zm45 1h1v1h-1zm139 0h1v1h-1zm88 0h1v1h-1zm-266 1h1v1h-1zm30 0h1v1h-1z" fill="#dddfdf"/><path d="M12 126h1v1h-1zm-2 1h1v1h-1zm43 0h1v19h-1zm132 0h1v1h-1zm8 0h1v3h-1zm0 3h1v1h-1zm-163 1h1v1h-1zm87 1h1v1h-1zM6 133h1v1H6zm275 0h1v6h-1zm16 1h1v1h-1zm0 1h1v1h-1zm-151 2h1v1h-1zm-70 1h3v1h-3zm3 0h1v1h-1zm101 0h1v1h-1zm-158 1h1v1h-1zm81 0h1v1h-1zm163 0h1v1h-1zm15 0h1v1h-1zm-194 1h1v1h-1zm61 1h1v1h-1zm1 3h1v1h-1zm75 0h1v1h-1zm-119 1h1v1h-1zm-52 1h1v1h-1zm92 0h3v1h-3zm3 0h1v1h-1zm-128 1h1v1h-1zm261 0h1v10h-1zM6 148h1v1H6zm112 0h1v1h-1zm-35 2h1v1h-1zm212 1h1v1h-1zm-245 1h1v1h-1zm129 0h1v1h-1zm-149 1h1v1h-1zm6 0h1v1h-1zm116 0h1v1h-1zm-93 1h1v1h-1zm134 0h1v3h-1zm-78 2h1v1h-1zm25 0h1v1h-1zm51 1h2v1h-2zm2 0h1v1h-1zm88 0h1v1h-1zm-270 1h1v1h-1zm9 1h1v1h-1zm30 0h1v1h-1z" fill="#d5d8d8"/><path d="M97 6h1v1h-1zm120 7h1v1h-1zM107 30h1v1h-1zm12 10h1v12h-1zm0 12h1v1h-1zm1 1h68v1h-68zm68 0h1v1h-1zm4 1h1v1h-1zm-1 41h1v1h-1zm-105 9h1v1h-1zm132 1h1v1h-1zm-2 4h1v1h-1zm-3 3h1v1h-1zm-120 1h1v1h-1z" fill="#59e4ce"/><path d="M100 6h104v1H100zm104 0h1v1h-1zM95 7h1v1h-1zm1 0h1v1h-1zm113 0h1v1h-1zm1 0h1v1h-1zM92 8h1v1h-1zm1 0h1v1h-1zm118 0h1v1h-1zm1 0h1v1h-1zM91 9h1v1h-1zm122 0h1v1h-1zM90 10h1v1h-1zm124 0h1v1h-1zM89 11h1v1h-1zm126 0h1v1h-1zm1 1h1v1h-1zm1 2h1v1h-1zm1 3h1v7h-1zM86 19h1v62h-1zm30 5h102v1H116zm102 0h1v1h-1zm-107 2h1v1h-1zm-3 2h1v1h-1zm-1 1h1v1h-1zm-1 2h1v1h-1zm-1 1h1v1h-1zm0 1h1v1h-1zm-1 2h1v22h-1zm16 5h98v1h-98zm98 0h1v64h-1zm-98 12h1v1h-1zm70 1h1v1h-1zm1 0h1v1h-1zm2 1h1v1h-1zm3 2h1v1h-1zm-92 1h1v1h-1zm93 0h1v1h-1zm-92 2h1v1h-1zm0 1h1v1h-1zm94 0h1v1h-1zm-93 1h1v1h-1zm93 0h1v1h-1zm-92 2h1v1h-1zm93 0h1v19h-1zm-92 1h1v1h-1zm1 1h1v1h-1zm2 1h1v1h-1zm1 1h1v1h-1zm1 0h1v1h-1zm3 1h69v1h-69zm69 0h1v13h-1zM86 81h1v1h-1zm99 0h1v1h-1zm15 1h1v4h-1zm0 4h1v1h-1zm-2 4h1v1h-1zm-4 4h1v1h-1zm-2 1h1v1h-1zM86 96h104v1H86zm104 0h1v1h-1zM86 97h1v4h-1zm0 4h1v1h-1zm132 3h1v1h-1zm-131 1h1v1h-1zm0 1h1v1h-1zm1 1h1v1h-1zm0 1h1v1h-1zm128 0h1v1h-1zm-127 1h1v1h-1zm1 1h1v1h-1zm1 1h1v1h-1zm1 1h1v1h-1zm120 0h1v1h-1zm-118 1h1v1h-1zm1 0h1v1h-1zm1 1h112v1H96zm112 0h1v1h-1z" fill="#16dec1"/><path d="M208 6h1v1h-1zm6 3h1v1h-1zm1 1h1v1h-1zm3 5h1v1h-1zM86 16h1v1h-1zm29 9h1v1h-1zm-3 1h1v1h-1zm-3 2h1v1h-1zm-1 1h1v1h-1zm89 29h1v1h-1zm-90 4h1v1h-1zm92 0h1v1h-1zm-89 3h1v1h-1zm5 2h1v1h-1zm83 22h1v1h-1zm-5 5h1v1h-1zM87 107h1v1h-1zm3 4h1v1h-1zm5 3h1v1h-1zm114 0h1v1h-1z" fill="#6ee7d3"/><path d="M209 6h1v1h-1zM90 9h1v1h-1zm-1 1h1v1h-1zm-3 5h1v1h-1zm19 23h1v16h-1zm114 1h1v1h-1zM105 54h1v1h-1zm86 0h1v1h-1zm8 9h1v1h-1zm-10 32h1v1h-1zm30 7h1v1h-1zm-9 12h1v1h-1zm-111 1h106v1H99zm106 0h1v1h-1z" fill="#b4f1e5"/><path d="M93 7h1v1h-1zm120 1h1v1h-1zm3 3h1v1h-1zm3 9h1v4h-1zm0 4h1v1h-1zM105 36h1v1h-1zm14 3h1v1h-1zm100 1h1v61h-1zM105 56h1v1h-1zm93 4h1v1h-1zm1 26h1v1h-1zm20 15h1v1h-1zm-131 8h1v1h-1zm3 3h1v1h-1z" fill="#9beddf"/><path d="M15 125h1v1h-1zm168 1h1v1h-1zm113 4h1v1h-1zm-122 2h1v1h-1zm94 0h1v1h-1zm-246 1h1v1h-1zm69 0h1v1h-1zm18 0h1v1h-1zm-18 1h1v1h-1zm-9 1h1v1h-1zm-57 2h1v1h-1zm122 1h1v1h-1zm31 1h1v1h-1zm-64 1h1v1h-1zm74 0h1v1h-1zm43 0h1v1h-1zM8 141h1v1H8zm78 0h1v1h-1zm-77 1h1v1H9zm94 0h1v1h-1zm55 3h1v1h-1zm-141 1h1v1h-1zm142 2h1v1h-1zm67 0h1v1h-1zM5 149h1v2H5zm289 0h1v1h-1zM5 151h1v1H5zm30 0h1v1h-1zm125 0h1v1h-1zm126 0h1v1h-1zm-237 1h1v1h-1zm26 0h1v1h-1zm5 0h1v1h-1zm111 0h1v1h-1zm-58 2h1v1h-1zm-105 2h1v1h-1zm81 0h1v1h-1zm23 1h1v1h-1zm99 0h1v1h-1zm-128 1h1v1h-1zm88 0h1v1h-1zm-177 1h1v1h-1z" fill="#f0f1f1"/><path d="M14 126h1v1h-1zm183 5h1v1h-1zm-167 3h1v1h-1zm0 1h1v1h-1zm259 1h1v1h-1zm5 5h1v1h-1zm-210 7h1v1h-1zm-41 2h1v1h-1zm97 4h1v1h-1zm-127 4h1v1h-1zm109 0h1v1h-1zm64 0h1v1h-1z" fill="#4e5959"/><path d="M82 126h1v1h-1zm-47 1h1v1h-1zm152 2h1v1h-1zm-14 3h1v1h-1zm-19 3h1v1h-1zm-125 1h1v1h-1zm152 1h1v1h-1zm-42 1h1v1h-1zm-51 1h1v1h-1zm-2 1h1v1h-1zm18 1h1v1h-1zm-15 2h1v1h-1zm1 1h1v1h-1zm47 0h1v1h-1zm-27 13h1v1h-1zm-27 1h1v1h-1zm107 0h1v1h-1z" fill="#7a8181"/><path d="M219 17h1v1h-1zM85 20h1v61h-1zm22 11h1v1h-1zm-1 2h1v1h-1zm87 22h1v1h-1zm-87 4h1v1h-1zM85 81h1v1h-1zm114 3h1v1h-1zm-1 4h1v1h-1zm-6 6h1v1h-1zM85 96h1v5h-1zm0 5h1v1h-1zm1 5h1v1h-1zm1 2h1v1h-1zm10 7h1v1h-1z" fill="#def9f4"/><path d="M42 126h1v1h-1zm12 0h1v1h-1zm140 0h1v1h-1zm21 0h1v1h-1zm10 4h1v1h-1zm-78 4h1v1h-1zm-38 1h1v1h-1zm-82 1h1v1h-1zm63 0h1v1h-1zm12 0h1v1h-1zm-21 2h1v1h-1zm93 2h2v1h-2zm2 0h1v1h-1zm106 0h1v1h-1zm1 0h1v1h-1zm-273 2h1v1h-1zm77 0h1v1h-1zm137 1h1v1h-1zm-111 2h1v1h-1zm-94 1h1v1h-1zm-7 2h1v1h-1zm11 2h1v1h-1zm37 1h1v1h-1zm101 5h1v1h-1zm-93 2h14v1H68zm14 0h1v1h-1zm16 0h3v1h-3zm3 0h1v1h-1zm11 0h1v1h-1zm11 0h4v1h-4zm4 0h1v1h-1zm7 0h3v1h-3zm3 0h1v1h-1zm19 0h4v1h-4zm4 0h1v1h-1zm7 0h4v1h-4zm4 0h1v1h-1zm24 0h13v1h-13zm13 0h1v1h-1zm8 0h3v1h-3zm3 0h1v1h-1zm15 0h5v1h-5zm5 0h1v1h-1zm9 0h19v1h-19zm19 0h1v1h-1zm8 0h4v1h-4zm4 0h1v1h-1z" fill="#5b6565"/><path d="M180 126h1v1h-1zm-145 2h1v19h-1zm72 1h1v1h-1zm45 0h1v1h-1zM7 131h1v1H7zm9 0h1v1h-1zm125 1h1v1h-1zm12 0h1v1h-1zm36 2h1v1h-1zm-49 1h1v1h-1zm49 0h1v1h-1zm-166 1h1v1h-1zm93 0h1v1h-1zm6 0h1v1h-1zm-40 1h1v1h-1zm21 0h1v1h-1zm-85 1h1v1h-1zm170 1h1v1h-1zm99 0h1v1h-1zm-252 8h1v1h-1zm-5 5h1v1h-1zm257 0h1v1h-1zm1 2h1v1h-1zm-107 1h1v1h-1zm50 1h1v1h-1zm-58 1h1v1h-1zm12 1h1v1h-1z" fill="#7d8585"/><path d="M87 13h1v1h-1zm132 6h1v1h-1zm-102 6h101v1H117zm101 0h1v1h-1zm-33 42h1v1h-1zm-99 38h1v1h-1zm132 1h1v1h-1zm-1 2h1v1h-1z" fill="#a4eee1"/><path d="M105 37h1v1h-1zm0 18h1v1h-1zm12 12h67v1h-67zm67 0h1v1h-1zm28 46h1v1h-1z" fill="#adf1e5"/><path d="M22 126h1v1h-1zm120 4h1v1h-1zm-121 1h1v1h-1zm167 0h1v1h-1zm6 0h1v1h-1zm15 0h1v1h-1zm18 3h1v1h-1zm-207 5h1v1h-1zm82 0h1v1h-1zm183 1h1v1h-1zm-136 2h1v1h-1zm-121 1h1v1h-1zm2 4h1v1h-1zm61 0h1v1h-1zm0 4h1v1h-1zm-44 2h1v1h-1zm1 0h1v1h-1zm27 0h4v1h-4zm4 0h1v1h-1zm111 0h1v1h-1zm-37 1h1v1h-1zm-125 1h1v1h-1zm58 2h1v1h-1zm53 0h1v1h-1zm48 1h1v1h-1zm1 0h1v1h-1z" fill="#3f4c4c"/><path d="M35 126h1v1h-1zm108 0h1v1h-1zm8 0h1v1h-1zm141 1h1v1h-1zm-103 9h1v1h-1zm-79 1h1v1h-1zm178 1h1v1h-1zm-58 1h1v1h-1zm-82 1h1v1h-1zm-135 4h1v1h-1zm279 2h1v1h-1zm-115 1h1v1h-1zm116 1h1v1h-1zm-240 1h1v1h-1zm241 1h1v1h-1zm-242 1h1v1h-1zm56 1h1v1h-1zM6 153h1v1H6zm6 5h1v1h-1zm142 0h1v1h-1zm19 0h1v1h-1z" fill="#929898"/><path d="M13 127h1v1h-1zm55 0h1v1h-1zm14 0h1v1h-1zm23 0h1v1h-1zm39 0h1v1h-1zm6 0h1v1h-1zm1 0h1v2h-1zm29 0h1v1h-1zm107 0h1v1h-1zm1 0h1v1h-1zm-252 1h1v20h-1zm148 0h1v1h-1zm90 0h1v28h-1zm-246 1h1v1h-1zm60 0h1v1h-1zm18 0h1v1h-1zm37 0h1v1h-1zm8 0h1v1h-1zm-135 1h1v1h-1zm12 0h1v1h-1zm-20 1h1v1H8zm14 0h1v1h-1zm259 0h1v1h-1zM7 132h1v1H7zm16 0h1v1h-1zm119 0h1v1h-1zm10 0h1v1h-1zm20 0h1v7h-1zm9 1h1v1h-1zm-98 1h1v1h-1zm99 0h1v1h-1zm6 0h1v1h-1zm-164 1h1v1h-1zm117 0h1v1h-1zm4 0h1v1h-1zm3 0h1v1h-1zm5 0h1v1h-1zm35 0h1v1h-1zm-71 1h1v1h-1zm4 0h1v1h-1zm-38 1h1v1h-1zm33 0h1v1h-1zm66 0h1v1h-1zm-62 1h1v1h-1zm20 0h1v1h-1zm14 0h1v1h-1zm75 0h1v1h-1zm-211 1h1v1h-1zm68 0h1v1h-1zm86 0h1v1h-1zm8 0h1v1h-1zM9 140h1v1H9zm101 0h1v1h-1zm5 0h1v1h-1zm141 0h8v1h-8zm8 0h1v1h-1zm23 0h1v1h-1zm-277 1h1v1h-1zm92 0h1v1h-1zm3 0h1v1h-1zm34 0h1v1h-1zm16 0h1v1h-1zm-128 2h1v1h-1zm48 0h1v1h-1zm5 0h1v1h-1zm31 0h1v1h-1zm-83 1h1v1h-1zm46 0h1v1h-1zm32 0h1v1h-1zm32 0h1v1h-1zm-1 1h1v2h-1zm20 0h1v1h-1zm69 0h1v1h-1zm58 0h1v1h-1zm-255 1h1v1h-1zm113 0h1v1h-1zm30 0h1v10h-1zm-55 1h1v1h-1zm20 0h1v1h-1zm6 0h1v1h-1zm-113 1h1v2h-1zm6 0h1v1h-1zm191 0h1v1h-1zm-217 1h1v1h-1zm1 0h1v1h-1zm12 0h1v1h-1zm19 0h1v1h-1zm66 0h1v1h-1zm-78 1h1v1h-1zm106 0h1v1h-1zm44 1h1v1h-1zm-151 1h1v1h-1zm8 0h1v1h-1zm46 0h1v1h-1zm205 0h1v1h-1zm-239 1h1v1h-1zm86 0h1v1h-1zm163 0h1v1h-1zm-164 1h1v1h-1zm97 0h1v1h-1zm-204 1h1v1h-1zm87 0h1v1h-1zm40 0h1v1h-1zm18 1h1v1h-1zm102 0h1v1h-1zm-249 1h1v1h-1zm18 0h1v1h-1zm25 0h1v1h-1zm15 0h1v1h-1zm30 0h1v1h-1zm25 0h1v1h-1zm47 0h1v1h-1z" fill="#334141"/><g fill="#3a4747"><path d="M15 127h7v2h-7zm7 0h1v3h-1zm269 0h1v14h-1z"/><path d="M12 128h13v1H12zm13 0h2v7h-2zm2 0h1v6h-1zm10 0h4v23h-4zm4 0h1v28h-1zm14 0h4v24h-4zm4 0h1v22h-1zm9 0h18v2H68zm18 0h1v10h-1zm12 0h7v7h-7zm7 0h1v12h-1zm16 0h6v7h-6zm6 0h1v28h-1zm17 0h6v4h-6zm6 0h1v14h-1zm17 0h16v2h-16zm16 0h1v15h-1zm12 0h13v1h-13zm13 0h1v2h-1zm8 0h6v7h-6zm6 0h1v8h-1zm14 0h3v28h-3zm3 0h1v28h-1zm9 0h18v2h-18zm18 0h1v2h-1zm9 0h16v2h-16z"/><path d="M10 129h16v1H10zm77 0h1v9h-1zm33 0h7v6h-7zm64 0h1v12h-1zm1 0h1v12h-1zm10 0h13v1h-13zm28 0h1v9h-1zm69 0h1v12h-1zm1 0h1v11h-1zM9 130h6v1H9zm6 0h1v1h-1zm6 0h6v1h-6z"/><path d="M68 130h20v1H68zm20 0h1v7h-1zm18 0h1v13h-1zm37 0h9v2h-9zm9 0h1v1h-1zm15 0h19v1h-19zm19 0h1v10h-1zm10 0h12v1h-12zm12 0h1v1h-1zm40 0h18v1h-18zm18 0h1v1h-1zm9 0h19v1h-19zm19 0h1v9h-1zM9 131h5v1H9zm5 0h1v1h-1zm9 0h5v1h-5zm5 0h1v3h-1zm40 0h6v25h-6zm6 0h1v1h-1zm8 0h6v1h-6zm85 0h5v25h-5zm5 0h1v1h-1z"/><path d="M180 131h7v1h-7zm7 0h1v7h-1zm11 0h7v1h-7zm7 0h1v1h-1zm19 0h1v9h-1zm24 0h6v25h-6zm6 0h1v1h-1zm21 0h5v25h-5zm5 0h1v1h-1zm8 0h6v1h-6zM8 132h5v5H8zm5 0h1v1h-1zm11 0h4v1h-4zm59 0h6v1h-6zm6 0h1v3h-1zm30 0h8v3h-8zm24 0h8v1h-8zm8 0h1v13h-1zm29 0h7v1h-7zm20 0h4v24h-4zm4 0h1v24h-1zm85 0h6v1h-6zm6 0h1v5h-1zm-271 1h4v1h-4zm60 0h5v4h-5zm23 0h1v12h-1zm35 0h3v5h-3z"/><path d="M145 133h7v1h-7zm7 0h1v17h-1zm30 0h5v1h-5zm43 0h1v9h-1zm65 0h5v1h-5zm-263 1h1v1h-1zm1 0h1v1h-1zm90 0h9v1h-9zm30 0h4v1h-4zm78 0h1v10h-1zm64 0h5v1h-5zm-265 1h1v1h-1zm1 0h1v1h-1zm57 0h6v1h-6zm6 0h1v1h-1zm9 0h9v1h-9zm20 0h9v1h-9zm31 0h3v3h-3z"/><path d="M216 135h10v1h-10zm-203 1h1v6h-1zm12 0h1v1h-1zm73 0h3v20h-3zm3 0h1v20h-1zm3 0h4v1h-4zm4 0h1v12h-1zm10 0h2v4h-2zm2 0h1v1h-1zm4 0h3v20h-3zm17 0h3v5h-3zm12 0h1v15h-1zm63 0h4v20h-4zm4 0h8v1h-8zm8 0h1v12h-1z"/><path d="M8 137h6v1H8zm6 0h1v7h-1zm70 0h4v1h-4zm4 0h1v1h-1zm29 0h3v3h-3zm3 0h1v1h-1zm107 0h1v9h-1zm63 0h5v2h-5zm5 0h1v1h-1z"/><path d="M9 138h6v1H9zm6 0h1v5h-1zm68 0h4v1h-4zm4 0h1v1h-1zm22 0h1v13h-1zm1 0h1v1h-1zm34 0h1v1h-1zm5 0h4v1h-4zm33 0h5v2h-5zm5 0h1v1h-1zm36 0h5v1h-5z"/><path d="M9 139h8v1H9zm8 0h1v5h-1zm57 0h1v4h-1zm8 0h3v1h-3zm3 0h1v1h-1zm38 0h4v17h-4zm16 0h4v1h-4zm15 0h1v15h-1zm27 0h5v2h-5zm108 0h5v1h-5zm5 0h1v1h-1z"/><path d="M10 140h10v1H10zm10 0h1v5h-1zm55 0h8v2h-8zm8 0h1v4h-1zm21 0h5v1h-5zm12 0h3v3h-3zm3 0h1v1h-1zm21 0h3v4h-3zm32 0h1v5h-1zm8 0h6v1h-6zm6 0h1v1h-1zm38 0h5v1h-5zm5 0h1v10h-1zm25 0h1v4h-1zm26 0h1v5h-1zm8 0h5v1h-5zm5 0h1v1h-1z"/><path d="M11 141h11v1H11zm11 0h1v5h-1zm88 0h1v12h-1zm33 0h1v1h-1zm30 0h1v4h-1zm4 0h8v1h-8zm8 0h1v1h-1zm70 0h9v2h-9zm9 0h1v2h-1zm21 0h7v1h-7zm7 0h1v1h-1z"/><path d="M12 142h13v1H12zm13 0h1v14h-1zm50 0h9v1h-9zm9 0h1v3h-1zm55 0h3v8h-3zm11 0h5v1h-5zm5 0h1v14h-1zm19 0h9v1h-9zm51 0h5v1h-5zm5 0h1v9h-1zm51 0h9v2h-9zm9 0h1v1h-1z"/><path d="M15 143h11v1H15zm11 0h1v12h-1zm48 0h1v1h-1zm8 0h4v1h-4zm4 0h1v13h-1zm19 0h5v1h-5zm10 0h3v3h-3zm3 0h1v1h-1zm56 0h9v1h-9zm9 0h1v1h-1zm72 0h9v1h-9zm9 0h1v1h-1zm-250 1h1v1h-1z"/><path d="M17 144h10v1H17zm10 0h1v10h-1zm56 0h5v1h-5zm5 0h1v10h-1zm54 0h1v1h-1zm32 0h7v1h-7zm7 0h1v8h-1zm45 0h5v1h-5zm5 0h1v9h-1zm23 0h1v1h-1zm27 0h8v1h-8zm8 0h1v9h-1z"/><path d="M20 145h8v1h-8zm8 0h1v8h-1zm56 0h5v1h-5zm5 0h1v8h-1zm18 0h5v1h-5zm5 0h1v11h-1zm26 0h3v6h-3zm13 0h5v5h-5zm5 0h1v11h-1zm16 0h1v1h-1zm1 0h1v1h-1zm4 0h5v1h-5zm5 0h1v9h-1zm98 0h1v1h-1zm1 0h1v1h-1zm4 0h4v1h-4zm-263 1h6v1h-6zm63 0h4v8h-4zm26 0h1v10h-1zm3 0h3v2h-3zm3 0h1v1h-1zm61 0h4v1h-4zm49 0h4v1h-4zm59 0h4v1h-4zm4 0h1v9h-1z"/><path d="M23 147h6v1h-6zm6 0h1v4h-1zm61 0h1v4h-1zm23 0h3v4h-3zm29 0h1v3h-1zm37 0h4v1h-4zm4 0h1v8h-1zm49 0h1v8h-1zm55 0h4v2h-4zm4 0h1v8h-1zm-267 1h5v1h-5z"/><path d="M108 148h8v1h-8zm8 0h1v1h-1zm21 0h20v2h-20zm20 0h1v8h-1zm22 0h6v1h-6zm6 0h1v8h-1zm43 0h5v2h-5zm5 0h6v8h-6zm-209 1h5v4h-5zm60 0h6v1h-6zm96 0h4v1h-4zm4 0h1v7h-1zm103 0h5v1h-5zm5 0h1v7h-1zM7 150h4v1H7zm4 0h1v6h-1zm43 0h5v2h-5zm5 0h1v1h-1zm78 0h20v1h-20z"/><path d="M180 150h5v1h-5zm48 0h11v1h-11zm60 0h4v1h-4zM7 151h4v1H7zm16 0h6v2h-6zm6 0h1v1h-1zm8 0h5v1h-5zm5 0h1v5h-1zm48 0h1v1h-1zm18 0h7v1h-7zm7 0h1v1h-1zm21 0h4v2h-4zm4 0h1v1h-1zm13 0h5v1h-5zm5 0h1v5h-1zm72 0h9v1h-9zm58 0h5v1h-5zm5 0h1v5h-1zM8 152h4v2H8zm4 0h1v4h-1z"/><path d="M38 152h5v1h-5zm5 0h1v4h-1zm10 0h5v2h-5zm5 0h1v1h-1zm26 0h5v2h-5zm29 0h1v4h-1zm1 0h1v2h-1zm67 0h5v1h-5zm5 0h1v4h-1zm108 0h1v5h-1zm-281 1h1v3h-1zm10 0h5v1h-5zm5 0h1v1h-1z"/><path d="M38 153h6v1h-6zm6 0h1v5h-1zm8 0h5v2h-5zm22 0h1v3h-1zm9 0h6v1h-6zm6 0h1v1h-1zm21 0h4v1h-4zm26 0h3v3h-3zm3 0h1v1h-1zm48 0h1v4h-1zm11 0h7v3h-7zm7 0h1v3h-1zm26 0h8v1h-8zm23 0h1v3h-1zm35 0h6v1h-6zm6 0h2v4h-2zm2 0h1v3h-1zM8 154h6v1H8zm6 0h1v3h-1zm8 0h5v1h-5zm5 0h1v1h-1z"/><path d="M39 154h18v1H39zm18 0h1v1h-1zm18 0h13v1H75zm13 0h1v2h-1zm26 0h1v1h-1zm21 0h3v2h-3zm19 0h5v1h-5zm5 0h1v2h-1zm23 0h7v1h-7zm7 0h1v2h-1zm17 0h1v2h-1zm49 0h13v2h-13zm13 0h1v3h-1zM9 155h17v1H9zm17 0h1v1h-1zm14 0h16v1H40zm16 0h1v1h-1zm19 0h12v1H75zm12 0h1v1h-1zm96 0h6v1h-6z"/><path d="M195 155h13v1h-13zm13 0h1v1h-1zm24 0h7v1h-7zm58 0h7v1h-7zm-279 1h14v1H11zm14 0h1v1h-1zm16 0h13v1H41zm13 0h1v1h-1zm14 0h18v1H68zm18 0h2v1h-2zm2 0h1v1h-1zm10 0h3v1h-3zm3 0h1v1h-1zm10 0h2v1h-2zm2 0h1v1h-1zm10 0h4v1h-4zm4 0h1v1h-1zm8 0h3v1h-3zm3 0h1v1h-1zm17 0h4v1h-4zm4 0h1v1h-1zm8 0h4v1h-4zm4 0h1v1h-1zm13 0h5v1h-5zm5 0h1v1h-1zm6 0h13v1h-13zm13 0h1v1h-1zm8 0h3v1h-3zm3 0h1v1h-1zm14 0h6v1h-6zm6 0h1v1h-1zm9 0h20v1h-20zm27 0h4v1h-4zm4 0h1v1h-1zm13 0h6v1h-6zm6 0h1v1h-1zm-284 1h8v1h-8zm8 0h1v1h-1zm23 0h7v1h-7zm7 0h1v1h-1zm135 0h1v1h-1zm1 0h1v1h-1zm80 0h1v1h-1zm23 0h1v1h-1zm3 0h2v1h-2zm2 0h2v1h-2zm2 0h1v1h-1zm-276 1h1v1h-1zm22 0h1v1h-1z"/></g><path d="M95 6h1v1h-1zm-4 2h1v1h-1zm127 6h1v1h-1zm1 4h1v1h-1zm0 7h1v1h-1zm-20 60h1v1h-1zm-2 5h1v1h-1zm-3 3h1v1h-1zm-6 2h1v1h-1zm31 8h1v1h-1zM98 115h1v1h-1zm108 0h1v1h-1z" fill="#c7f5ed"/><path d="M17 125h2v1h-2zm2 0h1v1h-1zm24 1h1v1h-1zm247 0h1v1h-1zm-183 2h1v1h-1zm35 0h1v1h-1zm152 0h1v1h-1zm-69 1h1v1h-1zm70 0h1v1h-1zm-154 2h1v1h-1zm-126 1h1v1h-1zm174 0h1v1h-1zm-49 2h1v1h-1zm-24 1h1v1h-1zM6 136h1v1H6zm13 2h1v1h-1zm56 0h1v1h-1zm36 1h1v1h-1zm110 0h1v1h-1zm75 0h1v1h-1zm-74 1h1v1h-1zm-137 1h1v1h-1zm102 0h1v1h-1zm-99 1h1v1h-1zm24 0h1v1h-1zm74 0h1v1h-1zm-73 2h1v1h-1zm-83 1h1v1h-1zm61 0h1v1h-1zm93 0h1v1h-1zm50 1h1v1h-1zm-181 1h1v1h-1zm-46 1h1v1H7zm54 1h1v1h-1zm20 3h1v1h-1zm-64 1h2v1h-2zm2 0h1v1h-1zm210 0h1v1h-1zm-49 1h1v1h-1zm-27 2h1v1h-1zm136 0h1v1h-1zm1 1h1v1h-1zm-205 1h1v1h-1zm25 0h1v1h-1zm74 0h1v1h-1zm-168 1h1v1h-1zm30 0h1v1h-1z" fill="#cccfcf"/><path d="M21 126h1v1h-1zm3 1h1v1h-1zm12 0h1v1h-1zm47 0h1v1h-1zm1 0h1v1h-1zm97 0h1v1h-1zm93 0h1v1h-1zm15 0h1v1h-1zm-229 1h1v19h-1zm37 0h1v28h-1zm31 0h1v28h-1zm81 0h1v1h-1zm26 0h1v16h-1zm5 0h1v28h-1zm7 0h1v28h-1zm20 0h1v2h-1zm25 0h1v1h-1zm1 0h1v1h-1zm-84 1h1v1h-1zm-189 1h1v1h-1zm99 0h1v1h-1zm148 0h1v1h-1zm-252 1h1v1h-1zm60 0h4v1h-4zm4 0h2v1h-2zm2 0h1v1h-1zm93 0h3v1h-3zm3 0h1v1h-1zm105 0h3v1h-3zm3 0h2v1h-2zm2 0h1v1h-1zm8 0h1v1h-1zm-281 1h1v1h-1zm15 0h1v1h-1zm61 0h1v1h-1zm115 0h1v20h-1zm49 0h1v1h-1zm26 0h1v1h-1zm-257 1h1v1h-1zm95 0h1v1h-1zm23 0h1v1h-1zm47 0h1v1h-1zm101 0h1v1h-1zm-181 1h1v1h-1zm-79 1h1v1h-1zm153 0h1v1h-1zm-168 1h1v1h-1zm69 0h1v1h-1zm57 0h1v1h-1zm5 0h1v1h-1zm3 0h1v1h-1zm34 0h1v1h-1zm6 0h1v1h-1zm-79 1h1v1h-1zm-93 1h1v1h-1zm66 0h1v1h-1zm6 0h1v1h-1zm16 0h1v1h-1zm77 0h1v1h-1zm39 0h2v1h-2zm2 0h1v1h-1zm67 0h1v1h-1zm-209 1h1v1h-1zm75 0h1v1h-1zm32 0h1v1h-1zm42 0h1v1h-1zm59 0h1v1h-1zm-267 1h1v1h-1zm64 0h1v1h-1zm64 0h1v1h-1zm30 0h1v1h-1zm115 0h1v1h-1zm-183 1h1v1h-1zm33 0h1v1h-1zm76 0h1v15h-1zm10 0h1v1h-1zm63 0h1v1h-1zm-207 1h1v1h-1zm16 0h1v14h-1zm17 0h1v1h-1zm65 0h1v1h-1zm1 0h1v1h-1zm46 0h1v1h-1zm-218 1h1v1h-1zm63 0h3v1h-3zm3 0h1v1h-1zm64 0h1v1h-1zm7 0h1v1h-1zm81 0h1v1h-1zm-49 1h1v1h-1zm50 0h1v1h-1zm3 0h1v1h-1zm-217 1h1v1h-1zm65 0h1v1h-1zm93 0h1v1h-1zm56 0h1v1h-1zm22 0h1v1h-1zm29 0h1v1h-1zm-165 1h1v1h-1zm167 0h1v1h-1zm-263 1h1v1h-1zm38 0h1v1h-1zm24 0h1v1h-1zm23 0h1v1h-1zm71 0h1v1h-1zm49 0h1v1h-1zm6 0h2v1h-2zm2 0h1v1h-1zm57 0h1v1h-1zm-269 1h1v1h-1zm68 0h1v2h-1zm16 0h1v1h-1zm185 0h1v1h-1zM9 149h1v1H9zm27 0h1v2h-1zm18 0h1v1h-1zm125 0h1v1h-1zm-167 1h1v1h-1zm79 0h1v1h-1zm25 0h1v1h-1zm63 0h1v1h-1zm108 0h1v1h-1zm6 0h1v1h-1zm-281 1h1v1h-1zm24 0h1v1h-1zm7 0h1v1h-1zm10 0h1v1h-1zm89 0h9v1h-9zm9 0h1v1h-1zm35 0h1v1h-1zm101 0h1v1h-1zm-274 1h1v1h-1zm39 0h1v1h-1zm57 0h1v1h-1zm96 0h1v1h-1zm49 0h1v1h-1zm41 0h1v1h-1zM7 153h1v1H7zm15 0h1v1h-1zm23 0h1v1h-1zm35 0h1v1h-1zm108 0h1v1h-1zm1 0h1v1h-1zM7 154h1v1H7zm9 0h1v1h-1zm4 0h1v1h-1zm8 0h1v1h-1zm132 0h1v1h-1zm30 0h1v1h-1zm99 0h1v1h-1zm-250 1h1v1h-1zm50 0h1v1h-1zm50 0h1v1h-1zm21 0h1v1h-1zm22 0h1v1h-1zm8 0h1v1h-1zm19 0h1v1h-1zm80 0h1v1h-1zm9 0h1v1h-1zm-201 1h1v1h-1zm5 0h1v1h-1zm8 0h1v1h-1zm18 0h1v1h-1zm55 0h1v1h-1zm26 0h1v1h-1zm11 0h1v1h-1zm12 0h1v1h-1zm8 0h1v1h-1zm7 0h1v1h-1zm-235 1h1v1h-1zm41 0h1v1h-1zm31 0h1v1h-1zm27 0h1v1h-1zm43 0h1v1h-1zm18 0h1v1h-1zm60 0h1v1h-1zm42 0h1v1h-1zm-253 1h1v1h-1zm30 0h1v1h-1z" fill="#2e3d3d"/><path d="M37 126h4v1h-4zm4 0h1v1h-1zm14 0h4v1h-4zm4 0h1v1h-1zm9 0h13v1H68zm13 0h1v1h-1zm17 0h6v1h-6zm6 0h1v1h-1zm17 0h6v1h-6zm6 0h1v1h-1zm18 0h4v1h-4zm4 0h1v1h-1zm18 0h12v1h-12zm12 0h1v1h-1zm16 0h13v1h-13zm13 0h1v1h-1zm8 0h5v1h-5zm5 0h1v1h-1zm15 0h3v1h-3zm3 0h1v1h-1zm9 0h18v1h-18zm18 0h1v1h-1zm9 0h11v1h-11zm11 0h1v1h-1zm-178 6h1v1h-1zm-80 4h1v1h-1zm94 2h1v1h-1zm174 0h1v1h-1zm-151 1h1v1h-1zm120 0h1v1h-1zm-238 3h1v1h-1zm87 0h1v1h-1zm179 0h1v1h-1zm-264 2h1v1h-1zm90 0h1v1h-1zm38 0h1v1h-1zm-14 1h1v1h-1zm-52 1h1v1h-1zm68 4h1v1h-1zm-108 2h1v1h-1zm40 0h1v1h-1zm25 0h1v1h-1zm25 0h1v1h-1zm-102 4h1v1h-1zm94 0h1v1h-1zm-123 1h1v1h-1zm45 0h1v1h-1zm128 0h1v1h-1zm-116 1h1v1h-1zm226 0h1v1h-1z" fill="#666f6f"/><path d="M96 126h1v1h-1zm33 0h1v1h-1zm-112 5h2v1h-2zm2 0h1v1h-1zm89 0h1v1h-1zm119 2h1v1h-1zM6 135h1v1H6zm183 2h1v1h-1zm-33 3h1v1h-1zm1 3h1v1h-1zm135 0h1v1h-1zm-210 2h1v1h-1zm37 0h1v1h-1zm-66 3h1v1h-1zm232 0h1v1h-1zm-150 1h1v1h-1zm93 2h1v1h-1zm-168 1h1v1h-1zm74 0h1v1h-1zm162 0h1v1h-1zm-205 1h1v1h-1zm25 0h1v1h-1zM7 155h1v1H7zm126 0h1v1h-1zm-91 3h1v1h-1zm87 0h1v1h-1zm33 0h1v1h-1z" fill="#bbbebe"/><path d="M106 126h1v1h-1zm-10 1h1v1h-1zm-87 1h1v1H9zm201 3h1v1h-1zm-129 1h1v1h-1zm108 1h1v1h-1zm-80 1h1v1h-1zm38 2h1v1h-1zm82 1h1v1h-1zm-8 5h1v1h-1zm13 0h1v1h-1zm-173 5h1v1h-1zm45 0h1v1h-1zm121 2h1v1h-1zm59 1h1v1h-1zm-76 3h1v1h-1zm-19 2h1v1h-1zm-95 2h1v1h-1zm136 1h1v1h-1z" fill="#a5aaaa"/><path d="M116 25h1v1h-1zm-11 10h1v1h-1zm90 21h1v1h-1zm-90 1h1v1h-1zm91 0h1v1h-1zm-90 3h1v1h-1zm2 3h1v1h-1zm1 1h1v1h-1zm3 2h1v1h-1zm4 1h1v1h-1zm74 28h1v1h-1z" fill="#8aeada"/><path d="M20 126h1v1h-1zm-8 1h1v1h-1zm30 0h1v1h-1zm43 0h1v1h-1zm81 0h1v1h-1zm28 0h1v1h-1zm21 0h1v1h-1zm8 0h1v1h-1zm67 0h1v1h-1zm-184 1h1v1h-1zm-97 1h1v1H9zm110 0h1v1h-1zm175 0h1v1h-1zm-107 1h1v1h-1zm-158 1h1v1h-1zm196 0h1v1h-1zm30 0h11v1h-11zm11 0h1v1h-1zm-192 1h1v1h-1zm114 0h1v1h-1zM7 133h1v1H7zm146 0h1v1h-1zm143 0h1v1h-1zm-206 1h1v1h-1zm0 1h1v1h-1zm19 1h1v1h-1zM7 137h1v1H7zm282 0h1v1h-1zm-144 1h1v1h-1zm3 0h1v1h-1zm-126 2h1v1h-1zm208 0h1v1h-1zm35 0h1v1h-1zm21 0h1v1h-1zm-148 2h1v1h-1zm-126 1h1v1h-1zm76 0h1v1h-1zm31 0h1v1h-1zm24 1h1v1h-1zm7 0h1v1h-1zm75 0h1v1h-1zm30 0h9v1h-9zm9 0h1v1h-1zm-235 1h1v1h-1zm61 0h1v1h-1zm16 0h1v1h-1zm-86 1h1v1h-1zm157 0h1v1h-1zm-60 2h1v1h-1zm41 0h1v1h-1zM6 149h1v1H6zm78 1h1v1h-1zm51 1h1v1h-1zm-61 1h1v1h-1zm106 0h1v1h-1zm-151 1h1v1h-1zm21 0h1v1h-1zm40 0h1v1h-1zm50 0h1v1h-1zm13 0h1v1h-1zm77 0h1v1h-1zm25 0h12v1h-12zm12 0h1v1h-1zm21 0h1v1h-1zm-94 1h1v1h-1zm104 0h1v1h-1zM8 155h1v1H8zm49 0h1v1h-1zm174 0h1v1h-1zM9 156h1v1H9zm31 0h1v1h-1zm74 0h1v1h-1zm176 0h1v1h-1zm-279 1h1v1h-1zm43 0h1v1h-1zm31 0h1v1h-1zm99 0h1v1h-1zm10 0h1v1h-1zm21 0h1v1h-1zm65 0h1v1h-1z" fill="#213333"/><path d="M83 126h1v1h-1zm140 0h1v1h-1zm50 0h1v1h-1zm-87 2h1v1h-1zm-166 3h1v1h-1zm10 1h1v1h-1zm257 0h1v1h-1zm-170 1h1v1h-1zm-103 1h1v1h-1zm167 0h1v1h-1zm-158 1h1v1h-1zm123 0h1v1h-1zm-130 2h1v1h-1zm106 0h1v1h-1zm-1 1h1v1h-1zm-100 1h1v1h-1zm210 2h1v1h-1zm-82 2h1v1h-1zm35 0h1v1h-1zm48 0h1v1h-1zm-157 1h4v1h-4zm4 0h1v1h-1zm26 0h1v1h-1zm38 2h1v1h-1zm83 1h1v1h-1zm-183 2h1v1h-1zm2 3h1v1h-1zm97 0h9v1h-9zm9 0h1v1h-1zm40 2h1v1h-1zm-38 1h1v1h-1zm-100 3h1v1h-1z" fill="#8d9393"/><path d="M165 126h1v1h-1zm17 0h1v1h-1zm-139 1h1v20h-1zm109 1h1v1h-1zm1 3h1v1h-1zm73 0h1v1h-1zm55 1h1v1h-1zM6 134h1v1H6zm148 0h1v1h-1zm-15 3h1v1h-1zm8 0h1v1h-1zm8 0h1v1h-1zm-40 1h1v1h-1zm6 1h1v1h-1zm17 1h1v1h-1zm83 0h1v1h-1zm45 0h1v4h-1zm-162 2h1v1h-1zm119 0h1v1h-1zm-86 1h1v1h-1zm129 1h1v1h-1zm-251 1h1v1h-1zm219 0h1v1h-1zm-98 1h1v1h-1zm-93 1h1v1h-1zm-8 3h1v1h-1zm72 0h1v1h-1zm-93 2h1v1h-1zm285 1h1v1h-1zm-108 3h1v1h-1zm-59 2h1v1h-1zm33 0h1v1h-1zm-148 1h2v1h-2zm2 0h1v1h-1zm28 0h2v1h-2zm2 0h1v1h-1z" fill="#c1c5c5"/><path d="M67 127h1v30h-1zm19 0h1v1h-1zm20 0h1v1h-1zm89 4h1v1h-1zm1 0h1v1h-1zm10 0h2v1h-2zm2 0h1v1h-1zm-182 5h1v1h-1zm77 0h1v1h-1zm18 1h1v1h-1zm-19 1h1v1h-1zm20 1h1v1h-1zm51 1h1v1h-1zm4 0h1v1h-1zM9 141h1v1H9zm141 4h1v1h-1zm141 0h1v1h-1zm-185 1h1v1h-1zm78 0h1v1h-1zm101 1h1v1h-1zm1 2h1v1h-1zm-100 1h1v1h-1zm-156 1h1v1h-1zm-24 1h1v1H6zm188 1h1v1h-1zm15 0h1v1h-1zm-142 4h1v1h-1zm-15 1h1v1h-1zm242 0h2v1h-2zm2 0h1v1h-1z" fill="#475252"/><path d="M22 125h1v1h-1zm192 1h1v32h-1zm27 0h1v32h-1zm5 0h1v32h-1zm-219 1h1v1h-1zm266 0h1v1h-1zm-204 1h1v1h-1zm19 2h1v1h-1zm33 0h1v1h-1zm12 0h1v1h-1zM6 132h1v1H6zm15 0h1v1h-1zm70 0h1v1h-1zm-16 1h1v3h-1zm16 2h1v1h-1zm-16 1h1v1h-1zm80 0h1v1h-1zm74 0h1v1h-1zm-212 1h1v1h-1zm9 0h1v1h-1zm89 0h1v1h-1zm115 1h1v1h-1zm-141 1h1v1h-1zm49 0h1v1h-1zm18 0h1v1h-1zm21 0h1v1h-1zm108 0h1v1h-1zm-182 1h1v1h-1zm9 1h1v1h-1zm-84 1h1v1h-1zm129 0h1v1h-1zm137 0h1v1h-1zm-265 1h1v1h-1zm75 0h1v1h-1zm81 0h1v1h-1zm-173 1h1v1h-1zm221 0h1v1h-1zm58 0h1v1h-1zm-277 1h1v1h-1zm122 0h1v1h-1zm130 0h1v1h-1zm-191 1h1v5h-1zm44 0h1v1h-1zm164 0h1v1h-1zm-200 1h1v1h-1zm9 0h1v1h-1zm43 1h1v1h-1zm-113 1h1v1h-1zm-9 1h1v1h-1zm48 0h1v1h-1zm126 0h1v1h-1zm-112 1h1v1h-1zm17 0h1v1h-1zm42 0h1v1h-1zm-87 1h1v1h-1zm1 0h1v1h-1zm28 0h3v1h-3zm3 0h1v1h-1zm111 0h1v1h-1zm107 0h2v1h-2zm2 0h1v1h-1zm-30 1h1v5h-1zm-153 1h1v1h-1zm-87 1h1v1h-1zm259 0h1v1h-1zm-107 1h1v1h-1zm118 0h1v1h-1zm-274 2h1v1h-1zm16 0h1v1h-1zm173 0h1v1h-1zm27 0h1v1h-1zm5 0h1v1h-1zm23 0h1v1h-1zm22 0h1v1h-1zm-269 1h1v1h-1z" fill="#f5f6f6"/><path fill="#002020" d="M265 144h1v1h-1z"/><path d="M23 126h1v1h-1zm13 0h1v1h-1zm24 0h1v1h-1zm37 0h1v1h-1zm8 0h1v1h-1zm15 0h1v1h-1zm8 0h1v1h-1zm16 0h1v1h-1zm6 0h1v1h-1zm16 0h1v1h-1zm43 0h1v1h-1zm13 0h1v1h-1zm13 0h1v1h-1zm5 0h1v1h-1zm7 0h1v1h-1zm20 0h1v1h-1zm7 0h1v1h-1zm-50 2h1v1h-1zm-195 2h1v1h-1zm61 1h1v1h-1zm-68 1h1v1h-1zm124 2h1v1h-1zm-132 1h1v1h-1zm130 7h1v1h-1zm-128 3h1v1h-1zm5 2h1v1h-1zm137 0h1v1h-1zm-75 4h1v1h-1zm69 1h1v1h-1zm-137 1h1v1h-1zm6 0h1v1h-1zm139 0h1v1h-1zm-122 2h1v1h-1zm-15 3h1v1h-1zm245 0h1v1h-1zm29 0h1v1h-1z" fill="#616b6b"/><path d="M25 126h1v1h-1zm94 0h1v1h-1zm-90 3h1v1h-1zm47 3h3v1h-3zm3 0h1v1h-1zm96 0h2v1h-2zm2 0h1v1h-1zm105 0h3v1h-3zm3 0h1v1h-1zm-105 1h1v1h-1zm117 0h1v1h-1zm-215 1h1v1h-1zm-76 3h1v1H6zm17 0h1v1h-1zm1 0h1v1h-1zm165 1h1v1h-1zm-44 3h1v1h-1zm87 1h1v1h-1zm-129 1h1v14h-1zm17 0h1v1h-1zm24 1h1v1h-1zm111 1h10v1h-10zm10 0h1v1h-1zm28 2h1v1h-1zm-262 1h1v2h-1zm61 0h1v1h-1zm14 0h1v1h-1zm-75 2h1v1h-1zm147 0h1v1h-1zm-61 1h1v1h-1zm72 1h1v1h-1zm66 0h13v1h-13zm13 0h1v1h-1zM6 154h1v1H6zm155 0h1v1h-1zm-58 3h1v1h-1zm59 0h1v1h-1zm-111 2h1v1h-1z" fill="#eceded"/><g fill="#fff"><path d="M0 0h304v4H0zm304 0h1v164h-1zM0 4h304v1H0zm0 1h97v1H0zm97 0h1v1h-1zm109 0h98v1h-98zM0 6h93v1H0zm93 0h1v1h-1zm118 0h93v1h-93zM0 7h92v1H0zm92 0h1v1h-1zm121 0h91v1h-91zM0 8h90v1H0zm90 0h1v1h-1zm124 0h90v1h-90zM0 9h89v1H0zm89 0h1v1h-1zm126 0h89v1h-89zM0 10h88v2H0zm88 0h1v1h-1zm128 0h88v1h-88zm1 1h87v1h-87zM0 12h87v1H0zm87 0h1v1h-1zm131 0h86v1h-86zM0 13h86v3H0zm86 0h1v1h-1zm132 0h86v1h-86zm1 1h85v1h-85zm0 1h85v1h-85zM0 16h85v108H0zm85 0h1v1h-1zm135 0h84v109h-84z"/><path d="M114 26h190v12H114z"/><path d="M112 27h192v11H112z"/><path d="M111 28h193v10H111z"/><path d="M109 29h195v9H109z"/><path d="M108 30h196v8H108z"/><path d="M107 32h197v6H107z"/><path d="M106 34h198v4H106zm0 4h198v1H106zm0 1h12v19h-12zm12 0h1v27h-1zm1 15h70v12h-70zm70 0h1v40h-1zm1 1h2v39h-2zm2 0h1v38h-1zm1 1h1v37h-1zm1 0h1v36h-1zm1 1h1v34h-1z"/><path d="M106 58h90v1h-90zm90 0h1v32h-1zm-89 1h89v1h-89z"/><path d="M107 60h90v1h-90zm90 0h1v29h-1z"/><path d="M108 61h90v1h-90zm90 0h1v26h-1zm-90 1h90v1h-90zm1 1h89v1h-89zm1 1h88v1h-88zm2 1h86v1h-86zm2 1h84v1h-84zm73 1h11v22h-11zM85 82h1v12h-1z"/><path d="M186 82h12v7h-12z"/><path d="M86 83h112v6H86zm112 4h1v1h-1zM86 89h111v1H86zm111 0h1v1h-1zM86 90h110v1H86zm110 0h1v1h-1zM86 91h109v1H86zm109 0h1v1h-1zM86 92h108v1H86zm108 0h1v1h-1zM86 93h107v1H86zm107 0h1v1h-1zM85 94h106v1H85zm106 0h1v1h-1zM85 104h1v21h-1zm134 1h85v20h-85zm-133 2h1v19h-1z"/><path d="M218 108h86v17h-86zm-131 1h1v17h-1z"/><path d="M217 109h87v16h-87zm-129 1h1v17h-1zm1 1h1v16h-1z"/><path d="M216 111h88v14h-88zm-126 1h1v17h-1z"/><path d="M215 112h89v13h-89zm-124 1h1v18h-1z"/><path d="M213 113h91v12h-91zm-121 1h1v32h-1zm1 0h1v50h-1z"/><path d="M211 114h93v11h-93zm-117 1h2v49h-2zm2 0h1v10h-1z"/><path d="M208 115h96v10h-96z"/><path d="M97 116h207v9H97z"/><path d="M0 124h304v1H0zm0 1h14v1H0zm14 0h1v1h-1zm9 0h281v1H23zm-23 1h11v1H0zm11 0h1v1h-1zm15 0h8v1h-8zm8 0h1v38h-1zm10 0h8v24h-8zm8 0h1v24h-1zm10 0h4v38h-4zm4 0h1v38h-1zm20 0h9v1h-9zm21 0h11v1h-11zm11 0h1v2h-1zm12 0h12v3h-12zm12 0h1v1h-1zm10 0h12v1h-12zm12 0h1v38h-1zm20 0h8v1h-8zm8 0h1v38h-1zm19 0h2v38h-2zm2 0h1v38h-1zm11 0h9v1h-9zm9 0h1v17h-1zm9 0h3v38h-3zm3 0h1v38h-1zm24 0h3v26h-3zm3 0h1v38h-1zm19 0h13v1h-13zM0 127h9v1H0zm9 0h1v1H9zm19 0h6v1h-6zm60 0h7v1h-7zm19 0h11v1h-11zm35 0h1v1h-1zm10 0h12v1h-12zm34 0h6v1h-6zm39 0h8v1h-8zm69 0h10v1h-10zM0 128h8v1H0zm8 0h1v1H8zm21 0h5v1h-5zm79 0h10v1h-10zm10 0h1v1h-1zm35 0h11v1h-11zm34 0h5v1h-5zm38 0h8v1h-8zm70 0h9v1h-9zM0 129h7v2H0zm7 0h1v1H7zm23 0h4v1h-4zm60 0h5v1h-5zm18 0h9v1h-9zm9 0h1v2h-1zm13 0h11v4h-11zm11 0h1v1h-1zm12 0h11v1h-11zm35 0h4v1h-4zm38 0h7v1h-7zm70 0h8v1h-8zm-266 1h4v1h-4zm79 0h8v2h-8zm45 0h10v3h-10zm35 0h3v1h-3zm37 0h7v1h-7zm71 0h7v2h-7zM0 131h6v17H0zm6 0h1v1H6zm25 0h3v16h-3zm60 0h4v1h-4zm26 0h1v1h-1zm72 0h3v1h-3zm38 0h6v1h-6zm-211 1h4v4h-4zm4 0h1v6h-1zm89 0h7v1h-7zm7 0h1v2h-1z"/><path d="M190 132h7v19h-7zm7 0h1v20h-1zm10 0h6v20h-6zm20 0h6v1h-6zm70 0h7v1h-7zm-282 1h6v2h-6zm6 0h1v5h-1zm55 0h5v4h-5zm5 0h1v4h-1zm29 0h6v2h-6zm20 0h10v3h-10zm10 0h1v1h-1zm14 0h10v1h-10zm20 0h5v5h-5zm5 0h1v5h-1zm49 0h5v1h-5zm27 0h17v5h-17zm27 0h5v5h-5zm5 0h1v5h-1zm11 0h6v18h-6zm-276 1h1v4h-1zm94 0h1v1h-1zm39 0h9v1h-9zm25 0h1v3h-1zm48 0h5v1h-5zm60 0h1v3h-1z"/><path d="M15 135h7v1h-7zm95 0h5v1h-5zm5 0h1v1h-1zm40 0h9v1h-9zm74 0h4v1h-4zm-213 1h6v1h-6zm75 0h4v8h-4zm20 0h4v2h-4zm4 0h1v1h-1zm15 0h9v2h-9zm9 0h1v1h-1zm17 0h8v2h-8zm74 0h3v1h-3zm-212 1h4v1h-4zm9 0h7v4h-7zm48 0h6v1h-6zm6 0h1v1h-1zm99 0h1v1h-1zm50 0h3v1h-3zm58 0h1v1h-1zm9 0h7v14h-7zM6 138h1v9H6z"/><path d="M20 138h14v1H20zm70 0h5v5h-5zm21 0h3v1h-3zm3 0h1v1h-1zm16 0h8v4h-8zm8 0h1v1h-1zm8 0h1v7h-1zm10 0h8v1h-8zm18 0h5v1h-5zm5 0h1v1h-1zm52 0h2v1h-2zm24 0h17v1h-17zm27 0h5v1h-5zm5 0h1v1h-1zm-264 1h11v1H23zm89 0h2v1h-2zm2 0h1v1h-1zm33 0h1v6h-1zm10 0h7v2h-7zm17 0h2v1h-2zm2 0h1v1h-1zm13 0h8v12h-8zm42 0h2v1h-2zm36 0h5v12h-5zm15 0h2v1h-2zm2 0h1v1h-1zM7 140h1v7H7zm18 0h9v1h-9z"/><path d="M88 140h7v1h-7zm24 0h1v1h-1zm1 0h1v3h-1zm119 0h1v1h-1zm64 0h8v11h-8zm-269 1h7v1h-7zm60 0h8v1h-8zm16 0h1v1h-1zm18 0h1v23h-1zm36 0h7v1h-7zm31 0h9v10h-9zm34 0h1v23h-1zm10 0h1v1h-1z"/><path d="M295 141h9v9h-9zM8 142h1v5H8zm21 0h5v1h-5zm60 0h6v1h-6zm41 0h7v2h-7zm7 0h1v1h-1zm8 0h3v3h-3zm3 0h1v3h-1zm10 0h6v2h-6zm29 0h10v7h-10zM9 143h1v4H9zm1 0h1v4h-1zm20 0h4v1h-4zm60 0h5v1h-5zm23 0h1v1h-1z"/><path d="M186 143h11v5h-11zm37 0h1v21h-1zm10 0h1v1h-1zm60 0h11v3h-11zm-282 1h1v3h-1zm19 0h4v1h-4zm61 0h4v1h-4zm13 0h1v20h-1zm16 0h1v20h-1zm10 0h6v3h-6zm6 0h1v1h-1zm22 0h6v1h-6z"/><path d="M184 144h13v1h-13zm108 0h12v1h-12zm-280 1h1v2h-1zm1 0h1v4h-1zm62 0h6v1h-6zm6 0h1v6h-1zm63 0h5v1h-5zm5 0h1v1h-1zm10 0h5v2h-5zm26 0h12v1h-12zm39 0h1v19h-1zm68 0h12v1h-12zm-278 1h2v5h-2zm2 0h1v6h-1z"/><path d="M76 146h6v5h-6zm6 0h1v5h-1zm10 0h3v1h-3zm13 0h1v18h-1zm69 0h1v18h-1zm1 0h1v18h-1zm10 0h12v1h-12zm70 0h17v5h-17zm27 0h1v18h-1zm11 0h11v1h-11zM6 147h13v1H6zm13 0h1v5h-1zm12 0h3v1h-3zm88 0h2v17h-2zm11 0h5v3h-5zm5 0h1v1h-1zm24 0h5v1h-5zm17 0h1v17h-1zm49 0h1v17h-1zm58 0h1v17h-1zm1 0h1v17h-1zm10 0h10v1h-10zM0 148h5v16H0zm5 0h1v1H5z"/><path d="M17 148h4v4h-4zm4 0h1v4h-1zm11 0h2v16h-2zm51 0h1v1h-1zm77 0h4v2h-4zm17 0h1v16h-1zm9 0h11v1h-11zm108 0h10v1h-10z"/><path d="M13 149h8v1h-8zm70 0h1v1h-1zm23 0h1v15h-1zm12 0h3v15h-3zm69 0h10v1h-10zm39 0h1v15h-1zm59 0h1v15h-1zm-263 1h1v1h-1zm22 0h8v1h-8zm8 0h1v1h-1zm78 0h4v3h-4zm4 0h1v1h-1zm26 0h4v1h-4zm67 0h1v14h-1zm68 0h9v1h-9zm-281 1h8v1h-8zm8 0h1v1h-1zm9 0h3v13h-3zm14 0h6v1h-6zm6 0h1v1h-1zm10 0h5v13h-5zm15 0h6v1h-6zm6 0h1v1h-1zm25 0h1v13h-1zm54 0h3v2h-3zm17 0h1v13h-1zm10 0h9v1h-9zm67 0h17v1h-17zm41 0h8v1h-8zM5 152h1v12H5zm10 0h6v1h-6zm6 0h1v1h-1zm14 0h1v12h-1zm57 0h3v12h-3z"/><path d="M117 152h4v12h-4zm76 0h4v1h-4zm4 0h1v1h-1zm10 0h6v1h-6zm21 0h1v12h-1zm41 0h3v1h-3zm17 0h1v12h-1zm14 0h4v12h-4zm-240 1h6v11h-6zm70 0h3v3h-3zm3 0h1v1h-1zm9 0h9v11h-9zm9 0h1v11h-1zm10 0h3v1h-3zm18 0h1v11h-1zm91 0h2v11h-2zm-240 1h6v10h-6zm6 0h1v10h-1zm55 0h4v10h-4zm17 0h1v10h-1z"/><path d="M141 154h11v10h-11zm11 0h1v10h-1zm10 0h2v2h-2zm67 0h1v10h-1zm58 0h1v10h-1zM6 155h1v9H6zm31 0h1v9h-1zm22 0h7v9h-7zm57 0h5v9h-5zm64 0h1v9h-1zM7 156h1v8H7z"/><path d="M29 156h9v8h-9zm9 0h1v8h-1zm20 0h8v8h-8zm32 0h5v8h-5zm40 0h2v8h-2zm2 0h1v1h-1zm30 0h2v1h-2zm68 0h1v8h-1zm58 0h1v8h-1zM8 157h1v7H8z"/><path d="M27 157h12v7H27zm12 0h1v7h-1zm18 0h9v7h-9zm31 0h7v7h-7zm21 0h1v7h-1zm6 0h6v7h-6zm25 0h13v7h-13zm13 0h1v7h-1zm10 0h1v7h-1zm18 0h1v7h-1zm1 0h1v7h-1zm107 0h1v7h-1zm10 0h5v7h-5zM9 158h1v6H9zm1 0h1v6h-1z"/><path d="M26 158h14v6H26zm14 0h1v6h-1zm15 0h11v6H55zm31 0h9v6h-9zm97 0h1v6h-1zm48 0h1v6h-1zm59 0h1v6h-1zm-279 1h2v5h-2zm2 0h1v5h-1z"/><path d="M23 159h21v5H23zm21 0h1v5h-1zm8 0h252v5H52z"/><path d="M14 160h290v4H14zm-14 4h304v1H0zm304 0h1v1h-1z"/></g><path d="M99 5h106v1H99zm106 0h1v1h-1zm5 1h1v1h-1zm2 1h1v1h-1zM85 18h1v1h-1zm0 1h1v1h-1zm105 35h1v1h-1zm-83 7h1v1h-1zm4 4h1v1h-1zm88 0h1v18h-1zm0 18h1v1h-1zm-3 8h1v1h-1zm-1 1h1v1h-1zM85 102h1v1h-1zm134 2h1v1h-1zm-4 7h1v1h-1zm-8 4h1v1h-1z" fill="#ebfcf9"/><path d="M96 6h1v1h-1zm115 1h1v1h-1zM106 32h1v1h-1zm14 7h98v1h-98zm98 0h1v1h-1zm-99 14h1v1h-1zm-30 57h1v1h-1z" fill="#7ee9d7"/><g fill="#2bdfc4"><path d="M98 6h1v75h-1zm1 0h1v75h-1zm106 0h2v17h-2zm2 0h1v17h-1zM94 7h1v74h-1z"/><path d="M97 7h111v16H97zm111 0h1v16h-1z"/><path d="M95 8h115v15H95zm115 0h1v15h-1z"/><path d="M92 9h120v14H92zm120 0h1v14h-1z"/><path d="M91 10h122v13H91zm122 0h1v13h-1z"/><path d="M90 11h124v12H90zm124 0h1v12h-1z"/><path d="M88 12h127v11H88zm127 0h1v11h-1zm1 1h1v10h-1z"/><path d="M87 14h129v9H87zm130 1h1v8h-1zm1 1h1v1h-1z"/><path d="M86 17h131v1H86zm0 1h131v1H86zm1 5h130v1H87zm130 0h1v1h-1zM87 24h28v1H87zm28 0h1v1h-1zm-28 1h25v1H87zm25 0h2v1h-2zm2 0h1v1h-1zm-27 1h23v1H87zm23 0h1v1h-1zm-23 1h21v1H87zm21 0h2v1h-2zm2 0h1v1h-1zm-23 1h20v2H87zm20 0h1v1h-1zm-20 2h19v1H87zm19 0h1v1h-1zm-19 1h18v3H87zm18 0h1v1h-1zm-18 3h18v1H87zm18 0h1v1h-1zm-18 1h16v46H87zm16 0h1v46h-1zm17 6h97v10h-97zm97 0h1v64h-1zm-97 10h97v1h-97zm1 1h96v1h-96zm68 1h1v1h-1zm3 0h25v1h-25zm2 1h23v1h-23zm0 1h23v1h-23zm3 1h20v1h-20zm1 1h19v2h-19zm-94 1h1v23h-1zm1 0h1v1h-1zm93 1h19v1h-19zm2 1h17v2h-17zm-95 1h1v20h-1zm1 1h1v19h-1zm94 0h17v1h-17zm1 1h16v44h-16zm-94 1h1v17h-1zm1 1h1v16h-1zm1 1h1v15h-1zm1 0h1v15h-1zm1 1h1v14h-1zm3 0h1v14h-1z"/><path d="M112 68h3v13h-3zm3 0h1v13h-1zm1 1h68v12h-68zm68 0h1v12h-1zM87 81h97v1H87zm97 0h1v1h-1zm15 6h18v20h-18z"/><path d="M197 91h20v16h-20z"/><path d="M196 92h21v15h-21z"/><path d="M195 93h22v14h-22z"/><path d="M193 95h24v12h-24z"/><path d="M191 96h26v11h-26z"/><path d="M87 97h130v7H87z"/><path d="M86 102h131v1H86zm0 1h131v1H86zm1 1h130v1H87zm1 1h129v1H88zm129 0h1v2h-1zm-129 1h128v1H88zm1 1h128v1H89zm128 0h1v1h-1zm-128 1h126v1H89zm126 0h1v2h-1zm-125 1h124v1H90zm124 0h1v2h-1z"/><path d="M91 110h124v1H91zm124 0h1v1h-1zm-123 1h120v1H92zm120 0h2v1h-2zm2 0h1v1h-1zm-121 1h118v1H93zm118 0h1v1h-1zm-115 1h113v1H96zm113 0h2v1h-2zm2 0h1v1h-1z"/></g><path d="M16 125h1v1h-1zm5 0h1v1h-1zm97 4h1v1h-1zM7 130h1v1H7zm68 2h1v1h-1zm5 0h1v1h-1zm98 0h1v1h-1zm28 0h1v20h-1zm49 0h12v1h-12zm12 0h1v1h-1zm-185 4h1v1h-1zm204 3h1v1h-1zm-61 7h1v1h-1zm-133 3h1v1h-1zm0 1h1v1h-1zm-46 2h1v1h-1zm160 0h1v1h-1zm-65 1h1v1h-1zm-51 2h1v1h-1zm209 0h1v1h-1zm-243 2h1v1h-1zm-35 2h1v1h-1z" fill="#e3e4e4"/><path d="M13 126h1v1h-1zm275 0h1v1h-1zm-262 1h1v1h-1zm116 2h1v1h-1zm31 4h1v6h-1zm-26 2h1v1h-1zm26 4h1v1h-1zm-62 1h1v1h-1zm1 3h1v1h-1zm-32 1h1v1h-1zm93 2h1v10h-1zm-55 1h1v1h-1zm-108 1h1v1h-1zm12 0h1v1h-1zm13 0h1v1h-1zm152 3h1v1h-1zm1 1h1v1h-1zm-151 2h1v1h-1zm78 1h1v1h-1zm58 1h1v1h-1zm100 2h1v1h-1z" fill="#838a8a"/><path d="M181 126h1v1h-1zm-120 1h1v19h-1zm149 0h1v3h-1zm24 0h1v14h-1zm34 0h1v4h-1zm-150 3h1v1h-1zm92 0h1v1h-1zm58 1h1v1h-1zm28 0h1v1h-1zm-62 10h1v1h-1zm-114 1h1v1h-1zm-109 1h1v1h-1zm210 0h1v14h-1zm-160 3h1v1h-1zm-52 2h1v1H9zm26 1h1v1h-1zm143 0h1v1h-1zm-61 1h1v1h-1zm-73 1h1v1h-1zm-22 1h1v1h-1zm188 2h1v3h-1zm-70 1h1v1h-1zm-114 2h1v1h-1zm61 0h1v1h-1zm123 0h1v1h-1zm11 0h1v1h-1zm-137 1h1v1h-1zm55 0h1v1h-1zm159 0h1v1h-1z" fill="#a0a5a5"/><path d="M11 127h1v1h-1zm77 1h1v1h-1zm31 0h1v1h-1zm-30 1h1v1h-1zm137 3h1v1h-1zm-196 1h1v1h-1zm259 2h1v1h-1zm-187 2h1v1h-1zm-95 1h1v1H7zm82 0h1v1h-1zm192 2h1v1h-1zm-197 1h1v1h-1zm149 5h1v1h-1zm-151 6h1v1h-1zm147 0h1v1h-1zm-49 1h1v1h-1zm-90 1h1v1h-1zm7 4h1v1h-1zm5 0h1v1h-1zm11 0h1v1h-1zm15 0h1v1h-1zm10 0h1v1h-1zm17 0h1v1h-1zm17 0h1v1h-1zm17 0h1v1h-1zm20 0h1v1h-1zm11 0h1v1h-1zm13 0h1v1h-1zm7 0h1v1h-1zm7 0h1v1h-1zm27 0h1v1h-1z" fill="#576161"/><path d="M118 131h1v1h-1zm80 1h1v20h-1zm-50 7h1v1h-1zM8 140h1v1H8zm15 0h1v1h-1zm261 0h1v1h-1zm-164 1h1v1h-1zm103 0h1v1h-1zm68 2h1v1h-1zm-210 1h1v1h-1zm31 0h1v1h-1zm5 5h1v1h-1zm81 3h1v1h-1zm-139 1h1v1h-1zm136 0h2v1h-2zm2 0h1v1h-1zm9 0h2v1h-2zm2 0h1v1h-1zm-99 1h1v1h-1zm-82 2h1v1h-1zm155 0h1v1h-1zm-68 1h1v1h-1zm-3 1h1v1h-1zm22 0h1v1h-1zm28 0h1v1h-1zm5 0h1v1h-1zm28 0h1v1h-1zm21 0h1v1h-1zm65 0h1v1h-1z" fill="#4f5a5a"/></svg>