<svg xmlns="http://www.w3.org/2000/svg" role="img" viewBox="-5.13 39.62 410.02 165.52"><title>TARS Foundation logo</title><style>svg {enable-background:new 0 0 400 245}</style><style>.st0{fill:#1649dc}</style><path d="M2.7 154.5c27.7-6.5 56.1-11.6 84.8-15.4 5.2-.7 10.4-1.3 15.7-1.9V82.3l21.9-.2c.9 0 1.6-.7 1.6-1.6V68c0-.9-.7-1.6-1.6-1.6l-59.5.2c-.9 0-1.6.7-1.6 1.6v12.5c0 .8.7 1.6 1.6 1.6h21.9v47c-29.2 6.1-57.6 14.6-84.8 25.2z" class="st0"/><path d="M332.4 133.9c2.4-3.7 3.7-7.9 3.7-12.6 0-13-10.5-23.5-23.5-23.5H297c-4.3 0-7.8-3.6-7.8-7.8 0-4.3 3.5-7.8 7.8-7.8H324.8c1.7 0 3.1-1.4 3.1-3.1v-9.4c0-1.7-1.4-3.1-3.1-3.1H297c-14.6 0-26.1 13.4-23 28.5 2.3 11 12.6 18.6 23.9 18.6h14.6c4.3 0 7.8 3.5 7.8 7.8s-3.5 7.8-7.8 7.8h-37.6c-.8 0-1.6.7-1.6 1.6v4.2c17.6 1.5 35 3.4 52.2 6 24.2 3.6 48.2 8.1 71.8 13.6-21-8.4-42.7-15.3-64.9-20.8z" class="st0"/><path d="M263 134.1l-6.2-13.5-4.5-9.7c7.8-3.8 13.2-11.8 13.2-21.1 0-13-10.5-23.5-23.5-23.5h-22.5v.1c-.1 0-.1-.1-.2-.1h-12.5c-.9 0-1.6.7-1.6 1.6v49.7c-1.8-.1-3.5-.1-5.3-.1-2.7 0-5.4 0-8.2.1L172 67.5c-.3-.6-.8-1-1.5-1h-15.9c-.6-.1-1.3.4-1.5 1L131.7 122l-5.1 13c5.8-.5 11.5-.9 17.3-1.3l5.4-13.6L161 90.3l1.5-3.9.9 2.3.6 1.5v.1l11.1 28 5.5 13.8c5.5-.2 11.1-.3 16.7-.3h2.6c1.8 0 3.6 0 5.3.1 5.2 0 10.5.1 15.7.2v-50H242c4.3 0 7.8 3.5 7.8 7.8 0 4-3 7.3-7 7.8l-11.5-.1h-.1c-.9.1-1.5.7-1.6 1.6 0 .3.1.5.2.7l8.9 19.1 6.5 14c6 .3 11.9.7 17.8 1.1z" class="st0"/><path d="M334.2 63.2h9.4c1.7 0 3.1-1.4 3.1-3.1v-9.4c0-1.7-1.4-3.1-3.1-3.1h-9.4c-1.7 0-3.1 1.4-3.1 3.1v9.4c0 1.7 1.4 3.1 3.1 3.1z" class="st0"/><path d="M249.4 172.5h3.6v3.8h-3.6z" class="st0"/><path d="M249.4 179.2h3.6v18.1h-3.6z" class="st0"/><path d="M238.6 172.5H235v6.7h-3.5v2.9h3.5v9.8c0 1.2.1 2.1.3 2.7.2.6.5 1.2 1 1.6.4.4.9.7 1.5.9.6.1 1.5.2 2.6.2h3.5v-2.9h-2.1c-1.4 0-2.2-.2-2.6-.5-.2-.2-.4-.4-.4-.7-.1-.3-.1-.9-.1-1.7V182h5.3v-2.9h-5.3v-6.6z" class="st0"/><path d="M174.3 182h4c2 0 3.4.5 3.9 1.4.4.6.5 1.7.5 3.3v10.6h3.6v-10.7c0-2-.3-3.5-.8-4.5-.5-1.1-1.3-1.8-2.5-2.3-.6-.2-1.1-.4-1.7-.5-.6-.1-1.5-.1-2.7-.1h-7.9v18.1h3.6V182z" class="st0"/><path d="M266.9 179c-3.2 0-5.6.9-7.1 2.6-1.6 1.7-2.3 4.1-2.3 6.9 0 2.7.7 4.8 2.1 6.3 1.6 1.7 4 2.6 7.2 2.6 3 0 5.3-.9 6.9-2.6 1.5-1.6 2.3-3.8 2.3-6.6 0-3-.8-5.3-2.3-6.8-1.6-1.6-3.9-2.4-6.8-2.4zm-.3 15.5c-1.9 0-3.3-.6-4.3-1.8-.8-1-1.2-2.4-1.2-4.4 0-2 .5-3.6 1.4-4.7 1-1.1 2.3-1.7 4.1-1.7 1.8 0 3.2.6 4.1 1.7 1 1.1 1.4 2.7 1.4 4.8.1 4.1-1.7 6.1-5.5 6.1z" class="st0"/><path d="M226.6 180.8c-.5-.6-1.2-1.1-2.1-1.3-.9-.2-2.1-.4-3.7-.4h-9.3v2.9h8.5c1.8 0 2.9.2 3.4.7.5.5.7 1.6.7 3.5h-6.4c-2.2 0-3.7.3-4.6.8-.7.4-1.3 1.1-1.7 1.9-.4.8-.6 1.8-.6 2.8 0 1.4.4 2.6 1.1 3.5.7.9 1.8 1.5 3.2 1.8.6.1 1.8.2 3.5.2h9.2v-11.5c0-1.4-.1-2.4-.2-3.1-.3-.6-.6-1.3-1-1.8zm-2.5 13.6h-6c-1.3 0-2.2-.2-2.8-.6-.5-.4-.8-1.1-.8-2.1 0-1.2.4-2 1.2-2.4.5-.2 1.3-.3 2.3-.3h6v5.4z" class="st0"/><path d="M137.5 179c-3.2 0-5.6.9-7.1 2.6-1.6 1.7-2.3 4.1-2.3 6.9 0 2.7.7 4.8 2.1 6.3 1.6 1.7 4 2.6 7.2 2.6 3 0 5.3-.9 6.9-2.6 1.5-1.6 2.3-3.8 2.3-6.6 0-3-.8-5.3-2.3-6.8-1.7-1.6-3.9-2.4-6.8-2.4zm-.3 15.5c-1.9 0-3.3-.6-4.3-1.8-.8-1-1.2-2.4-1.2-4.4 0-2 .5-3.6 1.4-4.7.9-1.1 2.3-1.7 4.1-1.7 1.8 0 3.2.6 4.1 1.7.9 1.1 1.4 2.7 1.4 4.8.1 4.1-1.8 6.1-5.5 6.1z" class="st0"/><path d="M162.2 194.4h-4c-2 0-3.4-.5-3.9-1.4-.4-.6-.5-1.7-.5-3.3v-10.6h-3.6v10.7c0 2 .3 3.5.8 4.5.5 1.1 1.3 1.8 2.5 2.3.6.2 1.1.4 1.7.5.6.1 1.5.1 2.7.1h7.9v-18.1h-3.6v15.3z" class="st0"/><path d="M202.7 179.2h-4.2c-2.2 0-3.9.3-5.1 1-1.3.7-2.2 1.7-2.9 3.2-.7 1.6-1.1 3.3-1.1 5.2 0 1.5.2 2.9.7 4.2.5 1.3 1.1 2.3 1.9 3 .7.6 1.5 1 2.4 1.2.9.2 2.2.4 3.8.4h8.1v-24.8h-3.6v6.6zm0 15.2h-4.5c-1.9 0-3.2-.5-3.9-1.4-.8-.9-1.1-2.6-1.1-4.8 0-1.9.4-3.3 1.1-4.3.5-.7 1-1.1 1.7-1.4.7-.3 1.7-.4 2.9-.4h3.9v12.3z" class="st0"/><g><path d="M282.8 182h4c2 0 3.4.5 3.9 1.4.4.6.5 1.7.5 3.3v10.6h3.6v-10.7c0-2-.3-3.5-.8-4.5-.5-1.1-1.3-1.8-2.5-2.3-.6-.2-1.1-.4-1.7-.5-.6-.1-1.5-.1-2.7-.1h-7.9v18.1h3.6V182z" class="st0"/></g><g><path d="M106.2 190.9v-13.1c0-1.6.1-2.8.4-3.7.2-.9.7-1.6 1.3-2.2.6-.6 1.3-.9 2-1.1.8-.2 1.9-.3 3.5-.3l12.1.1v3.7h-10.3c-1.8 0-3 .2-3.5.7-.3.2-.5.6-.6 1-.1.4-.1 1.2-.1 2.2v3.4h14.5v4.4h-14.3v11h-5v-2.2" class="st0"/></g></svg>