<svg xmlns="http://www.w3.org/2000/svg" role="img" viewBox="-8.74 -8.74 454.48 125.73"><title>Ursa logo</title><g fill-opacity="1" fill-rule="nonzero" stroke="none" transform="matrix(1.33333 0 0 -1.33333 0 108.507) scale(.1)"><path fill="#232325" d="M1212.32 663.09l87.01.469.47-87.797 44.78.215-1.06 203.16-44.8-.231.41-75.758-87.02-.445-.41 75.738-44.79-.242 1.07-203.144 44.8.238-.46 87.797"/><path fill="#232325" d="M1453.1 575.191l44.78.243-.44 86.644 75.76 116.891-53.13-.254-45.25-76.285-43.48 75.816-55.71-.297 77.02-116.094.45-86.664"/><path fill="#232325" d="M1672.52 740.934c4.2.039 8.62-.188 13.22-.633 4.6-.449 8.79-1.547 12.5-3.215 3.75-1.715 6.81-4.137 9.25-7.285 2.39-3.145 3.6-7.317 3.64-12.469.01-4.777-.86-8.746-2.67-11.906-1.8-3.172-4.17-5.66-7.13-7.5-2.97-1.832-6.3-3.172-10.03-3.934-3.75-.785-7.59-1.199-11.63-1.203l-29.86-.156-.26 48.191zm-22.1-165.379l-.41 79.199 32.73.164c10.72.062 20.66 1.121 29.85 3.191 9.18 2.047 17.09 5.469 23.79 10.286 6.67 4.835 11.9 11.269 15.7 19.304 3.78 8.078 5.64 18.02 5.58 29.895-.08 12.043-2.18 22.039-6.35 29.953-4.15 7.906-9.73 14.176-16.73 18.855-7.04 4.637-15.25 7.891-24.63 9.75-9.38 1.879-19.35 2.774-29.87 2.715l-75.53-.39 1.08-203.145 44.79.223"/><path fill="#232325" d="M1933.06 575.883l-.2 41.301-98.51-.496-.22 41.324 88.17.465-.21 41.324-88.16-.465-.21 37.859 93.33.5-.22 41.325-138.11-.731 1.05-203.144 143.29.738"/><path fill="#232325" d="M2009.34 694.645l-.24 46.175 29.29.153c4.03.039 8.14-.231 12.35-.782 4.2-.558 7.97-1.617 11.23-3.242 3.25-1.621 5.95-3.945 8.06-7 2.11-3.031 3.19-7.148 3.23-12.324.02-5.547-1.15-9.844-3.52-12.914-2.38-3.07-5.38-5.348-9.01-6.793-3.62-1.469-7.69-2.328-12.19-2.645-4.49-.312-8.77-.484-12.77-.5zm65.23-118.762l53.7.285-52.16 85.531c14.37 2.754 25.25 9.149 32.64 19.242 7.42 10.11 11.1 22.317 11.02 36.672-.07 11.836-2.18 21.723-6.35 29.653-4.14 7.906-9.72 14.199-16.72 18.851-7.05 4.633-15.18 7.949-24.48 9.903-9.27 1.972-19.1 2.921-29.43 2.867l-78.67-.43 1.03-203.144 44.8.238-.42 81.207 22.13.117 42.91-80.992"/><path fill="#232325" d="M2287.1 576.18l-.24 41.324-83-.434-.85 161.832-44.78-.226 1.06-203.149 127.81.653"/><path fill="#232325" d="M2462.51 576.02l-.22 41.3-98.51-.5-.22 41.325 88.18.468-.22 41.297-88.15-.441-.21 37.859 93.32.5-.21 41.32-138.12-.722 1.06-203.149 143.3.743"/><path fill="#232325" d="M2562.48 617.012l-23.27-.133-.64 120.523 26.42.145c9.38.039 18.36-1.094 26.88-3.461 8.5-2.324 15.97-5.875 22.3-10.625 6.34-4.766 11.4-10.793 15.16-18.148 3.78-7.348 5.7-16 5.75-25.95.06-11.484-1.76-21.199-5.45-29.144-3.69-7.969-8.78-14.41-15.27-19.305-6.46-4.914-14.16-8.434-23.06-10.613-8.86-2.137-18.5-3.235-28.82-3.289zm85.07-14.895c10.48 8.547 18.8 19.117 24.96 31.688 6.16 12.539 9.18 27.058 9.1 43.515-.08 18.559-3.38 34.305-9.86 47.297-6.49 12.996-15.2 23.492-26.16 31.571-10.95 8.058-23.78 13.898-38.43 17.453-14.65 3.547-30.15 5.289-46.41 5.191l-67.2-.348 1.08-203.148 73.23.391c15.11.07 29.55 2.343 43.33 6.832 13.76 4.461 25.88 10.976 36.36 19.558"/><path fill="#232325" d="M2828.01 696.059l.2-41.325 36.47.192.18-33.008c-4.2-2.328-9.84-4.598-16.9-6.832-7.08-2.234-15.48-3.367-25.26-3.422-9.56-.039-18.25 1.524-26.01 4.731-7.76 3.218-14.46 7.726-20.04 13.546-5.58 5.786-9.86 12.657-12.87 20.586-3.02 7.914-4.53 16.645-4.59 26.231-.05 9.359 1.38 18.078 4.3 26.113 2.94 8.063 7.15 15.024 12.66 20.902 5.54 5.86 12.18 10.407 19.9 13.723 7.74 3.289 16.4 4.969 25.97 5.008 11.48.07 21.07-1.508 28.74-4.715 7.66-3.215 14.59-7.965 20.75-14.254l31.4 34.598c-10.38 9.519-22.45 16.191-36.15 20.055-13.7 3.851-28.7 5.722-44.97 5.628-15.9-.066-30.52-2.636-43.86-7.699-13.41-5.023-24.95-12.207-34.65-21.539-9.74-9.344-17.27-20.625-22.68-33.836-5.37-13.238-8.04-27.965-7.94-44.222.1-16.278 2.89-30.977 8.41-44.176 5.54-13.164 13.19-24.36 23.04-33.578 9.8-9.239 21.41-16.289 34.83-21.207 13.43-4.891 28.1-7.289 43.99-7.219 14.93.074 29.56 1.672 43.91 4.828 14.33 3.125 28.1 8.18 41.26 15.145l-.56 106.175-79.53-.429"/><path fill="#232325" d="M3083.5 580.711l-.22 41.305-98.48-.524-.22 41.34 88.16.469-.21 41.308-88.18-.453-.19 37.86 93.32.507-.21 41.301-138.11-.722 1.06-203.153 143.28.762"/><path fill="#232325" d="M3188.81 745.77c4.05.015 8.14-.223 12.37-.801 4.19-.547 7.95-1.621 11.2-3.246 3.29-1.618 5.98-3.946 8.1-6.993 2.1-3.035 3.19-7.152 3.23-12.324.01-5.551-1.17-9.843-3.55-12.918-2.38-3.07-5.38-5.343-9-6.773-3.63-1.488-7.7-2.344-12.18-2.66-4.5-.301-8.77-.485-12.77-.485l-26.43-.148-.23 46.18zm-28.41-165.442l-.43 81.211 22.11.117 42.93-80.976 53.7.277-52.14 85.523c14.35 2.77 25.24 9.168 32.64 19.239 7.4 10.105 11.08 22.312 11.01 36.668-.07 11.836-2.18 21.742-6.33 29.652-4.17 7.93-9.73 14.219-16.75 18.856-7.03 4.636-15.17 7.953-24.46 9.906-9.31 1.992-19.12 2.914-29.44 2.859l-78.68-.41 1.05-203.137 44.79.215"/><path fill="#972058" d="M1165.93 166.766v251.082h51.7V168c0-75.082 40-122.4648 115.69-122.4648S1449.63 92.918 1449.63 168v249.848h51.69V167.383C1501.32 65.2305 1444.71 0 1333.32 0c-110.77 0-167.39 65.8438-167.39 166.766"/><path fill="#972058" d="M1838.58 294.156c0 46.766-33.85 78.153-82.46 78.153h-107.7V215.387h107.7c48.61 0 82.46 32.613 82.46 78.769zm-3.69-286.77319L1730.88 170.461h-82.46V7.38281h-51.08V417.848h164.93c75.08 0 129.24-48.004 129.24-123.692 0-73.847-51.08-114.465-107.08-119.39L1895.2 7.38281h-60.31"/><path fill="#972058" d="M1947.53 65.2305l30.77 39.3825c26.46-30.7692 70.77-59.0778 128.62-59.0778 73.22 0 96.61 39.3867 96.61 71.3868 0 105.848-243.08 46.769-243.08 193.23 0 67.696 60.31 114.461 141.55 114.461 62.15 0 110.76-21.539 145.22-57.847l-30.77-37.539c-30.76 34.464-73.84 49.234-118.77 49.234-48.61 0-84.31-26.461-84.31-65.231 0-92.308 243.08-39.382 243.08-192.617C2256.45 61.5391 2215.84 0 2105.07 0c-70.77 0-123.7 27.0742-157.54 65.2305"/><path fill="#972058" d="M2481.1 365.535L2394.33 144h174.15zM2619.57 7.38281l-36.31 91.69529h-204.31l-36.31-91.69529h-58.46L2449.71 417.848h63.39L2678.02 7.38281h-58.45"/><path fill="#972058" d="M680.219 752.391c13.543 17.441 14.082 40.613 17.992 61.414 1.906-20.989-.543-45.602 15.262-62.227 18.621-18.351 46.875-15.351 71.035-16.808-23.25-3.633-49.055-3.36-68.492-18.168-18.895-16.989-16.262-44.692-17.895-67.77-3.906 22.711-3.637 48.606-19.984 66.5-16.356 14.168-39.336 14.531-59.414 18.895 21.078 2.273 46.144.816 61.496 18.164"/><path fill="#972058" d="M351.559 142.211c-23.079-46.7852-56.231-87.6641-94.75-122.5469 33.25.8203 66.586 1.1797 99.836 2.3632 13.625 12.7188 28.339 24.0704 43.785 34.5196-9.535 31.9765-27.344 60.4101-48.871 85.6641zM657.328 21.4844c31.981-.6406 64.043-1.3672 96.113-1.5469 12.809 12.5391 26.344 24.4375 40.243 35.7891-29.34 43.8789-87.028 53.8714-118.457 96.2034-32.704-36.067-18.985-86.6605-17.899-130.4456zM494.359 159.473c1.817-46.059-1.273-92.4808-13.261-137.1722 19.257.2734 38.699-.7305 57.957 1.3594 15.082 8.0898 27.976 19.9882 42.425 29.1601-17.714 28.2539-40.972 52.8707-55.328 83.3047 30.707 6.723 61.321 14.715 90.211 27.434-40.699-1.09-81.304-5.817-122.004-4.086zM337.113 663.094c34.61-8.266 67.676 8.816 101.2 14.539 5.628-27.254 12.351-56.867.273-83.395-17.621-24.254-45.695-42.328-52.145-73.398-10.539-39.156 9.809-76.215 30.25-108.012-7.632 32.07-11.992 64.949-8.265 97.836 63.406-7.812 119.183-45.695 150.613-101.016-6.992 26.707-17.984 52.235-31.887 76.129 64.043 5.723 132.633 2.176 188.68-32.527 61.137-36.152 98.289-106.738 95.477-177.504-1-61.226 18.89-123.543 62.679-167.508.09-32.1599-.09-64.4099 2.547-96.4763 36.426-.8203 72.852-1.3633 109.188-3.63279-57.957-4.8125-116.094.8164-174.145-.27344C541.055 8.03516 270.434 7.30859 0 7.94531c38.2422 2.27349 76.4883 4.35939 114.645 7.99609 18.617 26.7969 57.32 29.8828 71.488 60.4102 24.894 41.4214 34.34 90.0194 36.34 137.8044 26.16-17.711 54.773-31.433 85.207-40.058-51.414 39.515-100.379 86.39-122.086 149.25-38.703 92.57-19.078 203.035 41.597 281.699-8.625 9.812-29.972 20.078-17.98 35.34 14.074 21.894 40.238 8.898 57.863-.364 22.078 10.446 44.059 28.981 70.039 23.071"/></g></svg>