<svg xmlns="http://www.w3.org/2000/svg" role="img" viewBox="26.72 37.72 170.30 150.30"><title>Vineyard logo</title><path d="M152 47h1v1h-1zm7 13h1v1h-1zm-12 7h1v1h-1zm2 6h1v1h-1zm1 4h1v1h-1zm-28 2h1v1h-1zm43 4h1v1h-1zm-13 8h1v1h-1zm14 3h1v1h-1zm0 13h1v1h-1zm-14 4h1v1h-1zm-51 2h1v1h-1zm64 6h1v1h-1zm-15 8h1v1h-1zm-1 5h1v1h-1z" fill="#a0c1f8"/><path d="M139 53h1v1h-1zm22 12h1v1h-1zm-25 9h1v1h-1zm-8 1h1v1h-1zm9 2h1v1h-1zm13 1h1v1h-1zm-12 3h1v1h-1zm27 1h1v1h-1zm-48 1h1v1h-1zm-2 2h1v1h-1zm18 3h1v1h-1zm-3 2h1v1h-1zm36 1h1v1h-1zm-14 3h1v1h-1zm-49 11h1v1h-1zm49 2h1v1h-1zm0 1h1v1h-1zm-52 10h1v1h-1zm51 1h1v1h-1zm14 1h1v1h-1zm-15 6h1v1h-1z" fill="#ccdefb"/><path d="M83 54h1v1h-1zm-18 4h1v1h-1zm-2 5h1v1h-1zm-1 3h1v1h-1zm28 7h1v1h-1zm-2 1h1v1h-1zm-2 6h1v1h-1zm17 1h1v1h-1zm-18 3h1v1h-1zm5 4h1v1h-1zm20 0h1v1h-1zm-17 2h1v1h-1zm26 14h1v1h-1zm1 3h1v1h-1zm2 9h1v1h-1zm1 10h1v1h-1zm0 1h1v1h-1zm0 4h1v2h-1zm0 2h1v1h-1z" fill="#85eaea"/><g fill="#29c7ef"><path d="M70 98h1v2h-1zm-10 1h5v3h-5zm5 0h3v4h-3zm3 0h2v4h-2zm-10 1h1v2h-1z"/><path d="M59 100h3v3h-3zm11 0h1v1h-1z"/><path d="M58 102h11v1H58zm1 1h2v1h-2zm2 0h8v1h-8zm8 0h1v1h-1z"/></g><path d="M30 152h1v1h-1zm42 8h1v1h-1zm27 0h1v1h-1zm43 0h1v3h-1zm26 0h1v1h-1zm-113 1h1v1h-1zm68 1h1v1h-1zm19 1h1v1h-1zm-107 2h1v1h-1zm43 0h1v1h-1zm41 0h1v1h-1zm56 2h1v1h-1zm-138 3h1v1h-1zm143 0h1v1h-1zm-130 3h1v1h-1zm-3 7h1v1h-1zm74 2h1v1h-1z" fill="#d1d1d1"/><path d="M31 152h4v1h-4zm4 0h1v1h-1zm18 0h5v1h-5zm5 0h1v1h-1zm-26 5h1v1h-1zm24 1h1v1h-1zm82 3h1v1h-1zm-104 1h1v1h-1zm143 1h1v1h-1zm-93 3h1v1h-1zm-48 1h1v1h-1zm63 0h1v1h-1zm27 1h1v1h-1zm-4 2h1v1h-1zm22 4h1v1h-1zm32 0h1v1h-1zm-30 1h5v1h-5zm5 0h1v1h-1zm-21 1h1v1h-1zm-32 2h1v1h-1zm-56 2h4v1h-4zm4 0h1v1h-1z" fill="#9f9f9f"/><path d="M35 153h1v1h-1zm1 1h1v1h-1zm20 2h1v1h-1zm-22 4h1v1h-1zm28 0h1v1h-1zm1 0h1v1h-1zm40 0h1v1h-1zm1 0h2v1h-2zm2 0h1v1h-1zm12 0h2v1h-2zm2 0h1v1h-1zm15 0h2v1h-2zm2 0h1v1h-1zm7 0h7v1h-7zm7 0h1v1h-1zm-97 1h1v1h-1zm31 0h1v1h-1zm58 0h1v1h-1zm29 0h1v1h-1zm-29 1h1v1h-1zm29 0h1v1h-1zm7 0h1v1h-1zm-77 1h1v1h-1zm1 0h1v1h-1zm47 0h1v1h-1zm-68 1h1v1h-1zm41 0h1v1h-1zm60 0h5v1h-5zm5 0h1v1h-1zm-152 1h1v1h-1zm48 0h1v1h-1zm11 0h1v1h-1zm40 0h1v1h-1zm46 0h1v1h-1zm-104 1h1v12h-1zm57 1h1v1h-1zm-12 2h1v1h-1zm4 0h1v1h-1zm-88 1h1v1h-1zm8 0h1v1h-1zm78 2h1v1h-1zm-75 1h1v1h-1zm131 0h1v1h-1zm-81 1h1v1h-1zm-3 1h1v1h-1zm4 0h1v1h-1zm30 0h1v1h-1zm47 0h1v1h-1zm-129 1h1v1h-1zm55 0h7v1h-7zm7 0h1v1h-1zm-12 1h1v1h-1zm27 0h1v1h-1zm-84 1h1v1h-1zm36 0h1v1h-1zm-35 1h1v1h-1zm85 1h1v1h-1zm-1 2h1v1h-1z" fill="#191919"/><path d="M67 54h1v1h-1zm-1 2h1v1h-1zm13 4h1v1h-1zm-1 2h1v1h-1zm14 12h1v1h-1zm2 1h1v1h-1zm-7 2h1v1h-1zm12 1h1v1h-1zm2 20h1v1h-1zm2 3h1v1h-1zm18 10h1v1h-1zm2 17h1v2h-1zm0 2h1v1h-1z" fill="#7be9e8"/><path fill="#2592ef" d="M114 93h1v1h-1z"/><path d="M57 96h1v10h-1zm0 10h1v1h-1z" fill="#8fddf5"/><path d="M71 111h1v1h-1zm0 1h1v1h-1z" fill="#94dcf8"/><path d="M36 153h1v1h-1zm136 6h1v1h-1zm-99 1h1v1h-1zm91 4h1v1h-1zm18 1h1v1h-1zm-88 2h1v1h-1zm48 0h1v1h-1zm21 0h1v1h-1zm-63 1h8v1h-8zm8 0h1v1h-1zm24 4h1v1h-1zm-33 1h1v1h-1zm-60 1h1v1h-1zm106 1h1v1h-1zm-97 2h1v1h-1zm92 0h1v1h-1zm-99 2h1v1h-1z" fill="#7b7b7b"/><g fill="#34eada"><path d="M77 41h1v6h-1z"/><path d="M76 43h2v4h-2zm2 0h1v4h-1z"/><path d="M75 44h4v3h-4zm4 0h1v3h-1z"/><path d="M73 45h7v2h-7zm7 0h1v2h-1zm1 1h1v1h-1zm1 0h1v1h-1zm-10 1h12v1H72zm12 0h1v1h-1zm-13 1h1v1h-1zm14 0h1v1h-1z"/></g><path d="M142 44h1v1h-1zm5 22h1v1h-1zm-10 13h1v1h-1zm28 7h1v1h-1zm-13 1h1v1h-1zm-24 4h1v1h-1zm-8 9h1v1h-1zm-19 15h1v1h-1zm51 0h1v1h-1zm-2 14h1v1h-1z" fill="#3889f3"/><path d="M153 49h1v1h-1zm9 21h1v1h-1zm1 4h1v1h-1zm1 5h1v1h-1zm-52 11h1v1h-1zm11 6h1v1h-1zm-21 14h1v1h-1zm63 6h1v1h-1zm-56 6h1v1h-1zm-9 1h1v1h-1zm51 0h1v1h-1zm-51 13h1v1h-1zm0 1h1v1h-1z" fill="#468ff4"/><path d="M31 155h1v1h-1zm26 1h1v1h-1zm-24 4h1v1h-1zm52 0h1v1h-1zm25 1h1v1h-1zm-22 1h1v1h-1zm24 1h1v1h-1zm12 1h1v1h-1zm47 0h1v1h-1zm-14 1h1v1h-1zm-22 2h1v1h-1zm45 2h1v1h-1zm-41 1h1v1h-1zm36 1h1v1h-1zm-73 4h1v1h-1zm37 1h1v1h-1zm38 0h1v1h-1zm-35 3h1v1h-1zm-15 3h1v1h-1z" fill="#c3c3c3"/><path d="M37 156h1v1h-1zm14 1h1v1h-1zm-12 4h1v1h-1zm10 1h1v1h-1zm74 1h1v1h-1zm-76 4h1v1h-1zm116 2h1v9h-1zm-17 1h1v1h-1zm5 0h1v1h-1zm-106 2h1v1h-1zm79 1h1v1h-1zm60 2h4v1h-4zm4 0h1v1h-1zm-25 3h1v1h-1zm17 0h1v1h-1zm-120 1h1v1h-1zm5 0h1v1h-1z" fill="#4a4a4a"/><path d="M143 43h1v1h-1zm-6 5h1v1h-1zm19 6h1v1h-1zm1 2h1v1h-1zm-11 8h1v1h-1zm2 5h1v1h-1zm-12 6h1v1h-1zm14 1h1v1h-1zm-29 4h1v1h-1zm30 1h1v1h-1zm-13 2h1v2h-1zm0 2h1v1h-1zm27 0h1v1h-1zm-31 2h1v1h-1zm18 1h1v1h-1zm-25 4h1v1h-1zm-3 3h1v1h-1zm-5 7h1v1h-1zm33 12h1v1h-1zm13 3h1v1h-1zm-65 5h1v1h-1zm51 0h1v1h-1zm13 2h1v1h-1z" fill="#5f9cf5"/><path d="M141 44h1v1h-1zm10 1h1v1h-1zm-15 5h1v1h-1zm1 1h1v1h-1zm18 0h1v1h-1zm-14 5h1v1h-1zm3 5h1v1h-1zm3 7h1v1h-1zm1 3h1v1h-1zm15 0h1v1h-1zm-13 8h1v1h-1zm-12 1h1v1h-1zm-80 1h1v1h-1zm93 4h1v1h-1zm-94 4h1v1h-1zm72 2h1v1h-1zm-6 6h1v1h-1zm29 3h1v1h-1zm0 1h1v1h-1zm-95 11h1v1h-1zm109 1h1v1h-1zm-94 4h1v1h-1zm79 0h1v1h-1zm-93 4h1v1h-1zm1 6h1v1h-1zm15 3h1v1h-1zm-14 2h1v1h-1zm88 3h1v1h-1zm-87 1h1v1h-1zm49 2h3v1h-3zm3 0h1v1h-1z" fill="#f2f7fe"/><path d="M72 46h1v1h-1zm11 0h1v1h-1zm-13 3h1v1h-1z" fill="#6befe1"/><g fill="#33e6dc"><path d="M70 51h14v2H70zm14 0h1v1h-1z"/><path d="M69 52h14v1H69zm-1 1h15v1H68zm15 0h1v1h-1zm-15 1h11v1H68zm11 0h3v1h-3zm3 0h1v1h-1zm-15 1h1v1h-1zm46 38h1v1h-1zm-3 44h1v1h-1z"/></g><path d="M71 91h1v2h-1zm0 2h1v1h-1zm-14 1h1v1h-1zm0 1h1v1h-1zm0 12h1v1h-1zm14 2h1v1h-1z" fill="#aee8f6"/><path d="M58 93h1v6h-1zm12 0h1v4h-1zm-11 1h11v4H59zm11 3h1v1h-1zm-11 1h10v1H59zm10 0h1v1h-1zm-11 1h1v1h-1zm1 0h1v1h-1z" fill="#2acbed"/><path d="M176 164h1v1h-1zm-94 1h1v1h-1zm101 0h1v1h-1zm-49 4h1v1h-1zm-10 5h1v1h-1zm-85 1h1v1h-1zm87 9h1v1h-1z" fill="#d6d6d6"/><path d="M137 50h1v1h-1zm22 11h1v1h-1zm-28 13h1v1h-1zm-2 1h1v1h-1zm-5 3h1v1h-1zm27 2h1v1h-1zm-31 1h1v1h-1zm-7 7h1v1h-1zm-8 18h1v1h-1zm4 17h1v1h-1zm55 0h1v1h-1zm-64 1h1v1h-1zm62 9h1v1h-1zm-13 1h1v1h-1zm-49 1h1v1h-1z" fill="#2a84f2"/><path d="M140 54h1v1h-1zm22 15h1v1h-1zm-24 13h1v1h-1zm13 0h1v1h-1zm1 8h1v1h-1zm14 5h1v1h-1zm0 11h1v1h-1zm-64 3h1v1h-1zm-2 11h1v1h-1zm64 5h1v1h-1z" fill="#98bcf8"/><g fill="#32e4dd"><path d="M68 55h14v1H68zm14 0h1v1h-1zm-15 1h14v2H67zm14 0h1v1h-1z"/><path d="M66 57h14v2H66zm14 1h1v1h-1zm-15 1h14v1H65zm14 0h1v1h-1zm32 31h1v1h-1zm1 2h1v1h-1zm2 3h1v1h-1zm2 3h1v1h-1zm0 1h1v1h-1zm-11 5h1v1h-1zm1 1h1v1h-1zm0 1h1v1h-1zm1 2h1v1h-1zm1 2h1v2h-1zm0 2h1v1h-1zm1 2h1v2h-1zm0 2h1v1h-1zm1 3h1v4h-1zm0 4h1v1h-1zm0 13h1v1h-1z"/></g><path d="M71 113h1v1h-1zm-13 3h1v1h-1zm0 1h1v1h-1z" fill="#69cff6"/><g fill="#333"><path d="M190 153h2v24h-2zm2 0h1v24h-1zm-159 1h2v2h-2zm2 0h1v7h-1zm19 0h2v3h-2zm2 0h1v1h-1z"/><path d="M53 155h2v4h-2zm-20 1h2v1h-2zm1 1h2v1h-2zm2 0h1v6h-1zm19 0h1v1h-1zm-21 1h2v1h-2z"/><path d="M52 158h2v3h-2zm-15 1h1v7h-1zm17 0h1v1h-1z"/><path d="M51 160h2v4h-2zm-17 1h3v1h-3zm19 0h1v1h-1zm9 0h1v17h-1zm1 0h1v17h-1zm38 0h5v1h-5zm5 0h1v1h-1zm13 0h1v1h-1zm1 0h1v2h-1zm14 0h2v3h-2zm2 0h1v1h-1zm8 0h8v1h-8zm8 0h1v2h-1zm18 0h1v2h-1zm1 0h1v1h-1zm18 0h3v4h-3zm-151 1h1v6h-1zm36 0h11v1H74zm11 0h1v3h-1zm14 0h10v1H99zm10 0h1v3h-1z"/><path d="M119 162h2v1h-2zm2 0h1v3h-1zm15 0h1v2h-1zm8 0h9v1h-9zm9 0h1v2h-1zm15 0h3v1h-3zm3 0h1v1h-1zm11 0h10v1h-10zm-146 1h2v1h-2zm14 0h2v3h-2zm24 0h13v1H74zm13 0h1v15h-1zm11 0h2v1h-2zm2 0h1v1h-1zm7 0h3v1h-3zm3 0h1v7h-1zm10 0h1v1h-1zm13 0h2v2h-2z"/><path d="M152 163h2v1h-2zm2 0h1v15h-1zm13 0h3v1h-3zm3 0h1v1h-1zm9 0h13v1h-13zm-140 1h1v7h-1zm13 0h1v1h-1zm22 0h3v14h-3zm3 0h1v1h-1zm7 0h3v1h-3zm13 0h2v2h-2zm2 0h1v2h-1zm9 0h3v1h-3zm3 0h1v6h-1zm11 0h1v3h-1zm13 0h1v1h-1zm1 0h1v1h-1z"/><path d="M153 164h2v1h-2zm2 0h1v14h-1zm11 0h2v2h-2zm2 0h1v1h-1zm10 0h3v1h-3zm3 0h1v1h-1zm-132 1h2v4h-2zm36 0h3v1h-3zm3 0h1v13h-1zm8 0h2v9h-2zm13 0h2v1h-2zm12 0h2v1h-2zm2 0h1v4h-1zm9 0h2v2h-2zm2 0h1v1h-1z"/><path d="M165 165h3v1h-3zm3 0h1v1h-1zm10 0h2v1h-2zm2 0h1v1h-1zm9 0h3v1h-3zm-153 1h3v1h-3zm15 0h1v1h-1zm35 0h2v12h-2zm12 0h1v1h-1zm1 0h1v1h-1zm66 0h2v12h-2zm2 0h1v1h-1zm10 0h2v7h-2zm2 0h1v1h-1zm-139 1h1v6h-1zm72 0h1v3h-1zm10 0h2v1h-2zm2 0h1v4h-1zm7 0h2v2h-2zm2 0h1v1h-1zm19 0h3v2h-3zm-114 1h2v1h-2zm10 0h2v3h-2zm47 0h2v3h-2zm14 0h3v2h-3z"/><path d="M143 168h12v1h-12zm-102 1h1v6h-1zm9 0h1v1h-1zm48 0h1v2h-1zm25 0h2v1h-2zm2 0h1v3h-1zm5 0h2v2h-2zm2 0h1v1h-1zm10 0h3v1h-3zm3 0h1v1h-1zm7 0h3v1h-3zm-105 1h2v4h-2zm52 0h13v1H99zm13 0h1v1h-1zm29 0h2v6h-2zm2 0h1v1h-1zm10 0h2v1h-2zm-114 1h2v1h-2zm10 0h1v1h-1zm46 0h3v1h-3zm3 0h1v1h-1z"/><path d="M124 171h2v1h-2zm2 0h1v3h-1zm3 0h2v2h-2zm2 0h1v1h-1zm-89 1h1v6h-1z"/><path d="M125 172h5v1h-5zm15 0h2v2h-2zm-100 1h2v1h-2zm6 0h2v3h-2zm81 0h3v2h-3zm3 0h1v1h-1zm46 0h3v1h-3zm3 0h1v3h-1z"/><path d="M43 174h5v2h-5zm5 0h1v1h-1zm48 0h2v1h-2zm2 0h1v2h-1zm28 0h3v1h-3zm14 0h2v1h-2zm38 0h1v1h-1zm11 0h3v3h-3z"/><path d="M41 175h6v1h-6zm56 0h2v1h-2zm2 0h1v2h-1zm28 0h2v2h-2zm2 0h1v1h-1zm14 0h1v2h-1zm35 0h3v1h-3zm3 0h1v2h-1zm-138 1h4v2h-4zm4 0h1v1h-1z"/><path d="M98 176h2v1h-2zm2 0h1v1h-1zm41 0h3v1h-3zm3 0h1v2h-1zm9 0h2v2h-2zm26 0h4v1h-4zm4 0h1v1h-1zm-84 1h11v1H99zm11 0h1v1h-1zm16 0h2v2h-2zm2 0h1v1h-1z"/><path d="M142 177h13v1h-13zm39 0h11v1h-11zm11 0h1v1h-1zm-150 1h4v1h-4zm4 0h1v1h-1zm16 0h1v1h-1zm1 0h1v1h-1zm11 0h2v1h-2zm2 0h1v1h-1zm10 0h2v1h-2zm2 0h1v1h-1zm14 0h8v1h-8zm8 0h1v1h-1zm15 0h2v2h-2zm19 0h11v1h-11zm11 0h1v1h-1zm10 0h1v1h-1zm1 0h1v1h-1zm-39 1h1v1h-1zm36 0h1v1h-1zm-39 1h2v2h-2zm2 0h1v1h-1zm-3 2h2v1h-2zm2 0h1v1h-1zm-2 1h1v1h-1zm1 0h1v1h-1z"/></g><path d="M153 48h1v1h-1zm-15 4h1v1h-1zm18 1h1v1h-1zm2 4h1v1h-1zm-15 2h1v1h-1zm2 4h1v1h-1zm-19 13h1v1h-1zm-7 5h1v1h-1zm46 0h1v1h-1zm-28 5h1v1h-1zm-24 1h1v1h-1zm22 0h1v1h-1zm31 2h1v1h-1zm-14 8h1v2h-1zm0 2h1v1h-1zm0 3h1v3h-1zm0 3h1v1h-1zm14 7h1v1h-1zm-66 5h1v1h-1zm51 1h1v1h-1zm14 3h1v1h-1zm-15 4h1v1h-1zm14 2h1v1h-1zm-1 5h1v1h-1zm-88 3h1v1h-1zm87 1h1v1h-1z" fill="#e7f0fd"/><path d="M62 69h12v2H62zm12 0h1v3h-1zm-13 2h13v1H61zm1 1h5v1h-5zm5 0h7v1h-7zm7 0h1v1h-1zm38 19h1v1h-1zm-2 35h1v1h-1zm0 7h1v1h-1z" fill="#2fdbe3"/><path d="M73 78h1v1h-1zm-1 6h1v1h-1zm-15 8h1v1h-1zm0 1h1v1h-1zm14 1h1v1h-1zm0 1h1v1h-1zm0 12h1v1h-1zm-14 2h1v1h-1z" fill="#c8f0f9"/><path d="M57 91h1v1h-1zm14 5h1v2h-1zm0 2h1v8h-1zm48 5h1v1h-1zm-48 3h1v1h-1zm-14 4h1v1h-1zm0 1h1v1h-1zm15 7h1v1h-1zm-14 2h1v1h-1zm15 5h1v1h-1z" fill="#d9f2fc"/><path d="M115 95h1v1h-1zm3 6h1v1h-1zm-46 23h1v6h-1zm-12 1h1v1h-1zm0 1h12v1H60zm1 1h11v1H61zm0 1h11v1H61zm12 1h1v1h-1zm-1 1h1v1h-1zm-11 3h1v1h-1z" fill="#24b8f9"/><g fill="#26bef5"><path d="M117 99h1v1h-1zm-59 13h1v2h-1zm0 2h1v1h-1zm1 0h1v3h-1zm11 0h1v5h-1z"/><path d="M60 115h11v4H60zm11 0h1v1h-1z"/><path d="M59 117h11v1H59zm1 2h10v1H60zm10 0h1v1h-1zm39 0h1v1h-1zm-50 4h1v1h-1z"/></g><path d="M108 114h1v1h-1zm-49 7h1v1h-1zm0 1h1v1h-1zm12 0h1v3h-1zm-11 1h1v1h-1zm0 1h11v1H60zm1 1h10v1H61zm10 0h1v1h-1z" fill="#24b9f8"/><path d="M75 42h1v1h-1zm6 2h1v1h-1zm-13 8h1v1h-1z" fill="#9cf5e9"/><path d="M63 65h13v2H63zm13 0h1v1h-1zm0 1h1v1h-1zm-14 1h13v1H62zm13 0h1v1h-1zm-13 1h5v1h-5zm5 0h8v1h-8zm8 0h1v1h-1zm32 41h1v1h-1zm3 25h1v1h-1z" fill="#30dee1"/><path d="M60 75h13v2H60zm13 0h1v1h-1zm-13 2h12v1H60zm12 0h1v1h-1zm-12 1h1v1h-1zm58 24h1v1h-1zm-8 26h1v3h-1zm0 3h1v1h-1z" fill="#2ed8e5"/><path d="M58 85h1v1h-1zm13 4h1v1h-1zm0 1h1v1h-1zm33 13h1v1h-1z" fill="#7cdfef"/><path d="M57 108h1v1h-1zm14 0h1v1h-1zm-13 11h1v1h-1zm14 0h1v1h-1zm-13 7h1v1h-1zm14 0h1v1h-1zm-13 5h1v1h-1zm14 0h1v1h-1zm-13 4h1v1h-1zm14 1h1v1h-1z" fill="#bce5fd"/><path d="M117 161h1v1h-1zm-28 3h1v1h-1zm6 0h1v1h-1zm56 0h1v1h-1zm-51 1h1v1h-1zm-58 3h1v1h-1zm126 0h1v11h-1zm-117 2h1v1h-1zm76 0h1v1h-1zm-28 2h1v1h-1zm24 7h1v1h-1zm45 0h1v1h-1z" fill="#939393"/><path d="M32 154h1v2h-1zm24 1h1v1h-1zm-24 1h1v1h-1zm4 0h1v1h-1zm16 1h1v1h-1zm-18 2h1v1h-1zm4 2h1v1h-1zm23 0h1v17h-1zm3 0h1v17h-1zm43 0h1v1h-1zm14 0h1v1h-1zm48 0h1v1h-1zm-119 1h1v1h-1zm3 0h1v1h-1zm33 0h1v1h-1zm68 0h1v1h-1zm27 0h1v1h-1zm-84 1h1v1h-1zm25 0h1v1h-1zm43 0h1v1h-1zm1 0h1v1h-1zm-130 1h1v1h-1zm84 0h1v1h-1zm49 0h1v1h-1zm1 0h1v1h-1zm-17 1h1v1h-1zm24 0h1v1h-1zm-137 1h1v1h-1zm72 0h1v1h-1zm9 0h1v1h-1zm13 0h1v1h-1zm55 0h1v7h-1zm-141 1h1v1h-1zm3 0h1v1h-1zm92 0h8v1h-8zm8 0h1v2h-1zm16 0h1v1h-1zm12 0h1v1h-1zm-81 1h1v1h-1zm35 0h1v1h-1zm31 0h1v10h-1zm-65 1h1v1h-1zm47 0h5v1h-5zm5 0h1v1h-1zm-19 1h1v1h-1zm-90 1h1v1h-1zm81 0h1v1h-1zm4 0h1v1h-1zm-81 1h1v1h-1zm3 0h1v1h-1zm46 0h1v1h-1zm44 0h1v1h-1zm-96 1h1v1h-1zm82 0h1v1h-1zm64 0h1v1h-1zm-9 1h1v1h-1zm-40 1h1v1h-1zm13 0h1v1h-1zm-112 1h1v1h-1zm60 0h1v2h-1zm25 0h1v1h-1zm26 0h1v1h-1zm32 0h4v1h-4zm4 0h1v1h-1zm-8 1h1v1h-1zm-119 1h1v1h-1zm3 0h1v1h-1zm37 0h1v1h-1zm23 0h1v1h-1zm19 0h1v1h-1zm21 0h1v1h-1zm-62 1h1v1h-1zm26 0h1v1h-1zm-2 2h1v1h-1zm-4 2h1v1h-1zm3 0h1v1h-1z" fill="#2d2d2d"/><path d="M146 41h1v1h-1zm-1 1h1v1h-1zm3 1h1v1h-1zm1 1h1v1h-1zm-9 2h1v1h-1zm-1 1h1v1h-1zm13 1h1v1h-1zm-12 5h1v1h-1zm15 0h1v1h-1zm1 2h1v1h-1zm1 2h1v1h-1zm-13 2h1v1h-1zm14 0h1v1h-1zm-12 4h1v1h-1zm2 5h1v1h-1zm-14 5h1v1h-1zm-8 4h1v1h-1zm-3 2h1v1h-1zm28 0h1v1h-1zm-14 1h1v1h-1zm27 0h1v1h-1zm-46 3h1v1h-1zm-1 1h1v1h-1zm-1 1h1v1h-1zm21 0h1v1h-1zm-22 1h1v1h-1zm20 0h1v1h-1zm-21 1h1v1h-1zm16 2h1v1h-1zm-9 9h1v1h-1zm32 2h1v1h-1zm-34 1h1v1h-1zm34 0h1v1h-1zm-51 10h1v1h-1zm63 2h1v1h-1zm-1 9h1v1h-1zm-64 6h1v3h-1zm50 2h1v1h-1zm-50 1h1v1h-1zm61 5h1v1h-1zm-60 1h7v1h-7zm7 0h1v1h-1zm41 0h11v1h-11zm11 0h1v1h-1z" fill="#0075f1"/><path d="M76 42h2v1h-2zm2 0h1v1h-1zm-3 1h1v1h-1zm4 0h1v1h-1zm-5 1h1v1h-1zm6 0h1v1h-1zm1 1h1v1h-1z" fill="#1aecd5"/><path d="M147 42h1v1h-1zm-3 1h1v1h-1zm-3 2h1v1h-1zm10 2h1v1h-1zm-13 1h1v1h-1zm-1 1h1v1h-1zm16 1h1v1h-1zm1 1h1v1h-1zm-15 1h1v1h-1zm2 2h1v1h-1zm1 2h1v1h-1zm1 1h1v1h-1zm2 4h1v1h-1zm14 1h1v1h-1zm-12 3h1v1h-1zm14 2h1v1h-1zm0 1h1v1h-1zm-12 2h1v1h-1zm0 1h1v1h-1zm13 0h1v1h-1zm0 1h1v1h-1zm-30 2h1v1h-1zm18 0h1v1h-1zm-20 1h1v1h-1zm20 0h1v1h-1zm13 0h1v1h-1zm-35 1h1v1h-1zm8 0h1v1h-1zm27 0h1v1h-1zm-27 1h1v1h-1zm15 1h1v1h-1zm-29 2h1v1h-1zm15 1h1v1h-1zm27 0h1v1h-1zm-45 1h1v1h-1zm45 0h1v1h-1zm-12 1h1v2h-1zm0 2h1v1h-1zm-19 2h1v1h-1zm32 1h1v5h-1zm-51 4h1v1h-1zm12 0h1v1h-1zm27 0h1v7h-1zm-28 1h1v1h-1zm40 0h1v1h-1zm-50 1h1v1h-1zm9 0h1v1h-1zm-4 5h1v1h-1zm33 0h1v1h-1zm0 3h1v8h-1zm-48 5h1v1h-1zm1 2h1v1h-1zm59 0h1v3h-1zm-12 1h1v1h-1zm-51 2h1v1h-1zm5 0h1v1h-1zm58 0h1v1h-1zm-58 1h1v1h-1zm-6 3h1v3h-1zm7 1h1v1h-1zm44 0h1v3h-1zm-44 1h1v1h-1zm-7 1h1v1h-1zm51 1h1v1h-1zm12 0h1v1h-1zm0 1h1v1h-1zm-13 3h1v2h-1zm-42 1h1v10h-1zm42 1h1v1h-1zm12 0h1v2h-1zm-63 1h1v1h-1zm63 1h1v1h-1zm-13 3h1v1h-1zm12 0h1v1h-1zm-62 1h1v1h-1zm62 0h1v1h-1zm-53 3h1v1h-1zm40 0h1v1h-1zm12 0h1v1h-1zm-12 1h1v1h-1z" fill="#0077f1"/><path d="M85 52h1v1h-1zM63 62h1v1h-1zm15 1h1v1h-1zm-17 5h1v1h-1zm27 5h1v1h-1zm3 0h1v1h-1zm2 1h1v1h-1zm-34 2h1v1h-1zm14 3h1v1h-1zm-1 6h1v1h-1zm19 4h1v1h-1zm-34 1h1v1h-1zm38 2h1v1h-1zm28 28h1v1h-1z" fill="#e2fafa"/><path d="M106 108h1v1h-1zm1 3h1v1h-1zm1 4h1v1h-1zm1 6h1v1h-1z" fill="#279bed"/><path d="M189 151h4v1h-4zm4 0h1v1h-1zm-156 3h1v1h-1zm96 5h1v1h-1zm9 0h1v1h-1zm10 0h1v1h-1zm18 0h1v1h-1zm-73 2h1v1h-1zm58 0h1v1h-1zm11 0h1v1h-1zm-77 2h1v1h-1zm16 1h1v1h-1zm37 0h1v1h-1zm15 0h1v1h-1zm13 1h1v1h-1zm-29 2h1v1h-1zm-105 1h1v1h-1zm104 0h1v1h-1zm-19 1h1v1h-1zm6 0h1v1h-1zm-13 3h1v1h-1zm-76 1h1v1h-1zm106 0h1v1h-1zm-13 2h1v1h-1zm-82 1h1v1h-1zm-9 2h1v1h-1zm59 1h1v1h-1z" fill="#f5f5f5"/><path d="M32 153h2v1h-2zm2 0h1v1h-1zm20 0h2v1h-2zm2 0h1v1h-1zm-3 1h1v1h-1zm-20 3h1v1h-1zm4 1h1v1h-1zm18 0h1v1h-1zm-4 1h1v1h-1zm50 1h1v1h-1zm-27 1h10v1H74zm10 0h1v1h-1zm25 0h1v1h-1zm73 0h1v1h-1zm-147 1h1v1h-1zm62 0h1v1h-1zm21 0h1v1h-1zm15 0h1v1h-1zm33 0h1v1h-1zm1 0h1v1h-1zm-128 1h1v1h-1zm112 0h1v1h-1zm-102 1h1v1h-1zm34 0h1v1h-1zm5 0h1v1h-1zm24 0h1v1h-1zm20 0h1v1h-1zm33 0h1v1h-1zm-113 1h1v1h-1zm33 1h1v1h-1zm46 0h1v1h-1zm22 0h1v1h-1zm-55 1h1v1h-1zm-57 1h1v1h-1zm81 0h1v1h-1zm8 0h1v1h-1zm11 0h1v1h-1zm1 0h1v1h-1zm25 0h1v10h-1zm-120 1h1v1h-1zm4 0h1v1h-1zm-1 1h1v1h-1zm76 0h1v1h-1zm3 0h1v1h-1zm15 0h1v1h-1zm1 0h1v1h-1zm-51 1h1v1h-1zm5 0h1v1h-1zm-1 1h1v1h-1zm32 2h1v1h-1zm13 0h1v1h-1zm3 2h5v1h-5zm5 0h1v1h-1zm-104 1h1v1h-1zm82 0h1v1h-1zm38 1h1v1h-1zm-124 1h2v1h-2zm2 0h1v1h-1z" fill="#292929"/><path d="M36 155h1v1h-1zm16 0h1v1h-1zm0 1h1v1h-1zm-14 4h1v1h-1zm12 0h1v1h-1zm121 0h1v1h-1zm-121 1h1v1h-1zm58 0h1v1h-1zm10 0h1v1h-1zm19 0h1v1h-1zm16 0h1v1h-1zm30 0h5v1h-5zm5 0h1v1h-1zm-115 1h1v16h-1zm64 0h1v1h-1zm43 0h1v1h-1zm-127 1h1v1h-1zm51 0h2v1h-2zm2 0h1v1h-1zm13 0h1v1h-1zm36 0h1v1h-1zm16 0h1v1h-1zm-131 1h1v1h-1zm38 0h1v1h-1zm18 0h1v1h-1zm4 0h1v1h-1zm7 0h1v1h-1zm45 0h1v1h-1zm-112 1h1v1h-1zm37 0h1v1h-1zm31 0h1v1h-1zm4 0h1v1h-1zm44 0h1v13h-1zm-108 1h1v1h-1zm47 0h1v1h-1zm14 0h1v1h-1zm15 0h1v1h-1zm40 0h1v1h-1zm16 0h1v1h-1zm-143 1h1v1h-1zm88 0h1v1h-1zm51 0h1v4h-1zm-125 1h1v1h-1zm74 0h1v1h-1zm54 0h1v3h-1zm-137 1h1v1h-1zm52 0h1v1h-1zm-52 1h1v1h-1zm81 0h1v1h-1zm-77 1h1v1h-1zm54 0h12v1h-12zm12 0h1v1h-1zm41 0h1v3h-1zm23 0h1v1h-1zm3 0h1v1h-1zm-140 1h1v1h-1zm56 1h1v1h-1zm0 1h1v1h-1zm44 0h1v1h-1zm14 0h1v1h-1zm24 0h1v1h-1zm-129 1h1v1h-1zm96 0h1v1h-1zm-47 1h1v1h-1zm5 0h1v1h-1zm27 0h1v1h-1zm-88 1h1v1h-1zm70 0h1v1h-1zm30 0h1v1h-1zm-68 1h1v1h-1zm27 0h1v1h-1zm11 0h1v1h-1zm17 0h1v1h-1zm28 0h1v1h-1zm26 0h10v1h-10zm10 0h1v1h-1zm-146 1h1v1h-1zm78 0h1v1h-1z" fill="#212121"/><path d="M56 157h1v1h-1zm-2 3h1v1h-1zm46 1h1v1h-1zm-2 1h1v1h-1zm3 1h1v1h-1zm81 1h1v1h-1zm-87 3h1v1h-1zm69 0h1v1h-1zm-126 2h1v1h-1zm62 0h8v1h-8zm8 0h1v1h-1zm33 0h1v1h-1zm-13 2h1v1h-1zm12 0h1v1h-1zm3 0h1v1h-1zm-12 1h1v1h-1zm48 0h1v1h-1zm-134 1h1v1h-1zm53 0h1v1h-1zm-58 1h1v1h-1zm86 1h1v1h-1zm19 1h1v1h-1zm-22 5h1v1h-1z" fill="#2a2a2a"/><g fill="#fff"><path d="M0 0h224v39H0zm224 0h1v224h-1zM0 39h224v1H0zm0 1h145v1H0zm145 0h79v1h-79zM0 41h75v1H0zm75 0h1v1h-1zm3 0h66v1H78zm66 0h1v1h-1zm4 0h76v1h-76zM0 42h74v1H0zm74 0h1v1h-1zm6 0h63v1H80zm63 0h1v1h-1zm6 0h75v1h-75zM0 43h73v2H0zm73 0h1v1h-1zm8 0h61v1H81zm61 0h1v1h-1zm8 0h74v1h-74zm-68 1h58v1H82zm58 0h1v1h-1zm11 0h73v1h-73zM0 45h72v1H0zm72 0h1v1h-1zm11 0h56v1H83zm56 0h1v1h-1zm13 0h72v1h-72zM0 46h71v1H0zm71 0h1v1h-1zm13 0h54v1H84zm54 0h1v1h-1zm14 0h72v1h-72zM0 47h70v2H0zm70 0h1v1h-1zm16 0h51v1H86zm51 0h1v1h-1zm16 0h71v1h-71zm-66 1h49v1H87zm49 0h1v1h-1zm18 0h70v1h-70zM0 49h69v2H0zm69 0h1v1h-1zm19 0h47v22H88zm47 0h1v22h-1zm19 0h70v1h-70zm1 1h69v1h-69zM0 51h68v1H0zm68 0h1v1h-1z"/><path d="M87 51h49v20H87zm49 0h1v22h-1zm20 0h68v1h-68zM0 52h67v2H0zm67 0h1v1h-1z"/><path d="M86 52h51v19H86zm51 0h1v24h-1zm19 0h68v1h-68z"/><path d="M85 53h53v18H85zm53 0h1v26h-1zm19 0h67v1h-67zM0 54h66v2H0zm66 0h1v1h-1z"/><path d="M84 54h55v17H84zm55 0h1v104h-1zm18 0h67v1h-67z"/><path d="M83 55h57v16H83zm57 0h1v112h-1zm18 0h66v1h-66zM0 56h65v3H0zm65 0h1v1h-1zm93 0h66v1h-66z"/><path d="M82 57h59v14H82zm59 0h1v109h-1zm18 0h65v2h-65z"/><path d="M81 58h61v13H81zm61 0h1v100h-1zM0 59h64v2H0zm64 0h1v1h-1zm95 0h65v1h-65z"/><path d="M80 60h63v11H80zm63 0h1v98h-1zm17 0h64v1h-64zM0 61h63v3H0zm63 0h1v1h-1zm97 0h64v1h-64z"/><path d="M79 62h65v9H79zm65 0h1v96h-1zm17 0h63v2h-63zM0 64h62v3H0zm62 0h1v1h-1z"/><path d="M78 64h67v7H78zm67 0h1v94h-1zm16 0h63v1h-63zm1 1h62v2h-62z"/><path d="M77 66h69v5H77zm69 0h1v92h-1zM0 67h61v4H0zm61 0h1v1h-1zm101 0h62v1h-62zm1 1h61v2h-61z"/><path d="M76 69h71v2H76zm71 0h1v89h-1zm16 1h61v1h-61zM0 71h60v4H0zm60 0h1v1h-1zm16 0h71v1H76zm88 0h60v4h-60zm-89 1h58v1H75zm58 0h1v1h-1zm15 0h1v62h-1zm-73 1h12v5H75zm12 0h1v2h-1zm5 0h39v1H92zm39 0h1v1h-1z"/><path d="M136 73h12v1h-12zm-42 1h35v1H94zm35 0h1v1h-1zM0 75h59v5H0zm59 0h1v1h-1zm15 0h13v3H74zm13 0h1v1h-1zm9 0h31v1H96zm31 0h1v1h-1zm22 0h1v55h-1zm15 0h60v1h-60zm-67 1h28v1H97zm28 0h1v1h-1zm12 0h12v1h-12zm28 0h59v4h-59zm-66 1h25v1H99zm25 0h1v1h-1zm-50 1h12v3H74zm12 0h1v1h-1zm14 0h22v1h-22zm22 0h1v1h-1zm-20 1h19v1h-19zm19 0h1v1h-1zm17 0h11v1h-11zM0 80h58v8H0zm58 0h1v1h-1z"/><path d="M73 80h12v44H73zm30 0h17v1h-17zm17 0h1v1h-1zm30 0h1v44h-1zm15 0h59v1h-59zm-80 1h1v1h-1zm19 0h14v1h-14zm14 0h1v1h-1zm48 0h58v7h-58zm-61 1h12v1h-12zm12 0h1v1h-1zm-11 1h10v1h-10zm10 0h1v1h-1zm-9 1h8v1h-8zm8 0h1v1h-1zm-7 1h6v1h-6zm6 0h1v1h-1z"/><path d="M72 86h13v30H72zm13 0h1v73h-1zm24 0h4v1h-4zm4 0h1v1h-1zm25 0h13v38h-13zm13 0h1v30h-1zm-65 1h1v73h-1zm1 0h1v73h-1zm23 0h2v1h-2zm2 0h1v1h-1z"/><path d="M136 87h15v37h-15zM0 88h57v63H0zm57 0h1v1h-1zm31 0h1v73h-1zm1 0h1v74h-1zm22 0h1v1h-1zm1 0h1v1h-1z"/><path d="M134 88h17v36h-17zm32 0h58v1h-58zm-76 1h1v135h-1z"/><path d="M132 89h19v35h-19zm35 0h57v61h-57zm-76 1h1v134h-1zm1 0h1v134h-1z"/><path d="M131 90h20v34h-20zm-38 1h1v133h-1z"/><path d="M130 91h21v33h-21zm-36 1h1v73h-1z"/><path d="M128 92h23v32h-23zm-33 1h1v70h-1z"/><path d="M127 93h24v31h-24zm-31 1h1v67h-1z"/><path d="M126 94h25v30h-25zm-29 1h1v65h-1z"/><path d="M125 95h26v29h-26zm-27 1h1v64h-1z"/><path d="M124 96h27v28h-27zm-25 1h1v62h-1zm1 1h1v18h-1z"/><path d="M123 98h28v21h-28zm-22 1h1v12h-1z"/><path d="M122 99h29v14h-29z"/><path d="M121 100h30v8h-30zm-19 1h1v6h-1zm1 1h1v2h-1z"/><path d="M120 102h31v3h-31zm-17 2h1v1h-1zm17 1h31v1h-31zm-18 2h1v1h-1zm19 1h30v1h-30zm-20 3h1v1h-1zm-44 2h1v38h-1zm65 0h29v1h-29zm44 1h58v36h-58zm-94 2h28v1H72zm28 0h1v1h-1zm51 0h1v1h-1zm-28 3h27v1h-27zm-65 3h1v29h-1z"/><path d="M165 122h59v28h-59zm-92 2h26v1H73zm51 0h26v6h-26zm26 0h1v1h-1zm-76 1h25v4H74zm-15 3h1v96h-1z"/><path d="M164 128h60v22h-60zm-90 1h25v1H74zm1 1h24v4H75zm49 0h25v4h-25zm25 0h1v1h-1zm-89 3h1v25h-1z"/><path d="M163 133h61v17h-61zm-88 1h24v1H75zm49 0h24v24h-24zm24 0h1v1h-1zm-72 1h23v24H76zm-15 2h1v21h-1z"/><path d="M162 137h62v13h-62zm-100 1h47v20H62zm47 0h1v22h-1z"/><path d="M114 138h110v12H114z"/><path d="M110 139h114v11H110zm0 11h114v1H110zM0 151h188v1H0zm188 0h1v9h-1zm6 0h30v73h-30zM0 152h29v72H0zm29 0h1v72h-1zm8 0h15v1H37zm15 0h1v1h-1zm58 0h78v6h-78zm-73 1h14v1H37zm14 0h1v2h-1zm-21 1h1v70h-1zm8 0h13v2H38zm13 1h1v1h-1z"/><path d="M58 155h130v3H58zm-27 1h1v68h-1zm7 0h12v1H38zm12 0h1v1h-1zm-11 1h11v2H39zm11 0h1v1h-1z"/><path d="M57 157h131v1H57zm0 1h131v1H57zm-25 1h1v65h-1zm7 0h10v1H39zm10 0h1v1h-1zm8 0h2v65h-2zm9 0h35v1H66zm35 0h1v1h-1zm5 0h9v1h-9zm9 0h1v65h-1zm7 0h10v1h-10zm10 0h1v1h-1zm21 0h16v1h-16zm16 0h1v1h-1zm5 0h14v1h-14zm-134 1h9v1h-9zm9 0h1v1h-1z"/><path d="M56 160h3v64h-3zm10 0h5v64h-5zm5 0h1v64h-1zm15 0h12v1H86zm12 0h1v1h-1zm11 0h6v1h-6zm14 0h9v1h-9zm9 0h1v1h-1zm22 0h13v1h-13zm13 0h1v1h-1zm7 0h14v1h-14zm14 0h1v1h-1zm-155 1h1v63h-1zm7 0h8v1h-8zm8 0h1v1h-1zm40 0h8v1h-8zm8 0h1v1h-1zm15 0h5v1h-5zm5 0h1v63h-1zm7 0h8v1h-8zm8 0h1v1h-1zm8 0h2v6h-2zm17 0h9v1h-9zm9 0h1v1h-1zm9 0h5v1h-5zm5 0h1v1h-1zm-138 1h7v2h-7zm7 0h1v1h-1z"/><path d="M55 162h4v62h-4zm34 0h6v1h-6zm23 0h5v1h-5zm5 0h1v62h-1zm7 0h7v1h-7zm7 0h1v1h-1zm7 0h3v5h-3zm18 0h8v1h-8zm8 0h1v1h-1zm10 0h3v1h-3zm3 0h1v1h-1zm-82 1h1v1h-1zm18 0h4v1h-4zm11 0h6v1h-6zm6 0h1v1h-1zm27 0h7v1h-7zm7 0h1v1h-1zm10 0h2v2h-2zm2 0h1v1h-1zm-142 1h1v60h-1zm7 0h6v1h-6zm6 0h1v1h-1z"/><path d="M54 164h5v60h-5zm49 0h1v3h-1zm1 0h1v3h-1zm9 0h5v1h-5zm5 0h1v60h-1zm7 0h5v1h-5zm5 0h1v1h-1zm7 0h4v3h-4zm21 0h5v60h-5zm5 0h1v1h-1zm9 0h3v60h-3zm-130 1h5v1h-5zm5 0h1v1h-1zm47 0h1v1h-1z"/><path d="M101 165h5v2h-5zm5 0h1v2h-1zm8 0h4v2h-4zm11 0h4v1h-4zm4 0h1v1h-1zm13 0h9v1h-9zm9 0h1v1h-1zm20 0h4v59h-4zm4 0h1v1h-1zm-140 1h1v58h-1zm7 0h4v1h-4zm4 0h1v1h-1zm33 0h4v58h-4zm4 0h1v58h-1z"/><path d="M100 166h7v1h-7zm7 0h1v1h-1zm12 0h1v58h-1zm7 0h3v1h-3zm3 0h1v1h-1zm7 0h15v1h-15zm15 0h1v1h-1zm19 0h4v58h-4zm12 0h6v7h-6zm6 0h1v8h-1zm-145 1h3v2h-3zm3 0h1v1h-1zm7 0h6v57h-6zm47 0h8v1h-8zm8 0h1v1h-1zm6 0h5v1h-5zm12 0h2v1h-2zm2 0h1v1h-1zm8 0h4v2h-4zm4 0h1v1h-1z"/><path d="M169 167h5v57h-5zm12 0h7v5h-7zm-61 1h1v15h-1zm7 0h1v1h-1zm1 0h1v1h-1zm7 0h4v56h-4zm-99 1h1v55h-1zm7 0h2v1h-2zm2 0h1v1h-1zm7 0h7v55h-7zm87 0h1v1h-1zm-95 1h1v1h-1zm1 0h1v1h-1zm76 0h1v11h-1z"/><path d="M134 170h4v54h-4zm-97 1h1v53h-1zm7 0h1v1h-1zm78 0h1v8h-1zm23 0h6v3h-6zm6 0h1v3h-1zm-100 1h8v52h-8z"/><path d="M133 172h5v52h-5zm48 0h7v1h-7zm-81 1h23v1h-23zm23 0h1v5h-1zm52 0h1v51h-1zm7 0h6v1h-6zm-144 1h1v50h-1zm12 0h9v50h-9zm44 0h1v50h-1zm7 0h22v1h-22z"/><path d="M132 174h6v50h-6zm13 0h6v1h-6zm6 0h1v1h-1zm32 0h5v1h-5zm5 0h1v1h-1zm-75 1h11v3h-11zm11 0h1v1h-1zm52 0h1v49h-1zm-137 1h1v48h-1zm56 0h1v48h-1zm29 0h1v1h-1z"/><path d="M131 176h7v48h-7zm-82 1h10v47H49zm47 0h1v47h-1z"/><path d="M130 177h9v47h-9zm9 0h1v47h-1zm38 0h1v47h-1zm-80 1h1v46h-1zm16 0h10v1h-10zm10 0h1v1h-1zm17 0h1v46h-1zm38 0h1v46h-1zm-138 1h1v45h-1zm8 0h11v45H48zm50 0h1v45h-1zm15 0h9v2h-9zm9 0h1v1h-1z"/><path d="M129 179h12v45h-12zm12 0h1v45h-1zm38 0h1v45h-1zm1 0h1v45h-1zm-120 1h61v3H60z"/><path d="M142 180h82v44h-82zm-101 1h80v2H41zm80 0h1v1h-1z"/><path d="M128 181h96v43h-96zm-87 2h79v41H41zm79 0h1v41h-1z"/><path d="M127 183h97v41h-97z"/><path d="M121 185h103v39H121zM0 224h224v1H0zm224 0h1v1h-1z"/></g><path d="M189 153h1v6h-1zm4 0h1v24h-1zm-4 6h1v1h-1zm-128 1h1v1h-1zm3 0h1v1h-1zm88 0h1v1h-1zm18 0h1v1h-1zm-117 4h1v1h-1zm111 1h1v1h-1zm-112 1h1v1h-1zm37 0h1v1h-1zm-48 1h1v1h-1zm53 3h1v1h-1zm38 1h1v1h-1zm-89 1h1v1h-1zm96 1h1v1h-1zm1 3h1v1h-1zm53 1h1v1h-1zm-12 1h1v1h-1zm-78 1h1v1h-1zm41 0h1v1h-1zm-22 5h2v1h-2zm2 0h1v1h-1z" fill="#0f0f0f"/><path d="M32 158h1v1h-1zm24 1h1v1h-1zm46 0h1v1h-1zm3 0h1v1h-1zm11 0h1v1h-1zm23 0h1v1h-1zm-23 1h1v1h-1zm23 0h1v1h-1zm-7 1h1v1h-1zm-36 1h1v1h-1zm69 0h1v1h-1zm-131 1h1v1h-1zm97 0h1v1h-1zm12 1h7v1h-7zm7 0h1v1h-1zm-71 1h2v1h-2zm2 0h1v1h-1zm26 0h1v1h-1zm23 0h1v1h-1zm33 0h1v1h-1zm25 0h1v1h-1zm-13 1h1v1h-1zm-91 1h1v12h-1zm45 0h1v1h-1zm-15 1h1v3h-1zm14 1h1v1h-1zm-77 2h1v1h-1zm63 0h1v1h-1zm-70 1h1v1h-1zm100 0h1v1h-1zm31 0h1v1h-1zm-43 1h1v1h-1zm49 0h1v1h-1zm-69 2h1v1h-1zm-28 4h1v1h-1zm38 1h1v1h-1z" fill="#efefef"/><path d="M80 43h1v1h-1zm6 5h1v1h-1zm-2 5h1v1h-1zm-7 12h1v1h-1zm10 11h1v1h-1zm11 1h1v1h-1zm-12 2h1v1h-1zm-1 4h1v1h-1zm1 3h1v1h-1zm2 1h1v1h-1zm23 2h1v1h-1zm-17 2h1v1h-1zm29 31h1v1h-1zm0 15h1v1h-1z" fill="#c3f4f4"/><g fill="#30e0df"><path d="M65 60h13v3H65zm13 0h1v1h-1zm0 1h1v1h-1z"/><path d="M64 62h13v2H64zm13 1h1v1h-1zm-14 1h13v1H63zm13 0h1v1h-1zm13 9h1v14h-1zm1 1h1v13h-1zm1 0h1v14h-1z"/><path d="M88 75h5v11h-5zm5 0h1v14h-1zm1 1h1v14h-1zm1 0h1v15h-1zm1 1h1v15h-1zm1 0h1v16h-1z"/><path d="M87 78h11v8H87zm11 0h1v16h-1zm1 1h1v16h-1zm1 0h1v17h-1zm1 1h1v17h-1z"/><path d="M86 81h16v4H86zm16 0h1v18h-1zm1 1h1v18h-1zm1 1h1v19h-1zm1 1h1v19h-1zm1 0h1v20h-1z"/><path d="M86 85h21v1H86zm21 0h1v22h-1zm-20 1h20v1H87z"/><path d="M89 87h19v1H89zm19 0h1v22h-1z"/><path d="M91 88h18v1H91zm18 0h1v25h-1z"/><path d="M92 89h18v1H92zm18 0h1v29h-1zm-16 1h16v1H94z"/><path d="M95 91h16v1H95zm16 0h1v46h-1zm-15 1h15v1H96z"/><path d="M97 93h15v1H97zm15 0h1v44h-1z"/><path d="M98 94h15v1H98zm15 0h1v43h-1zm-14 1h14v1H99z"/><path d="M100 96h15v1h-15zm15 0h1v41h-1zm-14 1h13v1h-13zm13 0h1v40h-1z"/><path d="M102 99h13v1h-13zm1 1h14v1h-14zm14 0h1v37h-1zm-1 1h1v36h-1z"/><path d="M104 102h13v1h-13zm1 1h13v1h-13zm13 0h1v34h-1zm-12 1h12v1h-12zm13 1h1v32h-1z"/><path d="M107 107h12v1h-12zm13 1h1v29h-1zm-12 1h12v1h-12zm13 3h1v25h-1z"/><path d="M109 113h12v1h-12zm1 5h12v1h-12zm12 0h1v19h-1zm-12 6h12v1h-12zm0 1h12v1h-12zm0 10h12v1h-12zm1 2h11v1h-11zm11 0h1v1h-1z"/></g><path d="M75 69h1v1h-1zm-14 1h1v1h-1zm-1 4h1v1h-1zm13 2h1v1h-1zm-14 3h1v1h-1z" fill="#5cdfe9"/><g fill="#2dd4e7"><path d="M61 78h2v6h-2zm2 0h9v4h-9zm9 0h1v2h-1zm-12 1h1v5h-1z"/><path d="M59 80h13v2H59zm13 0h1v1h-1zm-13 2h12v1H59zm12 0h1v1h-1zm-8 1h7v1h-7zm7 0h1v1h-1zm-10 1h5v1h-5zm5 0h5v1h-5zm5 0h1v1h-1z"/></g><path d="M113 92h1v1h-1zm-43 9h1v3h-1zm-12 2h1v1h-1zm0 1h12v1H58zm12 0h1v1h-1zm-11 1h10v1H59zm10 0h1v1h-1zm38 5h1v1h-1z" fill="#29c6f0"/><path d="M144 42h1v1h-1zm4 0h1v1h-1zm-10 5h1v1h-1zm25 26h1v1h-1zm-38 4h1v1h-1zm12 1h1v1h-1zm28 6h1v1h-1zm1 12h1v1h-1zm0 1h1v1h-1zm-45 2h1v1h-1zm45 5h1v1h-1zm0 1h1v1h-1zm-14 7h1v1h-1zm13 6h1v1h-1zm-14 3h1v1h-1zm12 9h1v1h-1z" fill="#8eb6f7"/><path d="M71 110h1v1h-1zm-13 8h1v1h-1zm14 2h1v1h-1zm-13 5h1v1h-1zm1 5h1v1h-1zm14 2h1v1h-1z" fill="#a6dffb"/><path d="M71 116h1v5h-1zm-12 2h1v2h-1zm0 2h12v1H59zm1 1h11v1H60zm11 0h1v1h-1zm-11 1h10v1H60zm10 0h1v1h-1zm-9 1h6v1h-6zm6 0h3v1h-3zm3 0h2v1h-2zm2 0h1v1h-1z" fill="#25bbf7"/><g fill="#23b4fb"><path d="M109 120h1v1h-1zm-49 7h1v1h-1zm0 1h1v1h-1zm1 1h2v3h-2zm2 0h2v7h-2zm2 0h6v7h-6zm6 0h1v7h-1zm2 1h1v6h-1zm-1 1h1v5h-1z"/><path d="M61 132h12v1H61zm1 1h11v1H62zm0 1h12v1H62zm12 0h1v1h-1zm-11 2h10v1H63zm10 0h1v1h-1zm-11 1h1v1h-1z"/></g><path d="M74 43h1v1h-1zm-3 4h1v1h-1zm16 2h1v1h-1zm-18 1h1v1h-1zm-5 10h1v1h-1z" fill="#bef8f0"/><path d="M151 46h1v1h-1zm-15 3h1v1h-1zm5 6h1v1h-1zm2 3h1v1h-1zm6 14h1v1h-1zm-16 1h1v1h-1zm-6 3h1v1h-1zm-15 13h1v1h-1zm51 40h1v1h-1z" fill="#4f94f4"/><path d="M81 57h1v1h-1zm-5 10h1v1h-1zm-15 2h1v1h-1zm14 1h1v1h-1zm-15 3h1v1h-1zm36 3h1v1h-1zm6 4h1v1h-1zm20 35h1v1h-1zm1 9h1v1h-1zm0 1h1v1h-1zm0 9h1v1h-1zm0 1h1v1h-1z" fill="#a0edef"/><path d="M64 61h1v1h-1zm13 3h1v1h-1zm27 18h1v1h-1zm1 1h1v1h-1zm-20 2h1v1h-1zm23 1h1v1h-1zm1 1h1v1h-1zm13 30h1v1h-1z" fill="#5be5e4"/><path d="M58 153h1v1h-1zm-6 1h1v1h-1zm-14 4h1v1h-1zm12 1h1v1h-1zm24 1h10v1H74zm10 0h1v1h-1zm49 0h1v1h-1zm20 0h1v1h-1zm-21 2h1v1h-1zm-92 1h1v1h-1zm116 0h1v1h-1zm-108 1h1v1h-1zm83 0h1v1h-1zm-78 1h1v1h-1zm30 0h1v1h-1zm47 1h1v1h-1zm-9 2h1v1h-1zm8 0h1v1h-1zm-83 1h1v1h-1zm82 1h1v1h-1zm3 4h1v1h-1z" fill="#878787"/><path d="M55 160h1v1h-1zm45 0h1v1h-1zm-65 4h1v1h-1zm66 0h1v1h-1zm-64 5h1v1h-1zm102 2h1v1h-1zm5 0h1v1h-1zm-94 1h1v1h-1zm130 0h1v1h-1zm-79 3h1v1h-1zm24 0h1v1h-1zm27 0h1v1h-1zm-11 3h1v1h-1zm-40 1h1v1h-1zm21 2h1v1h-1z" fill="#737373"/><path d="M189 152h1v1h-1zm4 0h1v1h-1zm-162 1h1v1h-1zm22 0h1v1h-1zm64 7h1v1h-1zm4 0h1v1h-1zm13 0h1v1h-1zm4 0h1v1h-1zm5 0h1v1h-1zm29 0h1v1h-1zm-85 2h1v1h-1zm23 0h1v1h-1zm33 1h1v1h-1zm29 0h1v1h-1zm5 1h1v1h-1zm-64 7h1v1h-1zm-2 5h1v1h-1zm67 0h1v1h-1zm15 2h1v1h-1zm-132 1h1v1h-1zm3 0h1v1h-1zm9 0h1v1h-1zm4 0h1v1h-1zm8 0h1v1h-1zm4 0h1v1h-1zm22 0h1v1h-1zm45 0h1v1h-1zm8 0h1v1h-1zm3 0h1v1h-1zm-46 5h1v1h-1zm4 0h1v1h-1z"/><path d="M79 42h1v1h-1zm-6 2h1v1h-1zm12 3h1v1h-1zm-15 1h1v1h-1zm17 2h1v1h-1zm-1 1h1v1h-1zm-19 2h1v1h-1zm-1 2h1v1h-1zm16 1h1v1h-1zm-17 1h1v1h-1zm14 4h1v1h-1zm-3 7h1v1h-1zm-1 3h1v1h-1zm20 4h1v1h-1zm-10 7h1v1h-1zm11 11h1v1h-1zm1 1h1v1h-1zm1 1h1v1h-1zm23 14h1v1h-1z" fill="#e8fdfa"/><g fill="#2380f2"><path d="M146 42h1v19h-1z"/><path d="M145 43h2v16h-2zm2 0h1v20h-1z"/><path d="M144 44h4v14h-4zm4 0h1v21h-1z"/><path d="M142 45h7v9h-7zm7 0h1v23h-1z"/><path d="M141 46h8v7h-8z"/><path d="M140 47h10v5h-10zm10 0h1v25h-1z"/><path d="M139 48h12v2h-12zm12 0h1v27h-1z"/><path d="M138 49h14v1h-14zm14 0h1v31h-1zm-14 1h14v1h-14z"/><path d="M138 51h15v1h-15zm15 0h1v36h-1zm-13 1h13v1h-13z"/><path d="M141 53h13v1h-13zm13 0h1v83h-1zm-12 1h12v1h-12z"/><path d="M143 55h12v1h-12zm12 0h1v81h-1zm-12 1h12v1h-12zm13 1h1v79h-1z"/><path d="M144 58h12v1h-12zm1 1h12v1h-12zm12 0h1v77h-1z"/><path d="M146 61h12v1h-12zm12 0h1v75h-1zm-11 2h11v1h-11zm12 1h1v72h-1z"/><path d="M148 65h11v1h-11zm12 2h1v69h-1zm-11 1h11v1h-11zm12 3h1v62h-1z"/><path d="M150 72h11v1h-11zm-17 2h1v12h-1zm1 0h1v11h-1zm28 0h1v55h-1z"/><path d="M131 75h3v11h-3zm20 0h11v1h-11z"/><path d="M129 76h6v9h-6zm6 0h1v9h-1z"/><path d="M128 77h7v8h-7z"/><path d="M126 78h9v7h-9z"/><path d="M125 79h11v6h-11zm11 0h1v5h-1z"/><path d="M123 80h13v5h-13zm29 0h11v1h-11zm11 0h1v43h-1z"/><path d="M122 81h14v4h-14z"/><path d="M120 82h16v3h-16z"/><path d="M119 83h17v2h-17z"/><path d="M118 84h20v1h-20zm-1 1h18v1h-18zm18 0h1v1h-1zm-19 1h17v1h-17zm17 0h1v1h-1zm-18 1h17v1h-17zm17 0h1v1h-1zm21 0h11v1h-11zm11 0h1v29h-1zm-49 1h15v1h-15zm15 0h2v1h-2zm2 0h1v1h-1zm-18 1h15v1h-15zm15 0h1v1h-1zm-15 1h14v1h-14zm14 0h1v1h-1zm-14 1h12v1h-12zm12 0h1v1h-1zm-11 1h10v1h-10zm10 0h1v1h-1zm-9 1h8v1h-8zm8 0h1v1h-1zm-8 1h7v1h-7zm7 0h1v1h-1zm-6 1h5v1h-5zm5 0h1v1h-1zm-6 1h5v1h-5zm5 0h1v1h-1zm-3 1h3v1h-3zm3 0h1v1h-1zm-4 1h3v1h-3zm3 0h1v1h-1zm-1 1h1v1h-1zm-15 8h1v29h-1zm1 2h1v27h-1z"/><path d="M103 110h2v26h-2zm3 2h1v24h-1z"/><path d="M102 115h4v21h-4zm51 0h12v1h-12zm12 0h1v1h-1zm-58 1h1v20h-1zm1 0h1v1h-1zm45 0h11v7h-11zm11 0h1v1h-1zm-56 6h1v14h-1z"/><path d="M101 123h7v13h-7zm52 0h10v6h-10zm10 0h1v1h-1z"/><path d="M152 124h10v9h-10zm-52 1h8v1h-8z"/><path d="M151 129h11v4h-11zm11 0h1v1h-1zm-11 4h10v3h-10zm10 0h1v1h-1zm-61 1h8v1h-8z"/><path d="M150 134h10v2h-10zm-49 2h8v1h-8zm8 0h1v1h-1zm41 0h10v1h-10zm10 0h1v1h-1zm-51 1h1v1h-1z"/></g><path d="M150 44h1v1h-1zm-10 1h1v1h-1zm17 10h1v1h-1zm3 7h1v1h-1zm-14 3h1v1h-1zm16 3h1v1h-1zm-28 4h1v1h-1zm15 2h1v1h-1zm15 2h1v1h-1zm-41 2h1v1h-1zm-5 4h1v1h-1zm33 2h1v1h-1zm-37 2h1v1h-1zm52 4h1v1h-1zm-14 5h1v1h-1zm0 1h1v1h-1zm-30 2h1v1h-1zm-2 3h1v1h-1zm32 5h1v1h-1zm-50 2h1v1h-1zm64 3h1v1h-1zm-65 1h1v1h-1zm48 19h1v1h-1z" fill="#d6e4fc"/><path d="M80 59h1v1h-1zm-18 6h1v1h-1zm-2 7h1v1h-1zm14 2h1v1h-1zm27 5h1v1h-1zm-43 3h1v1h-1zm41 14h1v1h-1zm3 4h1v1h-1zm18 6h1v1h-1zm2 8h1v1h-1zm1 7h1v1h-1z" fill="#d8f9f8"/><path d="M163 72h1v1h-1zm-31 1h1v1h-1zm-2 1h1v1h-1zm21 9h1v1h-1zm-35 1h1v1h-1zm50 8h1v1h-1zm-14 1h1v1h-1zm0 16h1v1h-1zm14 1h1v1h-1zm-2 16h1v1h-1zm-1 5h1v1h-1zm-15 5h1v1h-1z" fill="#bcd3fa"/><path d="M72 121h1v1h-1zm-13 3h1v1h-1zm14 3h1v1h-1zm-12 7h1v1h-1z" fill="#85cffd"/><path d="M62 135h1v1h-1zm12 0h1v2h-1zm-12 1h1v1h-1zm1 1h11v1H63zm11 0h1v1h-1z" fill="#00abfd"/><path d="M190 152h2v1h-2zm2 0h1v1h-1zm-135 1h1v1h-1zm0 1h1v1h-1zm-20 3h1v1h-1zm14 1h1v1h-1zm-13 1h1v1h-1zm17 0h1v1h-1zm47 1h1v1h-1zm87 0h1v1h-1zm-116 1h1v1h-1zm26 0h1v1h-1zm34 0h1v1h-1zm35 0h1v1h-1zm-129 1h1v1h-1zm83 0h1v1h-1zm-87 1h1v1h-1zm14 0h1v1h-1zm39 0h1v1h-1zm56 0h5v1h-5zm5 0h1v1h-1zm-70 1h2v1h-2zm2 0h1v1h-1zm75 0h1v1h-1zm-108 1h1v1h-1zm72 0h1v1h-1zm11 0h1v1h-1zm37 1h1v1h-1zm8 0h1v1h-1zm-91 1h1v11h-1zm24 0h1v1h-1zm21 0h1v1h-1zm-93 1h1v1h-1zm10 0h1v1h-1zm66 0h1v2h-1zm20 1h1v1h-1zm-20 1h1v1h-1zm27 0h1v1h-1zm3 2h1v1h-1zm33 0h1v1h-1zm-33 1h1v1h-1zm-18 1h1v1h-1zm-85 1h1v1h-1zm142 0h1v1h-1zm-135 3h1v1h-1zm38 0h1v1h-1zm14 0h1v1h-1zm43 0h1v1h-1zm-20 4h1v1h-1z" fill="#141414"/><path d="M60 160h1v1h-1zm5 0h1v1h-1zm-24 6h1v1h-1zm72 0h1v1h-1zm-61 1h1v1h-1zm128 0h1v1h-1zm-46 1h1v1h-1zm29 0h1v1h-1zm-23 1h1v1h-1zm-14 14h1v1h-1z" fill="#555"/><path d="M86 161h1v1h-1zm68 0h1v1h-1zm1 1h1v1h-1zm-59 1h1v1h-1zm28 2h1v1h-1zm45 0h1v1h-1zm-17 5h1v1h-1zm-114 1h1v1h-1zm11 3h1v1h-1zm132 0h1v1h-1zm-60 9h1v1h-1z" fill="#3b3b3b"/><path d="M76 41h1v1h-1zm6 4h1v1h-1z" fill="#86f3e5"/><path d="M147 41h1v1h-1zm8 11h1v1h-1zm3 6h1v1h-1zm-14 2h1v1h-1zm1 2h1v1h-1zm15 1h1v1h-1zm1 3h1v1h-1zm3 12h1v1h-1zm-28 8h1v1h-1zm-5 3h1v1h-1zm21 0h1v1h-1zm-26 4h1v1h-1zm-1 1h1v1h-1zm41 4h1v5h-1zm0 5h1v1h-1zm-63 3h1v1h-1zm49 7h1v1h-1zm-51 1h1v1h-1zm-1 7h1v1h-1zm50 7h1v1h-1zm-1 5h1v1h-1zm13 1h1v1h-1zm-14 3h1v1h-1z" fill="#7fadf6"/><path d="M143 44h1v1h-1zm7 1h1v1h-1zm0 1h1v1h-1zm4 6h1v1h-1zm1 2h1v1h-1zm-13 1h1v1h-1zm14 1h1v1h-1zm1 2h1v1h-1zm-12 2h1v1h-1zm13 0h1v1h-1zm-12 2h1v1h-1zm13 1h1v1h-1zm-12 1h1v1h-1zm13 0h1v2h-1zm-12 2h1v1h-1zm12 0h1v1h-1zm-12 1h1v1h-1zm1 2h1v1h-1zm12 0h1v1h-1zm0 1h1v1h-1zm-26 3h1v2h-1zm15 0h1v1h-1zm12 0h1v1h-1zm-27 2h1v1h-1zm16 1h1v1h-1zm-24 1h1v1h-1zm24 0h1v1h-1zm12 0h1v2h-1zm-38 1h1v1h-1zm11 0h1v1h-1zm-12 1h1v1h-1zm39 0h1v1h-1zm-42 2h1v1h-1zm31 0h1v1h-1zm-15 1h1v1h-1zm15 0h1v1h-1zm-15 1h1v1h-1zm27 0h1v3h-1zm-28 2h1v1h-1zm-2 1h1v1h-1zm18 0h1v1h-1zm12 0h1v1h-1zm1 1h1v1h-1zm-51 1h1v1h-1zm39 0h1v3h-1zm-40 1h1v2h-1zm16 1h1v1h-1zm-16 1h1v1h-1zm14 0h1v1h-1zm26 0h1v1h-1zm-38 2h1v1h-1zm50 1h1v14h-1zm-49 1h1v1h-1zm7 0h1v1h-1zm-1 1h1v1h-1zm-5 1h1v1h-1zm5 0h1v1h-1zm-4 2h1v1h-1zm0 1h1v1h-1zm1 0h1v1h-1zm-15 4h1v2h-1zm0 2h1v1h-1zm-1 1h1v2h-1zm2 1h1v1h-1zm60 0h1v1h-1zm-62 1h1v1h-1zm3 1h1v1h-1zm0 1h1v1h-1zm47 0h1v3h-1zm-51 2h1v1h-1zm0 1h1v1h-1zm5 0h1v1h-1zm46 0h1v1h-1zm12 0h1v1h-1zm-58 1h1v1h-1zm45 1h1v1h-1zm12 1h1v2h-1zm-56 2h1v2h-1zm56 0h1v1h-1zm-63 1h1v2h-1zm7 1h1v1h-1zm44 0h1v2h-1zm-51 1h1v1h-1zm51 1h1v1h-1zm-43 1h1v1h-1zm54 0h1v1h-1zm0 1h1v1h-1zm-63 1h1v1h-1zm51 1h1v1h-1zm0 1h1v1h-1zm11 2h1v1h-1zm-12 2h1v1h-1zm-50 1h1v1h-1zm50 0h1v1h-1zm11 1h1v1h-1zm0 3h1v1h-1z" fill="#157cf2"/><g fill="#27c1f3"><path d="M116 97h1v1h-1zm-11 8h1v1h-1zm-47 3h1v3h-1zm12 0h1v5h-1zm-11 2h11v3H59z"/><path d="M58 111h12v1H58zm1 2h11v1H59zm11 0h1v1h-1zm-10 1h9v1h-9zm9 0h1v1h-1zm-11 1h1v1h-1z"/></g><g fill="#28c4f1"><path d="M58 105h1v2h-1zm12 0h1v2h-1zm-11 1h11v3H59z"/><path d="M58 107h12v1H58zm12 0h1v1h-1zm-11 2h10v1H59zm10 0h1v1h-1zm2 5h1v1h-1z"/></g><path d="M36 152h1v1h-1zm-6 1h1v1h-1zm22 0h1v1h-1zm6 1h1v1h-1zm-20 3h1v1h-1zm12 1h1v1h-1zm10 1h5v1h-5zm5 0h1v1h-1zm38 0h1v1h-1zm1 0h1v1h-1zm13 0h4v1h-4zm4 0h1v1h-1zm13 0h4v1h-4zm4 0h1v1h-1zm5 0h8v1h-8zm8 0h1v1h-1zm22 0h1v4h-1zm-51 1h1v1h-1zm-35 1h1v1h-1zm-47 1h1v1h-1zm8 1h1v1h-1zm125 0h1v1h-1zm-71 1h1v1h-1zm82 1h3v1h-3zm3 0h1v1h-1zm-134 1h1v1h-1zm25 0h1v13h-1zm91 0h1v1h-1zm-127 1h1v1h-1zm78 0h1v1h-1zm-74 1h1v1h-1zm87 3h1v1h-1zm49 3h1v1h-1zm-79 1h8v1h-8zm8 0h1v1h-1zm-63 3h1v1h-1zm131 0h1v1h-1zm-101 1h1v1h-1zm103 0h1v1h-1zm-140 1h1v1h-1z" fill="#dedede"/><path d="M33 158h1v1h-1zm78 5h1v1h-1zm21 0h1v1h-1zm46 0h1v1h-1zm-89 4h1v11h-1zm24 0h1v1h-1zm8 0h1v1h-1zm8 2h1v1h-1zm-79 2h1v1h-1zm-11 2h1v1h-1zm92 0h1v1h-1zm48 4h1v1h-1zm-90 1h1v1h-1zm-27 1h1v1h-1zm1 0h1v1h-1zm11 0h2v1h-2zm2 0h1v1h-1zm10 0h2v1h-2zm2 0h1v1h-1zm16 0h6v1h-6zm6 0h1v1h-1zm35 0h10v1h-10zm10 0h1v1h-1zm10 0h1v1h-1zm1 0h1v1h-1zm-43 1h1v1h-1z" fill="#0b0b0b"/><path d="M54 162h1v1h-1zm65 2h1v1h-1zm-30 1h1v1h-1zm46 1h1v1h-1zm-41 2h1v1h-1zm53 2h3v1h-3zm3 0h1v1h-1zm33 5h1v1h-1zm-143 1h1v1h-1zm7 3h1v1h-1zm80 2h1v1h-1z" fill="#484848"/><path d="M145 41h1v1h-1zm4 2h1v1h-1zm-10 3h1v1h-1zm15 4h1v1h-1zm-12 7h1v1h-1zm6 13h1v1h-1zm-13 2h1v1h-1zm29 5h1v1h-1zm-12 15h1v1h-1zm14 1h1v1h-1zm0 15h1v1h-1zm0 1h1v1h-1zm-14 1h1v1h-1zm-52 9h1v1h-1zm51 1h1v1h-1zm11 15h1v1h-1z" fill="#b4cefa"/><path d="M59 77h1v1h-1zm-1 6h1v1h-1zm14 0h1v1h-1zm28 14h1v1h-1zm21 13h1v1h-1zm2 13h1v1h-1zm0 13h1v1h-1z" fill="#b8eff4"/><path d="M72 81h1v1h-1zm-14 5h1v1h-1zm13 2h1v1h-1z" fill="#54d8ec"/><g fill="#2cd1e9"><path d="M59 83h1v5h-1zm12 0h1v4h-1zm-11 2h11v3H60z"/><path d="M58 87h13v1H58zm13 0h1v1h-1zm-13 1h12v1H58zm12 0h1v1h-1zm38 25h1v1h-1z"/></g><path d="M51 156h1v1h-1zm120 3h1v1h-1zm-132 1h1v1h-1zm10 1h1v1h-1zm23 0h1v18h-1zm106 1h1v1h-1zm-72 2h1v1h-1zm-65 1h1v1h-1zm95 0h1v1h-1zm-89 1h1v1h-1zm47 0h1v1h-1zm-42 2h1v1h-1zm-9 2h1v1h-1zm57 2h13v1h-13zm13 0h1v1h-1zm10 0h1v1h-1zm-23 2h1v1h-1zm12 3h1v1h-1zm12 0h1v1h-1zm-12 1h1v1h-1zm-40 1h1v1h-1zm110 0h11v1h-11zm11 0h1v1h-1zm-65 1h1v1h-1z" fill="#bababa"/><g fill="#33e9da"><path d="M72 48h12v2H72zm12 0h1v2h-1z"/><path d="M71 49h15v1H71zm15 0h1v1h-1zm-16 1h16v1H70zm16 0h1v1h-1zm-17 1h1v1h-1zm16 0h1v1h-1zm-1 1h1v1h-1z"/></g><path d="M61 72h1v2h-1zm1 1h11v1H62zm11 0h1v1h-1zm-12 1h12v1H61zm12 0h1v1h-1zm41 20h1v1h-1zm-5 23h1v1h-1zm1 10h1v1h-1zm0 5h1v1h-1z" fill="#2ed9e4"/><path d="M74 73h1v1h-1zm-1 4h1v1h-1zm-14 1h1v1h-1zm13 4h1v1h-1zm-14 2h1v1h-1z" fill="#8ee6ef"/><g fill="#2bceeb"><path d="M58 89h2v3h-2zm2 0h6v4h-6zm6 0h4v4h-4zm4 0h1v3h-1z"/><path d="M58 92h12v1H58zm12 0h1v1h-1zm-11 1h10v1H59zm10 0h1v1h-1zm37 14h1v1h-1zm3 11h1v1h-1z"/></g><path d="M72 122h1v1h-1zm1 6h1v1h-1zm-13 1h1v1h-1zm14 4h1v1h-1zm1 4h1v1h-1z" fill="#64c7fb"/><path d="M31 154h1v1h-1zm26 1h1v1h-1zm-24 4h1v1h-1zm74 1h1v1h-1zm62 0h1v1h-1zm-109 1h1v17h-1zm5 0h1v17h-1zm33 0h1v1h-1zm24 0h1v1h-1zm45 0h1v1h-1zm14 0h1v1h-1zm-29 4h1v1h-1zm24 0h1v1h-1zm-56 1h1v1h-1zm48 1h1v1h-1zm-69 1h1v1h-1zm34 2h1v1h-1zm-90 1h1v1h-1zm51 1h1v1h-1zm-50 1h1v1h-1zm95 2h1v1h-1zm-43 1h1v1h-1zm29 0h1v1h-1zm-28 1h1v1h-1zm-37 1h1v1h-1zm5 0h1v1h-1zm78 1h1v1h-1z" fill="#5f5f5f"/><path d="M37 155h1v1h-1zm71 5h1v1h-1zm72 1h1v1h-1zm-69 1h1v1h-1zm-57 1h1v1h-1zm64 0h1v1h-1zm19 0h1v1h-1zm-24 2h1v1h-1zm-5 1h1v1h-1zm17 0h1v1h-1zm27 0h1v1h-1zm5 0h1v13h-1zm6 0h1v1h-1zm18 0h1v1h-1zm-6 2h1v2h-1zm5 0h1v1h-1zm-5 2h1v1h-1zm-130 1h1v1h-1zm107 0h1v3h-1zm28 0h1v1h-1zm-142 1h1v1h-1zm56 1h1v1h-1zm58 1h1v1h-1zm-103 1h1v1h-1zm46 0h1v1h-1zm17 1h1v1h-1zm-72 1h1v1h-1zm138 0h1v1h-1zm-49 1h1v1h-1zm-29 1h1v1h-1zm12 0h1v1h-1zm45 0h1v1h-1z" fill="#adadad"/></svg>